<?xml version="1.0" encoding="UTF-8" standalone="no"?>
<!DOCTYPE svg PUBLIC "-//W3C//DTD SVG 1.1//EN"
 "http://www.w3.org/Graphics/SVG/1.1/DTD/svg11.dtd">
<!-- Generated by graphviz version 2.44.0 (0)
 -->
<!-- Pages: 1 -->
<svg width="394pt" height="583pt"
 viewBox="0.00 0.00 394.00 583.45" xmlns="http://www.w3.org/2000/svg" xmlns:xlink="http://www.w3.org/1999/xlink">
<g id="graph0" class="graph" transform="scale(1 1) rotate(0) translate(4 579.45)">
<polygon fill="white" stroke="transparent" points="-4,4 -4,-579.45 390,-579.45 390,4 -4,4"/>
<!-- &#9679; -->
<g id="node1" class="node">
<title>&#9679;</title>
<ellipse fill="none" stroke="black" cx="182.5" cy="-545.05" rx="30.31" ry="30.31"/>
<text text-anchor="middle" x="182.5" y="-537.55" font-family="Times-Roman" font-size="30.00">●</text>
</g>
<!-- transpose -->
<g id="node5" class="node">
<title>transpose</title>
<polygon fill="#fefeff" stroke="black" points="262,-463.64 103,-463.64 103,-416.64 262,-416.64 262,-463.64"/>
<text text-anchor="middle" x="182.5" y="-450.04" font-family="Times-Roman" font-size="12.00">transpose</text>
<text text-anchor="middle" x="182.5" y="-437.04" font-family="Times-Roman" font-size="12.00">Avg. FLOPs: 1.00e+00</text>
<text text-anchor="middle" x="182.5" y="-424.04" font-family="Times-Roman" font-size="12.00">Avg. Perf: 0.00 FLOPs/ns</text>
</g>
<!-- &#9679;&#45;&gt;transpose -->
<g id="edge1" class="edge">
<title>&#9679;&#45;&gt;transpose</title>
<path fill="none" stroke="#000000" d="M182.5,-514.56C182.5,-501.81 182.5,-486.85 182.5,-473.77"/>
<polygon fill="#000000" stroke="#000000" points="186,-473.76 182.5,-463.76 179,-473.76 186,-473.76"/>
<text text-anchor="middle" x="192" y="-485.44" font-family="Times-Roman" font-size="14.00">10</text>
</g>
<!-- LAPACK.potrf -->
<g id="node2" class="node">
<title>LAPACK.potrf</title>
<polygon fill="#e8e8ff" stroke="black" points="266,-365.64 99,-365.64 99,-318.64 266,-318.64 266,-365.64"/>
<text text-anchor="middle" x="182.5" y="-352.04" font-family="Times-Roman" font-size="12.00">LAPACK.potrf</text>
<text text-anchor="middle" x="182.5" y="-339.04" font-family="Times-Roman" font-size="12.00">Avg. FLOPs: 1.67e+08</text>
<text text-anchor="middle" x="182.5" y="-326.04" font-family="Times-Roman" font-size="12.00">Avg. Perf: 23.55 FLOPs/ns</text>
</g>
<!-- trsm -->
<g id="node6" class="node">
<title>trsm</title>
<polygon fill="#cacaff" stroke="black" points="266,-267.64 99,-267.64 99,-220.64 266,-220.64 266,-267.64"/>
<text text-anchor="middle" x="182.5" y="-254.04" font-family="Times-Roman" font-size="12.00">trsm</text>
<text text-anchor="middle" x="182.5" y="-241.04" font-family="Times-Roman" font-size="12.00">Avg. FLOPs: 5.50e+07</text>
<text text-anchor="middle" x="182.5" y="-228.04" font-family="Times-Roman" font-size="12.00">Avg. Perf: 55.13 FLOPs/ns</text>
</g>
<!-- LAPACK.potrf&#45;&gt;trsm -->
<g id="edge3" class="edge">
<title>LAPACK.potrf&#45;&gt;trsm</title>
<path fill="none" stroke="#000000" d="M182.5,-318.39C182.5,-306.31 182.5,-291.26 182.5,-277.94"/>
<polygon fill="#000000" stroke="#000000" points="186,-277.73 182.5,-267.73 179,-277.73 186,-277.73"/>
<text text-anchor="middle" x="192" y="-289.44" font-family="Times-Roman" font-size="14.00">10</text>
</g>
<!-- trsv -->
<g id="node7" class="node">
<title>trsv</title>
<polygon fill="#fafaff" stroke="black" points="201,-169.64 42,-169.64 42,-122.64 201,-122.64 201,-169.64"/>
<text text-anchor="middle" x="121.5" y="-156.04" font-family="Times-Roman" font-size="12.00">trsv</text>
<text text-anchor="middle" x="121.5" y="-143.04" font-family="Times-Roman" font-size="12.00">Avg. FLOPs: 6.70e+05</text>
<text text-anchor="middle" x="121.5" y="-130.04" font-family="Times-Roman" font-size="12.00">Avg. Perf: 4.25 FLOPs/ns</text>
</g>
<!-- LAPACK.potrf&#45;&gt;trsv -->
<g id="edge6" class="edge">
<title>LAPACK.potrf&#45;&gt;trsv</title>
<path fill="none" stroke="#000000" d="M126.33,-318.49C104.84,-306.74 82.6,-290.05 70.5,-267.64 54.6,-238.19 73.9,-202.72 93.14,-177.92"/>
<polygon fill="#000000" stroke="#000000" points="96.03,-179.91 99.62,-169.94 90.6,-175.5 96.03,-179.91"/>
<text text-anchor="middle" x="80" y="-240.44" font-family="Times-Roman" font-size="14.00">10</text>
</g>
<!-- gemv -->
<g id="node3" class="node">
<title>gemv</title>
<polygon fill="#fdfdff" stroke="black" points="159,-59.32 0,-59.32 0,-12.32 159,-12.32 159,-59.32"/>
<text text-anchor="middle" x="79.5" y="-45.72" font-family="Times-Roman" font-size="12.00">gemv</text>
<text text-anchor="middle" x="79.5" y="-32.72" font-family="Times-Roman" font-size="12.00">Avg. FLOPs: 2.00e+05</text>
<text text-anchor="middle" x="79.5" y="-19.72" font-family="Times-Roman" font-size="12.00">Avg. Perf: 1.41 FLOPs/ns</text>
</g>
<!-- gemv&#45;&gt;trsv -->
<g id="edge10" class="edge">
<title>gemv&#45;&gt;trsv</title>
<path fill="none" stroke="#000000" d="M74.1,-59.43C71.97,-73.08 71.3,-90.51 77.5,-104.64 79.1,-108.28 81.2,-111.74 83.62,-114.98"/>
<polygon fill="#000000" stroke="#000000" points="81.01,-117.32 90.19,-122.61 86.32,-112.75 81.01,-117.32"/>
<text text-anchor="middle" x="87" y="-93.44" font-family="Times-Roman" font-size="14.00">10</text>
</g>
<!-- syrk -->
<g id="node4" class="node">
<title>syrk</title>
<polygon fill="#ececff" stroke="black" points="386,-169.64 219,-169.64 219,-122.64 386,-122.64 386,-169.64"/>
<text text-anchor="middle" x="302.5" y="-156.04" font-family="Times-Roman" font-size="12.00">syrk</text>
<text text-anchor="middle" x="302.5" y="-143.04" font-family="Times-Roman" font-size="12.00">Avg. FLOPs: 1.00e+07</text>
<text text-anchor="middle" x="302.5" y="-130.04" font-family="Times-Roman" font-size="12.00">Avg. Perf: 19.75 FLOPs/ns</text>
</g>
<!-- syrk&#45;&gt;LAPACK.potrf -->
<g id="edge5" class="edge">
<title>syrk&#45;&gt;LAPACK.potrf</title>
<path fill="none" stroke="#000000" d="M301.89,-169.71C300.24,-195.28 294.55,-237.33 275.5,-267.64 264.4,-285.3 247.52,-300.49 231.17,-312.41"/>
<polygon fill="#000000" stroke="#000000" points="228.88,-309.73 222.7,-318.33 232.9,-315.47 228.88,-309.73"/>
<text text-anchor="middle" x="303" y="-240.44" font-family="Times-Roman" font-size="14.00">10</text>
</g>
<!-- transpose&#45;&gt;LAPACK.potrf -->
<g id="edge2" class="edge">
<title>transpose&#45;&gt;LAPACK.potrf</title>
<path fill="none" stroke="#000000" d="M182.5,-416.39C182.5,-404.31 182.5,-389.26 182.5,-375.94"/>
<polygon fill="#000000" stroke="#000000" points="186,-375.73 182.5,-365.73 179,-375.73 186,-375.73"/>
<text text-anchor="middle" x="192" y="-387.44" font-family="Times-Roman" font-size="14.00">10</text>
</g>
<!-- trsm&#45;&gt;syrk -->
<g id="edge4" class="edge">
<title>trsm&#45;&gt;syrk</title>
<path fill="none" stroke="#000000" d="M210.63,-220.63C227.22,-207.37 248.37,-190.44 266.2,-176.18"/>
<polygon fill="#000000" stroke="#000000" points="268.5,-178.82 274.13,-169.84 264.13,-173.35 268.5,-178.82"/>
<text text-anchor="middle" x="259" y="-191.44" font-family="Times-Roman" font-size="14.00">10</text>
</g>
<!-- trsm&#45;&gt;trsv -->
<g id="edge8" class="edge">
<title>trsm&#45;&gt;trsv</title>
<path fill="none" stroke="#000000" d="M173.05,-220.58C168.34,-210.23 162.21,-197.98 155.5,-187.64 153.37,-184.35 151,-181.04 148.54,-177.8"/>
<polygon fill="#000000" stroke="#000000" points="151.26,-175.59 142.3,-169.94 145.78,-179.95 151.26,-175.59"/>
<text text-anchor="middle" x="174" y="-191.44" font-family="Times-Roman" font-size="14.00">10</text>
</g>
<!-- trsv&#45;&gt;gemv -->
<g id="edge9" class="edge">
<title>trsv&#45;&gt;gemv</title>
<path fill="none" stroke="#000000" d="M112.7,-122.43C106.7,-106.98 98.68,-86.3 92.03,-69.13"/>
<polygon fill="#000000" stroke="#000000" points="95.17,-67.56 88.29,-59.5 88.64,-70.09 95.17,-67.56"/>
<text text-anchor="middle" x="115" y="-93.44" font-family="Times-Roman" font-size="14.00">10</text>
</g>
<!-- trsv&#45;&gt;trsm -->
<g id="edge7" class="edge">
<title>trsv&#45;&gt;trsm</title>
<path fill="none" stroke="#000000" d="M124.51,-169.69C126.67,-180.28 130.33,-192.72 136.5,-202.64 138.78,-206.3 141.48,-209.81 144.43,-213.14"/>
<polygon fill="#000000" stroke="#000000" points="142.15,-215.82 151.64,-220.53 147.16,-210.93 142.15,-215.82"/>
<text text-anchor="middle" x="146" y="-191.44" font-family="Times-Roman" font-size="14.00">10</text>
</g>
<!-- &#9632; -->
<g id="node8" class="node">
<title>&#9632;</title>
<ellipse fill="none" stroke="black" cx="212.5" cy="-35.82" rx="31.66" ry="31.66"/>
<ellipse fill="none" stroke="black" cx="212.5" cy="-35.82" rx="35.64" ry="35.64"/>
<text text-anchor="middle" x="212.5" y="-28.32" font-family="Times-Roman" font-size="30.00">■</text>
</g>
<!-- trsv&#45;&gt;&#9632; -->
<g id="edge11" class="edge">
<title>trsv&#45;&gt;&#9632;</title>
<path fill="none" stroke="#000000" d="M140.58,-122.43C152.94,-107.72 169.28,-88.26 183.27,-71.62"/>
<polygon fill="#000000" stroke="#000000" points="186.16,-73.61 189.91,-63.71 180.8,-69.11 186.16,-73.61"/>
<text text-anchor="middle" x="177" y="-93.44" font-family="Times-Roman" font-size="14.00">10</text>
</g>
</g>
</svg>
