<?xml version="1.0" encoding="UTF-8" standalone="no"?>
<!DOCTYPE svg PUBLIC "-//W3C//DTD SVG 1.1//EN"
 "http://www.w3.org/Graphics/SVG/1.1/DTD/svg11.dtd">
<!-- Generated by graphviz version 2.44.0 (0)
 -->
<!-- Pages: 1 -->
<svg width="1290pt" height="596pt"
 viewBox="0.00 0.00 1289.81 596.00" xmlns="http://www.w3.org/2000/svg" xmlns:xlink="http://www.w3.org/1999/xlink">
<g id="graph0" class="graph" transform="scale(1 1) rotate(0) translate(4 592)">
<polygon fill="white" stroke="transparent" points="-4,4 -4,-592 1285.81,-592 1285.81,4 -4,4"/>
<!-- &#9679; -->
<g id="node1" class="node">
<title>&#9679;</title>
<ellipse fill="none" stroke="black" cx="30.41" cy="-308" rx="30.31" ry="30.31"/>
<text text-anchor="middle" x="30.41" y="-300.5" font-family="Times-Roman" font-size="30.00">●</text>
</g>
<!-- LAPACK.potrf -->
<g id="node2" class="node">
<title>LAPACK.potrf</title>
<polygon fill="#f7f7ff" stroke="black" points="464.81,-354.5 317.81,-354.5 317.81,-281.5 464.81,-281.5 464.81,-354.5"/>
<text text-anchor="middle" x="391.31" y="-340.9" font-family="Times-Roman" font-size="12.00">LAPACK.potrf (10/10)</text>
<text text-anchor="middle" x="391.31" y="-327.9" font-family="Times-Roman" font-size="12.00">Rank score: 0.6</text>
<text text-anchor="middle" x="391.31" y="-314.9" font-family="Times-Roman" font-size="12.00">Num. Ranks: &#160;2&#45;2&#45;2</text>
<text text-anchor="middle" x="391.31" y="-301.9" font-family="Times-Roman" font-size="12.00">Avg. FLOPs: 1.76e+08</text>
<text text-anchor="middle" x="391.31" y="-288.9" font-family="Times-Roman" font-size="12.00">Avg. Perf: 22.78 F/ns</text>
</g>
<!-- &#9679;&#45;&gt;LAPACK.potrf -->
<g id="edge1" class="edge">
<title>&#9679;&#45;&gt;LAPACK.potrf</title>
<path fill="none" stroke="#000000" d="M60.39,-313.65C66.46,-314.62 72.82,-315.48 78.81,-316 156.13,-322.73 244.65,-322.54 307.52,-321.08"/>
<polygon fill="#000000" stroke="#000000" points="307.86,-324.57 317.77,-320.82 307.69,-317.57 307.86,-324.57"/>
<text text-anchor="middle" x="189.31" y="-325.8" font-family="Times-Roman" font-size="14.00">60</text>
</g>
<!-- transpose -->
<g id="node7" class="node">
<title>transpose</title>
<polygon fill="#f2f2ff" stroke="black" points="262.81,-307.5 115.81,-307.5 115.81,-234.5 262.81,-234.5 262.81,-307.5"/>
<text text-anchor="middle" x="189.31" y="-293.9" font-family="Times-Roman" font-size="12.00">transpose (4/10)</text>
<text text-anchor="middle" x="189.31" y="-280.9" font-family="Times-Roman" font-size="12.00">Rank score: 1.0</text>
<text text-anchor="middle" x="189.31" y="-267.9" font-family="Times-Roman" font-size="12.00">Num. Ranks: &#160;1&#45;1&#45;1</text>
<text text-anchor="middle" x="189.31" y="-254.9" font-family="Times-Roman" font-size="12.00">Avg. FLOPs: 1.00e+00</text>
<text text-anchor="middle" x="189.31" y="-241.9" font-family="Times-Roman" font-size="12.00">Avg. Perf: 0.00 F/ns</text>
</g>
<!-- &#9679;&#45;&gt;transpose -->
<g id="edge2" class="edge">
<title>&#9679;&#45;&gt;transpose</title>
<path fill="none" stroke="#000000" d="M60.18,-301.21C73.15,-298.16 89.2,-294.37 105.49,-290.53"/>
<polygon fill="#000000" stroke="#000000" points="106.72,-293.84 115.65,-288.14 105.11,-287.02 106.72,-293.84"/>
<text text-anchor="middle" x="88.31" y="-300.8" font-family="Times-Roman" font-size="14.00">40</text>
</g>
<!-- gemv -->
<g id="node3" class="node">
<title>gemv</title>
<polygon fill="#f7f7ff" stroke="black" points="666.81,-296.5 519.81,-296.5 519.81,-223.5 666.81,-223.5 666.81,-296.5"/>
<text text-anchor="middle" x="593.31" y="-282.9" font-family="Times-Roman" font-size="12.00">gemv (10/10)</text>
<text text-anchor="middle" x="593.31" y="-269.9" font-family="Times-Roman" font-size="12.00">Rank score: 0.6</text>
<text text-anchor="middle" x="593.31" y="-256.9" font-family="Times-Roman" font-size="12.00">Num. Ranks: &#160;5&#45;3&#45;3</text>
<text text-anchor="middle" x="593.31" y="-243.9" font-family="Times-Roman" font-size="12.00">Avg. FLOPs: 1.84e+05</text>
<text text-anchor="middle" x="593.31" y="-230.9" font-family="Times-Roman" font-size="12.00">Avg. Perf: 3.87 F/ns</text>
</g>
<!-- LAPACK.potrf&#45;&gt;gemv -->
<g id="edge7" class="edge">
<title>LAPACK.potrf&#45;&gt;gemv</title>
<path fill="none" stroke="#000000" d="M443.84,-281.29C456.08,-274.3 469.48,-267.94 482.81,-264 491.39,-261.47 500.5,-259.73 509.67,-258.58"/>
<polygon fill="#000000" stroke="#000000" points="510.04,-262.06 519.62,-257.55 509.32,-255.1 510.04,-262.06"/>
<text text-anchor="middle" x="492.31" y="-267.8" font-family="Times-Roman" font-size="14.00">30</text>
</g>
<!-- trsm -->
<g id="node5" class="node">
<title>trsm</title>
<polygon fill="#f7f7ff" stroke="black" points="1079.81,-338.5 932.81,-338.5 932.81,-265.5 1079.81,-265.5 1079.81,-338.5"/>
<text text-anchor="middle" x="1006.31" y="-324.9" font-family="Times-Roman" font-size="12.00">trsm (10/10)</text>
<text text-anchor="middle" x="1006.31" y="-311.9" font-family="Times-Roman" font-size="12.00">Rank score: 0.6</text>
<text text-anchor="middle" x="1006.31" y="-298.9" font-family="Times-Roman" font-size="12.00">Num. Ranks: &#160;3&#45;2&#45;2</text>
<text text-anchor="middle" x="1006.31" y="-285.9" font-family="Times-Roman" font-size="12.00">Avg. FLOPs: 7.43e+07</text>
<text text-anchor="middle" x="1006.31" y="-272.9" font-family="Times-Roman" font-size="12.00">Avg. Perf: 47.04 F/ns</text>
</g>
<!-- LAPACK.potrf&#45;&gt;trsm -->
<g id="edge11" class="edge">
<title>LAPACK.potrf&#45;&gt;trsm</title>
<path fill="none" stroke="#000000" d="M434.3,-354.6C488.12,-399.01 586.29,-471.8 684.81,-503 782.35,-533.89 838.66,-581.34 914.81,-513 942.43,-488.22 913.05,-378.4 932.81,-347 932.87,-346.91 932.92,-346.82 932.98,-346.73"/>
<polygon fill="#000000" stroke="#000000" points="935.73,-348.9 938.97,-338.81 930.15,-344.67 935.73,-348.9"/>
<text text-anchor="middle" x="694.31" y="-511.8" font-family="Times-Roman" font-size="14.00">80</text>
</g>
<!-- trsv -->
<g id="node6" class="node">
<title>trsv</title>
<polygon fill="#f7f7ff" stroke="black" points="868.81,-353.5 721.81,-353.5 721.81,-280.5 868.81,-280.5 868.81,-353.5"/>
<text text-anchor="middle" x="795.31" y="-339.9" font-family="Times-Roman" font-size="12.00">trsv (10/10)</text>
<text text-anchor="middle" x="795.31" y="-326.9" font-family="Times-Roman" font-size="12.00">Rank score: 0.6</text>
<text text-anchor="middle" x="795.31" y="-313.9" font-family="Times-Roman" font-size="12.00">Num. Ranks: &#160;1&#45;1&#45;1</text>
<text text-anchor="middle" x="795.31" y="-300.9" font-family="Times-Roman" font-size="12.00">Avg. FLOPs: 4.88e+05</text>
<text text-anchor="middle" x="795.31" y="-287.9" font-family="Times-Roman" font-size="12.00">Avg. Perf: 3.58 F/ns</text>
</g>
<!-- LAPACK.potrf&#45;&gt;trsv -->
<g id="edge3" class="edge">
<title>LAPACK.potrf&#45;&gt;trsv</title>
<path fill="none" stroke="#000000" d="M465.11,-317.82C534.59,-317.65 639.13,-317.39 711.7,-317.21"/>
<polygon fill="#000000" stroke="#000000" points="711.72,-320.71 721.71,-317.18 711.71,-313.71 711.72,-320.71"/>
<text text-anchor="middle" x="593.31" y="-321.8" font-family="Times-Roman" font-size="14.00">80</text>
</g>
<!-- gemv&#45;&gt;LAPACK.potrf -->
<g id="edge24" class="edge">
<title>gemv&#45;&gt;LAPACK.potrf</title>
<path fill="none" stroke="#000000" d="M519.6,-281.09C505.03,-285.31 489.63,-289.78 474.76,-294.09"/>
<polygon fill="#000000" stroke="#000000" points="473.71,-290.75 465.08,-296.9 475.66,-297.47 473.71,-290.75"/>
<text text-anchor="middle" x="492.31" y="-294.8" font-family="Times-Roman" font-size="14.00">20</text>
</g>
<!-- gemv&#45;&gt;trsv -->
<g id="edge8" class="edge">
<title>gemv&#45;&gt;trsv</title>
<path fill="none" stroke="#000000" d="M667.08,-280.74C681.65,-284.89 697.05,-289.28 711.92,-293.52"/>
<polygon fill="#000000" stroke="#000000" points="711.02,-296.9 721.6,-296.28 712.94,-290.17 711.02,-296.9"/>
<text text-anchor="middle" x="694.31" y="-294.8" font-family="Times-Roman" font-size="14.00">80</text>
</g>
<!-- view -->
<g id="node10" class="node">
<title>view</title>
<polygon fill="#e6e6ff" stroke="black" points="868.81,-106.5 721.81,-106.5 721.81,-33.5 868.81,-33.5 868.81,-106.5"/>
<text text-anchor="middle" x="795.31" y="-92.9" font-family="Times-Roman" font-size="12.00">view (1/10)</text>
<text text-anchor="middle" x="795.31" y="-79.9" font-family="Times-Roman" font-size="12.00">Rank score: 2.0</text>
<text text-anchor="middle" x="795.31" y="-66.9" font-family="Times-Roman" font-size="12.00">Num. Ranks: &#160;1&#45;1&#45;1</text>
<text text-anchor="middle" x="795.31" y="-53.9" font-family="Times-Roman" font-size="12.00">Avg. FLOPs: 1.00e+06</text>
<text text-anchor="middle" x="795.31" y="-40.9" font-family="Times-Roman" font-size="12.00">Avg. Perf: 39.12 F/ns</text>
</g>
<!-- gemv&#45;&gt;view -->
<g id="edge20" class="edge">
<title>gemv&#45;&gt;view</title>
<path fill="none" stroke="#000000" d="M609.08,-223.33C623.88,-190.69 649.54,-143.65 684.81,-114 693.1,-107.04 702.63,-101.07 712.53,-95.99"/>
<polygon fill="#000000" stroke="#000000" points="714.22,-99.06 721.71,-91.57 711.18,-92.76 714.22,-99.06"/>
<text text-anchor="middle" x="694.31" y="-117.8" font-family="Times-Roman" font-size="14.00">10</text>
</g>
<!-- syrk -->
<g id="node4" class="node">
<title>syrk</title>
<polygon fill="#f4f4ff" stroke="black" points="1281.81,-521.5 1134.81,-521.5 1134.81,-448.5 1281.81,-448.5 1281.81,-521.5"/>
<text text-anchor="middle" x="1208.31" y="-507.9" font-family="Times-Roman" font-size="12.00">syrk (7/10)</text>
<text text-anchor="middle" x="1208.31" y="-494.9" font-family="Times-Roman" font-size="12.00">Rank score: 0.9</text>
<text text-anchor="middle" x="1208.31" y="-481.9" font-family="Times-Roman" font-size="12.00">Num. Ranks: &#160;3&#45;2&#45;2</text>
<text text-anchor="middle" x="1208.31" y="-468.9" font-family="Times-Roman" font-size="12.00">Avg. FLOPs: 1.00e+07</text>
<text text-anchor="middle" x="1208.31" y="-455.9" font-family="Times-Roman" font-size="12.00">Avg. Perf: 22.74 F/ns</text>
</g>
<!-- syrk&#45;&gt;LAPACK.potrf -->
<g id="edge6" class="edge">
<title>syrk&#45;&gt;LAPACK.potrf</title>
<path fill="none" stroke="#000000" d="M1156.11,-521.56C1117.21,-545.73 1061.37,-573 1007.31,-573 592.31,-573 592.31,-573 592.31,-573 487.53,-573 429.35,-438.04 405.43,-364.49"/>
<polygon fill="#000000" stroke="#000000" points="408.63,-363.01 402.28,-354.54 401.96,-365.13 408.63,-363.01"/>
<text text-anchor="middle" x="795.31" y="-576.8" font-family="Times-Roman" font-size="14.00">50</text>
</g>
<!-- syrk&#45;&gt;gemv -->
<g id="edge19" class="edge">
<title>syrk&#45;&gt;gemv</title>
<path fill="none" stroke="#000000" d="M1134.75,-496.61C1078.89,-503.28 1000.11,-507.73 932.81,-493 831.98,-470.93 800.39,-462.92 721.81,-396 688.4,-367.55 697.07,-345.79 666.81,-314 663.32,-310.33 659.55,-306.72 655.64,-303.23"/>
<polygon fill="#000000" stroke="#000000" points="657.83,-300.5 647.96,-296.65 653.27,-305.81 657.83,-300.5"/>
<text text-anchor="middle" x="900.81" y="-491.8" font-family="Times-Roman" font-size="14.00">20</text>
</g>
<!-- trsm&#45;&gt;gemv -->
<g id="edge16" class="edge">
<title>trsm&#45;&gt;gemv</title>
<path fill="none" stroke="#000000" d="M932.75,-272.69C912.4,-265.81 890.03,-259.48 868.81,-256 805.05,-245.55 731.85,-247.28 677.08,-251.24"/>
<polygon fill="#000000" stroke="#000000" points="676.78,-247.75 667.07,-252 677.31,-254.73 676.78,-247.75"/>
<text text-anchor="middle" x="795.31" y="-259.8" font-family="Times-Roman" font-size="14.00">20</text>
</g>
<!-- trsm&#45;&gt;syrk -->
<g id="edge5" class="edge">
<title>trsm&#45;&gt;syrk</title>
<path fill="none" stroke="#000000" d="M1069.04,-338.67C1072.76,-341.39 1076.38,-344.17 1079.81,-347 1113.84,-375.1 1147.51,-412.03 1171.69,-440.62"/>
<polygon fill="#000000" stroke="#000000" points="1169.15,-443.04 1178.26,-448.45 1174.51,-438.54 1169.15,-443.04"/>
<text text-anchor="middle" x="1107.31" y="-381.8" font-family="Times-Roman" font-size="14.00">50</text>
</g>
<!-- trsm&#45;&gt;trsv -->
<g id="edge12" class="edge">
<title>trsm&#45;&gt;trsv</title>
<path fill="none" stroke="#000000" d="M932.57,-307.22C915.32,-308.46 896.78,-309.79 879.11,-311.06"/>
<polygon fill="#000000" stroke="#000000" points="878.55,-307.59 868.82,-311.8 879.05,-314.57 878.55,-307.59"/>
<text text-anchor="middle" x="900.81" y="-314.8" font-family="Times-Roman" font-size="14.00">60</text>
</g>
<!-- gemm -->
<g id="node8" class="node">
<title>gemm</title>
<polygon fill="#ffffff" stroke="black" points="1281.81,-245.5 1134.81,-245.5 1134.81,-172.5 1281.81,-172.5 1281.81,-245.5"/>
<text text-anchor="middle" x="1208.31" y="-231.9" font-family="Times-Roman" font-size="12.00">gemm (3/10)</text>
<text text-anchor="middle" x="1208.31" y="-218.9" font-family="Times-Roman" font-size="12.00">Rank score: 0.0</text>
<text text-anchor="middle" x="1208.31" y="-205.9" font-family="Times-Roman" font-size="12.00">Num. Ranks: &#160;1&#45;1&#45;1</text>
<text text-anchor="middle" x="1208.31" y="-192.9" font-family="Times-Roman" font-size="12.00">Avg. FLOPs: 2.00e+07</text>
<text text-anchor="middle" x="1208.31" y="-179.9" font-family="Times-Roman" font-size="12.00">Avg. Perf: 46.51 F/ns</text>
</g>
<!-- trsm&#45;&gt;gemm -->
<g id="edge14" class="edge">
<title>trsm&#45;&gt;gemm</title>
<path fill="none" stroke="#000000" d="M1080.08,-268.16C1094.79,-261.32 1110.34,-254.09 1125.34,-247.12"/>
<polygon fill="#000000" stroke="#000000" points="1127,-250.2 1134.6,-242.81 1124.05,-243.86 1127,-250.2"/>
<text text-anchor="middle" x="1107.31" y="-262.8" font-family="Times-Roman" font-size="14.00">10</text>
</g>
<!-- trsv&#45;&gt;gemv -->
<g id="edge13" class="edge">
<title>trsv&#45;&gt;gemv</title>
<path fill="none" stroke="#000000" d="M734.99,-280.35C724.89,-275.44 714.27,-271.06 703.81,-268 695.21,-265.48 686.08,-263.62 676.9,-262.26"/>
<polygon fill="#000000" stroke="#000000" points="677.31,-258.78 666.94,-260.97 676.41,-265.73 677.31,-258.78"/>
<text text-anchor="middle" x="694.31" y="-271.8" font-family="Times-Roman" font-size="14.00">20</text>
</g>
<!-- trsv&#45;&gt;syrk -->
<g id="edge18" class="edge">
<title>trsv&#45;&gt;syrk</title>
<path fill="none" stroke="#000000" d="M827.51,-353.68C852.98,-381.1 891.41,-417.15 932.81,-437 992.97,-465.85 1067.98,-477.55 1124.38,-482.2"/>
<polygon fill="#000000" stroke="#000000" points="1124.45,-485.71 1134.69,-482.99 1124.98,-478.73 1124.45,-485.71"/>
<text text-anchor="middle" x="1006.31" y="-480.8" font-family="Times-Roman" font-size="14.00">20</text>
</g>
<!-- trsv&#45;&gt;trsm -->
<g id="edge4" class="edge">
<title>trsv&#45;&gt;trsm</title>
<path fill="none" stroke="#000000" d="M869.09,-295.97C875.05,-294.77 881.01,-293.76 886.81,-293 898.4,-291.49 910.66,-291.09 922.73,-291.38"/>
<polygon fill="#000000" stroke="#000000" points="922.67,-294.88 932.8,-291.78 922.95,-287.88 922.67,-294.88"/>
<text text-anchor="middle" x="900.81" y="-296.8" font-family="Times-Roman" font-size="14.00">60</text>
</g>
<!-- trsv&#45;&gt;trsv -->
<g id="edge9" class="edge">
<title>trsv&#45;&gt;trsv</title>
<path fill="none" stroke="#000000" d="M776.68,-353.68C777.58,-363.78 783.79,-371.5 795.31,-371.5 802.69,-371.5 807.9,-368.33 810.92,-363.4"/>
<polygon fill="#000000" stroke="#000000" points="814.31,-364.27 813.95,-353.68 807.63,-362.18 814.31,-364.27"/>
<text text-anchor="middle" x="795.31" y="-375.3" font-family="Times-Roman" font-size="14.00">70</text>
</g>
<!-- trsv&#45;&gt;gemm -->
<g id="edge17" class="edge">
<title>trsv&#45;&gt;gemm</title>
<path fill="none" stroke="#000000" d="M859.49,-280.35C891.22,-262.22 924.65,-243.63 932.81,-241 995.14,-220.89 1069.05,-213.13 1124.46,-210.27"/>
<polygon fill="#000000" stroke="#000000" points="1124.76,-213.75 1134.59,-209.79 1124.43,-206.76 1124.76,-213.75"/>
<text text-anchor="middle" x="1006.31" y="-244.8" font-family="Times-Roman" font-size="14.00">20</text>
</g>
<!-- &#9632; -->
<g id="node11" class="node">
<title>&#9632;</title>
<ellipse fill="none" stroke="black" cx="1006.31" cy="-392" rx="31.66" ry="31.66"/>
<ellipse fill="none" stroke="black" cx="1006.31" cy="-392" rx="35.64" ry="35.64"/>
<text text-anchor="middle" x="1006.31" y="-384.5" font-family="Times-Roman" font-size="30.00">■</text>
</g>
<!-- trsv&#45;&gt;&#9632; -->
<g id="edge25" class="edge">
<title>trsv&#45;&gt;&#9632;</title>
<path fill="none" stroke="#000000" d="M868.82,-343.02C900.22,-354.29 935.88,-367.08 962.87,-376.77"/>
<polygon fill="#000000" stroke="#000000" points="961.81,-380.11 972.4,-380.19 964.17,-373.52 961.81,-380.11"/>
<text text-anchor="middle" x="900.81" y="-361.8" font-family="Times-Roman" font-size="14.00">100</text>
</g>
<!-- transpose&#45;&gt;LAPACK.potrf -->
<g id="edge10" class="edge">
<title>transpose&#45;&gt;LAPACK.potrf</title>
<path fill="none" stroke="#000000" d="M263.08,-288.1C277.51,-291.49 292.76,-295.07 307.49,-298.54"/>
<polygon fill="#000000" stroke="#000000" points="307.06,-302.03 317.6,-300.91 308.66,-295.22 307.06,-302.03"/>
<text text-anchor="middle" x="290.31" y="-299.8" font-family="Times-Roman" font-size="14.00">40</text>
</g>
<!-- gemm&#45;&gt;LAPACK.potrf -->
<g id="edge15" class="edge">
<title>gemm&#45;&gt;LAPACK.potrf</title>
<path fill="none" stroke="#000000" d="M1192.24,-172.12C1164.99,-112.12 1101.48,0 1007.31,0 592.31,0 592.31,0 592.31,0 465.74,0 416.14,-182.75 399.54,-271.17"/>
<polygon fill="#000000" stroke="#000000" points="396.06,-270.75 397.72,-281.21 402.95,-271.99 396.06,-270.75"/>
<text text-anchor="middle" x="795.31" y="-3.8" font-family="Times-Roman" font-size="14.00">20</text>
</g>
<!-- gemm&#45;&gt;gemv -->
<g id="edge23" class="edge">
<title>gemm&#45;&gt;gemv</title>
<path fill="none" stroke="#000000" d="M1134.57,-207.11C1122.3,-206.96 1109.69,-206.89 1097.81,-207 1024.47,-207.67 1005.92,-204.05 932.81,-210 821.8,-219.03 794.96,-229.49 684.81,-246 682.27,-246.38 679.68,-246.77 677.07,-247.17"/>
<polygon fill="#000000" stroke="#000000" points="676.28,-243.75 666.91,-248.71 677.33,-250.67 676.28,-243.75"/>
<text text-anchor="middle" x="900.81" y="-218.8" font-family="Times-Roman" font-size="14.00">10</text>
</g>
<!-- qr -->
<g id="node9" class="node">
<title>qr</title>
<polygon fill="#e6e6ff" stroke="black" points="1079.81,-144.5 932.81,-144.5 932.81,-71.5 1079.81,-71.5 1079.81,-144.5"/>
<text text-anchor="middle" x="1006.31" y="-130.9" font-family="Times-Roman" font-size="12.00">qr (1/10)</text>
<text text-anchor="middle" x="1006.31" y="-117.9" font-family="Times-Roman" font-size="12.00">Rank score: 2.0</text>
<text text-anchor="middle" x="1006.31" y="-104.9" font-family="Times-Roman" font-size="12.00">Num. Ranks: &#160;1&#45;1&#45;1</text>
<text text-anchor="middle" x="1006.31" y="-91.9" font-family="Times-Roman" font-size="12.00">Avg. FLOPs: 2.67e+06</text>
<text text-anchor="middle" x="1006.31" y="-78.9" font-family="Times-Roman" font-size="12.00">Avg. Perf: 0.00 F/ns</text>
</g>
<!-- qr&#45;&gt;gemv -->
<g id="edge22" class="edge">
<title>qr&#45;&gt;gemv</title>
<path fill="none" stroke="#000000" d="M932.61,-116.16C851.03,-126.41 724.84,-145.87 684.81,-172 666.2,-184.15 648.13,-200.48 633.1,-215.77"/>
<polygon fill="#000000" stroke="#000000" points="630.39,-213.54 625.97,-223.18 635.43,-218.4 630.39,-213.54"/>
<text text-anchor="middle" x="795.31" y="-159.8" font-family="Times-Roman" font-size="14.00">10</text>
</g>
<!-- view&#45;&gt;qr -->
<g id="edge21" class="edge">
<title>view&#45;&gt;qr</title>
<path fill="none" stroke="#000000" d="M868.82,-83.18C886.07,-86.32 904.6,-89.69 922.28,-92.9"/>
<polygon fill="#000000" stroke="#000000" points="922.11,-96.43 932.57,-94.78 923.36,-89.54 922.11,-96.43"/>
<text text-anchor="middle" x="900.81" y="-95.8" font-family="Times-Roman" font-size="14.00">10</text>
</g>
</g>
</svg>
