<?xml version="1.0" encoding="UTF-8" standalone="no"?>
<!DOCTYPE svg PUBLIC "-//W3C//DTD SVG 1.1//EN"
 "http://www.w3.org/Graphics/SVG/1.1/DTD/svg11.dtd">
<!-- Generated by graphviz version 2.44.0 (0)
 -->
<!-- Pages: 1 -->
<svg width="709pt" height="813pt"
 viewBox="0.00 0.00 709.00 812.81" xmlns="http://www.w3.org/2000/svg" xmlns:xlink="http://www.w3.org/1999/xlink">
<g id="graph0" class="graph" transform="scale(1 1) rotate(0) translate(4 808.81)">
<polygon fill="white" stroke="transparent" points="-4,4 -4,-808.81 705,-808.81 705,4 -4,4"/>
<!-- &#9679; -->
<g id="node1" class="node">
<title>&#9679;</title>
<ellipse fill="none" stroke="black" cx="531" cy="-774.41" rx="30.31" ry="30.31"/>
<text text-anchor="middle" x="531" y="-766.91" font-family="Times-Roman" font-size="30.00">●</text>
</g>
<!-- LAPACK.potrf -->
<g id="node2" class="node">
<title>LAPACK.potrf</title>
<polygon fill="#f9f9ff" stroke="black" points="604.5,-569 457.5,-569 457.5,-496 604.5,-496 604.5,-569"/>
<text text-anchor="middle" x="531" y="-555.4" font-family="Times-Roman" font-size="12.00">LAPACK.potrf (10/10)</text>
<text text-anchor="middle" x="531" y="-542.4" font-family="Times-Roman" font-size="12.00">Avg. FLOPs: 1.76e+08</text>
<text text-anchor="middle" x="531" y="-529.4" font-family="Times-Roman" font-size="12.00">Avg. Perf: 22.78 F/ns</text>
<text text-anchor="middle" x="531" y="-516.4" font-family="Times-Roman" font-size="12.00">Num. AR: &#160;2&#45;2&#45;2</text>
<text text-anchor="middle" x="531" y="-503.4" font-family="Times-Roman" font-size="12.00">Avg. VR: 0.6&#45;0.1&#45;0.1</text>
</g>
<!-- &#9679;&#45;&gt;LAPACK.potrf -->
<g id="edge1" class="edge">
<title>&#9679;&#45;&gt;LAPACK.potrf</title>
<path fill="none" stroke="#000000" d="M527.83,-744.04C526.34,-728.83 524.74,-709.94 524,-693 522.59,-660.59 522.69,-652.42 524,-620 524.53,-606.81 525.52,-592.53 526.59,-579.43"/>
<polygon fill="#000000" stroke="#000000" points="530.1,-579.49 527.46,-569.23 523.12,-578.9 530.1,-579.49"/>
<text text-anchor="middle" x="533.5" y="-652.8" font-family="Times-Roman" font-size="14.00">60</text>
</g>
<!-- transpose -->
<g id="node7" class="node">
<title>transpose</title>
<polygon fill="#f7f7ff" stroke="black" points="699.5,-693 552.5,-693 552.5,-620 699.5,-620 699.5,-693"/>
<text text-anchor="middle" x="626" y="-679.4" font-family="Times-Roman" font-size="12.00">transpose (4/10)</text>
<text text-anchor="middle" x="626" y="-666.4" font-family="Times-Roman" font-size="12.00">Avg. FLOPs: 1.00e+00</text>
<text text-anchor="middle" x="626" y="-653.4" font-family="Times-Roman" font-size="12.00">Avg. Perf: 0.00 F/ns</text>
<text text-anchor="middle" x="626" y="-640.4" font-family="Times-Roman" font-size="12.00">Num. AR: &#160;1&#45;1&#45;1</text>
<text text-anchor="middle" x="626" y="-627.4" font-family="Times-Roman" font-size="12.00">Avg. VR: 1.0&#45;0.0&#45;0.0</text>
</g>
<!-- &#9679;&#45;&gt;transpose -->
<g id="edge2" class="edge">
<title>&#9679;&#45;&gt;transpose</title>
<path fill="none" stroke="#000000" d="M550,-750.23C561.44,-736.26 576.4,-718.02 590.01,-701.41"/>
<polygon fill="#000000" stroke="#000000" points="592.93,-703.37 596.56,-693.42 587.51,-698.94 592.93,-703.37"/>
<text text-anchor="middle" x="591.5" y="-714.8" font-family="Times-Roman" font-size="14.00">40</text>
</g>
<!-- gemv -->
<g id="node3" class="node">
<title>gemv</title>
<polygon fill="#f9f9ff" stroke="black" points="485.5,-445 338.5,-445 338.5,-372 485.5,-372 485.5,-445"/>
<text text-anchor="middle" x="412" y="-431.4" font-family="Times-Roman" font-size="12.00">gemv (10/10)</text>
<text text-anchor="middle" x="412" y="-418.4" font-family="Times-Roman" font-size="12.00">Avg. FLOPs: 1.84e+05</text>
<text text-anchor="middle" x="412" y="-405.4" font-family="Times-Roman" font-size="12.00">Avg. Perf: 3.87 F/ns</text>
<text text-anchor="middle" x="412" y="-392.4" font-family="Times-Roman" font-size="12.00">Num. AR: &#160;5&#45;3&#45;3</text>
<text text-anchor="middle" x="412" y="-379.4" font-family="Times-Roman" font-size="12.00">Avg. VR: 0.6&#45;0.1&#45;0.1</text>
</g>
<!-- LAPACK.potrf&#45;&gt;gemv -->
<g id="edge7" class="edge">
<title>LAPACK.potrf&#45;&gt;gemv</title>
<path fill="none" stroke="#000000" d="M465.82,-495.89C458.65,-490.45 451.85,-484.47 446,-478 439.72,-471.06 434.33,-462.74 429.8,-454.34"/>
<polygon fill="#000000" stroke="#000000" points="432.85,-452.61 425.23,-445.24 426.59,-455.75 432.85,-452.61"/>
<text text-anchor="middle" x="455.5" y="-466.8" font-family="Times-Roman" font-size="14.00">30</text>
</g>
<!-- trsm -->
<g id="node5" class="node">
<title>trsm</title>
<polygon fill="#f9f9ff" stroke="black" points="532.5,-197 385.5,-197 385.5,-124 532.5,-124 532.5,-197"/>
<text text-anchor="middle" x="459" y="-183.4" font-family="Times-Roman" font-size="12.00">trsm (10/10)</text>
<text text-anchor="middle" x="459" y="-170.4" font-family="Times-Roman" font-size="12.00">Avg. FLOPs: 7.43e+07</text>
<text text-anchor="middle" x="459" y="-157.4" font-family="Times-Roman" font-size="12.00">Avg. Perf: 47.04 F/ns</text>
<text text-anchor="middle" x="459" y="-144.4" font-family="Times-Roman" font-size="12.00">Num. AR: &#160;3&#45;2&#45;2</text>
<text text-anchor="middle" x="459" y="-131.4" font-family="Times-Roman" font-size="12.00">Avg. VR: 0.6&#45;0.1&#45;0.1</text>
</g>
<!-- LAPACK.potrf&#45;&gt;trsm -->
<g id="edge11" class="edge">
<title>LAPACK.potrf&#45;&gt;trsm</title>
<path fill="none" stroke="#000000" d="M559.85,-495.82C607.36,-432.51 690.31,-299.28 622,-215 599.68,-187.46 577.62,-205.48 542.48,-198.17"/>
<polygon fill="#000000" stroke="#000000" points="543.3,-194.77 532.74,-195.55 541.49,-201.53 543.3,-194.77"/>
<text text-anchor="middle" x="650.5" y="-342.8" font-family="Times-Roman" font-size="14.00">80</text>
</g>
<!-- trsv -->
<g id="node6" class="node">
<title>trsv</title>
<polygon fill="#f9f9ff" stroke="black" points="443.5,-321 296.5,-321 296.5,-248 443.5,-248 443.5,-321"/>
<text text-anchor="middle" x="370" y="-307.4" font-family="Times-Roman" font-size="12.00">trsv (10/10)</text>
<text text-anchor="middle" x="370" y="-294.4" font-family="Times-Roman" font-size="12.00">Avg. FLOPs: 4.88e+05</text>
<text text-anchor="middle" x="370" y="-281.4" font-family="Times-Roman" font-size="12.00">Avg. Perf: 3.58 F/ns</text>
<text text-anchor="middle" x="370" y="-268.4" font-family="Times-Roman" font-size="12.00">Num. AR: &#160;1&#45;1&#45;1</text>
<text text-anchor="middle" x="370" y="-255.4" font-family="Times-Roman" font-size="12.00">Avg. VR: 0.6&#45;0.1&#45;0.1</text>
</g>
<!-- LAPACK.potrf&#45;&gt;trsv -->
<g id="edge3" class="edge">
<title>LAPACK.potrf&#45;&gt;trsv</title>
<path fill="none" stroke="#000000" d="M529.97,-495.95C527.41,-461.57 519.25,-409.32 494,-372 482.12,-354.44 465.39,-339.35 448.05,-326.91"/>
<polygon fill="#000000" stroke="#000000" points="449.73,-323.82 439.51,-321.03 445.76,-329.58 449.73,-323.82"/>
<text text-anchor="middle" x="532.5" y="-404.8" font-family="Times-Roman" font-size="14.00">80</text>
</g>
<!-- gemv&#45;&gt;LAPACK.potrf -->
<g id="edge24" class="edge">
<title>gemv&#45;&gt;LAPACK.potrf</title>
<path fill="none" stroke="#000000" d="M447.42,-445.12C453.31,-451.07 459.34,-457.2 465,-463 473.03,-471.22 481.58,-480.04 489.76,-488.52"/>
<polygon fill="#000000" stroke="#000000" points="487.38,-491.09 496.84,-495.86 492.42,-486.23 487.38,-491.09"/>
<text text-anchor="middle" x="489.5" y="-466.8" font-family="Times-Roman" font-size="14.00">20</text>
</g>
<!-- gemv&#45;&gt;trsv -->
<g id="edge8" class="edge">
<title>gemv&#45;&gt;trsv</title>
<path fill="none" stroke="#000000" d="M400.9,-371.84C397.5,-361.24 393.69,-349.62 390,-339 389.05,-336.28 388.07,-333.48 387.06,-330.67"/>
<polygon fill="#000000" stroke="#000000" points="390.28,-329.3 383.57,-321.1 383.7,-331.69 390.28,-329.3"/>
<text text-anchor="middle" x="405.5" y="-342.8" font-family="Times-Roman" font-size="14.00">80</text>
</g>
<!-- view -->
<g id="node10" class="node">
<title>view</title>
<polygon fill="#e1e1ff" stroke="black" points="222.5,-321 75.5,-321 75.5,-248 222.5,-248 222.5,-321"/>
<text text-anchor="middle" x="149" y="-307.4" font-family="Times-Roman" font-size="12.00">view (1/10)</text>
<text text-anchor="middle" x="149" y="-294.4" font-family="Times-Roman" font-size="12.00">Avg. FLOPs: 1.00e+06</text>
<text text-anchor="middle" x="149" y="-281.4" font-family="Times-Roman" font-size="12.00">Avg. Perf: 39.12 F/ns</text>
<text text-anchor="middle" x="149" y="-268.4" font-family="Times-Roman" font-size="12.00">Num. AR: &#160;1&#45;1&#45;1</text>
<text text-anchor="middle" x="149" y="-255.4" font-family="Times-Roman" font-size="12.00">Avg. VR: 2.0&#45;1.0&#45;1.0</text>
</g>
<!-- gemv&#45;&gt;view -->
<g id="edge20" class="edge">
<title>gemv&#45;&gt;view</title>
<path fill="none" stroke="#000000" d="M338.4,-394.3C302.96,-385.99 260.73,-373.13 226,-354 213.39,-347.05 201.1,-337.7 190.17,-328.15"/>
<polygon fill="#000000" stroke="#000000" points="192.24,-325.3 182.47,-321.19 187.54,-330.49 192.24,-325.3"/>
<text text-anchor="middle" x="235.5" y="-342.8" font-family="Times-Roman" font-size="14.00">10</text>
</g>
<!-- syrk -->
<g id="node4" class="node">
<title>syrk</title>
<polygon fill="#f6f6ff" stroke="black" points="226.5,-73 79.5,-73 79.5,0 226.5,0 226.5,-73"/>
<text text-anchor="middle" x="153" y="-59.4" font-family="Times-Roman" font-size="12.00">syrk (7/10)</text>
<text text-anchor="middle" x="153" y="-46.4" font-family="Times-Roman" font-size="12.00">Avg. FLOPs: 1.00e+07</text>
<text text-anchor="middle" x="153" y="-33.4" font-family="Times-Roman" font-size="12.00">Avg. Perf: 22.74 F/ns</text>
<text text-anchor="middle" x="153" y="-20.4" font-family="Times-Roman" font-size="12.00">Num. AR: &#160;3&#45;2&#45;2</text>
<text text-anchor="middle" x="153" y="-7.4" font-family="Times-Roman" font-size="12.00">Avg. VR: 0.9&#45;0.1&#45;0.1</text>
</g>
<!-- syrk&#45;&gt;LAPACK.potrf -->
<g id="edge6" class="edge">
<title>syrk&#45;&gt;LAPACK.potrf</title>
<path fill="none" stroke="#000000" d="M79.19,-64.52C40.06,-84.09 0,-115 0,-159.5 0,-409.5 0,-409.5 0,-409.5 0,-500.17 297.82,-523.46 447.38,-529.44"/>
<polygon fill="#000000" stroke="#000000" points="447.32,-532.94 457.45,-529.82 447.59,-525.94 447.32,-532.94"/>
<text text-anchor="middle" x="9.5" y="-280.8" font-family="Times-Roman" font-size="14.00">50</text>
</g>
<!-- syrk&#45;&gt;gemv -->
<g id="edge19" class="edge">
<title>syrk&#45;&gt;gemv</title>
<path fill="none" stroke="#000000" d="M104.11,-73.23C88.94,-87.18 74.1,-104.53 66,-124 32.38,-204.84 12.12,-251.99 66,-321 97.95,-361.93 236.54,-386.35 328.33,-398.33"/>
<polygon fill="#000000" stroke="#000000" points="328.08,-401.83 338.45,-399.63 328.97,-394.89 328.08,-401.83"/>
<text text-anchor="middle" x="44.5" y="-218.8" font-family="Times-Roman" font-size="14.00">20</text>
</g>
<!-- trsm&#45;&gt;gemv -->
<g id="edge16" class="edge">
<title>trsm&#45;&gt;gemv</title>
<path fill="none" stroke="#000000" d="M476.45,-197.01C490.17,-230 504.59,-280.05 489,-321 483.02,-336.72 472.73,-351.4 461.58,-364.04"/>
<polygon fill="#000000" stroke="#000000" points="458.77,-361.92 454.56,-371.64 463.91,-366.67 458.77,-361.92"/>
<text text-anchor="middle" x="505.5" y="-280.8" font-family="Times-Roman" font-size="14.00">20</text>
</g>
<!-- trsm&#45;&gt;syrk -->
<g id="edge5" class="edge">
<title>trsm&#45;&gt;syrk</title>
<path fill="none" stroke="#000000" d="M385.3,-127.43C382.5,-126.26 379.73,-125.12 377,-124 330.64,-105.02 278.45,-84.8 236.12,-68.69"/>
<polygon fill="#000000" stroke="#000000" points="237.28,-65.39 226.69,-65.1 234.79,-71.93 237.28,-65.39"/>
<text text-anchor="middle" x="338.5" y="-94.8" font-family="Times-Roman" font-size="14.00">50</text>
</g>
<!-- trsm&#45;&gt;trsv -->
<g id="edge12" class="edge">
<title>trsm&#45;&gt;trsv</title>
<path fill="none" stroke="#000000" d="M407.54,-197.14C401.77,-202.64 396.4,-208.63 392,-215 387.16,-222.02 383.33,-230.17 380.33,-238.34"/>
<polygon fill="#000000" stroke="#000000" points="376.99,-237.29 377.16,-247.89 383.63,-239.5 376.99,-237.29"/>
<text text-anchor="middle" x="401.5" y="-218.8" font-family="Times-Roman" font-size="14.00">60</text>
</g>
<!-- gemm -->
<g id="node8" class="node">
<title>gemm</title>
<polygon fill="#ffffff" stroke="black" points="665.5,-73 518.5,-73 518.5,0 665.5,0 665.5,-73"/>
<text text-anchor="middle" x="592" y="-59.4" font-family="Times-Roman" font-size="12.00">gemm (3/10)</text>
<text text-anchor="middle" x="592" y="-46.4" font-family="Times-Roman" font-size="12.00">Avg. FLOPs: 2.00e+07</text>
<text text-anchor="middle" x="592" y="-33.4" font-family="Times-Roman" font-size="12.00">Avg. Perf: 46.51 F/ns</text>
<text text-anchor="middle" x="592" y="-20.4" font-family="Times-Roman" font-size="12.00">Num. AR: &#160;1&#45;1&#45;1</text>
<text text-anchor="middle" x="592" y="-7.4" font-family="Times-Roman" font-size="12.00">Avg. VR: 0.0&#45;0.0&#45;0.0</text>
</g>
<!-- trsm&#45;&gt;gemm -->
<g id="edge14" class="edge">
<title>trsm&#45;&gt;gemm</title>
<path fill="none" stroke="#000000" d="M497.83,-123.88C512.72,-110.22 529.86,-94.5 545.41,-80.24"/>
<polygon fill="#000000" stroke="#000000" points="547.89,-82.71 552.89,-73.37 543.16,-77.55 547.89,-82.71"/>
<text text-anchor="middle" x="543.5" y="-94.8" font-family="Times-Roman" font-size="14.00">10</text>
</g>
<!-- trsv&#45;&gt;gemv -->
<g id="edge13" class="edge">
<title>trsv&#45;&gt;gemv</title>
<path fill="none" stroke="#000000" d="M363.26,-321.15C362.58,-331.97 363.25,-343.71 367,-354 368.14,-357.14 369.56,-360.22 371.18,-363.21"/>
<polygon fill="#000000" stroke="#000000" points="368.34,-365.27 376.57,-371.95 374.29,-361.6 368.34,-365.27"/>
<text text-anchor="middle" x="376.5" y="-342.8" font-family="Times-Roman" font-size="14.00">20</text>
</g>
<!-- trsv&#45;&gt;syrk -->
<g id="edge18" class="edge">
<title>trsv&#45;&gt;syrk</title>
<path fill="none" stroke="#000000" d="M320.13,-247.85C302.22,-233.44 282.82,-215.77 268,-197 245.46,-168.45 251.58,-153.99 231,-124 220.77,-109.09 208.16,-94.04 196.09,-80.76"/>
<polygon fill="#000000" stroke="#000000" points="198.43,-78.13 189.07,-73.17 193.29,-82.89 198.43,-78.13"/>
<text text-anchor="middle" x="277.5" y="-156.8" font-family="Times-Roman" font-size="14.00">20</text>
</g>
<!-- trsv&#45;&gt;trsm -->
<g id="edge4" class="edge">
<title>trsv&#45;&gt;trsm</title>
<path fill="none" stroke="#000000" d="M401.15,-247.75C405.91,-241.92 410.68,-235.86 415,-230 420.66,-222.32 426.4,-213.92 431.78,-205.72"/>
<polygon fill="#000000" stroke="#000000" points="434.74,-207.58 437.24,-197.28 428.87,-203.78 434.74,-207.58"/>
<text text-anchor="middle" x="435.5" y="-218.8" font-family="Times-Roman" font-size="14.00">60</text>
</g>
<!-- trsv&#45;&gt;trsv -->
<g id="edge9" class="edge">
<title>trsv&#45;&gt;trsv</title>
<path fill="none" stroke="#000000" d="M443.59,-294.99C454.29,-293.32 461.5,-289.83 461.5,-284.5 461.5,-281.09 458.54,-278.43 453.6,-276.52"/>
<polygon fill="#000000" stroke="#000000" points="454.14,-273.04 443.59,-274.01 452.44,-279.83 454.14,-273.04"/>
<text text-anchor="middle" x="471" y="-280.8" font-family="Times-Roman" font-size="14.00">70</text>
</g>
<!-- trsv&#45;&gt;gemm -->
<g id="edge17" class="edge">
<title>trsv&#45;&gt;gemm</title>
<path fill="none" stroke="#000000" d="M443.73,-261.06C477.53,-247.41 515.64,-226.75 541,-197 568.47,-164.78 581.19,-117.61 587.05,-82.92"/>
<polygon fill="#000000" stroke="#000000" points="590.51,-83.45 588.59,-73.03 583.59,-82.37 590.51,-83.45"/>
<text text-anchor="middle" x="587.5" y="-156.8" font-family="Times-Roman" font-size="14.00">20</text>
</g>
<!-- &#9632; -->
<g id="node11" class="node">
<title>&#9632;</title>
<ellipse fill="none" stroke="black" cx="332" cy="-160.5" rx="31.66" ry="31.66"/>
<ellipse fill="none" stroke="black" cx="332" cy="-160.5" rx="35.64" ry="35.64"/>
<text text-anchor="middle" x="332" y="-153" font-family="Times-Roman" font-size="30.00">■</text>
</g>
<!-- trsv&#45;&gt;&#9632; -->
<g id="edge25" class="edge">
<title>trsv&#45;&gt;&#9632;</title>
<path fill="none" stroke="#000000" d="M349.31,-247.96C346.51,-242.1 343.94,-235.98 342,-230 339.58,-222.52 337.74,-214.4 336.34,-206.44"/>
<polygon fill="#000000" stroke="#000000" points="339.8,-205.86 334.81,-196.52 332.88,-206.93 339.8,-205.86"/>
<text text-anchor="middle" x="356" y="-218.8" font-family="Times-Roman" font-size="14.00">100</text>
</g>
<!-- transpose&#45;&gt;LAPACK.potrf -->
<g id="edge10" class="edge">
<title>transpose&#45;&gt;LAPACK.potrf</title>
<path fill="none" stroke="#000000" d="M598.27,-619.88C587.92,-606.6 576.05,-591.35 565.19,-577.41"/>
<polygon fill="#000000" stroke="#000000" points="567.84,-575.11 558.93,-569.37 562.31,-579.41 567.84,-575.11"/>
<text text-anchor="middle" x="594.5" y="-590.8" font-family="Times-Roman" font-size="14.00">40</text>
</g>
<!-- gemm&#45;&gt;LAPACK.potrf -->
<g id="edge15" class="edge">
<title>gemm&#45;&gt;LAPACK.potrf</title>
<path fill="none" stroke="#000000" d="M637,-73.23C659.5,-95.31 682,-125.81 682,-159.5 682,-409.5 682,-409.5 682,-409.5 682,-449.89 648.91,-479.2 613.71,-498.95"/>
<polygon fill="#000000" stroke="#000000" points="611.89,-495.96 604.73,-503.77 615.2,-502.13 611.89,-495.96"/>
<text text-anchor="middle" x="691.5" y="-280.8" font-family="Times-Roman" font-size="14.00">20</text>
</g>
<!-- gemm&#45;&gt;gemv -->
<g id="edge23" class="edge">
<title>gemm&#45;&gt;gemv</title>
<path fill="none" stroke="#000000" d="M600.88,-73.17C607.47,-106.04 613.38,-155.83 601,-197 576.39,-278.84 553.93,-297.3 490,-354 485.59,-357.91 480.89,-361.77 476.06,-365.53"/>
<polygon fill="#000000" stroke="#000000" points="473.71,-362.91 467.84,-371.73 477.93,-368.5 473.71,-362.91"/>
<text text-anchor="middle" x="603.5" y="-218.8" font-family="Times-Roman" font-size="14.00">10</text>
</g>
<!-- qr -->
<g id="node9" class="node">
<title>qr</title>
<polygon fill="#e1e1ff" stroke="black" points="222.5,-197 75.5,-197 75.5,-124 222.5,-124 222.5,-197"/>
<text text-anchor="middle" x="149" y="-183.4" font-family="Times-Roman" font-size="12.00">qr (1/10)</text>
<text text-anchor="middle" x="149" y="-170.4" font-family="Times-Roman" font-size="12.00">Avg. FLOPs: 2.67e+06</text>
<text text-anchor="middle" x="149" y="-157.4" font-family="Times-Roman" font-size="12.00">Avg. Perf: 0.00 F/ns</text>
<text text-anchor="middle" x="149" y="-144.4" font-family="Times-Roman" font-size="12.00">Num. AR: &#160;1&#45;1&#45;1</text>
<text text-anchor="middle" x="149" y="-131.4" font-family="Times-Roman" font-size="12.00">Avg. VR: 2.0&#45;1.0&#45;1.0</text>
</g>
<!-- qr&#45;&gt;gemv -->
<g id="edge22" class="edge">
<title>qr&#45;&gt;gemv</title>
<path fill="none" stroke="#000000" d="M187.45,-197.32C202.13,-212.16 218.36,-230.07 231,-248 251.95,-277.73 243.22,-294.37 268,-321 285.36,-339.66 307.66,-355.66 329.49,-368.64"/>
<polygon fill="#000000" stroke="#000000" points="327.74,-371.67 338.14,-373.65 331.24,-365.61 327.74,-371.67"/>
<text text-anchor="middle" x="277.5" y="-280.8" font-family="Times-Roman" font-size="14.00">10</text>
</g>
<!-- view&#45;&gt;qr -->
<g id="edge21" class="edge">
<title>view&#45;&gt;qr</title>
<path fill="none" stroke="#000000" d="M149,-247.88C149,-235.22 149,-220.77 149,-207.37"/>
<polygon fill="#000000" stroke="#000000" points="152.5,-207.37 149,-197.37 145.5,-207.37 152.5,-207.37"/>
<text text-anchor="middle" x="158.5" y="-218.8" font-family="Times-Roman" font-size="14.00">10</text>
</g>
</g>
</svg>
