<?xml version="1.0" encoding="UTF-8" standalone="no"?>
<!DOCTYPE svg PUBLIC "-//W3C//DTD SVG 1.1//EN"
 "http://www.w3.org/Graphics/SVG/1.1/DTD/svg11.dtd">
<!-- Generated by graphviz version 2.44.0 (0)
 -->
<!-- Pages: 1 -->
<svg width="416pt" height="635pt"
 viewBox="0.00 0.00 415.50 635.45" xmlns="http://www.w3.org/2000/svg" xmlns:xlink="http://www.w3.org/1999/xlink">
<g id="graph0" class="graph" transform="scale(1 1) rotate(0) translate(4 631.45)">
<polygon fill="white" stroke="transparent" points="-4,4 -4,-631.45 411.5,-631.45 411.5,4 -4,4"/>
<!-- &#9679; -->
<g id="node1" class="node">
<title>&#9679;</title>
<ellipse fill="none" stroke="black" cx="163.5" cy="-597.05" rx="30.31" ry="30.31"/>
<text text-anchor="middle" x="163.5" y="-589.55" font-family="Times-Roman" font-size="30.00">●</text>
</g>
<!-- LAPACK.potrf -->
<g id="node2" class="node">
<title>LAPACK.potrf</title>
<polygon fill="#ffffff" stroke="black" points="247,-515.64 80,-515.64 80,-455.64 247,-455.64 247,-515.64"/>
<text text-anchor="middle" x="163.5" y="-502.04" font-family="Times-Roman" font-size="12.00">LAPACK.potrf (2)</text>
<text text-anchor="middle" x="163.5" y="-489.04" font-family="Times-Roman" font-size="12.00">Num. Ranks: &#160;1&#45;1&#45;1</text>
<text text-anchor="middle" x="163.5" y="-476.04" font-family="Times-Roman" font-size="12.00">Avg. FLOPs: 1.67e+08</text>
<text text-anchor="middle" x="163.5" y="-463.04" font-family="Times-Roman" font-size="12.00">Avg. Perf: 48.86 FLOPs/ns</text>
</g>
<!-- &#9679;&#45;&gt;LAPACK.potrf -->
<g id="edge1" class="edge">
<title>&#9679;&#45;&gt;LAPACK.potrf</title>
<path fill="none" stroke="#000000" d="M163.5,-566.44C163.5,-554.05 163.5,-539.48 163.5,-526.2"/>
<polygon fill="#000000" stroke="#000000" points="167,-525.89 163.5,-515.89 160,-525.89 167,-525.89"/>
<text text-anchor="middle" x="173" y="-537.44" font-family="Times-Roman" font-size="14.00">20</text>
</g>
<!-- gemv -->
<g id="node3" class="node">
<title>gemv</title>
<polygon fill="#ffffff" stroke="black" points="201,-404.64 42,-404.64 42,-344.64 201,-344.64 201,-404.64"/>
<text text-anchor="middle" x="121.5" y="-391.04" font-family="Times-Roman" font-size="12.00">gemv (2)</text>
<text text-anchor="middle" x="121.5" y="-378.04" font-family="Times-Roman" font-size="12.00">Num. Ranks: &#160;2&#45;2&#45;2</text>
<text text-anchor="middle" x="121.5" y="-365.04" font-family="Times-Roman" font-size="12.00">Avg. FLOPs: 2.00e+05</text>
<text text-anchor="middle" x="121.5" y="-352.04" font-family="Times-Roman" font-size="12.00">Avg. Perf: 7.69 FLOPs/ns</text>
</g>
<!-- LAPACK.potrf&#45;&gt;gemv -->
<g id="edge12" class="edge">
<title>LAPACK.potrf&#45;&gt;gemv</title>
<path fill="none" stroke="#e53935" d="M153.57,-455.48C149.91,-445.07 145.65,-433.28 141.5,-422.64 140.44,-419.93 139.33,-417.14 138.19,-414.34"/>
<polygon fill="#e53935" stroke="#e53935" points="141.32,-412.76 134.26,-404.86 134.86,-415.44 141.32,-412.76"/>
<text text-anchor="middle" x="157" y="-426.44" font-family="Times-Roman" font-size="14.00">10</text>
</g>
<!-- trsm -->
<g id="node5" class="node">
<title>trsm</title>
<polygon fill="#ffffff" stroke="black" points="407.5,-176.82 233.5,-176.82 233.5,-116.82 407.5,-116.82 407.5,-176.82"/>
<text text-anchor="middle" x="320.5" y="-163.22" font-family="Times-Roman" font-size="12.00">trsm (2)</text>
<text text-anchor="middle" x="320.5" y="-150.22" font-family="Times-Roman" font-size="12.00">Num. Ranks: &#160;2&#45;2&#45;2</text>
<text text-anchor="middle" x="320.5" y="-137.22" font-family="Times-Roman" font-size="12.00">Avg. FLOPs: 1.00e+08</text>
<text text-anchor="middle" x="320.5" y="-124.22" font-family="Times-Roman" font-size="12.00">Avg. Perf: 151.53 FLOPs/ns</text>
</g>
<!-- LAPACK.potrf&#45;&gt;trsm -->
<g id="edge2" class="edge">
<title>LAPACK.potrf&#45;&gt;trsm</title>
<path fill="none" stroke="#2e7d32" d="M196.39,-455.4C202.28,-449.7 208.22,-443.63 213.5,-437.64 263.41,-381.03 279.31,-365.13 303.5,-293.64 315.3,-258.76 319.2,-216.81 320.35,-186.88"/>
<polygon fill="#2e7d32" stroke="#2e7d32" points="323.85,-186.92 320.65,-176.82 316.85,-186.71 323.85,-186.92"/>
<text text-anchor="middle" x="306" y="-315.44" font-family="Times-Roman" font-size="14.00">10</text>
</g>
<!-- trsv -->
<g id="node6" class="node">
<title>trsv</title>
<polygon fill="#ffffff" stroke="black" points="257,-293.64 98,-293.64 98,-233.64 257,-233.64 257,-293.64"/>
<text text-anchor="middle" x="177.5" y="-280.04" font-family="Times-Roman" font-size="12.00">trsv (2)</text>
<text text-anchor="middle" x="177.5" y="-267.04" font-family="Times-Roman" font-size="12.00">Num. Ranks: &#160;1&#45;1&#45;1</text>
<text text-anchor="middle" x="177.5" y="-254.04" font-family="Times-Roman" font-size="12.00">Avg. FLOPs: 3.40e+05</text>
<text text-anchor="middle" x="177.5" y="-241.04" font-family="Times-Roman" font-size="12.00">Avg. Perf: 4.44 FLOPs/ns</text>
</g>
<!-- LAPACK.potrf&#45;&gt;trsv -->
<g id="edge7" class="edge">
<title>LAPACK.potrf&#45;&gt;trsv</title>
<path fill="none" stroke="#000000" d="M185.65,-455.58C195.31,-441.1 205.55,-422.83 210.5,-404.64 217.5,-378.91 215.68,-370.8 210.5,-344.64 207.73,-330.66 202.49,-316.07 196.98,-303.22"/>
<polygon fill="#000000" stroke="#000000" points="200.03,-301.48 192.75,-293.78 193.64,-304.34 200.03,-301.48"/>
<text text-anchor="middle" x="224" y="-370.94" font-family="Times-Roman" font-size="14.00">20</text>
</g>
<!-- gemv&#45;&gt;LAPACK.potrf -->
<g id="edge6" class="edge">
<title>gemv&#45;&gt;LAPACK.potrf</title>
<path fill="none" stroke="#2e7d32" d="M117.88,-404.83C117.6,-415.46 118.56,-427.39 122.5,-437.64 123.76,-440.92 125.36,-444.13 127.2,-447.23"/>
<polygon fill="#2e7d32" stroke="#2e7d32" points="124.39,-449.32 132.9,-455.64 130.18,-445.39 124.39,-449.32"/>
<text text-anchor="middle" x="132" y="-426.44" font-family="Times-Roman" font-size="14.00">10</text>
</g>
<!-- gemv&#45;&gt;trsv -->
<g id="edge13" class="edge">
<title>gemv&#45;&gt;trsv</title>
<path fill="none" stroke="#e53935" d="M136.51,-344.43C143.04,-331.72 150.77,-316.66 157.76,-303.06"/>
<polygon fill="#e53935" stroke="#e53935" points="160.99,-304.42 162.45,-293.93 154.77,-301.23 160.99,-304.42"/>
<text text-anchor="middle" x="163" y="-315.44" font-family="Times-Roman" font-size="14.00">10</text>
</g>
<!-- syrk -->
<g id="node4" class="node">
<title>syrk</title>
<polygon fill="#ffffff" stroke="black" points="167,-60 0,-60 0,0 167,0 167,-60"/>
<text text-anchor="middle" x="83.5" y="-46.4" font-family="Times-Roman" font-size="12.00">syrk (2)</text>
<text text-anchor="middle" x="83.5" y="-33.4" font-family="Times-Roman" font-size="12.00">Num. Ranks: &#160;2&#45;2&#45;2</text>
<text text-anchor="middle" x="83.5" y="-20.4" font-family="Times-Roman" font-size="12.00">Avg. FLOPs: 1.00e+07</text>
<text text-anchor="middle" x="83.5" y="-7.4" font-family="Times-Roman" font-size="12.00">Avg. Perf: 33.28 FLOPs/ns</text>
</g>
<!-- syrk&#45;&gt;LAPACK.potrf -->
<g id="edge11" class="edge">
<title>syrk&#45;&gt;LAPACK.potrf</title>
<path fill="none" stroke="#e53935" d="M53.41,-60.23C34.44,-81.86 13.5,-113.13 13.5,-145.82 13.5,-375.64 13.5,-375.64 13.5,-375.64 13.5,-410.21 39.9,-434.96 70.55,-452.04"/>
<polygon fill="#e53935" stroke="#e53935" points="69.25,-455.32 79.73,-456.88 72.51,-449.12 69.25,-455.32"/>
<text text-anchor="middle" x="23" y="-259.94" font-family="Times-Roman" font-size="14.00">10</text>
</g>
<!-- syrk&#45;&gt;gemv -->
<g id="edge5" class="edge">
<title>syrk&#45;&gt;gemv</title>
<path fill="none" stroke="#2e7d32" d="M80.57,-60.15C76.42,-109.04 71.14,-210.38 88.5,-293.64 91.41,-307.59 96.69,-322.18 102.19,-335.02"/>
<polygon fill="#2e7d32" stroke="#2e7d32" points="99.13,-336.76 106.4,-344.47 105.52,-333.91 99.13,-336.76"/>
<text text-anchor="middle" x="88" y="-204.44" font-family="Times-Roman" font-size="14.00">10</text>
</g>
<!-- trsm&#45;&gt;syrk -->
<g id="edge10" class="edge">
<title>trsm&#45;&gt;syrk</title>
<path fill="none" stroke="#e53935" d="M260.39,-116.7C227.67,-100.85 187.04,-81.16 152.97,-64.66"/>
<polygon fill="#e53935" stroke="#e53935" points="154.07,-61.3 143.55,-60.09 151.02,-67.6 154.07,-61.3"/>
<text text-anchor="middle" x="218" y="-81.8" font-family="Times-Roman" font-size="14.00">10</text>
</g>
<!-- trsm&#45;&gt;trsv -->
<g id="edge3" class="edge">
<title>trsm&#45;&gt;trsv</title>
<path fill="none" stroke="#2e7d32" d="M294.03,-177.02C281.96,-189.58 267.11,-204.01 252.5,-215.64 247.25,-219.82 241.61,-223.94 235.86,-227.9"/>
<polygon fill="#2e7d32" stroke="#2e7d32" points="233.75,-225.1 227.4,-233.57 237.65,-230.91 233.75,-225.1"/>
<text text-anchor="middle" x="277" y="-204.44" font-family="Times-Roman" font-size="14.00">10</text>
</g>
<!-- trsv&#45;&gt;syrk -->
<g id="edge4" class="edge">
<title>trsv&#45;&gt;syrk</title>
<path fill="none" stroke="#2e7d32" d="M149.84,-233.63C137.6,-219.3 124.06,-201.14 115.5,-182.64 98.84,-146.66 90.76,-101.87 86.9,-70.32"/>
<polygon fill="#2e7d32" stroke="#2e7d32" points="90.35,-69.7 85.74,-60.16 83.4,-70.49 90.35,-69.7"/>
<text text-anchor="middle" x="125" y="-143.12" font-family="Times-Roman" font-size="14.00">10</text>
</g>
<!-- trsv&#45;&gt;trsm -->
<g id="edge9" class="edge">
<title>trsv&#45;&gt;trsm</title>
<path fill="none" stroke="#e53935" d="M198.4,-233.6C207.23,-222.5 218.1,-210.23 229.5,-200.64 237.15,-194.2 245.7,-188.1 254.4,-182.49"/>
<polygon fill="#e53935" stroke="#e53935" points="256.49,-185.31 263.12,-177.04 252.79,-179.37 256.49,-185.31"/>
<text text-anchor="middle" x="239" y="-204.44" font-family="Times-Roman" font-size="14.00">10</text>
</g>
<!-- trsv&#45;&gt;trsv -->
<g id="edge8" class="edge">
<title>trsv&#45;&gt;trsv</title>
<path fill="none" stroke="#000000" d="M257.07,-272.62C267.83,-271.12 275,-268.12 275,-263.64 275,-260.77 272.06,-258.51 267.12,-256.86"/>
<polygon fill="#000000" stroke="#000000" points="267.59,-253.38 257.07,-254.66 266.09,-260.22 267.59,-253.38"/>
<text text-anchor="middle" x="284.5" y="-259.94" font-family="Times-Roman" font-size="14.00">20</text>
</g>
<!-- &#9632; -->
<g id="node7" class="node">
<title>&#9632;</title>
<ellipse fill="none" stroke="black" cx="179.5" cy="-146.82" rx="31.66" ry="31.66"/>
<ellipse fill="none" stroke="black" cx="179.5" cy="-146.82" rx="35.64" ry="35.64"/>
<text text-anchor="middle" x="179.5" y="-139.32" font-family="Times-Roman" font-size="30.00">■</text>
</g>
<!-- trsv&#45;&gt;&#9632; -->
<g id="edge14" class="edge">
<title>trsv&#45;&gt;&#9632;</title>
<path fill="none" stroke="#000000" d="M178.01,-233.37C178.22,-221.09 178.48,-206.52 178.71,-192.92"/>
<polygon fill="#000000" stroke="#000000" points="182.22,-192.82 178.89,-182.76 175.22,-192.7 182.22,-192.82"/>
<text text-anchor="middle" x="189" y="-204.44" font-family="Times-Roman" font-size="14.00">20</text>
</g>
</g>
</svg>
