<?xml version="1.0" encoding="UTF-8" standalone="no"?>
<!DOCTYPE svg PUBLIC "-//W3C//DTD SVG 1.1//EN"
 "http://www.w3.org/Graphics/SVG/1.1/DTD/svg11.dtd">
<!-- Generated by graphviz version 2.44.0 (0)
 -->
<!-- Pages: 1 -->
<svg width="1290pt" height="467pt"
 viewBox="0.00 0.00 1289.81 467.00" xmlns="http://www.w3.org/2000/svg" xmlns:xlink="http://www.w3.org/1999/xlink">
<g id="graph0" class="graph" transform="scale(1 1) rotate(0) translate(4 463)">
<polygon fill="white" stroke="transparent" points="-4,4 -4,-463 1285.81,-463 1285.81,4 -4,4"/>
<!-- &#9679; -->
<g id="node1" class="node">
<title>&#9679;</title>
<ellipse fill="none" stroke="black" cx="30.41" cy="-196" rx="30.31" ry="30.31"/>
<text text-anchor="middle" x="30.41" y="-188.5" font-family="Times-Roman" font-size="30.00">●</text>
</g>
<!-- LAPACK.potrf -->
<g id="node2" class="node">
<title>LAPACK.potrf</title>
<polygon fill="#f3f3ff" stroke="black" points="464.81,-242.5 317.81,-242.5 317.81,-169.5 464.81,-169.5 464.81,-242.5"/>
<text text-anchor="middle" x="391.31" y="-228.9" font-family="Times-Roman" font-size="12.00">LAPACK.potrf (10/10)</text>
<text text-anchor="middle" x="391.31" y="-215.9" font-family="Times-Roman" font-size="12.00">Rank score: 1.7</text>
<text text-anchor="middle" x="391.31" y="-202.9" font-family="Times-Roman" font-size="12.00">Num. Ranks: &#160;2&#45;1&#45;1</text>
<text text-anchor="middle" x="391.31" y="-189.9" font-family="Times-Roman" font-size="12.00">Avg. FLOPs: 1.76e+08</text>
<text text-anchor="middle" x="391.31" y="-176.9" font-family="Times-Roman" font-size="12.00">Avg. Perf: 51.24 F/ns</text>
</g>
<!-- &#9679;&#45;&gt;LAPACK.potrf -->
<g id="edge1" class="edge">
<title>&#9679;&#45;&gt;LAPACK.potrf</title>
<path fill="none" stroke="#000000" d="M60.39,-201.65C66.46,-202.62 72.82,-203.48 78.81,-204 156.13,-210.73 244.65,-210.54 307.52,-209.08"/>
<polygon fill="#000000" stroke="#000000" points="307.86,-212.57 317.77,-208.82 307.69,-205.57 307.86,-212.57"/>
<text text-anchor="middle" x="189.31" y="-213.8" font-family="Times-Roman" font-size="14.00">60</text>
</g>
<!-- transpose -->
<g id="node7" class="node">
<title>transpose</title>
<polygon fill="#e9e9ff" stroke="black" points="262.81,-195.5 115.81,-195.5 115.81,-122.5 262.81,-122.5 262.81,-195.5"/>
<text text-anchor="middle" x="189.31" y="-181.9" font-family="Times-Roman" font-size="12.00">transpose (4/10)</text>
<text text-anchor="middle" x="189.31" y="-168.9" font-family="Times-Roman" font-size="12.00">Rank score: 3.0</text>
<text text-anchor="middle" x="189.31" y="-155.9" font-family="Times-Roman" font-size="12.00">Num. Ranks: &#160;1&#45;1&#45;1</text>
<text text-anchor="middle" x="189.31" y="-142.9" font-family="Times-Roman" font-size="12.00">Avg. FLOPs: 1.00e+00</text>
<text text-anchor="middle" x="189.31" y="-129.9" font-family="Times-Roman" font-size="12.00">Avg. Perf: 0.00 F/ns</text>
</g>
<!-- &#9679;&#45;&gt;transpose -->
<g id="edge2" class="edge">
<title>&#9679;&#45;&gt;transpose</title>
<path fill="none" stroke="#000000" d="M60.18,-189.21C73.15,-186.16 89.2,-182.37 105.49,-178.53"/>
<polygon fill="#000000" stroke="#000000" points="106.72,-181.84 115.65,-176.14 105.11,-175.02 106.72,-181.84"/>
<text text-anchor="middle" x="88.31" y="-188.8" font-family="Times-Roman" font-size="14.00">40</text>
</g>
<!-- gemv -->
<g id="node3" class="node">
<title>gemv</title>
<polygon fill="#f3f3ff" stroke="black" points="666.81,-242.5 519.81,-242.5 519.81,-169.5 666.81,-169.5 666.81,-242.5"/>
<text text-anchor="middle" x="593.31" y="-228.9" font-family="Times-Roman" font-size="12.00">gemv (10/10)</text>
<text text-anchor="middle" x="593.31" y="-215.9" font-family="Times-Roman" font-size="12.00">Rank score: 1.7</text>
<text text-anchor="middle" x="593.31" y="-202.9" font-family="Times-Roman" font-size="12.00">Num. Ranks: &#160;7&#45;5&#45;5</text>
<text text-anchor="middle" x="593.31" y="-189.9" font-family="Times-Roman" font-size="12.00">Avg. FLOPs: 1.84e+05</text>
<text text-anchor="middle" x="593.31" y="-176.9" font-family="Times-Roman" font-size="12.00">Avg. Perf: 6.96 F/ns</text>
</g>
<!-- LAPACK.potrf&#45;&gt;gemv -->
<g id="edge7" class="edge">
<title>LAPACK.potrf&#45;&gt;gemv</title>
<path fill="none" stroke="#000000" d="M465.08,-206C479.51,-206 494.76,-206 509.49,-206"/>
<polygon fill="#000000" stroke="#000000" points="509.6,-209.5 519.6,-206 509.59,-202.5 509.6,-209.5"/>
<text text-anchor="middle" x="492.31" y="-209.8" font-family="Times-Roman" font-size="14.00">30</text>
</g>
<!-- trsm -->
<g id="node5" class="node">
<title>trsm</title>
<polygon fill="#f3f3ff" stroke="black" points="1079.81,-331.5 932.81,-331.5 932.81,-258.5 1079.81,-258.5 1079.81,-331.5"/>
<text text-anchor="middle" x="1006.31" y="-317.9" font-family="Times-Roman" font-size="12.00">trsm (10/10)</text>
<text text-anchor="middle" x="1006.31" y="-304.9" font-family="Times-Roman" font-size="12.00">Rank score: 1.7</text>
<text text-anchor="middle" x="1006.31" y="-291.9" font-family="Times-Roman" font-size="12.00">Num. Ranks: &#160;3&#45;1&#45;1</text>
<text text-anchor="middle" x="1006.31" y="-278.9" font-family="Times-Roman" font-size="12.00">Avg. FLOPs: 7.43e+07</text>
<text text-anchor="middle" x="1006.31" y="-265.9" font-family="Times-Roman" font-size="12.00">Avg. Perf: 134.76 F/ns</text>
</g>
<!-- LAPACK.potrf&#45;&gt;trsm -->
<g id="edge11" class="edge">
<title>LAPACK.potrf&#45;&gt;trsm</title>
<path fill="none" stroke="#000000" d="M438.65,-242.5C493.71,-283.41 590.07,-347.47 684.81,-374 783.27,-401.57 819.64,-416.36 914.81,-379 935.9,-370.72 955.01,-354.96 970.17,-339.3"/>
<polygon fill="#000000" stroke="#000000" points="973.03,-341.36 977.29,-331.66 967.91,-336.59 973.03,-341.36"/>
<text text-anchor="middle" x="694.31" y="-381.8" font-family="Times-Roman" font-size="14.00">80</text>
</g>
<!-- trsv -->
<g id="node6" class="node">
<title>trsv</title>
<polygon fill="#f3f3ff" stroke="black" points="868.81,-156.5 721.81,-156.5 721.81,-83.5 868.81,-83.5 868.81,-156.5"/>
<text text-anchor="middle" x="795.31" y="-142.9" font-family="Times-Roman" font-size="12.00">trsv (10/10)</text>
<text text-anchor="middle" x="795.31" y="-129.9" font-family="Times-Roman" font-size="12.00">Rank score: 1.7</text>
<text text-anchor="middle" x="795.31" y="-116.9" font-family="Times-Roman" font-size="12.00">Num. Ranks: &#160;1&#45;1&#45;1</text>
<text text-anchor="middle" x="795.31" y="-103.9" font-family="Times-Roman" font-size="12.00">Avg. FLOPs: 4.88e+05</text>
<text text-anchor="middle" x="795.31" y="-90.9" font-family="Times-Roman" font-size="12.00">Avg. Perf: 5.04 F/ns</text>
</g>
<!-- LAPACK.potrf&#45;&gt;trsv -->
<g id="edge3" class="edge">
<title>LAPACK.potrf&#45;&gt;trsv</title>
<path fill="none" stroke="#000000" d="M457.41,-169.39C476.93,-159.93 498.75,-150.79 519.81,-145 582.68,-127.7 656.4,-121.73 711.6,-119.94"/>
<polygon fill="#000000" stroke="#000000" points="711.79,-123.43 721.69,-119.65 711.59,-116.44 711.79,-123.43"/>
<text text-anchor="middle" x="593.31" y="-148.8" font-family="Times-Roman" font-size="14.00">80</text>
</g>
<!-- gemv&#45;&gt;LAPACK.potrf -->
<g id="edge23" class="edge">
<title>gemv&#45;&gt;LAPACK.potrf</title>
<path fill="none" stroke="#000000" d="M519.76,-187.71C507.47,-186.25 494.81,-185.75 482.81,-187 480.3,-187.26 477.75,-187.56 475.18,-187.9"/>
<polygon fill="#000000" stroke="#000000" points="474.6,-184.44 465.21,-189.34 475.61,-191.37 474.6,-184.44"/>
<text text-anchor="middle" x="492.31" y="-190.8" font-family="Times-Roman" font-size="14.00">20</text>
</g>
<!-- gemv&#45;&gt;trsv -->
<g id="edge8" class="edge">
<title>gemv&#45;&gt;trsv</title>
<path fill="none" stroke="#000000" d="M667.08,-174.71C681.79,-168.39 697.34,-161.7 712.34,-155.25"/>
<polygon fill="#000000" stroke="#000000" points="713.79,-158.43 721.6,-151.27 711.03,-152 713.79,-158.43"/>
<text text-anchor="middle" x="694.31" y="-169.8" font-family="Times-Roman" font-size="14.00">80</text>
</g>
<!-- qr -->
<g id="node9" class="node">
<title>qr</title>
<polygon fill="#f0f0ff" stroke="black" points="868.81,-280.5 721.81,-280.5 721.81,-207.5 868.81,-207.5 868.81,-280.5"/>
<text text-anchor="middle" x="795.31" y="-266.9" font-family="Times-Roman" font-size="12.00">qr (1/10)</text>
<text text-anchor="middle" x="795.31" y="-253.9" font-family="Times-Roman" font-size="12.00">Rank score: 2.0</text>
<text text-anchor="middle" x="795.31" y="-240.9" font-family="Times-Roman" font-size="12.00">Num. Ranks: &#160;1&#45;1&#45;1</text>
<text text-anchor="middle" x="795.31" y="-227.9" font-family="Times-Roman" font-size="12.00">Avg. FLOPs: 2.67e+06</text>
<text text-anchor="middle" x="795.31" y="-214.9" font-family="Times-Roman" font-size="12.00">Avg. Perf: 6.71 F/ns</text>
</g>
<!-- gemv&#45;&gt;qr -->
<g id="edge20" class="edge">
<title>gemv&#45;&gt;qr</title>
<path fill="none" stroke="#000000" d="M667.08,-219.83C681.51,-222.57 696.76,-225.46 711.49,-228.26"/>
<polygon fill="#000000" stroke="#000000" points="711.12,-231.76 721.6,-230.18 712.42,-224.88 711.12,-231.76"/>
<text text-anchor="middle" x="694.31" y="-229.8" font-family="Times-Roman" font-size="14.00">10</text>
</g>
<!-- syrk -->
<g id="node4" class="node">
<title>syrk</title>
<polygon fill="#ededff" stroke="black" points="1281.81,-376.5 1134.81,-376.5 1134.81,-303.5 1281.81,-303.5 1281.81,-376.5"/>
<text text-anchor="middle" x="1208.31" y="-362.9" font-family="Times-Roman" font-size="12.00">syrk (7/10)</text>
<text text-anchor="middle" x="1208.31" y="-349.9" font-family="Times-Roman" font-size="12.00">Rank score: 2.4</text>
<text text-anchor="middle" x="1208.31" y="-336.9" font-family="Times-Roman" font-size="12.00">Num. Ranks: &#160;2&#45;1&#45;1</text>
<text text-anchor="middle" x="1208.31" y="-323.9" font-family="Times-Roman" font-size="12.00">Avg. FLOPs: 1.00e+07</text>
<text text-anchor="middle" x="1208.31" y="-310.9" font-family="Times-Roman" font-size="12.00">Avg. Perf: 33.37 F/ns</text>
</g>
<!-- syrk&#45;&gt;LAPACK.potrf -->
<g id="edge6" class="edge">
<title>syrk&#45;&gt;LAPACK.potrf</title>
<path fill="none" stroke="#000000" d="M1165.69,-376.67C1127.32,-406.61 1067.39,-444 1007.31,-444 592.31,-444 592.31,-444 592.31,-444 493.29,-444 433.47,-321.75 407.53,-252.48"/>
<polygon fill="#000000" stroke="#000000" points="410.66,-250.86 403.95,-242.67 404.09,-253.26 410.66,-250.86"/>
<text text-anchor="middle" x="795.31" y="-447.8" font-family="Times-Roman" font-size="14.00">50</text>
</g>
<!-- syrk&#45;&gt;gemv -->
<g id="edge19" class="edge">
<title>syrk&#45;&gt;gemv</title>
<path fill="none" stroke="#000000" d="M1134.54,-354.64C1036.25,-370.85 857.76,-387.48 721.81,-328 683.75,-311.35 650.23,-278.1 627.13,-250.52"/>
<polygon fill="#000000" stroke="#000000" points="629.64,-248.06 620.6,-242.53 624.22,-252.49 629.64,-248.06"/>
<text text-anchor="middle" x="900.81" y="-371.8" font-family="Times-Roman" font-size="14.00">20</text>
</g>
<!-- trsm&#45;&gt;gemv -->
<g id="edge16" class="edge">
<title>trsm&#45;&gt;gemv</title>
<path fill="none" stroke="#000000" d="M932.79,-305.54C874.26,-311.29 790.63,-313.15 721.81,-290 694.74,-280.89 667.88,-264.57 645.84,-248.73"/>
<polygon fill="#000000" stroke="#000000" points="647.76,-245.8 637.63,-242.69 643.62,-251.44 647.76,-245.8"/>
<text text-anchor="middle" x="795.31" y="-312.8" font-family="Times-Roman" font-size="14.00">20</text>
</g>
<!-- trsm&#45;&gt;syrk -->
<g id="edge5" class="edge">
<title>trsm&#45;&gt;syrk</title>
<path fill="none" stroke="#000000" d="M1080.08,-311.37C1094.51,-314.62 1109.76,-318.05 1124.49,-321.37"/>
<polygon fill="#000000" stroke="#000000" points="1124.07,-324.86 1134.6,-323.64 1125.61,-318.03 1124.07,-324.86"/>
<text text-anchor="middle" x="1107.31" y="-321.8" font-family="Times-Roman" font-size="14.00">50</text>
</g>
<!-- trsm&#45;&gt;trsv -->
<g id="edge12" class="edge">
<title>trsm&#45;&gt;trsv</title>
<path fill="none" stroke="#000000" d="M938.55,-258.48C914.25,-244.84 891.52,-231.55 886.81,-227 875.9,-216.46 878.02,-210.06 868.81,-198 860.14,-186.65 850.1,-175.05 840.31,-164.38"/>
<polygon fill="#000000" stroke="#000000" points="842.62,-161.72 833.25,-156.79 837.5,-166.49 842.62,-161.72"/>
<text text-anchor="middle" x="900.81" y="-247.8" font-family="Times-Roman" font-size="14.00">60</text>
</g>
<!-- gemm -->
<g id="node8" class="node">
<title>gemm</title>
<polygon fill="#ffffff" stroke="black" points="1281.81,-97.5 1134.81,-97.5 1134.81,-24.5 1281.81,-24.5 1281.81,-97.5"/>
<text text-anchor="middle" x="1208.31" y="-83.9" font-family="Times-Roman" font-size="12.00">gemm (3/10)</text>
<text text-anchor="middle" x="1208.31" y="-70.9" font-family="Times-Roman" font-size="12.00">Rank score: 0.0</text>
<text text-anchor="middle" x="1208.31" y="-57.9" font-family="Times-Roman" font-size="12.00">Num. Ranks: &#160;1&#45;1&#45;1</text>
<text text-anchor="middle" x="1208.31" y="-44.9" font-family="Times-Roman" font-size="12.00">Avg. FLOPs: 2.00e+07</text>
<text text-anchor="middle" x="1208.31" y="-31.9" font-family="Times-Roman" font-size="12.00">Avg. Perf: 107.53 F/ns</text>
</g>
<!-- trsm&#45;&gt;gemm -->
<g id="edge14" class="edge">
<title>trsm&#45;&gt;gemm</title>
<path fill="none" stroke="#000000" d="M1063.55,-258.48C1069.28,-253.88 1074.82,-249.02 1079.81,-244 1121.16,-202.46 1158.19,-146.07 1181.55,-106.91"/>
<polygon fill="#000000" stroke="#000000" points="1184.83,-108.23 1186.9,-97.84 1178.8,-104.67 1184.83,-108.23"/>
<text text-anchor="middle" x="1107.31" y="-224.8" font-family="Times-Roman" font-size="14.00">10</text>
</g>
<!-- trsv&#45;&gt;gemv -->
<g id="edge13" class="edge">
<title>trsv&#45;&gt;gemv</title>
<path fill="none" stroke="#000000" d="M721.73,-130.14C709.14,-133.14 696.39,-137.01 684.81,-142 671.73,-147.64 658.64,-155.37 646.65,-163.51"/>
<polygon fill="#000000" stroke="#000000" points="644.31,-160.88 638.13,-169.48 648.33,-166.61 644.31,-160.88"/>
<text text-anchor="middle" x="694.31" y="-145.8" font-family="Times-Roman" font-size="14.00">20</text>
</g>
<!-- trsv&#45;&gt;syrk -->
<g id="edge18" class="edge">
<title>trsv&#45;&gt;syrk</title>
<path fill="none" stroke="#000000" d="M851.54,-156.6C875.67,-171.24 904.81,-187.17 932.81,-198 1010.95,-228.23 1044.51,-196.67 1116.81,-239 1140.56,-252.91 1161.49,-275.17 1177.22,-295.26"/>
<polygon fill="#000000" stroke="#000000" points="1174.59,-297.57 1183.43,-303.42 1180.16,-293.34 1174.59,-297.57"/>
<text text-anchor="middle" x="1006.31" y="-225.8" font-family="Times-Roman" font-size="14.00">20</text>
</g>
<!-- trsv&#45;&gt;trsm -->
<g id="edge4" class="edge">
<title>trsv&#45;&gt;trsm</title>
<path fill="none" stroke="#000000" d="M837.31,-156.7C848.89,-168.86 860.57,-183.12 868.81,-198 883.75,-224.97 864.85,-243.36 886.81,-265 896.78,-274.83 909.49,-281.59 922.85,-286.2"/>
<polygon fill="#000000" stroke="#000000" points="922.09,-289.62 932.67,-289.19 924.13,-282.93 922.09,-289.62"/>
<text text-anchor="middle" x="900.81" y="-285.8" font-family="Times-Roman" font-size="14.00">60</text>
</g>
<!-- trsv&#45;&gt;trsv -->
<g id="edge9" class="edge">
<title>trsv&#45;&gt;trsv</title>
<path fill="none" stroke="#000000" d="M776.68,-156.68C777.58,-166.78 783.79,-174.5 795.31,-174.5 802.69,-174.5 807.9,-171.33 810.92,-166.4"/>
<polygon fill="#000000" stroke="#000000" points="814.31,-167.27 813.95,-156.68 807.63,-165.18 814.31,-167.27"/>
<text text-anchor="middle" x="795.31" y="-178.3" font-family="Times-Roman" font-size="14.00">70</text>
</g>
<!-- trsv&#45;&gt;gemm -->
<g id="edge17" class="edge">
<title>trsv&#45;&gt;gemm</title>
<path fill="none" stroke="#000000" d="M869.09,-104.5C889.63,-100.42 912.05,-96.26 932.81,-93 996.95,-82.93 1069.99,-74.57 1124.59,-68.92"/>
<polygon fill="#000000" stroke="#000000" points="1124.97,-72.4 1134.57,-67.89 1124.26,-65.43 1124.97,-72.4"/>
<text text-anchor="middle" x="1006.31" y="-96.8" font-family="Times-Roman" font-size="14.00">20</text>
</g>
<!-- &#9632; -->
<g id="node10" class="node">
<title>&#9632;</title>
<ellipse fill="none" stroke="black" cx="1006.31" cy="-153" rx="31.66" ry="31.66"/>
<ellipse fill="none" stroke="black" cx="1006.31" cy="-153" rx="35.64" ry="35.64"/>
<text text-anchor="middle" x="1006.31" y="-145.5" font-family="Times-Roman" font-size="30.00">■</text>
</g>
<!-- trsv&#45;&gt;&#9632; -->
<g id="edge24" class="edge">
<title>trsv&#45;&gt;&#9632;</title>
<path fill="none" stroke="#000000" d="M868.82,-131.45C899.32,-136.26 933.84,-141.71 960.53,-145.93"/>
<polygon fill="#000000" stroke="#000000" points="960.3,-149.44 970.72,-147.54 961.39,-142.52 960.3,-149.44"/>
<text text-anchor="middle" x="900.81" y="-142.8" font-family="Times-Roman" font-size="14.00">100</text>
</g>
<!-- transpose&#45;&gt;LAPACK.potrf -->
<g id="edge10" class="edge">
<title>transpose&#45;&gt;LAPACK.potrf</title>
<path fill="none" stroke="#000000" d="M263.08,-176.1C277.51,-179.49 292.76,-183.07 307.49,-186.54"/>
<polygon fill="#000000" stroke="#000000" points="307.06,-190.03 317.6,-188.91 308.66,-183.22 307.06,-190.03"/>
<text text-anchor="middle" x="290.31" y="-187.8" font-family="Times-Roman" font-size="14.00">40</text>
</g>
<!-- gemm&#45;&gt;LAPACK.potrf -->
<g id="edge15" class="edge">
<title>gemm&#45;&gt;LAPACK.potrf</title>
<path fill="none" stroke="#000000" d="M1134.36,-27.47C1097.15,-13.29 1050.69,0 1007.31,0 592.31,0 592.31,0 592.31,0 503.83,0 441.9,-99.04 412.23,-159.77"/>
<polygon fill="#000000" stroke="#000000" points="408.9,-158.64 407.75,-169.17 415.22,-161.65 408.9,-158.64"/>
<text text-anchor="middle" x="795.31" y="-3.8" font-family="Times-Roman" font-size="14.00">20</text>
</g>
<!-- gemm&#45;&gt;gemv -->
<g id="edge22" class="edge">
<title>gemm&#45;&gt;gemv</title>
<path fill="none" stroke="#000000" d="M1134.68,-43.04C1034.59,-22.49 851.89,-0.41 721.81,-74 695.2,-89.06 700.53,-105.78 684.81,-132 677.8,-143.7 677.94,-150.09 668.1,-161.82"/>
<polygon fill="#000000" stroke="#000000" points="665.27,-159.72 661.02,-169.42 670.39,-164.49 665.27,-159.72"/>
<text text-anchor="middle" x="900.81" y="-29.8" font-family="Times-Roman" font-size="14.00">10</text>
</g>
<!-- qr&#45;&gt;gemv -->
<g id="edge21" class="edge">
<title>qr&#45;&gt;gemv</title>
<path fill="none" stroke="#000000" d="M721.58,-208.82C715.66,-206.89 709.69,-205.24 703.81,-204 695.23,-202.19 686.18,-201.09 677.12,-200.52"/>
<polygon fill="#000000" stroke="#000000" points="677.04,-197.01 666.9,-200.08 676.74,-204 677.04,-197.01"/>
<text text-anchor="middle" x="694.31" y="-207.8" font-family="Times-Roman" font-size="14.00">10</text>
</g>
</g>
</svg>
