<?xml version="1.0" encoding="UTF-8" standalone="no"?>
<!DOCTYPE svg PUBLIC "-//W3C//DTD SVG 1.1//EN"
 "http://www.w3.org/Graphics/SVG/1.1/DTD/svg11.dtd">
<!-- Generated by graphviz version 2.44.0 (0)
 -->
<!-- Pages: 1 -->
<svg width="650pt" height="524pt"
 viewBox="0.00 0.00 650.00 524.45" xmlns="http://www.w3.org/2000/svg" xmlns:xlink="http://www.w3.org/1999/xlink">
<g id="graph0" class="graph" transform="scale(1 1) rotate(0) translate(4 520.45)">
<polygon fill="white" stroke="transparent" points="-4,4 -4,-520.45 646,-520.45 646,4 -4,4"/>
<!-- &#9679; -->
<g id="node1" class="node">
<title>&#9679;</title>
<ellipse fill="none" stroke="black" cx="437.5" cy="-486.05" rx="30.31" ry="30.31"/>
<text text-anchor="middle" x="437.5" y="-478.55" font-family="Times-Roman" font-size="30.00">●</text>
</g>
<!-- LAPACK.potrf -->
<g id="node2" class="node">
<title>LAPACK.potrf</title>
<polygon fill="#ffffff" stroke="black" points="521,-404.64 354,-404.64 354,-344.64 521,-344.64 521,-404.64"/>
<text text-anchor="middle" x="437.5" y="-391.04" font-family="Times-Roman" font-size="12.00">LAPACK.potrf (2)</text>
<text text-anchor="middle" x="437.5" y="-378.04" font-family="Times-Roman" font-size="12.00">Num. Ranks: &#160;2&#45;2&#45;2</text>
<text text-anchor="middle" x="437.5" y="-365.04" font-family="Times-Roman" font-size="12.00">Avg. FLOPs: 2.22e+08</text>
<text text-anchor="middle" x="437.5" y="-352.04" font-family="Times-Roman" font-size="12.00">Avg. Perf: 15.73 FLOPs/ns</text>
</g>
<!-- &#9679;&#45;&gt;LAPACK.potrf -->
<g id="edge1" class="edge">
<title>&#9679;&#45;&gt;LAPACK.potrf</title>
<path fill="none" stroke="#000000" d="M437.5,-455.44C437.5,-443.05 437.5,-428.48 437.5,-415.2"/>
<polygon fill="#000000" stroke="#000000" points="441,-414.89 437.5,-404.89 434,-414.89 441,-414.89"/>
<text text-anchor="middle" x="447" y="-426.44" font-family="Times-Roman" font-size="14.00">20</text>
</g>
<!-- gemv -->
<g id="node4" class="node">
<title>gemv</title>
<polygon fill="#ffffff" stroke="black" points="336,-293.64 177,-293.64 177,-233.64 336,-233.64 336,-293.64"/>
<text text-anchor="middle" x="256.5" y="-280.04" font-family="Times-Roman" font-size="12.00">gemv (2)</text>
<text text-anchor="middle" x="256.5" y="-267.04" font-family="Times-Roman" font-size="12.00">Num. Ranks: &#160;2&#45;2&#45;2</text>
<text text-anchor="middle" x="256.5" y="-254.04" font-family="Times-Roman" font-size="12.00">Avg. FLOPs: 1.40e+05</text>
<text text-anchor="middle" x="256.5" y="-241.04" font-family="Times-Roman" font-size="12.00">Avg. Perf: 5.62 FLOPs/ns</text>
</g>
<!-- LAPACK.potrf&#45;&gt;gemv -->
<g id="edge6" class="edge">
<title>LAPACK.potrf&#45;&gt;gemv</title>
<path fill="none" stroke="#2e7d32" d="M389,-344.43C365.77,-330.44 337.81,-313.61 313.57,-299.01"/>
<polygon fill="#2e7d32" stroke="#2e7d32" points="315.2,-295.9 304.82,-293.74 311.59,-301.9 315.2,-295.9"/>
<text text-anchor="middle" x="367" y="-315.44" font-family="Times-Roman" font-size="14.00">10</text>
</g>
<!-- trsm -->
<g id="node5" class="node">
<title>trsm</title>
<polygon fill="#ffffff" stroke="black" points="521,-293.64 354,-293.64 354,-233.64 521,-233.64 521,-293.64"/>
<text text-anchor="middle" x="437.5" y="-280.04" font-family="Times-Roman" font-size="12.00">trsm (2)</text>
<text text-anchor="middle" x="437.5" y="-267.04" font-family="Times-Roman" font-size="12.00">Num. Ranks: &#160;2&#45;2&#45;2</text>
<text text-anchor="middle" x="437.5" y="-254.04" font-family="Times-Roman" font-size="12.00">Avg. FLOPs: 1.00e+08</text>
<text text-anchor="middle" x="437.5" y="-241.04" font-family="Times-Roman" font-size="12.00">Avg. Perf: 22.70 FLOPs/ns</text>
</g>
<!-- LAPACK.potrf&#45;&gt;trsm -->
<g id="edge2" class="edge">
<title>LAPACK.potrf&#45;&gt;trsm</title>
<path fill="none" stroke="#000000" d="M437.5,-344.43C437.5,-332.09 437.5,-317.53 437.5,-304.24"/>
<polygon fill="#000000" stroke="#000000" points="441,-303.93 437.5,-293.93 434,-303.93 441,-303.93"/>
<text text-anchor="middle" x="447" y="-315.44" font-family="Times-Roman" font-size="14.00">20</text>
</g>
<!-- gemm -->
<g id="node3" class="node">
<title>gemm</title>
<polygon fill="#8bc34a" stroke="black" points="642,-65.82 475,-65.82 475,-5.82 642,-5.82 642,-65.82"/>
<text text-anchor="middle" x="558.5" y="-52.22" font-family="Times-Roman" font-size="12.00">gemm (1)</text>
<text text-anchor="middle" x="558.5" y="-39.22" font-family="Times-Roman" font-size="12.00">Num. Ranks: &#160;1&#45;1&#45;1</text>
<text text-anchor="middle" x="558.5" y="-26.22" font-family="Times-Roman" font-size="12.00">Avg. FLOPs: 2.00e+07</text>
<text text-anchor="middle" x="558.5" y="-13.22" font-family="Times-Roman" font-size="12.00">Avg. Perf: 55.21 FLOPs/ns</text>
</g>
<!-- gemm&#45;&gt;LAPACK.potrf -->
<g id="edge5" class="edge">
<title>gemm&#45;&gt;LAPACK.potrf</title>
<path fill="none" stroke="#2e7d32" d="M561.97,-66.16C566.48,-116.05 569.67,-219.22 530.5,-293.64 521.54,-310.65 507.34,-325.62 492.7,-337.86"/>
<polygon fill="#2e7d32" stroke="#2e7d32" points="490.18,-335.4 484.55,-344.38 494.55,-340.86 490.18,-335.4"/>
<text text-anchor="middle" x="568" y="-204.44" font-family="Times-Roman" font-size="14.00">10</text>
</g>
<!-- trsv -->
<g id="node6" class="node">
<title>trsv</title>
<polygon fill="#ffffff" stroke="black" points="493,-182.64 334,-182.64 334,-122.64 493,-122.64 493,-182.64"/>
<text text-anchor="middle" x="413.5" y="-169.04" font-family="Times-Roman" font-size="12.00">trsv (2)</text>
<text text-anchor="middle" x="413.5" y="-156.04" font-family="Times-Roman" font-size="12.00">Num. Ranks: &#160;1&#45;1&#45;1</text>
<text text-anchor="middle" x="413.5" y="-143.04" font-family="Times-Roman" font-size="12.00">Avg. FLOPs: 4.06e+05</text>
<text text-anchor="middle" x="413.5" y="-130.04" font-family="Times-Roman" font-size="12.00">Avg. Perf: 3.39 FLOPs/ns</text>
</g>
<!-- gemv&#45;&gt;trsv -->
<g id="edge7" class="edge">
<title>gemv&#45;&gt;trsv</title>
<path fill="none" stroke="#000000" d="M298.57,-233.43C318.45,-219.63 342.33,-203.05 363.16,-188.59"/>
<polygon fill="#000000" stroke="#000000" points="365.36,-191.32 371.58,-182.74 361.37,-185.57 365.36,-191.32"/>
<text text-anchor="middle" x="353" y="-204.44" font-family="Times-Roman" font-size="14.00">20</text>
</g>
<!-- view -->
<g id="node9" class="node">
<title>view</title>
<polygon fill="#ef9a9a" stroke="black" points="254,-182.64 87,-182.64 87,-122.64 254,-122.64 254,-182.64"/>
<text text-anchor="middle" x="170.5" y="-169.04" font-family="Times-Roman" font-size="12.00">view (1)</text>
<text text-anchor="middle" x="170.5" y="-156.04" font-family="Times-Roman" font-size="12.00">Num. Ranks: &#160;1&#45;1&#45;1</text>
<text text-anchor="middle" x="170.5" y="-143.04" font-family="Times-Roman" font-size="12.00">Avg. FLOPs: 1.00e+06</text>
<text text-anchor="middle" x="170.5" y="-130.04" font-family="Times-Roman" font-size="12.00">Avg. Perf: 39.12 FLOPs/ns</text>
</g>
<!-- gemv&#45;&gt;view -->
<g id="edge11" class="edge">
<title>gemv&#45;&gt;view</title>
<path fill="none" stroke="#e53935" d="M233.45,-233.43C223.14,-220.36 210.86,-204.79 199.89,-190.89"/>
<polygon fill="#e53935" stroke="#e53935" points="202.55,-188.61 193.61,-182.93 197.06,-192.95 202.55,-188.61"/>
<text text-anchor="middle" x="228" y="-204.44" font-family="Times-Roman" font-size="14.00">10</text>
</g>
<!-- trsm&#45;&gt;trsv -->
<g id="edge3" class="edge">
<title>trsm&#45;&gt;trsv</title>
<path fill="none" stroke="#000000" d="M431.07,-233.43C428.32,-220.97 425.08,-206.24 422.13,-192.85"/>
<polygon fill="#000000" stroke="#000000" points="425.52,-191.94 419.95,-182.93 418.68,-193.45 425.52,-191.94"/>
<text text-anchor="middle" x="436" y="-204.44" font-family="Times-Roman" font-size="14.00">20</text>
</g>
<!-- trsv&#45;&gt;gemm -->
<g id="edge4" class="edge">
<title>trsv&#45;&gt;gemm</title>
<path fill="none" stroke="#2e7d32" d="M450.46,-122.37C469.8,-107.06 493.61,-88.2 513.95,-72.09"/>
<polygon fill="#2e7d32" stroke="#2e7d32" points="516.19,-74.79 521.85,-65.84 511.84,-69.3 516.19,-74.79"/>
<text text-anchor="middle" x="499" y="-93.44" font-family="Times-Roman" font-size="14.00">10</text>
</g>
<!-- trsv&#45;&gt;trsv -->
<g id="edge8" class="edge">
<title>trsv&#45;&gt;trsv</title>
<path fill="none" stroke="#2e7d32" d="M493.07,-161.62C503.83,-160.12 511,-157.12 511,-152.64 511,-149.77 508.06,-147.51 503.12,-145.86"/>
<polygon fill="#2e7d32" stroke="#2e7d32" points="503.59,-142.38 493.07,-143.66 502.09,-149.22 503.59,-142.38"/>
<text text-anchor="middle" x="520.5" y="-148.94" font-family="Times-Roman" font-size="14.00">10</text>
</g>
<!-- syrk -->
<g id="node8" class="node">
<title>syrk</title>
<polygon fill="#ef9a9a" stroke="black" points="368,-65.82 201,-65.82 201,-5.82 368,-5.82 368,-65.82"/>
<text text-anchor="middle" x="284.5" y="-52.22" font-family="Times-Roman" font-size="12.00">syrk (1)</text>
<text text-anchor="middle" x="284.5" y="-39.22" font-family="Times-Roman" font-size="12.00">Num. Ranks: &#160;1&#45;1&#45;1</text>
<text text-anchor="middle" x="284.5" y="-26.22" font-family="Times-Roman" font-size="12.00">Avg. FLOPs: 1.00e+07</text>
<text text-anchor="middle" x="284.5" y="-13.22" font-family="Times-Roman" font-size="12.00">Avg. Perf: 34.88 FLOPs/ns</text>
</g>
<!-- trsv&#45;&gt;syrk -->
<g id="edge9" class="edge">
<title>trsv&#45;&gt;syrk</title>
<path fill="none" stroke="#e53935" d="M380.61,-122.37C363.63,-107.25 342.76,-88.68 324.82,-72.71"/>
<polygon fill="#e53935" stroke="#e53935" points="327.12,-70.07 317.33,-66.04 322.47,-75.3 327.12,-70.07"/>
<text text-anchor="middle" x="370" y="-93.44" font-family="Times-Roman" font-size="14.00">10</text>
</g>
<!-- &#9632; -->
<g id="node10" class="node">
<title>&#9632;</title>
<ellipse fill="none" stroke="black" cx="421.5" cy="-35.82" rx="31.66" ry="31.66"/>
<ellipse fill="none" stroke="black" cx="421.5" cy="-35.82" rx="35.64" ry="35.64"/>
<text text-anchor="middle" x="421.5" y="-28.32" font-family="Times-Roman" font-size="30.00">■</text>
</g>
<!-- trsv&#45;&gt;&#9632; -->
<g id="edge14" class="edge">
<title>trsv&#45;&gt;&#9632;</title>
<path fill="none" stroke="#000000" d="M415.54,-122.37C416.4,-110.09 417.41,-95.52 418.36,-81.92"/>
<polygon fill="#000000" stroke="#000000" points="421.86,-81.98 419.07,-71.76 414.88,-81.49 421.86,-81.98"/>
<text text-anchor="middle" x="427" y="-93.44" font-family="Times-Roman" font-size="14.00">20</text>
</g>
<!-- qr -->
<g id="node7" class="node">
<title>qr</title>
<polygon fill="#ef9a9a" stroke="black" points="159,-65.82 0,-65.82 0,-5.82 159,-5.82 159,-65.82"/>
<text text-anchor="middle" x="79.5" y="-52.22" font-family="Times-Roman" font-size="12.00">qr (1)</text>
<text text-anchor="middle" x="79.5" y="-39.22" font-family="Times-Roman" font-size="12.00">Num. Ranks: &#160;1&#45;1&#45;1</text>
<text text-anchor="middle" x="79.5" y="-26.22" font-family="Times-Roman" font-size="12.00">Avg. FLOPs: 2.67e+06</text>
<text text-anchor="middle" x="79.5" y="-13.22" font-family="Times-Roman" font-size="12.00">Avg. Perf: 0.00 FLOPs/ns</text>
</g>
<!-- qr&#45;&gt;gemv -->
<g id="edge13" class="edge">
<title>qr&#45;&gt;gemv</title>
<path fill="none" stroke="#e53935" d="M64.35,-66.02C50.35,-97.49 34.97,-147.76 58.5,-182.64 82.92,-218.84 126.78,-238.67 167.03,-249.52"/>
<polygon fill="#e53935" stroke="#e53935" points="166.35,-252.96 176.9,-252.03 168.07,-246.17 166.35,-252.96"/>
<text text-anchor="middle" x="68" y="-148.94" font-family="Times-Roman" font-size="14.00">10</text>
</g>
<!-- syrk&#45;&gt;gemv -->
<g id="edge10" class="edge">
<title>syrk&#45;&gt;gemv</title>
<path fill="none" stroke="#e53935" d="M280.87,-66.13C275.88,-106.37 266.89,-178.85 261.34,-223.64"/>
<polygon fill="#e53935" stroke="#e53935" points="257.86,-223.23 260.1,-233.58 264.81,-224.09 257.86,-223.23"/>
<text text-anchor="middle" x="283" y="-148.94" font-family="Times-Roman" font-size="14.00">10</text>
</g>
<!-- view&#45;&gt;qr -->
<g id="edge12" class="edge">
<title>view&#45;&gt;qr</title>
<path fill="none" stroke="#e53935" d="M147.3,-122.37C135.64,-107.66 121.39,-89.67 108.96,-74"/>
<polygon fill="#e53935" stroke="#e53935" points="111.61,-71.7 102.66,-66.04 106.12,-76.05 111.61,-71.7"/>
<text text-anchor="middle" x="142" y="-93.44" font-family="Times-Roman" font-size="14.00">10</text>
</g>
</g>
</svg>
