<?xml version="1.0" encoding="UTF-8" standalone="no"?>
<!DOCTYPE svg PUBLIC "-//W3C//DTD SVG 1.1//EN"
 "http://www.w3.org/Graphics/SVG/1.1/DTD/svg11.dtd">
<!-- Generated by graphviz version 8.1.0 (20230707.0739)
 -->
<!-- Pages: 1 -->
<svg width="264pt" height="713pt"
 viewBox="0.00 0.00 263.83 713.25" xmlns="http://www.w3.org/2000/svg" xmlns:xlink="http://www.w3.org/1999/xlink">
<g id="graph0" class="graph" transform="scale(1 1) rotate(0) translate(4 709.25)">
<polygon fill="white" stroke="none" points="-4,4 -4,-709.25 259.83,-709.25 259.83,4 -4,4"/>
<!-- __START__ -->
<g id="node1" class="node">
<title>__START__</title>
<ellipse fill="none" stroke="black" cx="76.83" cy="-674.14" rx="31.11" ry="31.11"/>
<text text-anchor="start" x="65.58" y="-665.14" font-family="Times,serif" font-size="30.00">●</text>
</g>
<!-- potrf -->
<g id="node2" class="node">
<title>potrf</title>
<polygon fill="#f2f2ff" stroke="black" points="153.67,-486.23 0,-486.23 0,-435.03 153.67,-435.03 153.67,-486.23"/>
<text text-anchor="middle" x="76.83" y="-471.43" font-family="Times,serif" font-size="12.00">potrf</text>
<text text-anchor="middle" x="76.83" y="-457.03" font-family="Times,serif" font-size="12.00">Mean. FLOPs: 1.67e+08</text>
<text text-anchor="middle" x="76.83" y="-442.63" font-family="Times,serif" font-size="12.00">Mean. Perf: 43.53 FLOPs/ns</text>
</g>
<!-- __START__&#45;&gt;potrf -->
<g id="edge3" class="edge">
<title>__START__&#45;&gt;potrf</title>
<path fill="none" stroke="#000000" d="M73.66,-642.85C72.17,-627.17 70.57,-607.69 69.83,-590.23 68.87,-567.49 68.81,-561.76 69.83,-539.03 70.44,-525.47 71.66,-510.63 72.9,-497.59"/>
<polygon fill="#000000" stroke="#000000" points="76.48,-497.98 73.99,-487.68 69.51,-497.29 76.48,-497.98"/>
<text text-anchor="middle" x="76.83" y="-560.43" font-family="Times,serif" font-size="14.00">10</text>
</g>
<!-- transpose -->
<g id="node3" class="node">
<title>transpose</title>
<polygon fill="#fefeff" stroke="black" points="240.67,-590.23 93,-590.23 93,-539.03 240.67,-539.03 240.67,-590.23"/>
<text text-anchor="middle" x="166.83" y="-575.43" font-family="Times,serif" font-size="12.00">transpose</text>
<text text-anchor="middle" x="166.83" y="-561.03" font-family="Times,serif" font-size="12.00">Mean. FLOPs: 1.00e+00</text>
<text text-anchor="middle" x="166.83" y="-546.63" font-family="Times,serif" font-size="12.00">Mean. Perf: 0.00 FLOPs/ns</text>
</g>
<!-- __START__&#45;&gt;transpose -->
<g id="edge1" class="edge">
<title>__START__&#45;&gt;transpose</title>
<path fill="none" stroke="#000000" d="M96.58,-649.54C109.01,-634.7 125.23,-615.32 138.96,-598.92"/>
<polygon fill="#000000" stroke="#000000" points="142.14,-601.58 145.87,-591.66 136.77,-597.08 142.14,-601.58"/>
<text text-anchor="middle" x="136.83" y="-612.43" font-family="Times,serif" font-size="14.00">10</text>
</g>
<!-- trsm -->
<g id="node4" class="node">
<title>trsm</title>
<polygon fill="#bbbbff" stroke="black" points="232.67,-382.23 73,-382.23 73,-331.03 232.67,-331.03 232.67,-382.23"/>
<text text-anchor="middle" x="152.83" y="-367.43" font-family="Times,serif" font-size="12.00">trsm</text>
<text text-anchor="middle" x="152.83" y="-353.03" font-family="Times,serif" font-size="12.00">Mean. FLOPs: 1.00e+08</text>
<text text-anchor="middle" x="152.83" y="-338.63" font-family="Times,serif" font-size="12.00">Mean. Perf: 226.69 FLOPs/ns</text>
</g>
<!-- potrf&#45;&gt;trsm -->
<g id="edge5" class="edge">
<title>potrf&#45;&gt;trsm</title>
<path fill="none" stroke="#000000" d="M95.42,-434.67C105.18,-421.58 117.26,-405.37 127.82,-391.19"/>
<polygon fill="#000000" stroke="#000000" points="131,-393.78 134.17,-383.67 125.39,-389.6 131,-393.78"/>
<text text-anchor="middle" x="126.83" y="-404.43" font-family="Times,serif" font-size="14.00">20</text>
</g>
<!-- trsv -->
<g id="node5" class="node">
<title>trsv</title>
<polygon fill="#fcfcff" stroke="black" points="199.67,-174.23 52,-174.23 52,-123.03 199.67,-123.03 199.67,-174.23"/>
<text text-anchor="middle" x="125.83" y="-159.43" font-family="Times,serif" font-size="12.00">trsv</text>
<text text-anchor="middle" x="125.83" y="-145.03" font-family="Times,serif" font-size="12.00">Mean. FLOPs: 4.34e+05</text>
<text text-anchor="middle" x="125.83" y="-130.63" font-family="Times,serif" font-size="12.00">Mean. Perf: 9.12 FLOPs/ns</text>
</g>
<!-- potrf&#45;&gt;trsv -->
<g id="edge10" class="edge">
<title>potrf&#45;&gt;trsv</title>
<path fill="none" stroke="#000000" d="M56.47,-434.57C52.78,-429.05 49.32,-423.04 46.83,-417.03 14.54,-338.94 5.45,-304.22 39.83,-227.03 47.83,-209.07 62.28,-193.53 77.09,-181.18"/>
<polygon fill="#000000" stroke="#000000" points="78.65,-183.61 84.31,-174.65 74.3,-178.13 78.65,-183.61"/>
<text text-anchor="middle" x="25.83" y="-300.43" font-family="Times,serif" font-size="14.00">20</text>
</g>
<!-- transpose&#45;&gt;potrf -->
<g id="edge8" class="edge">
<title>transpose&#45;&gt;potrf</title>
<path fill="none" stroke="#000000" d="M144.82,-538.67C133.16,-525.46 118.69,-509.06 106.09,-494.79"/>
<polygon fill="#000000" stroke="#000000" points="109.17,-492.86 99.93,-487.67 103.93,-497.49 109.17,-492.86"/>
<text text-anchor="middle" x="134.83" y="-508.43" font-family="Times,serif" font-size="14.00">10</text>
</g>
<!-- syrk -->
<g id="node6" class="node">
<title>syrk</title>
<polygon fill="#f2f2ff" stroke="black" points="202.67,-278.23 49,-278.23 49,-227.03 202.67,-227.03 202.67,-278.23"/>
<text text-anchor="middle" x="125.83" y="-263.43" font-family="Times,serif" font-size="12.00">syrk</text>
<text text-anchor="middle" x="125.83" y="-249.03" font-family="Times,serif" font-size="12.00">Mean. FLOPs: 1.00e+07</text>
<text text-anchor="middle" x="125.83" y="-234.63" font-family="Times,serif" font-size="12.00">Mean. Perf: 40.87 FLOPs/ns</text>
</g>
<!-- trsm&#45;&gt;syrk -->
<g id="edge11" class="edge">
<title>trsm&#45;&gt;syrk</title>
<path fill="none" stroke="#000000" d="M146.23,-330.67C142.93,-318.2 138.87,-302.89 135.25,-289.21"/>
<polygon fill="#000000" stroke="#000000" points="138.41,-288.44 132.46,-279.67 131.64,-290.24 138.41,-288.44"/>
<text text-anchor="middle" x="147.83" y="-300.43" font-family="Times,serif" font-size="14.00">20</text>
</g>
<!-- trsv&#45;&gt;potrf -->
<g id="edge12" class="edge">
<title>trsv&#45;&gt;potrf</title>
<path fill="none" stroke="#000000" d="M162.03,-174.65C179.35,-188.31 199.04,-206.6 211.83,-227.03 215.81,-233.38 265.62,-344.79 241.83,-382.23 224.3,-409.82 194.04,-427.74 164.19,-439.31"/>
<polygon fill="#000000" stroke="#000000" points="163.29,-436.28 155.1,-443 165.69,-442.86 163.29,-436.28"/>
<text text-anchor="middle" x="248.83" y="-300.43" font-family="Times,serif" font-size="14.00">10</text>
</g>
<!-- trsv&#45;&gt;trsv -->
<g id="edge9" class="edge">
<title>trsv&#45;&gt;trsv</title>
<path fill="none" stroke="#000000" d="M200.06,-157.38C210.6,-155.96 217.67,-153.04 217.67,-148.63 217.67,-145.93 215.04,-143.8 210.6,-142.22"/>
<polygon fill="#000000" stroke="#000000" points="211.58,-138.63 201.06,-139.88 210.06,-145.46 211.58,-138.63"/>
<text text-anchor="middle" x="224.67" y="-144.43" font-family="Times,serif" font-size="14.00">20</text>
</g>
<!-- gemv -->
<g id="node7" class="node">
<title>gemv</title>
<polygon fill="#fafaff" stroke="black" points="165.67,-60.71 12,-60.71 12,-9.51 165.67,-9.51 165.67,-60.71"/>
<text text-anchor="middle" x="88.83" y="-45.91" font-family="Times,serif" font-size="12.00">gemv</text>
<text text-anchor="middle" x="88.83" y="-31.51" font-family="Times,serif" font-size="12.00">Mean. FLOPs: 2.00e+05</text>
<text text-anchor="middle" x="88.83" y="-17.11" font-family="Times,serif" font-size="12.00">Mean. Perf: 15.24 FLOPs/ns</text>
</g>
<!-- trsv&#45;&gt;gemv -->
<g id="edge7" class="edge">
<title>trsv&#45;&gt;gemv</title>
<path fill="none" stroke="#000000" d="M117.53,-122.6C112.48,-107.39 105.96,-87.75 100.42,-71.02"/>
<polygon fill="#000000" stroke="#000000" points="103.58,-70.44 97.11,-62.05 96.94,-72.65 103.58,-70.44"/>
<text text-anchor="middle" x="117.83" y="-92.43" font-family="Times,serif" font-size="14.00">20</text>
</g>
<!-- __END__ -->
<g id="node8" class="node">
<title>__END__</title>
<ellipse fill="none" stroke="black" cx="218.83" cy="-35.11" rx="31.11" ry="31.11"/>
<ellipse fill="none" stroke="black" cx="218.83" cy="-35.11" rx="35.11" ry="35.11"/>
<text text-anchor="start" x="207.58" y="-26.11" font-family="Times,serif" font-size="30.00">■</text>
</g>
<!-- trsv&#45;&gt;__END__ -->
<g id="edge4" class="edge">
<title>trsv&#45;&gt;__END__</title>
<path fill="none" stroke="#000000" d="M146.7,-122.6C159.38,-107.4 175.76,-87.76 189.7,-71.05"/>
<polygon fill="#000000" stroke="#000000" points="193.02,-73.53 196.74,-63.61 187.64,-69.05 193.02,-73.53"/>
<text text-anchor="middle" x="181.83" y="-92.43" font-family="Times,serif" font-size="14.00">20</text>
</g>
<!-- syrk&#45;&gt;potrf -->
<g id="edge2" class="edge">
<title>syrk&#45;&gt;potrf</title>
<path fill="none" stroke="#000000" d="M91.12,-278.58C75.33,-292.1 58.31,-310.28 49.83,-331.03 37.41,-361.41 47.48,-398.27 58.69,-424.72"/>
<polygon fill="#000000" stroke="#000000" points="55.87,-425.98 63.16,-433.67 62.25,-423.11 55.87,-425.98"/>
<text text-anchor="middle" x="56.83" y="-352.43" font-family="Times,serif" font-size="14.00">10</text>
</g>
<!-- syrk&#45;&gt;trsv -->
<g id="edge13" class="edge">
<title>syrk&#45;&gt;trsv</title>
<path fill="none" stroke="#000000" d="M125.83,-226.67C125.83,-214.32 125.83,-199.19 125.83,-185.62"/>
<polygon fill="#000000" stroke="#000000" points="129.33,-185.67 125.83,-175.67 122.33,-185.67 129.33,-185.67"/>
<text text-anchor="middle" x="132.83" y="-196.43" font-family="Times,serif" font-size="14.00">10</text>
</g>
<!-- gemv&#45;&gt;trsv -->
<g id="edge6" class="edge">
<title>gemv&#45;&gt;trsv</title>
<path fill="none" stroke="#000000" d="M85.21,-61.1C84.24,-74.53 84.63,-91.13 89.83,-105.03 90.98,-108.1 92.46,-111.11 94.16,-114.01"/>
<polygon fill="#000000" stroke="#000000" points="91.68,-115.59 100.2,-121.89 97.47,-111.66 91.68,-115.59"/>
<text text-anchor="middle" x="96.83" y="-92.43" font-family="Times,serif" font-size="14.00">20</text>
</g>
</g>
</svg>
