<?xml version="1.0" encoding="UTF-8" standalone="no"?>
<!DOCTYPE svg PUBLIC "-//W3C//DTD SVG 1.1//EN"
 "http://www.w3.org/Graphics/SVG/1.1/DTD/svg11.dtd">
<!-- Generated by graphviz version 8.1.0 (20230707.0739)
 -->
<!-- Pages: 1 -->
<svg width="362pt" height="768pt"
 viewBox="0.00 0.00 362.38 768.05" xmlns="http://www.w3.org/2000/svg" xmlns:xlink="http://www.w3.org/1999/xlink">
<g id="graph0" class="graph" transform="scale(1 1) rotate(0) translate(4 764.05)">
<polygon fill="white" stroke="none" points="-4,4 -4,-764.05 358.38,-764.05 358.38,4 -4,4"/>
<!-- __START__ -->
<g id="node1" class="node">
<title>__START__</title>
<ellipse fill="none" stroke="black" cx="175.26" cy="-728.94" rx="31.11" ry="31.11"/>
<text text-anchor="start" x="164.01" y="-719.94" font-family="Times,serif" font-size="30.00">●</text>
</g>
<!-- potrf -->
<g id="node5" class="node">
<title>potrf</title>
<polygon fill="#ffffff" stroke="black" points="242.65,-512.23 107.88,-512.23 107.88,-446.63 242.65,-446.63 242.65,-512.23"/>
<text text-anchor="middle" x="175.26" y="-497.43" font-family="Times,serif" font-size="12.00">potrf (2/2)</text>
<text text-anchor="middle" x="175.26" y="-483.03" font-family="Times,serif" font-size="12.00">Num. Ranks: &#160;1&#45;1&#45;1</text>
<text text-anchor="middle" x="175.26" y="-468.63" font-family="Times,serif" font-size="12.00">Mean. FLOPs: 1.67e+08</text>
<text text-anchor="middle" x="175.26" y="-454.23" font-family="Times,serif" font-size="12.00">Mean. Perf: 43.53 F/ns</text>
</g>
<!-- __START__&#45;&gt;potrf -->
<g id="edge4" class="edge">
<title>__START__&#45;&gt;potrf</title>
<path fill="none" stroke="#000000" d="M172.32,-697.65C170.94,-681.96 169.45,-662.48 168.76,-645.03 167.37,-609.5 167.4,-600.55 168.76,-565.03 169.28,-551.46 170.27,-536.69 171.33,-523.35"/>
<polygon fill="#000000" stroke="#000000" points="174.88,-523.78 172.21,-513.53 167.91,-523.21 174.88,-523.78"/>
<text text-anchor="middle" x="178.01" y="-600.83" font-family="Times,serif" font-size="14.00">0.0</text>
</g>
<!-- transpose -->
<g id="node6" class="node">
<title>transpose</title>
<polygon fill="#ff9b9b" stroke="black" points="329.65,-645.03 194.88,-645.03 194.88,-565.03 329.65,-565.03 329.65,-645.03"/>
<text text-anchor="middle" x="262.26" y="-630.23" font-family="Times,serif" font-size="12.00">transpose (1/2)</text>
<text text-anchor="middle" x="262.26" y="-615.83" font-family="Times,serif" font-size="12.00">Rank score: 1.0</text>
<text text-anchor="middle" x="262.26" y="-601.43" font-family="Times,serif" font-size="12.00">Num. Ranks: &#160;1&#45;1&#45;1</text>
<text text-anchor="middle" x="262.26" y="-587.03" font-family="Times,serif" font-size="12.00">Mean. FLOPs: 1.00e+00</text>
<text text-anchor="middle" x="262.26" y="-572.63" font-family="Times,serif" font-size="12.00">Mean. Perf: 0.00 F/ns</text>
</g>
<!-- __START__&#45;&gt;transpose -->
<g id="edge9" class="edge">
<title>__START__&#45;&gt;transpose</title>
<path fill="none" stroke="#fe0000" d="M193.08,-702.97C203.16,-688.85 216.09,-670.72 228.05,-653.97"/>
<polygon fill="#fe0000" stroke="#fe0000" points="231.24,-656.53 234.2,-646.36 225.54,-652.47 231.24,-656.53"/>
<text text-anchor="middle" x="231.01" y="-667.23" font-family="Times,serif" font-size="14.00">1.0</text>
</g>
<!-- gemv -->
<g id="node2" class="node">
<title>gemv</title>
<polygon fill="#ffffff" stroke="black" points="266.65,-67.91 131.88,-67.91 131.88,-2.31 266.65,-2.31 266.65,-67.91"/>
<text text-anchor="middle" x="199.26" y="-53.11" font-family="Times,serif" font-size="12.00">gemv (2/2)</text>
<text text-anchor="middle" x="199.26" y="-38.71" font-family="Times,serif" font-size="12.00">Num. Ranks: &#160;2&#45;2&#45;2</text>
<text text-anchor="middle" x="199.26" y="-24.31" font-family="Times,serif" font-size="12.00">Mean. FLOPs: 2.00e+05</text>
<text text-anchor="middle" x="199.26" y="-9.91" font-family="Times,serif" font-size="12.00">Mean. Perf: 15.24 F/ns</text>
</g>
<!-- trsv -->
<g id="node7" class="node">
<title>trsv</title>
<polygon fill="#ffffff" stroke="black" points="266.65,-172.83 131.88,-172.83 131.88,-107.23 266.65,-107.23 266.65,-172.83"/>
<text text-anchor="middle" x="199.26" y="-158.03" font-family="Times,serif" font-size="12.00">trsv (2/2)</text>
<text text-anchor="middle" x="199.26" y="-143.63" font-family="Times,serif" font-size="12.00">Num. Ranks: &#160;1&#45;1&#45;1</text>
<text text-anchor="middle" x="199.26" y="-129.23" font-family="Times,serif" font-size="12.00">Mean. FLOPs: 4.34e+05</text>
<text text-anchor="middle" x="199.26" y="-114.83" font-family="Times,serif" font-size="12.00">Mean. Perf: 9.12 F/ns</text>
</g>
<!-- gemv&#45;&gt;trsv -->
<g id="edge8" class="edge">
<title>gemv&#45;&gt;trsv</title>
<path fill="none" stroke="#000000" d="M205.57,-68.28C205.99,-76.99 206.11,-86.56 205.94,-95.77"/>
<polygon fill="#000000" stroke="#000000" points="202.41,-95.64 205.58,-105.75 209.4,-95.87 202.41,-95.64"/>
</g>
<!-- trsm -->
<g id="node3" class="node">
<title>trsm</title>
<polygon fill="#ffffff" stroke="black" points="171.65,-409.63 36.88,-409.63 36.88,-344.03 171.65,-344.03 171.65,-409.63"/>
<text text-anchor="middle" x="104.26" y="-394.83" font-family="Times,serif" font-size="12.00">trsm (2/2)</text>
<text text-anchor="middle" x="104.26" y="-380.43" font-family="Times,serif" font-size="12.00">Num. Ranks: &#160;2&#45;2&#45;2</text>
<text text-anchor="middle" x="104.26" y="-366.03" font-family="Times,serif" font-size="12.00">Mean. FLOPs: 1.00e+08</text>
<text text-anchor="middle" x="104.26" y="-351.63" font-family="Times,serif" font-size="12.00">Mean. Perf: 226.69 F/ns</text>
</g>
<!-- syrk -->
<g id="node4" class="node">
<title>syrk</title>
<polygon fill="#ffffff" stroke="black" points="171.65,-291.23 36.88,-291.23 36.88,-225.63 171.65,-225.63 171.65,-291.23"/>
<text text-anchor="middle" x="104.26" y="-276.43" font-family="Times,serif" font-size="12.00">syrk (2/2)</text>
<text text-anchor="middle" x="104.26" y="-262.03" font-family="Times,serif" font-size="12.00">Num. Ranks: &#160;2&#45;2&#45;2</text>
<text text-anchor="middle" x="104.26" y="-247.63" font-family="Times,serif" font-size="12.00">Mean. FLOPs: 1.00e+07</text>
<text text-anchor="middle" x="104.26" y="-233.23" font-family="Times,serif" font-size="12.00">Mean. Perf: 40.87 F/ns</text>
</g>
<!-- trsm&#45;&gt;syrk -->
<g id="edge3" class="edge">
<title>trsm&#45;&gt;syrk</title>
<path fill="none" stroke="#000000" d="M104.26,-343.71C104.26,-330.86 104.26,-315.87 104.26,-302.13"/>
<polygon fill="#000000" stroke="#000000" points="107.76,-302.44 104.26,-292.44 100.76,-302.44 107.76,-302.44"/>
</g>
<!-- syrk&#45;&gt;potrf -->
<g id="edge13" class="edge">
<title>syrk&#45;&gt;potrf</title>
<path fill="none" stroke="#000000" d="M54.29,-291.47C37.16,-305.35 20,-323.22 10.76,-344.03 -1.06,-370.67 -5.39,-385.36 10.76,-409.63 30.19,-438.81 64.62,-455.63 96.98,-465.33"/>
<polygon fill="#000000" stroke="#000000" points="95.82,-468.91 106.39,-468.23 97.7,-462.17 95.82,-468.91"/>
<text text-anchor="middle" x="20.01" y="-372.63" font-family="Times,serif" font-size="14.00">0.0</text>
</g>
<!-- syrk&#45;&gt;trsv -->
<g id="edge10" class="edge">
<title>syrk&#45;&gt;trsv</title>
<path fill="none" stroke="#fe0000" d="M130.47,-225.31C141.59,-211.7 154.65,-195.68 166.4,-181.29"/>
<polygon fill="#fe0000" stroke="#fe0000" points="169.53,-184 173.14,-174.04 164.1,-179.57 169.53,-184"/>
<text text-anchor="middle" x="167.01" y="-195.03" font-family="Times,serif" font-size="14.00">1.0</text>
</g>
<!-- potrf&#45;&gt;trsm -->
<g id="edge2" class="edge">
<title>potrf&#45;&gt;trsm</title>
<path fill="none" stroke="#000000" d="M152.6,-446.32C146.46,-437.61 139.71,-428.05 133.27,-418.92"/>
<polygon fill="#000000" stroke="#000000" points="135.58,-417.12 126.95,-410.97 129.86,-421.16 135.58,-417.12"/>
</g>
<!-- potrf&#45;&gt;trsv -->
<g id="edge11" class="edge">
<title>potrf&#45;&gt;trsv</title>
<path fill="none" stroke="#000000" d="M177.62,-446.23C178.46,-434.68 179.41,-421.57 180.26,-409.63 185.98,-329.96 192.53,-237 196.25,-183.97"/>
<polygon fill="#000000" stroke="#000000" points="199.79,-184.5 197,-174.28 192.81,-184.01 199.79,-184.5"/>
</g>
<!-- transpose&#45;&gt;potrf -->
<g id="edge12" class="edge">
<title>transpose&#45;&gt;potrf</title>
<path fill="none" stroke="#fe0000" d="M234.5,-564.58C224.79,-550.78 213.87,-535.27 204.08,-521.36"/>
<polygon fill="#fe0000" stroke="#fe0000" points="206.45,-519.65 197.83,-513.49 200.72,-523.68 206.45,-519.65"/>
<text text-anchor="middle" x="231.01" y="-534.43" font-family="Times,serif" font-size="14.00">1.0</text>
</g>
<!-- trsv&#45;&gt;gemv -->
<g id="edge7" class="edge">
<title>trsv&#45;&gt;gemv</title>
<path fill="none" stroke="#000000" d="M192.95,-106.75C192.54,-98.03 192.42,-88.46 192.59,-79.25"/>
<polygon fill="#000000" stroke="#000000" points="196.12,-79.39 192.95,-69.28 189.13,-79.16 196.12,-79.39"/>
</g>
<!-- trsv&#45;&gt;potrf -->
<g id="edge6" class="edge">
<title>trsv&#45;&gt;potrf</title>
<path fill="none" stroke="#fe0000" d="M209.68,-173.17C211.17,-178.99 212.47,-185.04 213.26,-190.83 227.7,-295.52 247.1,-328.5 213.26,-428.63 212.33,-431.38 211.18,-434.1 209.87,-436.77"/>
<polygon fill="#fe0000" stroke="#fe0000" points="206.43,-434.73 204.49,-445.14 212.5,-438.21 206.43,-434.73"/>
<text text-anchor="middle" x="240.01" y="-313.43" font-family="Times,serif" font-size="14.00">1.0</text>
</g>
<!-- trsv&#45;&gt;trsv -->
<g id="edge5" class="edge">
<title>trsv&#45;&gt;trsv</title>
<path fill="none" stroke="#000000" d="M266.9,-148.84C277.45,-147.52 284.65,-144.58 284.65,-140.03 284.65,-137.25 281.98,-135.07 277.5,-133.5"/>
<polygon fill="#000000" stroke="#000000" points="278.42,-129.9 267.9,-131.21 276.94,-136.74 278.42,-129.9"/>
</g>
<!-- __END__ -->
<g id="node8" class="node">
<title>__END__</title>
<ellipse fill="none" stroke="black" cx="319.26" cy="-35.11" rx="31.11" ry="31.11"/>
<ellipse fill="none" stroke="black" cx="319.26" cy="-35.11" rx="35.11" ry="35.11"/>
<text text-anchor="start" x="308.01" y="-26.11" font-family="Times,serif" font-size="30.00">■</text>
</g>
<!-- trsv&#45;&gt;__END__ -->
<g id="edge1" class="edge">
<title>trsv&#45;&gt;__END__</title>
<path fill="none" stroke="#000000" d="M236.9,-106.75C252.21,-93.62 269.79,-78.54 284.77,-65.7"/>
<polygon fill="#000000" stroke="#000000" points="286.47,-67.99 291.79,-58.82 281.92,-62.67 286.47,-67.99"/>
</g>
</g>
</svg>
