<?xml version="1.0" encoding="UTF-8" standalone="no"?>
<!DOCTYPE svg PUBLIC "-//W3C//DTD SVG 1.1//EN"
 "http://www.w3.org/Graphics/SVG/1.1/DTD/svg11.dtd">
<!-- Generated by graphviz version 8.1.0 (20230707.0739)
 -->
<!-- Pages: 1 -->
<svg width="799pt" height="1075pt"
 viewBox="0.00 0.00 799.00 1075.03" xmlns="http://www.w3.org/2000/svg" xmlns:xlink="http://www.w3.org/1999/xlink">
<g id="graph0" class="graph" transform="scale(1 1) rotate(0) translate(4 1071.03)">
<polygon fill="white" stroke="none" points="-4,4 -4,-1071.03 795,-1071.03 795,4 -4,4"/>
<!-- &#9679; -->
<g id="node1" class="node">
<title>&#9679;</title>
<ellipse fill="none" stroke="black" cx="595" cy="-1035.91" rx="31.11" ry="31.11"/>
<text text-anchor="middle" x="595" y="-1026.91" font-family="Times,serif" font-size="30.00">●</text>
</g>
<!-- transpose -->
<g id="node6" class="node">
<title>transpose</title>
<polygon fill="#ebebff" stroke="black" points="584.05,-952 455.95,-952 455.95,-872 584.05,-872 584.05,-952"/>
<text text-anchor="middle" x="520" y="-937.2" font-family="Times,serif" font-size="12.00">transpose (20/50)</text>
<text text-anchor="middle" x="520" y="-922.8" font-family="Times,serif" font-size="12.00">Rank score: 3.8</text>
<text text-anchor="middle" x="520" y="-908.4" font-family="Times,serif" font-size="12.00">Num. Ranks: &#160;2&#45;1&#45;1</text>
<text text-anchor="middle" x="520" y="-894" font-family="Times,serif" font-size="12.00">Avg. FLOPs: 1.00e+00</text>
<text text-anchor="middle" x="520" y="-879.6" font-family="Times,serif" font-size="12.00">Avg. Perf: 0.00 F/ns</text>
</g>
<!-- &#9679;&#45;&gt;transpose -->
<g id="edge1" class="edge">
<title>&#9679;&#45;&gt;transpose</title>
<path fill="none" stroke="#000000" d="M578.91,-1008.76C570.42,-994.96 559.73,-977.57 549.79,-961.42"/>
<polygon fill="#000000" stroke="#000000" points="552.27,-959.77 544.04,-953.08 546.3,-963.44 552.27,-959.77"/>
<text text-anchor="middle" x="575.5" y="-974.2" font-family="Times,serif" font-size="14.00">200</text>
</g>
<!-- potrf -->
<g id="node8" class="node">
<title>potrf</title>
<polygon fill="#ffffff" stroke="black" points="650.05,-819.2 521.95,-819.2 521.95,-753.6 650.05,-753.6 650.05,-819.2"/>
<text text-anchor="middle" x="586" y="-804.4" font-family="Times,serif" font-size="12.00">potrf (50/50)</text>
<text text-anchor="middle" x="586" y="-790" font-family="Times,serif" font-size="12.00">Num. Ranks: &#160;4&#45;2&#45;2</text>
<text text-anchor="middle" x="586" y="-775.6" font-family="Times,serif" font-size="12.00">Avg. FLOPs: 2.01e+08</text>
<text text-anchor="middle" x="586" y="-761.2" font-family="Times,serif" font-size="12.00">Avg. Perf: 51.58 F/ns</text>
</g>
<!-- &#9679;&#45;&gt;potrf -->
<g id="edge2" class="edge">
<title>&#9679;&#45;&gt;potrf</title>
<path fill="none" stroke="#000000" d="M595.26,-1004.57C595.4,-971.84 595.19,-918.19 593,-872 592.36,-858.43 591.27,-843.66 590.14,-830.32"/>
<polygon fill="#000000" stroke="#000000" points="593.55,-830.16 589.19,-820.5 586.58,-830.77 593.55,-830.16"/>
<text text-anchor="middle" x="605.5" y="-907.8" font-family="Times,serif" font-size="14.00">300</text>
</g>
<!-- W, A = LAPACK.syev -->
<g id="node2" class="node">
<title>W, A = LAPACK.syev</title>
<polygon fill="#dbdbff" stroke="black" points="419.04,-582.4 258.96,-582.4 258.96,-502.4 419.04,-502.4 419.04,-582.4"/>
<text text-anchor="middle" x="339" y="-567.6" font-family="Times,serif" font-size="12.00">W, A = LAPACK.syev (8/50)</text>
<text text-anchor="middle" x="339" y="-553.2" font-family="Times,serif" font-size="12.00">Rank score: 6.9</text>
<text text-anchor="middle" x="339" y="-538.8" font-family="Times,serif" font-size="12.00">Num. Ranks: &#160;3&#45;2&#45;2</text>
<text text-anchor="middle" x="339" y="-524.4" font-family="Times,serif" font-size="12.00">Avg. FLOPs: 3.34e+06</text>
<text text-anchor="middle" x="339" y="-510" font-family="Times,serif" font-size="12.00">Avg. Perf: 2.32 F/ns</text>
</g>
<!-- trsv -->
<g id="node3" class="node">
<title>trsv</title>
<polygon fill="#ffffff" stroke="black" points="519.05,-700.8 390.95,-700.8 390.95,-635.2 519.05,-635.2 519.05,-700.8"/>
<text text-anchor="middle" x="455" y="-686" font-family="Times,serif" font-size="12.00">trsv (50/50)</text>
<text text-anchor="middle" x="455" y="-671.6" font-family="Times,serif" font-size="12.00">Num. Ranks: &#160;5&#45;4&#45;2</text>
<text text-anchor="middle" x="455" y="-657.2" font-family="Times,serif" font-size="12.00">Avg. FLOPs: 5.02e+05</text>
<text text-anchor="middle" x="455" y="-642.8" font-family="Times,serif" font-size="12.00">Avg. Perf: 9.29 F/ns</text>
</g>
<!-- W, A = LAPACK.syev&#45;&gt;trsv -->
<g id="edge34" class="edge">
<title>W, A = LAPACK.syev&#45;&gt;trsv</title>
<path fill="none" stroke="#000000" d="M376.07,-582.9C389.35,-597.05 404.32,-613 417.63,-627.18"/>
<polygon fill="#000000" stroke="#000000" points="414.43,-628.95 423.83,-633.85 419.53,-624.16 414.43,-628.95"/>
<text text-anchor="middle" x="415" y="-604.6" font-family="Times,serif" font-size="14.00">10</text>
</g>
<!-- gemv -->
<g id="node9" class="node">
<title>gemv</title>
<polygon fill="#ffffff" stroke="black" points="563.05,-449.6 434.95,-449.6 434.95,-384 563.05,-384 563.05,-449.6"/>
<text text-anchor="middle" x="499" y="-434.8" font-family="Times,serif" font-size="12.00">gemv (50/50)</text>
<text text-anchor="middle" x="499" y="-420.4" font-family="Times,serif" font-size="12.00">Num. Ranks: &#160;9&#45;6&#45;1</text>
<text text-anchor="middle" x="499" y="-406" font-family="Times,serif" font-size="12.00">Avg. FLOPs: 1.40e+05</text>
<text text-anchor="middle" x="499" y="-391.6" font-family="Times,serif" font-size="12.00">Avg. Perf: 13.10 F/ns</text>
</g>
<!-- W, A = LAPACK.syev&#45;&gt;gemv -->
<g id="edge18" class="edge">
<title>W, A = LAPACK.syev&#45;&gt;gemv</title>
<path fill="none" stroke="#000000" d="M353.59,-501.91C359.65,-489.67 367.7,-476.96 378,-467.6 391.35,-455.47 408.06,-446.07 424.77,-438.88"/>
<polygon fill="#000000" stroke="#000000" points="425.63,-441.9 433.57,-434.9 422.99,-435.42 425.63,-441.9"/>
<text text-anchor="middle" x="385" y="-471.8" font-family="Times,serif" font-size="14.00">70</text>
</g>
<!-- trsv&#45;&gt;W, A = LAPACK.syev -->
<g id="edge17" class="edge">
<title>trsv&#45;&gt;W, A = LAPACK.syev</title>
<path fill="none" stroke="#000000" d="M390.6,-639.11C381.12,-632.93 372.15,-625.65 365,-617.2 359.01,-610.12 354.37,-601.56 350.78,-592.83"/>
<polygon fill="#000000" stroke="#000000" points="353.74,-591.75 347.03,-583.56 347.17,-594.16 353.74,-591.75"/>
<text text-anchor="middle" x="372" y="-604.6" font-family="Times,serif" font-size="14.00">10</text>
</g>
<!-- trsv&#45;&gt;trsv -->
<g id="edge6" class="edge">
<title>trsv&#45;&gt;trsv</title>
<path fill="none" stroke="#000000" d="M519.33,-678.27C529.83,-676.8 537.05,-673.38 537.05,-668 537.05,-664.72 534.37,-662.17 529.9,-660.35"/>
<polygon fill="#000000" stroke="#000000" points="530.88,-656.74 520.33,-657.73 529.2,-663.53 530.88,-656.74"/>
<text text-anchor="middle" x="547.55" y="-663.8" font-family="Times,serif" font-size="14.00">470</text>
</g>
<!-- trsm -->
<g id="node4" class="node">
<title>trsm</title>
<polygon fill="#ffffff" stroke="black" points="748.05,-324 619.95,-324 619.95,-258.4 748.05,-258.4 748.05,-324"/>
<text text-anchor="middle" x="684" y="-309.2" font-family="Times,serif" font-size="12.00">trsm (50/50)</text>
<text text-anchor="middle" x="684" y="-294.8" font-family="Times,serif" font-size="12.00">Num. Ranks: &#160;8&#45;2&#45;2</text>
<text text-anchor="middle" x="684" y="-280.4" font-family="Times,serif" font-size="12.00">Avg. FLOPs: 1.00e+08</text>
<text text-anchor="middle" x="684" y="-266" font-family="Times,serif" font-size="12.00">Avg. Perf: 227.15 F/ns</text>
</g>
<!-- trsv&#45;&gt;trsm -->
<g id="edge12" class="edge">
<title>trsv&#45;&gt;trsm</title>
<path fill="none" stroke="#000000" d="M481.88,-634.72C524.86,-581.68 609.38,-471.45 660,-366 664.77,-356.07 668.94,-344.96 672.4,-334.43"/>
<polygon fill="#000000" stroke="#000000" points="675.97,-335.75 675.63,-325.16 669.29,-333.65 675.97,-335.75"/>
<text text-anchor="middle" x="611.5" y="-471.8" font-family="Times,serif" font-size="14.00">210</text>
</g>
<!-- A = qr -->
<g id="node7" class="node">
<title>A = qr</title>
<polygon fill="#f5f5ff" stroke="black" points="618.05,-80 489.95,-80 489.95,0 618.05,0 618.05,-80"/>
<text text-anchor="middle" x="554" y="-65.2" font-family="Times,serif" font-size="12.00">A = qr (9/50)</text>
<text text-anchor="middle" x="554" y="-50.8" font-family="Times,serif" font-size="12.00">Rank score: 1.8</text>
<text text-anchor="middle" x="554" y="-36.4" font-family="Times,serif" font-size="12.00">Num. Ranks: &#160;2&#45;1&#45;1</text>
<text text-anchor="middle" x="554" y="-22" font-family="Times,serif" font-size="12.00">Avg. FLOPs: 2.67e+06</text>
<text text-anchor="middle" x="554" y="-7.6" font-family="Times,serif" font-size="12.00">Avg. Perf: 13.64 F/ns</text>
</g>
<!-- trsv&#45;&gt;A = qr -->
<g id="edge32" class="edge">
<title>trsv&#45;&gt;A = qr</title>
<path fill="none" stroke="#000000" d="M519.35,-655.07C550.18,-647.42 586.68,-635.42 616,-617.2 673.5,-581.47 777,-426.29 777,-358.6 777,-358.6 777,-358.6 777,-164.6 777,-95.42 693.87,-64.64 629.13,-51.16"/>
<polygon fill="#000000" stroke="#000000" points="629.99,-47.56 619.5,-49.06 628.64,-54.43 629.99,-47.56"/>
<text text-anchor="middle" x="784" y="-353.4" font-family="Times,serif" font-size="14.00">10</text>
</g>
<!-- trsv&#45;&gt;potrf -->
<g id="edge22" class="edge">
<title>trsv&#45;&gt;potrf</title>
<path fill="none" stroke="#000000" d="M493.62,-701.16C500.45,-706.98 507.47,-713.03 514,-718.8 523.77,-727.43 534.13,-736.86 543.87,-745.83"/>
<polygon fill="#000000" stroke="#000000" points="541.15,-748.01 550.86,-752.24 545.9,-742.87 541.15,-748.01"/>
<text text-anchor="middle" x="540" y="-723" font-family="Times,serif" font-size="14.00">50</text>
</g>
<!-- trsv&#45;&gt;gemv -->
<g id="edge23" class="edge">
<title>trsv&#45;&gt;gemv</title>
<path fill="none" stroke="#000000" d="M450.55,-634.91C446.93,-601.34 444,-547.37 455,-502.4 458.61,-487.65 465.28,-472.6 472.36,-459.37"/>
<polygon fill="#000000" stroke="#000000" points="475.72,-461.53 477.54,-451.09 469.61,-458.11 475.72,-461.53"/>
<text text-anchor="middle" x="465.5" y="-538.2" font-family="Times,serif" font-size="14.00">200</text>
</g>
<!-- syrk -->
<g id="node10" class="node">
<title>syrk</title>
<polygon fill="#ffffff" stroke="black" points="306.05,-198.4 177.95,-198.4 177.95,-132.8 306.05,-132.8 306.05,-198.4"/>
<text text-anchor="middle" x="242" y="-183.6" font-family="Times,serif" font-size="12.00">syrk (50/50)</text>
<text text-anchor="middle" x="242" y="-169.2" font-family="Times,serif" font-size="12.00">Num. Ranks: &#160;8&#45;2&#45;2</text>
<text text-anchor="middle" x="242" y="-154.8" font-family="Times,serif" font-size="12.00">Avg. FLOPs: 1.00e+07</text>
<text text-anchor="middle" x="242" y="-140.4" font-family="Times,serif" font-size="12.00">Avg. Perf: 41.31 F/ns</text>
</g>
<!-- trsv&#45;&gt;syrk -->
<g id="edge7" class="edge">
<title>trsv&#45;&gt;syrk</title>
<path fill="none" stroke="#000000" d="M390.5,-663.75C307.44,-658.47 168.8,-645.61 127,-617.2 95.6,-595.86 84,-581.36 84,-543.4 84,-543.4 84,-543.4 84,-290.2 84,-253.1 95.62,-241.43 123,-216.4 135.8,-204.7 151.74,-195.52 167.76,-188.41"/>
<polygon fill="#000000" stroke="#000000" points="168.84,-191.34 176.71,-184.25 166.13,-184.88 168.84,-191.34"/>
<text text-anchor="middle" x="94.5" y="-412.6" font-family="Times,serif" font-size="14.00">120</text>
</g>
<!-- &#9632; -->
<g id="node11" class="node">
<title>&#9632;</title>
<ellipse fill="none" stroke="black" cx="238" cy="-291.2" rx="31.11" ry="31.11"/>
<ellipse fill="none" stroke="black" cx="238" cy="-291.2" rx="35.11" ry="35.11"/>
<text text-anchor="middle" x="238" y="-282.2" font-family="Times,serif" font-size="30.00">■</text>
</g>
<!-- trsv&#45;&gt;&#9632; -->
<g id="edge35" class="edge">
<title>trsv&#45;&gt;&#9632;</title>
<path fill="none" stroke="#000000" d="M390.85,-658.88C343.52,-649.21 282,-628.15 250,-582.4 198.47,-508.73 212.9,-396.91 226.4,-335.82"/>
<polygon fill="#000000" stroke="#000000" points="229.97,-336.91 228.81,-326.38 223.15,-335.34 229.97,-336.91"/>
<text text-anchor="middle" x="226.5" y="-471.8" font-family="Times,serif" font-size="14.00">420</text>
</g>
<!-- trsm&#45;&gt;trsv -->
<g id="edge5" class="edge">
<title>trsm&#45;&gt;trsv</title>
<path fill="none" stroke="#000000" d="M690.33,-324.42C696.52,-363.96 702.03,-432.17 679,-484.4 646.05,-559.13 617.46,-568.36 552,-617.2 544.8,-622.57 536.94,-627.66 528.91,-632.39"/>
<polygon fill="#000000" stroke="#000000" points="527.4,-629.79 520.43,-637.77 530.86,-635.88 527.4,-629.79"/>
<text text-anchor="middle" x="695.5" y="-471.8" font-family="Times,serif" font-size="14.00">170</text>
</g>
<!-- trsm&#45;&gt;gemv -->
<g id="edge30" class="edge">
<title>trsm&#45;&gt;gemv</title>
<path fill="none" stroke="#000000" d="M663.83,-324.5C653.62,-338.76 640.17,-354.79 625,-366 609.6,-377.38 591.25,-386.56 573.38,-393.79"/>
<polygon fill="#000000" stroke="#000000" points="572.59,-390.73 564.53,-397.6 575.12,-397.26 572.59,-390.73"/>
<text text-anchor="middle" x="649" y="-353.4" font-family="Times,serif" font-size="14.00">50</text>
</g>
<!-- trsm&#45;&gt;syrk -->
<g id="edge13" class="edge">
<title>trsm&#45;&gt;syrk</title>
<path fill="none" stroke="#000000" d="M660.06,-258.02C647,-242.87 629.52,-226.05 610,-216.4 560.02,-191.68 409.58,-177.63 317.25,-171.12"/>
<polygon fill="#000000" stroke="#000000" points="317.51,-167.56 307.29,-170.36 317.03,-174.54 317.51,-167.56"/>
<text text-anchor="middle" x="643.5" y="-220.6" font-family="Times,serif" font-size="14.00">280</text>
</g>
<!-- x ./= A -->
<g id="node5" class="node">
<title>x ./= A</title>
<polygon fill="#dbdbff" stroke="black" points="526.05,-331.2 397.95,-331.2 397.95,-251.2 526.05,-251.2 526.05,-331.2"/>
<text text-anchor="middle" x="462" y="-316.4" font-family="Times,serif" font-size="12.00">x ./= A (8/50)</text>
<text text-anchor="middle" x="462" y="-302" font-family="Times,serif" font-size="12.00">Rank score: 6.9</text>
<text text-anchor="middle" x="462" y="-287.6" font-family="Times,serif" font-size="12.00">Num. Ranks: &#160;3&#45;1&#45;1</text>
<text text-anchor="middle" x="462" y="-273.2" font-family="Times,serif" font-size="12.00">Avg. FLOPs: 1.00e+02</text>
<text text-anchor="middle" x="462" y="-258.8" font-family="Times,serif" font-size="12.00">Avg. Perf: 0.39 F/ns</text>
</g>
<!-- x ./= A&#45;&gt;gemv -->
<g id="edge21" class="edge">
<title>x ./= A&#45;&gt;gemv</title>
<path fill="none" stroke="#000000" d="M457.43,-331.62C457.33,-342.96 458.42,-355.17 462,-366 462.92,-368.78 464.06,-371.53 465.37,-374.23"/>
<polygon fill="#000000" stroke="#000000" points="462.75,-375.72 470.71,-382.71 468.85,-372.28 462.75,-375.72"/>
<text text-anchor="middle" x="469" y="-353.4" font-family="Times,serif" font-size="14.00">80</text>
</g>
<!-- transpose&#45;&gt;potrf -->
<g id="edge3" class="edge">
<title>transpose&#45;&gt;potrf</title>
<path fill="none" stroke="#000000" d="M541.06,-871.55C548.29,-858.02 556.4,-842.84 563.71,-829.13"/>
<polygon fill="#000000" stroke="#000000" points="567.26,-830.93 568.88,-820.46 561.08,-827.63 567.26,-830.93"/>
<text text-anchor="middle" x="569.5" y="-841.4" font-family="Times,serif" font-size="14.00">200</text>
</g>
<!-- A = qr&#45;&gt;trsv -->
<g id="edge33" class="edge">
<title>A = qr&#45;&gt;trsv</title>
<path fill="none" stroke="#000000" d="M489.47,-51.84C360.2,-75.13 77.92,-134.59 32,-216.4 -12.27,-295.28 26.54,-568.87 103,-617.2 147.7,-645.45 290.26,-658.2 379.66,-663.53"/>
<polygon fill="#000000" stroke="#000000" points="379.37,-667.08 389.55,-664.16 379.77,-660.09 379.37,-667.08"/>
<text text-anchor="middle" x="22" y="-353.4" font-family="Times,serif" font-size="14.00">10</text>
</g>
<!-- A = qr&#45;&gt;gemv -->
<g id="edge26" class="edge">
<title>A = qr&#45;&gt;gemv</title>
<path fill="none" stroke="#000000" d="M566.52,-80.26C567.96,-86.15 569.2,-92.2 570,-98 584.16,-200.86 584.14,-231.25 556,-331.2 551.44,-347.41 549.86,-351.68 541,-366 539.16,-368.98 537.14,-371.97 535.03,-374.92"/>
<polygon fill="#000000" stroke="#000000" points="531.69,-372.54 528.45,-382.62 537.27,-376.76 531.69,-372.54"/>
<text text-anchor="middle" x="586" y="-220.6" font-family="Times,serif" font-size="14.00">80</text>
</g>
<!-- potrf&#45;&gt;trsv -->
<g id="edge11" class="edge">
<title>potrf&#45;&gt;trsv</title>
<path fill="none" stroke="#000000" d="M521.7,-757.18C511.41,-750.98 501.4,-743.78 493,-735.6 485.57,-728.36 479.14,-719.36 473.79,-710.34"/>
<polygon fill="#000000" stroke="#000000" points="476.52,-709.05 468.61,-702 470.4,-712.44 476.52,-709.05"/>
<text text-anchor="middle" x="503.5" y="-723" font-family="Times,serif" font-size="14.00">460</text>
</g>
<!-- potrf&#45;&gt;trsm -->
<g id="edge4" class="edge">
<title>potrf&#45;&gt;trsm</title>
<path fill="none" stroke="#000000" d="M604.3,-753.35C633.72,-699.76 690.21,-587.64 710,-484.4 715.37,-456.41 743.03,-515.43 708,-349.2 706.96,-344.27 705.5,-339.24 703.8,-334.3"/>
<polygon fill="#000000" stroke="#000000" points="706.85,-333.48 700.05,-325.36 700.31,-335.95 706.85,-333.48"/>
<text text-anchor="middle" x="715.5" y="-538.2" font-family="Times,serif" font-size="14.00">270</text>
</g>
<!-- potrf&#45;&gt;gemv -->
<g id="edge9" class="edge">
<title>potrf&#45;&gt;gemv</title>
<path fill="none" stroke="#000000" d="M583.59,-753.18C580.91,-722.58 575.76,-675.39 567,-635.2 553.51,-573.27 530.25,-503.66 514.75,-460.27"/>
<polygon fill="#000000" stroke="#000000" points="517.77,-459.32 511.08,-451.09 511.18,-461.69 517.77,-459.32"/>
<text text-anchor="middle" x="573.5" y="-604.6" font-family="Times,serif" font-size="14.00">100</text>
</g>
<!-- gemv&#45;&gt;W, A = LAPACK.syev -->
<g id="edge31" class="edge">
<title>gemv&#45;&gt;W, A = LAPACK.syev</title>
<path fill="none" stroke="#000000" d="M451.3,-449.87C443.1,-455.64 434.73,-461.7 427,-467.6 415.52,-476.36 403.49,-486.06 392.14,-495.49"/>
<polygon fill="#000000" stroke="#000000" points="390.45,-493.18 385.02,-502.28 394.94,-498.55 390.45,-493.18"/>
<text text-anchor="middle" x="434" y="-471.8" font-family="Times,serif" font-size="14.00">20</text>
</g>
<!-- gemv&#45;&gt;trsv -->
<g id="edge10" class="edge">
<title>gemv&#45;&gt;trsv</title>
<path fill="none" stroke="#000000" d="M496.94,-449.92C494.41,-483.28 489.28,-536.88 480,-582.4 477.18,-596.25 473.14,-611.12 469.13,-624.46"/>
<polygon fill="#000000" stroke="#000000" points="465.54,-623.2 465.94,-633.79 472.23,-625.27 465.54,-623.2"/>
<text text-anchor="middle" x="503.5" y="-538.2" font-family="Times,serif" font-size="14.00">240</text>
</g>
<!-- gemv&#45;&gt;trsm -->
<g id="edge27" class="edge">
<title>gemv&#45;&gt;trsm</title>
<path fill="none" stroke="#000000" d="M559.08,-383.76C568.89,-378.08 578.83,-372.04 588,-366 593.11,-362.63 613.44,-347.06 634.08,-331.08"/>
<polygon fill="#000000" stroke="#000000" points="635.83,-333.37 641.59,-324.48 631.54,-327.84 635.83,-333.37"/>
<text text-anchor="middle" x="615" y="-353.4" font-family="Times,serif" font-size="14.00">20</text>
</g>
<!-- gemv&#45;&gt;x ./= A -->
<g id="edge20" class="edge">
<title>gemv&#45;&gt;x ./= A</title>
<path fill="none" stroke="#000000" d="M489.38,-383.65C485.59,-370.99 481.15,-356.17 476.96,-342.18"/>
<polygon fill="#000000" stroke="#000000" points="480.04,-341.27 473.82,-332.7 473.34,-343.28 480.04,-341.27"/>
<text text-anchor="middle" x="491" y="-353.4" font-family="Times,serif" font-size="14.00">80</text>
</g>
<!-- gemv&#45;&gt;A = qr -->
<g id="edge25" class="edge">
<title>gemv&#45;&gt;A = qr</title>
<path fill="none" stroke="#000000" d="M515.67,-383.73C522.92,-368.27 530.71,-349.21 535,-331.2 554.67,-248.61 556.7,-149.3 555.77,-90.88"/>
<polygon fill="#000000" stroke="#000000" points="559.26,-91.04 555.56,-81.11 552.26,-91.17 559.26,-91.04"/>
<text text-anchor="middle" x="559" y="-220.6" font-family="Times,serif" font-size="14.00">30</text>
</g>
<!-- gemv&#45;&gt;potrf -->
<g id="edge15" class="edge">
<title>gemv&#45;&gt;potrf</title>
<path fill="none" stroke="#000000" d="M524.4,-450.07C535.37,-465.26 547.6,-484.04 556,-502.4 596.71,-591.33 592.7,-621.05 596,-718.8 596.25,-726.26 596.74,-728.17 596,-735.6 595.78,-737.83 595.5,-740.1 595.19,-742.4"/>
<polygon fill="#000000" stroke="#000000" points="591.59,-741.7 593.45,-752.13 598.5,-742.82 591.59,-741.7"/>
<text text-anchor="middle" x="601.5" y="-604.6" font-family="Times,serif" font-size="14.00">100</text>
</g>
<!-- gemv&#45;&gt;gemv -->
<g id="edge19" class="edge">
<title>gemv&#45;&gt;gemv</title>
<path fill="none" stroke="#000000" d="M563.33,-427.07C573.83,-425.6 581.05,-422.18 581.05,-416.8 581.05,-413.52 578.37,-410.97 573.9,-409.15"/>
<polygon fill="#000000" stroke="#000000" points="574.88,-405.54 564.33,-406.53 573.2,-412.33 574.88,-405.54"/>
<text text-anchor="middle" x="588.05" y="-412.6" font-family="Times,serif" font-size="14.00">80</text>
</g>
<!-- gemv&#45;&gt;syrk -->
<g id="edge24" class="edge">
<title>gemv&#45;&gt;syrk</title>
<path fill="none" stroke="#000000" d="M434.78,-398.12C397.02,-384.94 350.62,-363.54 319,-331.2 291.61,-303.19 298.59,-286.69 282,-251.2 275.47,-237.23 268.27,-221.98 261.81,-208.33"/>
<polygon fill="#000000" stroke="#000000" points="264.7,-207.25 257.26,-199.71 258.38,-210.24 264.7,-207.25"/>
<text text-anchor="middle" x="329.5" y="-287" font-family="Times,serif" font-size="14.00">100</text>
</g>
<!-- gemv&#45;&gt;&#9632; -->
<g id="edge36" class="edge">
<title>gemv&#45;&gt;&#9632;</title>
<path fill="none" stroke="#000000" d="M434.73,-414.44C388.07,-410.49 325.57,-398.77 281,-366 270.08,-357.97 261.47,-346.27 254.93,-334.54"/>
<polygon fill="#000000" stroke="#000000" points="257.58,-333.05 249.9,-325.76 251.36,-336.25 257.58,-333.05"/>
<text text-anchor="middle" x="288" y="-353.4" font-family="Times,serif" font-size="14.00">80</text>
</g>
<!-- syrk&#45;&gt;W, A = LAPACK.syev -->
<g id="edge28" class="edge">
<title>syrk&#45;&gt;W, A = LAPACK.syev</title>
<path fill="none" stroke="#000000" d="M218.61,-198.63C208.97,-213.77 198.91,-232.59 194,-251.2 167.5,-351.62 148.01,-400.33 209,-484.4 219.13,-498.36 233.43,-508.95 248.87,-516.96"/>
<polygon fill="#000000" stroke="#000000" points="247.07,-520.46 257.6,-521.63 250.1,-514.15 247.07,-520.46"/>
<text text-anchor="middle" x="178" y="-353.4" font-family="Times,serif" font-size="14.00">50</text>
</g>
<!-- syrk&#45;&gt;trsv -->
<g id="edge16" class="edge">
<title>syrk&#45;&gt;trsv</title>
<path fill="none" stroke="#000000" d="M207.84,-198.58C194.2,-213.29 179.7,-231.78 171,-251.2 134.62,-332.42 122.37,-363.28 144,-449.6 166.2,-538.22 180.37,-578.24 263,-617.2 299.85,-634.58 343.66,-646.53 380.11,-654.36"/>
<polygon fill="#000000" stroke="#000000" points="379.17,-657.95 389.68,-656.56 380.6,-651.09 379.17,-657.95"/>
<text text-anchor="middle" x="154.5" y="-412.6" font-family="Times,serif" font-size="14.00">130</text>
</g>
<!-- syrk&#45;&gt;A = qr -->
<g id="edge29" class="edge">
<title>syrk&#45;&gt;A = qr</title>
<path fill="none" stroke="#000000" d="M306.27,-139.14C356.63,-119.19 426.77,-91.4 479.57,-70.49"/>
<polygon fill="#000000" stroke="#000000" points="480.54,-73.47 488.55,-66.53 477.96,-66.96 480.54,-73.47"/>
<text text-anchor="middle" x="415" y="-102.2" font-family="Times,serif" font-size="14.00">50</text>
</g>
<!-- syrk&#45;&gt;potrf -->
<g id="edge8" class="edge">
<title>syrk&#45;&gt;potrf</title>
<path fill="none" stroke="#000000" d="M177.62,-182.31C152.73,-190.18 124.81,-201.31 102,-216.4 84.48,-227.99 80.5,-233 70,-251.2 63.49,-262.48 0,-461.97 0,-475 0,-669 0,-669 0,-669 0,-772.04 352.98,-785.25 511.03,-786"/>
<polygon fill="#000000" stroke="#000000" points="510.6,-789.51 520.61,-786.04 510.62,-782.51 510.6,-789.51"/>
<text text-anchor="middle" x="10.5" y="-471.8" font-family="Times,serif" font-size="14.00">180</text>
</g>
<!-- syrk&#45;&gt;gemv -->
<g id="edge14" class="edge">
<title>syrk&#45;&gt;gemv</title>
<path fill="none" stroke="#000000" d="M303.52,-198.8C310.61,-204.08 317.32,-209.96 323,-216.4 360.04,-258.42 338.97,-288.31 375,-331.2 390.05,-349.12 409.8,-364.87 429.09,-377.78"/>
<polygon fill="#000000" stroke="#000000" points="426.91,-381.18 437.2,-383.69 430.72,-375.31 426.91,-381.18"/>
<text text-anchor="middle" x="382" y="-287" font-family="Times,serif" font-size="14.00">90</text>
</g>
</g>
</svg>
