<?xml version="1.0" encoding="UTF-8" standalone="no"?>
<!DOCTYPE svg PUBLIC "-//W3C//DTD SVG 1.1//EN"
 "http://www.w3.org/Graphics/SVG/1.1/DTD/svg11.dtd">
<!-- Generated by graphviz version 2.44.0 (0)
 -->
<!-- Pages: 1 -->
<svg width="1028pt" height="552pt"
 viewBox="0.00 0.00 1027.81 551.50" xmlns="http://www.w3.org/2000/svg" xmlns:xlink="http://www.w3.org/1999/xlink">
<g id="graph0" class="graph" transform="scale(1 1) rotate(0) translate(4 547.5)">
<polygon fill="white" stroke="transparent" points="-4,4 -4,-547.5 1023.81,-547.5 1023.81,4 -4,4"/>
<!-- __START__ -->
<g id="node1" class="node">
<title>__START__</title>
<ellipse fill="none" stroke="black" cx="30.41" cy="-243" rx="30.31" ry="30.31"/>
<text text-anchor="start" x="16.91" y="-235.5" font-family="Times-Roman" font-size="30.00">●</text>
</g>
<!-- read+/usr/ -->
<g id="node7" class="node">
<title>read+/usr/</title>
<polygon fill="#ffffff" stroke="black" points="283.81,-279.5 97.81,-279.5 97.81,-206.5 283.81,-206.5 283.81,-279.5"/>
<text text-anchor="middle" x="190.81" y="-265.9" font-family="Times-Roman" font-size="12.00">read+/usr/ (60.0)</text>
<text text-anchor="middle" x="190.81" y="-252.9" font-family="Times-Roman" font-size="12.00">m. rank: &#45; (2)</text>
<text text-anchor="middle" x="190.81" y="-239.9" font-family="Times-Roman" font-size="12.00">m. size: 0.063 MB</text>
<text text-anchor="middle" x="190.81" y="-226.9" font-family="Times-Roman" font-size="12.00">m. time: 0.0007 s</text>
<text text-anchor="middle" x="190.81" y="-213.9" font-family="Times-Roman" font-size="12.00">m. sBW: 93.030 MB/s (1&#45;1&#45;1)</text>
</g>
<!-- __START__&#45;&gt;read+/usr/ -->
<g id="edge14" class="edge">
<title>__START__&#45;&gt;read+/usr/</title>
<path fill="none" stroke="#000000" d="M60.83,-243C68.8,-243 77.9,-243 87.49,-243"/>
<polygon fill="#000000" stroke="#000000" points="87.64,-246.5 97.64,-243 87.64,-239.5 87.64,-246.5"/>
</g>
<!-- read+/proc/ -->
<g id="node2" class="node">
<title>read+/proc/</title>
<polygon fill="#ffffff" stroke="black" points="528.81,-525.5 342.81,-525.5 342.81,-452.5 528.81,-452.5 528.81,-525.5"/>
<text text-anchor="middle" x="435.81" y="-511.9" font-family="Times-Roman" font-size="12.00">read+/proc/ (35.3)</text>
<text text-anchor="middle" x="435.81" y="-498.9" font-family="Times-Roman" font-size="12.00">m. rank: &#45; (2)</text>
<text text-anchor="middle" x="435.81" y="-485.9" font-family="Times-Roman" font-size="12.00">m. size: 0.020 MB</text>
<text text-anchor="middle" x="435.81" y="-472.9" font-family="Times-Roman" font-size="12.00">m. time: 0.0010 s</text>
<text text-anchor="middle" x="435.81" y="-459.9" font-family="Times-Roman" font-size="12.00">m. sBW: 19.910 MB/s (2&#45;2&#45;2)</text>
</g>
<!-- read+/proc/&#45;&gt;read+/proc/ -->
<g id="edge12" class="edge">
<title>read+/proc/&#45;&gt;read+/proc/</title>
<path fill="none" stroke="#000000" d="M413.08,-525.68C414.17,-535.78 421.75,-543.5 435.81,-543.5 444.82,-543.5 451.16,-540.33 454.85,-535.4"/>
<polygon fill="#000000" stroke="#000000" points="458.26,-536.27 458.55,-525.68 451.72,-533.78 458.26,-536.27"/>
</g>
<!-- read+/etc/ -->
<g id="node3" class="node">
<title>read+/etc/</title>
<polygon fill="#ff9b9b" stroke="black" points="781.81,-438.5 587.81,-438.5 587.81,-365.5 781.81,-365.5 781.81,-438.5"/>
<text text-anchor="middle" x="684.81" y="-424.9" font-family="Times-Roman" font-size="12.00">read+/etc/ (54.0)</text>
<text text-anchor="middle" x="684.81" y="-411.9" font-family="Times-Roman" font-size="12.00">m. rank: 1.0 (1)</text>
<text text-anchor="middle" x="684.81" y="-398.9" font-family="Times-Roman" font-size="12.00">m. size: 0.066 MB</text>
<text text-anchor="middle" x="684.81" y="-385.9" font-family="Times-Roman" font-size="12.00">m. time: 0.0006 s</text>
<text text-anchor="middle" x="684.81" y="-372.9" font-family="Times-Roman" font-size="12.00">m. sBW: 115.322 MB/s (1&#45;1&#45;1)</text>
</g>
<!-- read+/proc/&#45;&gt;read+/etc/ -->
<g id="edge1" class="edge">
<title>read+/proc/&#45;&gt;read+/etc/</title>
<path fill="none" stroke="#fe0000" d="M529.14,-456.48C545.06,-450.87 561.72,-445.01 577.96,-439.28"/>
<polygon fill="#fe0000" stroke="#fe0000" points="579.2,-442.56 587.47,-435.93 576.88,-435.96 579.2,-442.56"/>
<text text-anchor="middle" x="558.31" y="-451.8" font-family="Times-Roman" font-size="14.00">1.0</text>
</g>
<!-- read+/proc/&#45;&gt;read+/usr/ -->
<g id="edge9" class="edge">
<title>read+/proc/&#45;&gt;read+/usr/</title>
<path fill="none" stroke="#000000" d="M342.55,-468.33C327.95,-461.26 313.75,-452.52 301.81,-442 254.79,-400.57 222.79,-333.97 205.91,-289.25"/>
<polygon fill="#000000" stroke="#000000" points="209.17,-287.96 202.44,-279.77 202.6,-290.37 209.17,-287.96"/>
</g>
<!-- read+/etc/&#45;&gt;read+/etc/ -->
<g id="edge22" class="edge">
<title>read+/etc/&#45;&gt;read+/etc/</title>
<path fill="none" stroke="#fe0000" d="M661.33,-438.68C662.46,-448.78 670.29,-456.5 684.81,-456.5 694.34,-456.5 700.99,-453.18 704.75,-448.04"/>
<polygon fill="#fe0000" stroke="#fe0000" points="708.02,-449.27 708.29,-438.68 701.48,-446.79 708.02,-449.27"/>
<text text-anchor="middle" x="684.81" y="-460.3" font-family="Times-Roman" font-size="14.00">1.0</text>
</g>
<!-- read+/etc/&#45;&gt;read+/usr/ -->
<g id="edge7" class="edge">
<title>read+/etc/&#45;&gt;read+/usr/</title>
<path fill="none" stroke="#fe0000" d="M587.55,-417.45C516.94,-424.52 420.28,-425.12 342.81,-392 292.34,-370.42 249.45,-323.46 222.43,-287.99"/>
<polygon fill="#fe0000" stroke="#fe0000" points="225.02,-285.62 216.24,-279.7 219.41,-289.81 225.02,-285.62"/>
<text text-anchor="middle" x="435.81" y="-424.8" font-family="Times-Roman" font-size="14.00">1.0</text>
</g>
<!-- read+socket -->
<g id="node8" class="node">
<title>read+socket</title>
<polygon fill="#ff9b9b" stroke="black" points="1019.81,-100.5 840.81,-100.5 840.81,-27.5 1019.81,-27.5 1019.81,-100.5"/>
<text text-anchor="middle" x="930.31" y="-86.9" font-family="Times-Roman" font-size="12.00">read+socket (18.0)</text>
<text text-anchor="middle" x="930.31" y="-73.9" font-family="Times-Roman" font-size="12.00">m. rank: 1.0 (1)</text>
<text text-anchor="middle" x="930.31" y="-60.9" font-family="Times-Roman" font-size="12.00">m. size: 0.001 MB</text>
<text text-anchor="middle" x="930.31" y="-47.9" font-family="Times-Roman" font-size="12.00">m. time: 0.0003 s</text>
<text text-anchor="middle" x="930.31" y="-34.9" font-family="Times-Roman" font-size="12.00">m. sBW: 2.340 MB/s (1&#45;1&#45;1)</text>
</g>
<!-- read+/etc/&#45;&gt;read+socket -->
<g id="edge11" class="edge">
<title>read+/etc/&#45;&gt;read+socket</title>
<path fill="none" stroke="#fe0000" d="M769.52,-365.34C789.01,-353.72 808.29,-339.3 822.81,-322 875.77,-258.95 905.34,-165.93 919.25,-110.51"/>
<polygon fill="#fe0000" stroke="#fe0000" points="922.69,-111.15 921.66,-100.61 915.89,-109.49 922.69,-111.15"/>
<text text-anchor="middle" x="811.31" y="-346.8" font-family="Times-Roman" font-size="14.00">1.0</text>
</g>
<!-- read+/p/ -->
<g id="node4" class="node">
<title>read+/p/</title>
<polygon fill="#ff9b9b" stroke="black" points="528.81,-349.5 342.81,-349.5 342.81,-276.5 528.81,-276.5 528.81,-349.5"/>
<text text-anchor="middle" x="435.81" y="-335.9" font-family="Times-Roman" font-size="12.00">read+/p/ (18.0)</text>
<text text-anchor="middle" x="435.81" y="-322.9" font-family="Times-Roman" font-size="12.00">m. rank: 1.0 (1)</text>
<text text-anchor="middle" x="435.81" y="-309.9" font-family="Times-Roman" font-size="12.00">m. size: 0.015 MB</text>
<text text-anchor="middle" x="435.81" y="-296.9" font-family="Times-Roman" font-size="12.00">m. time: 0.0039 s</text>
<text text-anchor="middle" x="435.81" y="-283.9" font-family="Times-Roman" font-size="12.00">m. sBW: 28.875 MB/s (1&#45;1&#45;1)</text>
</g>
<!-- read+/p/&#45;&gt;read+/p/ -->
<g id="edge20" class="edge">
<title>read+/p/&#45;&gt;read+/p/</title>
<path fill="none" stroke="#fe0000" d="M413.08,-349.68C414.17,-359.78 421.75,-367.5 435.81,-367.5 444.82,-367.5 451.16,-364.33 454.85,-359.4"/>
<polygon fill="#fe0000" stroke="#fe0000" points="458.26,-360.27 458.55,-349.68 451.72,-357.78 458.26,-360.27"/>
<text text-anchor="middle" x="435.81" y="-371.3" font-family="Times-Roman" font-size="14.00">1.0</text>
</g>
<!-- read+/p/&#45;&gt;read+/usr/ -->
<g id="edge6" class="edge">
<title>read+/p/&#45;&gt;read+/usr/</title>
<path fill="none" stroke="#fe0000" d="M363.8,-276.43C351.06,-270.93 337.73,-265.83 324.81,-262 314.98,-259.09 304.61,-256.62 294.16,-254.52"/>
<polygon fill="#fe0000" stroke="#fe0000" points="294.62,-251.04 284.15,-252.62 293.32,-257.92 294.62,-251.04"/>
<text text-anchor="middle" x="313.31" y="-265.8" font-family="Times-Roman" font-size="14.00">1.0</text>
</g>
<!-- pread64+/p/ -->
<g id="node9" class="node">
<title>pread64+/p/</title>
<polygon fill="#ff9b9b" stroke="black" points="774.31,-338.5 595.31,-338.5 595.31,-265.5 774.31,-265.5 774.31,-338.5"/>
<text text-anchor="middle" x="684.81" y="-324.9" font-family="Times-Roman" font-size="12.00">pread64+/p/ (6.0)</text>
<text text-anchor="middle" x="684.81" y="-311.9" font-family="Times-Roman" font-size="12.00">m. rank: 1.0 (1)</text>
<text text-anchor="middle" x="684.81" y="-298.9" font-family="Times-Roman" font-size="12.00">m. size: 0.000 MB</text>
<text text-anchor="middle" x="684.81" y="-285.9" font-family="Times-Roman" font-size="12.00">m. time: 0.0001 s</text>
<text text-anchor="middle" x="684.81" y="-272.9" font-family="Times-Roman" font-size="12.00">m. sBW: 1.802 MB/s (1&#45;1&#45;1)</text>
</g>
<!-- read+/p/&#45;&gt;pread64+/p/ -->
<g id="edge16" class="edge">
<title>read+/p/&#45;&gt;pread64+/p/</title>
<path fill="none" stroke="#fe0000" d="M529.14,-308.89C547.4,-308.08 566.64,-307.22 585.11,-306.4"/>
<polygon fill="#fe0000" stroke="#fe0000" points="585.45,-309.89 595.28,-305.94 585.14,-302.89 585.45,-309.89"/>
<text text-anchor="middle" x="558.31" y="-310.8" font-family="Times-Roman" font-size="14.00">1.0</text>
</g>
<!-- write+pipe -->
<g id="node5" class="node">
<title>write+pipe</title>
<polygon fill="#ffffff" stroke="black" points="528.81,-149.5 342.81,-149.5 342.81,-76.5 528.81,-76.5 528.81,-149.5"/>
<text text-anchor="middle" x="435.81" y="-135.9" font-family="Times-Roman" font-size="12.00">write+pipe (6.0)</text>
<text text-anchor="middle" x="435.81" y="-122.9" font-family="Times-Roman" font-size="12.00">m. rank: &#45; (2)</text>
<text text-anchor="middle" x="435.81" y="-109.9" font-family="Times-Roman" font-size="12.00">m. size: 0.002 MB</text>
<text text-anchor="middle" x="435.81" y="-96.9" font-family="Times-Roman" font-size="12.00">m. time: 0.0001 s</text>
<text text-anchor="middle" x="435.81" y="-83.9" font-family="Times-Roman" font-size="12.00">m. sBW: 24.652 MB/s (2&#45;2&#45;2)</text>
</g>
<!-- __END__ -->
<g id="node10" class="node">
<title>__END__</title>
<ellipse fill="none" stroke="black" cx="684.81" cy="-113" rx="31.66" ry="31.66"/>
<ellipse fill="none" stroke="black" cx="684.81" cy="-113" rx="35.64" ry="35.64"/>
<text text-anchor="start" x="670.31" y="-105.5" font-family="Times-Roman" font-size="30.00">■</text>
</g>
<!-- write+pipe&#45;&gt;__END__ -->
<g id="edge23" class="edge">
<title>write+pipe&#45;&gt;__END__</title>
<path fill="none" stroke="#000000" d="M529.14,-113C566.52,-113 607.98,-113 638.56,-113"/>
<polygon fill="#000000" stroke="#000000" points="638.9,-116.5 648.9,-113 638.9,-109.5 638.9,-116.5"/>
</g>
<!-- pread64+/usr/ -->
<g id="node6" class="node">
<title>pread64+/usr/</title>
<polygon fill="#ffffff" stroke="black" points="528.81,-240.5 342.81,-240.5 342.81,-167.5 528.81,-167.5 528.81,-240.5"/>
<text text-anchor="middle" x="435.81" y="-226.9" font-family="Times-Roman" font-size="12.00">pread64+/usr/ (24.0)</text>
<text text-anchor="middle" x="435.81" y="-213.9" font-family="Times-Roman" font-size="12.00">m. rank: &#45; (2)</text>
<text text-anchor="middle" x="435.81" y="-200.9" font-family="Times-Roman" font-size="12.00">m. size: 0.010 MB</text>
<text text-anchor="middle" x="435.81" y="-187.9" font-family="Times-Roman" font-size="12.00">m. time: 0.0002 s</text>
<text text-anchor="middle" x="435.81" y="-174.9" font-family="Times-Roman" font-size="12.00">m. sBW: 40.854 MB/s (1&#45;1&#45;1)</text>
</g>
<!-- pread64+/usr/&#45;&gt;pread64+/usr/ -->
<g id="edge15" class="edge">
<title>pread64+/usr/&#45;&gt;pread64+/usr/</title>
<path fill="none" stroke="#000000" d="M413.08,-240.68C414.17,-250.78 421.75,-258.5 435.81,-258.5 444.82,-258.5 451.16,-255.33 454.85,-250.4"/>
<polygon fill="#000000" stroke="#000000" points="458.26,-251.27 458.55,-240.68 451.72,-248.78 458.26,-251.27"/>
</g>
<!-- pread64+/usr/&#45;&gt;read+/usr/ -->
<g id="edge10" class="edge">
<title>pread64+/usr/&#45;&gt;read+/usr/</title>
<path fill="none" stroke="#000000" d="M342.66,-225.36C326.76,-228.11 310.15,-230.81 294.01,-233.27"/>
<polygon fill="#000000" stroke="#000000" points="293.39,-229.83 284.03,-234.77 294.43,-236.75 293.39,-229.83"/>
</g>
<!-- read+/usr/&#45;&gt;read+/proc/ -->
<g id="edge5" class="edge">
<title>read+/usr/&#45;&gt;read+/proc/</title>
<path fill="none" stroke="#000000" d="M207.47,-279.69C224.72,-319.95 256.2,-383.81 301.81,-424 312.25,-433.2 324.41,-441.04 337.07,-447.77"/>
<polygon fill="#000000" stroke="#000000" points="335.85,-451.08 346.35,-452.48 339.02,-444.84 335.85,-451.08"/>
</g>
<!-- read+/usr/&#45;&gt;read+/p/ -->
<g id="edge18" class="edge">
<title>read+/usr/&#45;&gt;read+/p/</title>
<path fill="none" stroke="#fe0000" d="M283.87,-271.72C289.93,-273.53 295.96,-275.3 301.81,-277 311.93,-279.93 322.5,-282.92 333.06,-285.86"/>
<polygon fill="#fe0000" stroke="#fe0000" points="332.18,-289.25 342.76,-288.54 334.05,-282.5 332.18,-289.25"/>
<text text-anchor="middle" x="313.31" y="-286.8" font-family="Times-Roman" font-size="14.00">1.0</text>
</g>
<!-- read+/usr/&#45;&gt;write+pipe -->
<g id="edge21" class="edge">
<title>read+/usr/&#45;&gt;write+pipe</title>
<path fill="none" stroke="#000000" d="M256.13,-206.4C282.81,-191.44 314.16,-174.12 342.81,-159 345.73,-157.46 348.71,-155.9 351.73,-154.33"/>
<polygon fill="#000000" stroke="#000000" points="353.57,-157.32 360.85,-149.63 350.36,-151.1 353.57,-157.32"/>
</g>
<!-- read+/usr/&#45;&gt;pread64+/usr/ -->
<g id="edge8" class="edge">
<title>read+/usr/&#45;&gt;pread64+/usr/</title>
<path fill="none" stroke="#000000" d="M284.03,-221.63C299.93,-218.88 316.54,-216.18 332.68,-213.72"/>
<polygon fill="#000000" stroke="#000000" points="333.29,-217.17 342.66,-212.22 332.25,-210.24 333.29,-217.17"/>
</g>
<!-- read+/usr/&#45;&gt;read+/usr/ -->
<g id="edge2" class="edge">
<title>read+/usr/&#45;&gt;read+/usr/</title>
<path fill="none" stroke="#000000" d="M170.31,-279.68C171.3,-289.78 178.14,-297.5 190.81,-297.5 198.93,-297.5 204.65,-294.33 207.98,-289.4"/>
<polygon fill="#000000" stroke="#000000" points="211.38,-290.27 211.31,-279.68 204.76,-288.01 211.38,-290.27"/>
</g>
<!-- read+/usr/&#45;&gt;read+socket -->
<g id="edge4" class="edge">
<title>read+/usr/&#45;&gt;read+socket</title>
<path fill="none" stroke="#fe0000" d="M210.46,-206.49C234.49,-163.93 280.7,-95.74 342.81,-67 426.68,-28.19 686.48,-42.91 830.56,-54.76"/>
<polygon fill="#fe0000" stroke="#fe0000" points="830.47,-58.26 840.73,-55.61 831.05,-51.29 830.47,-58.26"/>
<text text-anchor="middle" x="558.31" y="-45.8" font-family="Times-Roman" font-size="14.00">1.0</text>
</g>
<!-- read+socket&#45;&gt;read+/etc/ -->
<g id="edge3" class="edge">
<title>read+socket&#45;&gt;read+/etc/</title>
<path fill="none" stroke="#fe0000" d="M908.68,-100.6C882.36,-147.78 835.91,-232.59 799.81,-307 791.13,-324.91 795.17,-333.25 781.81,-348 778.29,-351.89 774.42,-355.56 770.32,-359.02"/>
<polygon fill="#fe0000" stroke="#fe0000" points="767.88,-356.49 762.18,-365.42 772.21,-361.99 767.88,-356.49"/>
<text text-anchor="middle" x="811.31" y="-310.8" font-family="Times-Roman" font-size="14.00">1.0</text>
</g>
<!-- read+socket&#45;&gt;read+/usr/ -->
<g id="edge13" class="edge">
<title>read+socket&#45;&gt;read+/usr/</title>
<path fill="none" stroke="#fe0000" d="M840.57,-37.78C722.08,-7.68 507.96,29.35 342.81,-39 274.73,-67.18 231.16,-145.59 209.13,-196.58"/>
<polygon fill="#fe0000" stroke="#fe0000" points="205.79,-195.51 205.14,-206.08 212.24,-198.22 205.79,-195.51"/>
<text text-anchor="middle" x="558.31" y="-4.8" font-family="Times-Roman" font-size="14.00">1.0</text>
</g>
<!-- read+socket&#45;&gt;read+socket -->
<g id="edge17" class="edge">
<title>read+socket&#45;&gt;read+socket</title>
<path fill="none" stroke="#fe0000" d="M908.32,-100.68C909.38,-110.78 916.71,-118.5 930.31,-118.5 939.02,-118.5 945.16,-115.33 948.73,-110.4"/>
<polygon fill="#fe0000" stroke="#fe0000" points="952.14,-111.27 952.3,-100.68 945.57,-108.86 952.14,-111.27"/>
<text text-anchor="middle" x="930.31" y="-122.3" font-family="Times-Roman" font-size="14.00">1.0</text>
</g>
<!-- pread64+/p/&#45;&gt;read+/p/ -->
<g id="edge19" class="edge">
<title>pread64+/p/&#45;&gt;read+/p/</title>
<path fill="none" stroke="#fe0000" d="M594.98,-287.38C578.94,-286.32 562.37,-286.26 546.81,-288 544.26,-288.29 541.68,-288.61 539.08,-288.97"/>
<polygon fill="#fe0000" stroke="#fe0000" points="538.35,-285.54 528.98,-290.48 539.39,-292.46 538.35,-285.54"/>
<text text-anchor="middle" x="558.31" y="-291.8" font-family="Times-Roman" font-size="14.00">1.0</text>
</g>
</g>
</svg>
