<?xml version="1.0" encoding="UTF-8" standalone="no"?>
<!DOCTYPE svg PUBLIC "-//W3C//DTD SVG 1.1//EN"
 "http://www.w3.org/Graphics/SVG/1.1/DTD/svg11.dtd">
<!-- Generated by graphviz version 2.44.0 (0)
 -->
<!-- Pages: 1 -->
<svg width="337pt" height="583pt"
 viewBox="0.00 0.00 336.50 583.45" xmlns="http://www.w3.org/2000/svg" xmlns:xlink="http://www.w3.org/1999/xlink">
<g id="graph0" class="graph" transform="scale(1 1) rotate(0) translate(4 579.45)">
<polygon fill="white" stroke="transparent" points="-4,4 -4,-579.45 332.5,-579.45 332.5,4 -4,4"/>
<!-- &#9679; -->
<g id="node1" class="node">
<title>&#9679;</title>
<ellipse fill="none" stroke="black" cx="245" cy="-545.05" rx="30.31" ry="30.31"/>
<text text-anchor="middle" x="245" y="-537.55" font-family="Times-Roman" font-size="30.00">●</text>
</g>
<!-- LAPACK.potrf -->
<g id="node2" class="node">
<title>LAPACK.potrf</title>
<polygon fill="#ebebff" stroke="black" points="328.5,-463.64 161.5,-463.64 161.5,-416.64 328.5,-416.64 328.5,-463.64"/>
<text text-anchor="middle" x="245" y="-450.04" font-family="Times-Roman" font-size="12.00">LAPACK.potrf</text>
<text text-anchor="middle" x="245" y="-437.04" font-family="Times-Roman" font-size="12.00">Avg. FLOPs: 1.67e+08</text>
<text text-anchor="middle" x="245" y="-424.04" font-family="Times-Roman" font-size="12.00">Avg. Perf: 46.51 FLOPs/ns</text>
</g>
<!-- &#9679;&#45;&gt;LAPACK.potrf -->
<g id="edge1" class="edge">
<title>&#9679;&#45;&gt;LAPACK.potrf</title>
<path fill="none" stroke="#000000" d="M245,-514.56C245,-501.81 245,-486.85 245,-473.77"/>
<polygon fill="#000000" stroke="#000000" points="248.5,-473.76 245,-463.76 241.5,-473.76 248.5,-473.76"/>
<text text-anchor="middle" x="254.5" y="-485.44" font-family="Times-Roman" font-size="14.00">10</text>
</g>
<!-- gemv -->
<g id="node3" class="node">
<title>gemv</title>
<polygon fill="#fbfbff" stroke="black" points="208.5,-365.64 49.5,-365.64 49.5,-318.64 208.5,-318.64 208.5,-365.64"/>
<text text-anchor="middle" x="129" y="-352.04" font-family="Times-Roman" font-size="12.00">gemv</text>
<text text-anchor="middle" x="129" y="-339.04" font-family="Times-Roman" font-size="12.00">Avg. FLOPs: 2.00e+05</text>
<text text-anchor="middle" x="129" y="-326.04" font-family="Times-Roman" font-size="12.00">Avg. Perf: 7.76 FLOPs/ns</text>
</g>
<!-- LAPACK.potrf&#45;&gt;gemv -->
<g id="edge6" class="edge">
<title>LAPACK.potrf&#45;&gt;gemv</title>
<path fill="none" stroke="#000000" d="M217.8,-416.63C201.92,-403.49 181.69,-386.75 164.56,-372.57"/>
<polygon fill="#000000" stroke="#000000" points="166.36,-369.52 156.43,-365.84 161.9,-374.91 166.36,-369.52"/>
<text text-anchor="middle" x="203.5" y="-387.44" font-family="Times-Roman" font-size="14.00">10</text>
</g>
<!-- trsv -->
<g id="node6" class="node">
<title>trsv</title>
<polygon fill="#fdfdff" stroke="black" points="215.5,-267.64 56.5,-267.64 56.5,-220.64 215.5,-220.64 215.5,-267.64"/>
<text text-anchor="middle" x="136" y="-254.04" font-family="Times-Roman" font-size="12.00">trsv</text>
<text text-anchor="middle" x="136" y="-241.04" font-family="Times-Roman" font-size="12.00">Avg. FLOPs: 3.40e+05</text>
<text text-anchor="middle" x="136" y="-228.04" font-family="Times-Roman" font-size="12.00">Avg. Perf: 4.25 FLOPs/ns</text>
</g>
<!-- LAPACK.potrf&#45;&gt;trsv -->
<g id="edge2" class="edge">
<title>LAPACK.potrf&#45;&gt;trsv</title>
<path fill="none" stroke="#000000" d="M243.75,-416.33C241.47,-390.92 235.06,-349.38 217,-318.64 207.02,-301.65 191.82,-286.35 177.27,-274.17"/>
<polygon fill="#000000" stroke="#000000" points="179.27,-271.29 169.29,-267.73 174.88,-276.74 179.27,-271.29"/>
<text text-anchor="middle" x="245.5" y="-338.44" font-family="Times-Roman" font-size="14.00">10</text>
</g>
<!-- gemv&#45;&gt;trsv -->
<g id="edge7" class="edge">
<title>gemv&#45;&gt;trsv</title>
<path fill="none" stroke="#000000" d="M130.66,-318.39C131.54,-306.31 132.64,-291.26 133.61,-277.94"/>
<polygon fill="#000000" stroke="#000000" points="137.12,-277.96 134.35,-267.73 130.13,-277.45 137.12,-277.96"/>
<text text-anchor="middle" x="142.5" y="-289.44" font-family="Times-Roman" font-size="14.00">10</text>
</g>
<!-- syrk -->
<g id="node4" class="node">
<title>syrk</title>
<polygon fill="#f1f1ff" stroke="black" points="273.5,-47 106.5,-47 106.5,0 273.5,0 273.5,-47"/>
<text text-anchor="middle" x="190" y="-33.4" font-family="Times-Roman" font-size="12.00">syrk</text>
<text text-anchor="middle" x="190" y="-20.4" font-family="Times-Roman" font-size="12.00">Avg. FLOPs: 1.00e+07</text>
<text text-anchor="middle" x="190" y="-7.4" font-family="Times-Roman" font-size="12.00">Avg. Perf: 33.40 FLOPs/ns</text>
</g>
<!-- syrk&#45;&gt;LAPACK.potrf -->
<g id="edge5" class="edge">
<title>syrk&#45;&gt;LAPACK.potrf</title>
<path fill="none" stroke="#000000" d="M231.19,-47C259.5,-65.79 292,-95.49 292,-132.82 292,-343.14 292,-343.14 292,-343.14 292,-366.58 280.55,-390.27 268.96,-408.24"/>
<polygon fill="#000000" stroke="#000000" points="266.02,-406.34 263.31,-416.58 271.81,-410.27 266.02,-406.34"/>
<text text-anchor="middle" x="301.5" y="-240.44" font-family="Times-Roman" font-size="14.00">10</text>
</g>
<!-- trsm -->
<g id="node5" class="node">
<title>trsm</title>
<polygon fill="#c1c1ff" stroke="black" points="174,-157.32 0,-157.32 0,-110.32 174,-110.32 174,-157.32"/>
<text text-anchor="middle" x="87" y="-143.72" font-family="Times-Roman" font-size="12.00">trsm</text>
<text text-anchor="middle" x="87" y="-130.72" font-family="Times-Roman" font-size="12.00">Avg. FLOPs: 1.00e+08</text>
<text text-anchor="middle" x="87" y="-117.72" font-family="Times-Roman" font-size="12.00">Avg. Perf: 147.62 FLOPs/ns</text>
</g>
<!-- trsm&#45;&gt;syrk -->
<g id="edge4" class="edge">
<title>trsm&#45;&gt;syrk</title>
<path fill="none" stroke="#000000" d="M108.59,-110.11C123.97,-93.94 144.8,-72.03 161.54,-54.43"/>
<polygon fill="#000000" stroke="#000000" points="164.08,-56.84 168.44,-47.18 159.01,-52.01 164.08,-56.84"/>
<text text-anchor="middle" x="160.5" y="-68.8" font-family="Times-Roman" font-size="14.00">10</text>
</g>
<!-- trsv&#45;&gt;trsm -->
<g id="edge3" class="edge">
<title>trsv&#45;&gt;trsm</title>
<path fill="none" stroke="#000000" d="M125.73,-220.43C118.67,-204.83 109.21,-183.91 101.4,-166.65"/>
<polygon fill="#000000" stroke="#000000" points="104.57,-165.17 97.26,-157.5 98.19,-168.05 104.57,-165.17"/>
<text text-anchor="middle" x="127.5" y="-191.44" font-family="Times-Roman" font-size="14.00">10</text>
</g>
<!-- trsv&#45;&gt;trsv -->
<g id="edge8" class="edge">
<title>trsv&#45;&gt;trsv</title>
<path fill="none" stroke="#000000" d="M215.57,-252.12C226.33,-250.79 233.5,-248.12 233.5,-244.14 233.5,-241.59 230.56,-239.58 225.62,-238.11"/>
<polygon fill="#000000" stroke="#000000" points="226.06,-234.63 215.57,-236.16 224.72,-241.5 226.06,-234.63"/>
<text text-anchor="middle" x="243" y="-240.44" font-family="Times-Roman" font-size="14.00">10</text>
</g>
<!-- &#9632; -->
<g id="node7" class="node">
<title>&#9632;</title>
<ellipse fill="none" stroke="black" cx="228" cy="-133.82" rx="31.66" ry="31.66"/>
<ellipse fill="none" stroke="black" cx="228" cy="-133.82" rx="35.64" ry="35.64"/>
<text text-anchor="middle" x="228" y="-126.32" font-family="Times-Roman" font-size="30.00">■</text>
</g>
<!-- trsv&#45;&gt;&#9632; -->
<g id="edge9" class="edge">
<title>trsv&#45;&gt;&#9632;</title>
<path fill="none" stroke="#000000" d="M155.29,-220.43C167.78,-205.72 184.31,-186.26 198.44,-169.62"/>
<polygon fill="#000000" stroke="#000000" points="201.36,-171.59 205.16,-161.71 196.02,-167.06 201.36,-171.59"/>
<text text-anchor="middle" x="191.5" y="-191.44" font-family="Times-Roman" font-size="14.00">10</text>
</g>
</g>
</svg>
