<?xml version="1.0" encoding="UTF-8" standalone="no"?>
<!DOCTYPE svg PUBLIC "-//W3C//DTD SVG 1.1//EN"
 "http://www.w3.org/Graphics/SVG/1.1/DTD/svg11.dtd">
<!-- Generated by graphviz version 2.44.0 (0)
 -->
<!-- Pages: 1 -->
<svg width="483pt" height="902pt"
 viewBox="0.00 0.00 482.50 902.45" xmlns="http://www.w3.org/2000/svg" xmlns:xlink="http://www.w3.org/1999/xlink">
<g id="graph0" class="graph" transform="scale(1 1) rotate(0) translate(4 898.45)">
<polygon fill="white" stroke="transparent" points="-4,4 -4,-898.45 478.5,-898.45 478.5,4 -4,4"/>
<!-- &#9679; -->
<g id="node1" class="node">
<title>&#9679;</title>
<ellipse fill="none" stroke="black" cx="87" cy="-864.05" rx="30.31" ry="30.31"/>
<text text-anchor="middle" x="87" y="-856.55" font-family="Times-Roman" font-size="30.00">●</text>
</g>
<!-- LAPACK.potrf -->
<g id="node3" class="node">
<title>LAPACK.potrf</title>
<polygon fill="#ffffff" stroke="black" points="170.5,-782.64 3.5,-782.64 3.5,-722.64 170.5,-722.64 170.5,-782.64"/>
<text text-anchor="middle" x="87" y="-769.04" font-family="Times-Roman" font-size="12.00">LAPACK.potrf (2)</text>
<text text-anchor="middle" x="87" y="-756.04" font-family="Times-Roman" font-size="12.00">Num. Ranks: &#160;1&#45;1&#45;1</text>
<text text-anchor="middle" x="87" y="-743.04" font-family="Times-Roman" font-size="12.00">Avg. FLOPs: 3.33e+08</text>
<text text-anchor="middle" x="87" y="-730.04" font-family="Times-Roman" font-size="12.00">Avg. Perf: 86.15 FLOPs/ns</text>
</g>
<!-- &#9679;&#45;&gt;LAPACK.potrf -->
<g id="edge1" class="edge">
<title>&#9679;&#45;&gt;LAPACK.potrf</title>
<path fill="none" stroke="#000000" d="M87,-833.44C87,-821.05 87,-806.48 87,-793.2"/>
<polygon fill="#000000" stroke="#000000" points="90.5,-792.89 87,-782.89 83.5,-792.89 90.5,-792.89"/>
<text text-anchor="middle" x="96.5" y="-804.44" font-family="Times-Roman" font-size="14.00">20</text>
</g>
<!-- A = qr -->
<g id="node2" class="node">
<title>A = qr</title>
<polygon fill="#8bc34a" stroke="black" points="326.5,-449.64 167.5,-449.64 167.5,-389.64 326.5,-389.64 326.5,-449.64"/>
<text text-anchor="middle" x="247" y="-436.04" font-family="Times-Roman" font-size="12.00">A = qr (1)</text>
<text text-anchor="middle" x="247" y="-423.04" font-family="Times-Roman" font-size="12.00">Num. Ranks: &#160;1&#45;1&#45;1</text>
<text text-anchor="middle" x="247" y="-410.04" font-family="Times-Roman" font-size="12.00">Avg. FLOPs: 2.67e+06</text>
<text text-anchor="middle" x="247" y="-397.04" font-family="Times-Roman" font-size="12.00">Avg. Perf: 6.59 FLOPs/ns</text>
</g>
<!-- gemv -->
<g id="node4" class="node">
<title>gemv</title>
<polygon fill="#ffffff" stroke="black" points="358.5,-293.64 199.5,-293.64 199.5,-233.64 358.5,-233.64 358.5,-293.64"/>
<text text-anchor="middle" x="279" y="-280.04" font-family="Times-Roman" font-size="12.00">gemv (2)</text>
<text text-anchor="middle" x="279" y="-267.04" font-family="Times-Roman" font-size="12.00">Num. Ranks: &#160;1&#45;1&#45;1</text>
<text text-anchor="middle" x="279" y="-254.04" font-family="Times-Roman" font-size="12.00">Avg. FLOPs: 9.20e+04</text>
<text text-anchor="middle" x="279" y="-241.04" font-family="Times-Roman" font-size="12.00">Avg. Perf: 8.72 FLOPs/ns</text>
</g>
<!-- A = qr&#45;&gt;gemv -->
<g id="edge7" class="edge">
<title>A = qr&#45;&gt;gemv</title>
<path fill="none" stroke="#2e7d32" d="M253.09,-389.31C258.12,-365.12 265.3,-330.58 270.82,-303.99"/>
<polygon fill="#2e7d32" stroke="#2e7d32" points="274.32,-304.36 272.93,-293.86 267.47,-302.94 274.32,-304.36"/>
<text text-anchor="middle" x="278.5" y="-337.94" font-family="Times-Roman" font-size="14.00">10</text>
</g>
<!-- trsm -->
<g id="node6" class="node">
<title>trsm</title>
<polygon fill="#ffffff" stroke="black" points="174,-671.64 0,-671.64 0,-611.64 174,-611.64 174,-671.64"/>
<text text-anchor="middle" x="87" y="-658.04" font-family="Times-Roman" font-size="12.00">trsm (2)</text>
<text text-anchor="middle" x="87" y="-645.04" font-family="Times-Roman" font-size="12.00">Num. Ranks: &#160;1&#45;1&#45;1</text>
<text text-anchor="middle" x="87" y="-632.04" font-family="Times-Roman" font-size="12.00">Avg. FLOPs: 1.00e+08</text>
<text text-anchor="middle" x="87" y="-619.04" font-family="Times-Roman" font-size="12.00">Avg. Perf: 148.73 FLOPs/ns</text>
</g>
<!-- LAPACK.potrf&#45;&gt;trsm -->
<g id="edge2" class="edge">
<title>LAPACK.potrf&#45;&gt;trsm</title>
<path fill="none" stroke="#000000" d="M87,-722.43C87,-710.09 87,-695.53 87,-682.24"/>
<polygon fill="#000000" stroke="#000000" points="90.5,-681.93 87,-671.93 83.5,-681.93 90.5,-681.93"/>
<text text-anchor="middle" x="96.5" y="-693.44" font-family="Times-Roman" font-size="14.00">20</text>
</g>
<!-- gemv&#45;&gt;gemv -->
<g id="edge12" class="edge">
<title>gemv&#45;&gt;gemv</title>
<path fill="none" stroke="#e53935" d="M358.57,-272.62C369.33,-271.12 376.5,-268.12 376.5,-263.64 376.5,-260.77 373.56,-258.51 368.62,-256.86"/>
<polygon fill="#e53935" stroke="#e53935" points="369.09,-253.38 358.57,-254.66 367.59,-260.22 369.09,-253.38"/>
<text text-anchor="middle" x="386" y="-259.94" font-family="Times-Roman" font-size="14.00">10</text>
</g>
<!-- syrk -->
<g id="node5" class="node">
<title>syrk</title>
<polygon fill="#ffffff" stroke="black" points="288.5,-560.64 121.5,-560.64 121.5,-500.64 288.5,-500.64 288.5,-560.64"/>
<text text-anchor="middle" x="205" y="-547.04" font-family="Times-Roman" font-size="12.00">syrk (2)</text>
<text text-anchor="middle" x="205" y="-534.04" font-family="Times-Roman" font-size="12.00">Num. Ranks: &#160;1&#45;1&#45;1</text>
<text text-anchor="middle" x="205" y="-521.04" font-family="Times-Roman" font-size="12.00">Avg. FLOPs: 1.00e+07</text>
<text text-anchor="middle" x="205" y="-508.04" font-family="Times-Roman" font-size="12.00">Avg. Perf: 33.37 FLOPs/ns</text>
</g>
<!-- gemv&#45;&gt;syrk -->
<g id="edge5" class="edge">
<title>gemv&#45;&gt;syrk</title>
<path fill="none" stroke="#2e7d32" d="M301.61,-293.73C328,-331.5 364.61,-398.64 336,-449.64 325.31,-468.69 308.05,-483.74 289.5,-495.4"/>
<polygon fill="#2e7d32" stroke="#2e7d32" points="287.71,-492.39 280.92,-500.52 291.3,-498.4 287.71,-492.39"/>
<text text-anchor="middle" x="355.5" y="-415.94" font-family="Times-Roman" font-size="14.00">10</text>
</g>
<!-- trsv -->
<g id="node7" class="node">
<title>trsv</title>
<polygon fill="#ffffff" stroke="black" points="241.5,-182.64 82.5,-182.64 82.5,-122.64 241.5,-122.64 241.5,-182.64"/>
<text text-anchor="middle" x="162" y="-169.04" font-family="Times-Roman" font-size="12.00">trsv (2)</text>
<text text-anchor="middle" x="162" y="-156.04" font-family="Times-Roman" font-size="12.00">Num. Ranks: &#160;1&#45;1&#45;1</text>
<text text-anchor="middle" x="162" y="-143.04" font-family="Times-Roman" font-size="12.00">Avg. FLOPs: 6.70e+05</text>
<text text-anchor="middle" x="162" y="-130.04" font-family="Times-Roman" font-size="12.00">Avg. Perf: 5.97 FLOPs/ns</text>
</g>
<!-- gemv&#45;&gt;trsv -->
<g id="edge8" class="edge">
<title>gemv&#45;&gt;trsv</title>
<path fill="none" stroke="#2e7d32" d="M219.34,-233.62C211.31,-228.29 203.59,-222.27 197,-215.64 190.08,-208.68 184.09,-200.07 179.11,-191.5"/>
<polygon fill="#2e7d32" stroke="#2e7d32" points="182.15,-189.77 174.29,-182.66 176.01,-193.12 182.15,-189.77"/>
<text text-anchor="middle" x="206.5" y="-204.44" font-family="Times-Roman" font-size="14.00">10</text>
</g>
<!-- x ./= A -->
<g id="node9" class="node">
<title>x ./= A</title>
<polygon fill="#ef9a9a" stroke="black" points="474.5,-182.64 315.5,-182.64 315.5,-122.64 474.5,-122.64 474.5,-182.64"/>
<text text-anchor="middle" x="395" y="-169.04" font-family="Times-Roman" font-size="12.00">x ./= A (1)</text>
<text text-anchor="middle" x="395" y="-156.04" font-family="Times-Roman" font-size="12.00">Num. Ranks: &#160;1&#45;1&#45;1</text>
<text text-anchor="middle" x="395" y="-143.04" font-family="Times-Roman" font-size="12.00">Avg. FLOPs: 1.00e+02</text>
<text text-anchor="middle" x="395" y="-130.04" font-family="Times-Roman" font-size="12.00">Avg. Perf: 0.34 FLOPs/ns</text>
</g>
<!-- gemv&#45;&gt;x ./= A -->
<g id="edge13" class="edge">
<title>gemv&#45;&gt;x ./= A</title>
<path fill="none" stroke="#e53935" d="M332.75,-233.64C340.65,-228.2 348.36,-222.16 355,-215.64 362.27,-208.51 368.88,-199.83 374.54,-191.25"/>
<polygon fill="#e53935" stroke="#e53935" points="377.52,-193.09 379.88,-182.76 371.59,-189.36 377.52,-193.09"/>
<text text-anchor="middle" x="375.5" y="-204.44" font-family="Times-Roman" font-size="14.00">10</text>
</g>
<!-- &#9632; -->
<g id="node10" class="node">
<title>&#9632;</title>
<ellipse fill="none" stroke="black" cx="220" cy="-35.82" rx="31.66" ry="31.66"/>
<ellipse fill="none" stroke="black" cx="220" cy="-35.82" rx="35.64" ry="35.64"/>
<text text-anchor="middle" x="220" y="-28.32" font-family="Times-Roman" font-size="30.00">■</text>
</g>
<!-- gemv&#45;&gt;&#9632; -->
<g id="edge16" class="edge">
<title>gemv&#45;&gt;&#9632;</title>
<path fill="none" stroke="#e53935" d="M274.11,-233.41C269.06,-204.9 260.47,-160.43 250,-122.64 246.03,-108.32 240.93,-92.92 236.05,-79.18"/>
<polygon fill="#e53935" stroke="#e53935" points="239.25,-77.73 232.57,-69.51 232.67,-80.1 239.25,-77.73"/>
<text text-anchor="middle" x="274.5" y="-148.94" font-family="Times-Roman" font-size="14.00">10</text>
</g>
<!-- syrk&#45;&gt;A = qr -->
<g id="edge6" class="edge">
<title>syrk&#45;&gt;A = qr</title>
<path fill="none" stroke="#2e7d32" d="M216.26,-500.43C221.1,-487.85 226.84,-472.95 232.04,-459.45"/>
<polygon fill="#2e7d32" stroke="#2e7d32" points="235.38,-460.52 235.71,-449.93 228.85,-458 235.38,-460.52"/>
<text text-anchor="middle" x="238.5" y="-471.44" font-family="Times-Roman" font-size="14.00">10</text>
</g>
<!-- W, A = LAPACK.syev -->
<g id="node8" class="node">
<title>W, A = LAPACK.syev</title>
<polygon fill="#ef9a9a" stroke="black" points="245.5,-371.64 86.5,-371.64 86.5,-311.64 245.5,-311.64 245.5,-371.64"/>
<text text-anchor="middle" x="166" y="-358.04" font-family="Times-Roman" font-size="12.00">W, A = LAPACK.syev (1)</text>
<text text-anchor="middle" x="166" y="-345.04" font-family="Times-Roman" font-size="12.00">Num. Ranks: &#160;1&#45;1&#45;1</text>
<text text-anchor="middle" x="166" y="-332.04" font-family="Times-Roman" font-size="12.00">Avg. FLOPs: 3.34e+06</text>
<text text-anchor="middle" x="166" y="-319.04" font-family="Times-Roman" font-size="12.00">Avg. Perf: 1.67 FLOPs/ns</text>
</g>
<!-- syrk&#45;&gt;W, A = LAPACK.syev -->
<g id="edge10" class="edge">
<title>syrk&#45;&gt;W, A = LAPACK.syev</title>
<path fill="none" stroke="#e53935" d="M182.85,-500.58C173.19,-486.1 162.95,-467.83 158,-449.64 152.02,-427.65 153.58,-402.24 156.84,-381.71"/>
<polygon fill="#e53935" stroke="#e53935" points="160.31,-382.21 158.61,-371.75 153.42,-380.99 160.31,-382.21"/>
<text text-anchor="middle" x="181.5" y="-471.44" font-family="Times-Roman" font-size="14.00">10</text>
</g>
<!-- trsm&#45;&gt;syrk -->
<g id="edge9" class="edge">
<title>trsm&#45;&gt;syrk</title>
<path fill="none" stroke="#e53935" d="M118.62,-611.43C133.17,-597.99 150.58,-581.91 165.94,-567.72"/>
<polygon fill="#e53935" stroke="#e53935" points="168.32,-570.29 173.29,-560.93 163.57,-565.14 168.32,-570.29"/>
<text text-anchor="middle" x="163.5" y="-582.44" font-family="Times-Roman" font-size="14.00">10</text>
</g>
<!-- trsm&#45;&gt;trsv -->
<g id="edge3" class="edge">
<title>trsm&#45;&gt;trsv</title>
<path fill="none" stroke="#2e7d32" d="M80.31,-611.2C75.92,-589.37 71,-558.8 71,-531.64 71,-531.64 71,-531.64 71,-262.64 71,-233.66 90.19,-208.31 110.95,-189.37"/>
<polygon fill="#2e7d32" stroke="#2e7d32" points="113.38,-191.89 118.63,-182.68 108.79,-186.6 113.38,-191.89"/>
<text text-anchor="middle" x="80.5" y="-415.94" font-family="Times-Roman" font-size="14.00">10</text>
</g>
<!-- trsv&#45;&gt;gemv -->
<g id="edge4" class="edge">
<title>trsv&#45;&gt;gemv</title>
<path fill="none" stroke="#000000" d="M199.42,-182.78C206.4,-188.54 213.53,-194.66 220,-200.64 228.61,-208.59 237.52,-217.53 245.72,-226.09"/>
<polygon fill="#000000" stroke="#000000" points="243.31,-228.63 252.72,-233.49 248.39,-223.82 243.31,-228.63"/>
<text text-anchor="middle" x="245.5" y="-204.44" font-family="Times-Roman" font-size="14.00">20</text>
</g>
<!-- trsv&#45;&gt;&#9632; -->
<g id="edge15" class="edge">
<title>trsv&#45;&gt;&#9632;</title>
<path fill="none" stroke="#2e7d32" d="M176.79,-122.37C183.73,-108.61 192.13,-91.99 199.66,-77.08"/>
<polygon fill="#2e7d32" stroke="#2e7d32" points="202.84,-78.55 204.22,-68.05 196.59,-75.4 202.84,-78.55"/>
<text text-anchor="middle" x="202.5" y="-93.44" font-family="Times-Roman" font-size="14.00">10</text>
</g>
<!-- W, A = LAPACK.syev&#45;&gt;trsv -->
<g id="edge11" class="edge">
<title>W, A = LAPACK.syev&#45;&gt;trsv</title>
<path fill="none" stroke="#e53935" d="M165.38,-311.42C164.69,-279.58 163.6,-228.47 162.84,-193.09"/>
<polygon fill="#e53935" stroke="#e53935" points="166.33,-192.58 162.62,-182.65 159.34,-192.73 166.33,-192.58"/>
<text text-anchor="middle" x="174.5" y="-259.94" font-family="Times-Roman" font-size="14.00">10</text>
</g>
<!-- x ./= A&#45;&gt;gemv -->
<g id="edge14" class="edge">
<title>x ./= A&#45;&gt;gemv</title>
<path fill="none" stroke="#e53935" d="M353.27,-182.71C345.95,-188.38 338.58,-194.49 332,-200.64 323.85,-208.27 315.69,-217.08 308.3,-225.62"/>
<polygon fill="#e53935" stroke="#e53935" points="305.55,-223.46 301.75,-233.35 310.89,-227.98 305.55,-223.46"/>
<text text-anchor="middle" x="341.5" y="-204.44" font-family="Times-Roman" font-size="14.00">10</text>
</g>
</g>
</svg>
