<?xml version="1.0" encoding="UTF-8" standalone="no"?>
<!DOCTYPE svg PUBLIC "-//W3C//DTD SVG 1.1//EN"
 "http://www.w3.org/Graphics/SVG/1.1/DTD/svg11.dtd">
<!-- Generated by graphviz version 2.44.0 (0)
 -->
<!-- Pages: 1 -->
<svg width="864pt" height="898pt"
 viewBox="0.00 0.00 864.07 897.81" xmlns="http://www.w3.org/2000/svg" xmlns:xlink="http://www.w3.org/1999/xlink">
<g id="graph0" class="graph" transform="scale(1 1) rotate(0) translate(4 893.81)">
<polygon fill="white" stroke="transparent" points="-4,4 -4,-893.81 860.07,-893.81 860.07,4 -4,4"/>
<!-- &#9679; -->
<g id="node1" class="node">
<title>&#9679;</title>
<ellipse fill="none" stroke="black" cx="377.07" cy="-859.41" rx="30.31" ry="30.31"/>
<text text-anchor="middle" x="377.07" y="-851.91" font-family="Times-Roman" font-size="30.00">●</text>
</g>
<!-- LAPACK.potrf -->
<g id="node2" class="node">
<title>LAPACK.potrf</title>
<polygon fill="#ffffff" stroke="black" points="450.57,-654 303.57,-654 303.57,-594 450.57,-594 450.57,-654"/>
<text text-anchor="middle" x="377.07" y="-640.4" font-family="Times-Roman" font-size="12.00">LAPACK.potrf (50/50)</text>
<text text-anchor="middle" x="377.07" y="-627.4" font-family="Times-Roman" font-size="12.00">Num. Ranks: &#160;3&#45;1&#45;1</text>
<text text-anchor="middle" x="377.07" y="-614.4" font-family="Times-Roman" font-size="12.00">Avg. FLOPs: 2.01e+08</text>
<text text-anchor="middle" x="377.07" y="-601.4" font-family="Times-Roman" font-size="12.00">Avg. Perf: 56.61 F/ns</text>
</g>
<!-- &#9679;&#45;&gt;LAPACK.potrf -->
<g id="edge2" class="edge">
<title>&#9679;&#45;&gt;LAPACK.potrf</title>
<path fill="none" stroke="#000000" d="M373.9,-829.04C372.41,-813.83 370.81,-794.94 370.07,-778 368.66,-745.59 368.66,-737.41 370.07,-705 370.65,-691.7 371.77,-677.19 372.95,-664.23"/>
<polygon fill="#000000" stroke="#000000" points="376.44,-664.5 373.9,-654.22 369.47,-663.84 376.44,-664.5"/>
<text text-anchor="middle" x="384.07" y="-737.8" font-family="Times-Roman" font-size="14.00">300</text>
</g>
<!-- transpose -->
<g id="node5" class="node">
<title>transpose</title>
<polygon fill="#ececff" stroke="black" points="554.57,-778 407.57,-778 407.57,-705 554.57,-705 554.57,-778"/>
<text text-anchor="middle" x="481.07" y="-764.4" font-family="Times-Roman" font-size="12.00">transpose (20/50)</text>
<text text-anchor="middle" x="481.07" y="-751.4" font-family="Times-Roman" font-size="12.00">Rank score: 3.4</text>
<text text-anchor="middle" x="481.07" y="-738.4" font-family="Times-Roman" font-size="12.00">Num. Ranks: &#160;2&#45;1&#45;1</text>
<text text-anchor="middle" x="481.07" y="-725.4" font-family="Times-Roman" font-size="12.00">Avg. FLOPs: 1.00e+00</text>
<text text-anchor="middle" x="481.07" y="-712.4" font-family="Times-Roman" font-size="12.00">Avg. Perf: 0.00 F/ns</text>
</g>
<!-- &#9679;&#45;&gt;transpose -->
<g id="edge1" class="edge">
<title>&#9679;&#45;&gt;transpose</title>
<path fill="none" stroke="#000000" d="M396.88,-836.33C409.65,-822.09 426.71,-803.09 442.12,-785.91"/>
<polygon fill="#000000" stroke="#000000" points="444.99,-787.95 449.07,-778.17 439.78,-783.27 444.99,-787.95"/>
<text text-anchor="middle" x="447.07" y="-799.8" font-family="Times-Roman" font-size="14.00">200</text>
</g>
<!-- gemv -->
<g id="node3" class="node">
<title>gemv</title>
<polygon fill="#ffffff" stroke="black" points="451.57,-543 304.57,-543 304.57,-483 451.57,-483 451.57,-543"/>
<text text-anchor="middle" x="378.07" y="-529.4" font-family="Times-Roman" font-size="12.00">gemv (50/50)</text>
<text text-anchor="middle" x="378.07" y="-516.4" font-family="Times-Roman" font-size="12.00">Num. Ranks: &#160;11&#45;4&#45;2</text>
<text text-anchor="middle" x="378.07" y="-503.4" font-family="Times-Roman" font-size="12.00">Avg. FLOPs: 1.40e+05</text>
<text text-anchor="middle" x="378.07" y="-490.4" font-family="Times-Roman" font-size="12.00">Avg. Perf: 6.78 F/ns</text>
</g>
<!-- LAPACK.potrf&#45;&gt;gemv -->
<g id="edge12" class="edge">
<title>LAPACK.potrf&#45;&gt;gemv</title>
<path fill="none" stroke="#000000" d="M379.93,-593.94C380.41,-588.01 380.82,-581.81 381.07,-576 381.38,-568.6 381.31,-560.7 381.04,-553.11"/>
<polygon fill="#000000" stroke="#000000" points="384.53,-552.84 380.56,-543.02 377.54,-553.17 384.53,-552.84"/>
<text text-anchor="middle" x="396.07" y="-564.8" font-family="Times-Roman" font-size="14.00">100</text>
</g>
<!-- trsm -->
<g id="node6" class="node">
<title>trsm</title>
<polygon fill="#ffffff" stroke="black" points="637.57,-66.5 490.57,-66.5 490.57,-6.5 637.57,-6.5 637.57,-66.5"/>
<text text-anchor="middle" x="564.07" y="-52.9" font-family="Times-Roman" font-size="12.00">trsm (50/50)</text>
<text text-anchor="middle" x="564.07" y="-39.9" font-family="Times-Roman" font-size="12.00">Num. Ranks: &#160;6&#45;1&#45;1</text>
<text text-anchor="middle" x="564.07" y="-26.9" font-family="Times-Roman" font-size="12.00">Avg. FLOPs: 1.00e+08</text>
<text text-anchor="middle" x="564.07" y="-13.9" font-family="Times-Roman" font-size="12.00">Avg. Perf: 153.89 F/ns</text>
</g>
<!-- LAPACK.potrf&#45;&gt;trsm -->
<g id="edge20" class="edge">
<title>LAPACK.potrf&#45;&gt;trsm</title>
<path fill="none" stroke="#000000" d="M450.79,-620.3C578.66,-613.59 828.07,-590.68 828.07,-514 828.07,-514 828.07,-514 828.07,-153 828.07,-73.04 725.17,-47.9 647.86,-40.3"/>
<polygon fill="#000000" stroke="#000000" points="647.88,-36.79 637.61,-39.38 647.26,-43.76 647.88,-36.79"/>
<text text-anchor="middle" x="842.07" y="-329.8" font-family="Times-Roman" font-size="14.00">270</text>
</g>
<!-- trsv -->
<g id="node7" class="node">
<title>trsv</title>
<polygon fill="#ffffff" stroke="black" points="382.57,-184 235.57,-184 235.57,-124 382.57,-124 382.57,-184"/>
<text text-anchor="middle" x="309.07" y="-170.4" font-family="Times-Roman" font-size="12.00">trsv (50/50)</text>
<text text-anchor="middle" x="309.07" y="-157.4" font-family="Times-Roman" font-size="12.00">Num. Ranks: &#160;7&#45;6&#45;1</text>
<text text-anchor="middle" x="309.07" y="-144.4" font-family="Times-Roman" font-size="12.00">Avg. FLOPs: 5.02e+05</text>
<text text-anchor="middle" x="309.07" y="-131.4" font-family="Times-Roman" font-size="12.00">Avg. Perf: 5.11 F/ns</text>
</g>
<!-- LAPACK.potrf&#45;&gt;trsv -->
<g id="edge4" class="edge">
<title>LAPACK.potrf&#45;&gt;trsv</title>
<path fill="none" stroke="#000000" d="M303.46,-612.63C221.42,-596.71 92.48,-557.67 33.07,-465 13.51,-434.5 5.03,-461.31 76.07,-359 131.64,-278.97 152.38,-262.1 229.07,-202 234.44,-197.79 240.22,-193.69 246.12,-189.78"/>
<polygon fill="#000000" stroke="#000000" points="248.31,-192.53 254.84,-184.19 244.53,-186.64 248.31,-192.53"/>
<text text-anchor="middle" x="90.07" y="-391.8" font-family="Times-Roman" font-size="14.00">460</text>
</g>
<!-- gemv&#45;&gt;LAPACK.potrf -->
<g id="edge9" class="edge">
<title>gemv&#45;&gt;LAPACK.potrf</title>
<path fill="none" stroke="#000000" d="M359.76,-543.2C357,-548.91 354.57,-554.99 353.07,-561 351.15,-568.72 352,-576.77 354.27,-584.42"/>
<polygon fill="#000000" stroke="#000000" points="351.01,-585.71 357.8,-593.84 357.57,-583.25 351.01,-585.71"/>
<text text-anchor="middle" x="367.07" y="-564.8" font-family="Times-Roman" font-size="14.00">100</text>
</g>
<!-- gemv&#45;&gt;gemv -->
<g id="edge18" class="edge">
<title>gemv&#45;&gt;gemv</title>
<path fill="none" stroke="#000000" d="M451.66,-522.14C462.36,-520.69 469.57,-517.64 469.57,-513 469.57,-510.03 466.61,-507.71 461.67,-506.05"/>
<polygon fill="#000000" stroke="#000000" points="462.18,-502.57 451.66,-503.86 460.69,-509.41 462.18,-502.57"/>
<text text-anchor="middle" x="479.07" y="-509.3" font-family="Times-Roman" font-size="14.00">80</text>
</g>
<!-- syrk -->
<g id="node4" class="node">
<title>syrk</title>
<polygon fill="#ffffff" stroke="black" points="502.57,-425.5 355.57,-425.5 355.57,-365.5 502.57,-365.5 502.57,-425.5"/>
<text text-anchor="middle" x="429.07" y="-411.9" font-family="Times-Roman" font-size="12.00">syrk (50/50)</text>
<text text-anchor="middle" x="429.07" y="-398.9" font-family="Times-Roman" font-size="12.00">Num. Ranks: &#160;6&#45;1&#45;1</text>
<text text-anchor="middle" x="429.07" y="-385.9" font-family="Times-Roman" font-size="12.00">Avg. FLOPs: 1.00e+07</text>
<text text-anchor="middle" x="429.07" y="-372.9" font-family="Times-Roman" font-size="12.00">Avg. Perf: 33.57 F/ns</text>
</g>
<!-- gemv&#45;&gt;syrk -->
<g id="edge28" class="edge">
<title>gemv&#45;&gt;syrk</title>
<path fill="none" stroke="#000000" d="M371.53,-482.7C370.46,-472.05 370.84,-460.15 375.07,-450 377.54,-444.08 381.01,-438.49 385.02,-433.3"/>
<polygon fill="#000000" stroke="#000000" points="387.85,-435.38 391.7,-425.51 382.53,-430.83 387.85,-435.38"/>
<text text-anchor="middle" x="389.07" y="-453.8" font-family="Times-Roman" font-size="14.00">100</text>
</g>
<!-- gemv&#45;&gt;trsm -->
<g id="edge34" class="edge">
<title>gemv&#45;&gt;trsm</title>
<path fill="none" stroke="#000000" d="M451.84,-492.73C465.82,-489.31 480.37,-485.92 494.07,-483 601.7,-460.08 726.07,-506.54 726.07,-396.5 726.07,-396.5 726.07,-396.5 726.07,-153 726.07,-109.58 687.01,-80.95 647.25,-63.06"/>
<polygon fill="#000000" stroke="#000000" points="648.53,-59.8 637.96,-59.07 645.77,-66.23 648.53,-59.8"/>
<text text-anchor="middle" x="735.57" y="-267.8" font-family="Times-Roman" font-size="14.00">20</text>
</g>
<!-- gemv&#45;&gt;trsv -->
<g id="edge13" class="edge">
<title>gemv&#45;&gt;trsv</title>
<path fill="none" stroke="#000000" d="M346,-482.69C331.77,-468.43 315.66,-450.42 304.07,-432 280.91,-395.19 276.21,-383.73 268.07,-341 258.32,-289.86 276.07,-231.28 291.18,-193.75"/>
<polygon fill="#000000" stroke="#000000" points="294.54,-194.79 295.15,-184.21 288.08,-192.1 294.54,-194.79"/>
<text text-anchor="middle" x="282.07" y="-329.8" font-family="Times-Roman" font-size="14.00">240</text>
</g>
<!-- A = qr -->
<g id="node8" class="node">
<title>A = qr</title>
<polygon fill="#f0f0ff" stroke="black" points="277.57,-73 130.57,-73 130.57,0 277.57,0 277.57,-73"/>
<text text-anchor="middle" x="204.07" y="-59.4" font-family="Times-Roman" font-size="12.00">A = qr (9/50)</text>
<text text-anchor="middle" x="204.07" y="-46.4" font-family="Times-Roman" font-size="12.00">Rank score: 2.7</text>
<text text-anchor="middle" x="204.07" y="-33.4" font-family="Times-Roman" font-size="12.00">Num. Ranks: &#160;2&#45;1&#45;1</text>
<text text-anchor="middle" x="204.07" y="-20.4" font-family="Times-Roman" font-size="12.00">Avg. FLOPs: 2.67e+06</text>
<text text-anchor="middle" x="204.07" y="-7.4" font-family="Times-Roman" font-size="12.00">Avg. Perf: 6.83 F/ns</text>
</g>
<!-- gemv&#45;&gt;A = qr -->
<g id="edge29" class="edge">
<title>gemv&#45;&gt;A = qr</title>
<path fill="none" stroke="#000000" d="M304.38,-506.54C251.98,-500.74 180.76,-488.93 122.07,-465 97.76,-455.09 87.13,-454.17 73.07,-432 -0.76,-315.56 26.95,-234 110.07,-124 121.91,-108.33 136.81,-93.15 151.23,-80"/>
<polygon fill="#000000" stroke="#000000" points="153.59,-82.58 158.71,-73.31 148.92,-77.36 153.59,-82.58"/>
<text text-anchor="middle" x="53.57" y="-267.8" font-family="Times-Roman" font-size="14.00">30</text>
</g>
<!-- W, A = LAPACK.syev -->
<g id="node9" class="node">
<title>W, A = LAPACK.syev</title>
<polygon fill="#ddddff" stroke="black" points="634.57,-308 457.57,-308 457.57,-235 634.57,-235 634.57,-308"/>
<text text-anchor="middle" x="546.07" y="-294.4" font-family="Times-Roman" font-size="12.00">W, A = LAPACK.syev (8/50)</text>
<text text-anchor="middle" x="546.07" y="-281.4" font-family="Times-Roman" font-size="12.00">Rank score: 6.2</text>
<text text-anchor="middle" x="546.07" y="-268.4" font-family="Times-Roman" font-size="12.00">Num. Ranks: &#160;2&#45;1&#45;1</text>
<text text-anchor="middle" x="546.07" y="-255.4" font-family="Times-Roman" font-size="12.00">Avg. FLOPs: 3.34e+06</text>
<text text-anchor="middle" x="546.07" y="-242.4" font-family="Times-Roman" font-size="12.00">Avg. Perf: 1.74 F/ns</text>
</g>
<!-- gemv&#45;&gt;W, A = LAPACK.syev -->
<g id="edge21" class="edge">
<title>gemv&#45;&gt;W, A = LAPACK.syev</title>
<path fill="none" stroke="#000000" d="M451.6,-493.12C498.59,-480.92 551.11,-466.95 553.07,-465 590.85,-427.37 578.85,-361.94 564.43,-317.94"/>
<polygon fill="#000000" stroke="#000000" points="567.69,-316.67 561.14,-308.34 561.07,-318.94 567.69,-316.67"/>
<text text-anchor="middle" x="587.57" y="-391.8" font-family="Times-Roman" font-size="14.00">20</text>
</g>
<!-- x ./= A -->
<g id="node10" class="node">
<title>x ./= A</title>
<polygon fill="#ddddff" stroke="black" points="260.57,-432 113.57,-432 113.57,-359 260.57,-359 260.57,-432"/>
<text text-anchor="middle" x="187.07" y="-418.4" font-family="Times-Roman" font-size="12.00">x ./= A (8/50)</text>
<text text-anchor="middle" x="187.07" y="-405.4" font-family="Times-Roman" font-size="12.00">Rank score: 6.2</text>
<text text-anchor="middle" x="187.07" y="-392.4" font-family="Times-Roman" font-size="12.00">Num. Ranks: &#160;5&#45;4&#45;3</text>
<text text-anchor="middle" x="187.07" y="-379.4" font-family="Times-Roman" font-size="12.00">Avg. FLOPs: 1.00e+02</text>
<text text-anchor="middle" x="187.07" y="-366.4" font-family="Times-Roman" font-size="12.00">Avg. Perf: 0.37 F/ns</text>
</g>
<!-- gemv&#45;&gt;x ./= A -->
<g id="edge23" class="edge">
<title>gemv&#45;&gt;x ./= A</title>
<path fill="none" stroke="#000000" d="M304.28,-507.83C270.67,-502.26 232.74,-490.27 207.07,-465 200.66,-458.69 196.27,-450.44 193.28,-441.86"/>
<polygon fill="#000000" stroke="#000000" points="196.61,-440.76 190.46,-432.13 189.88,-442.71 196.61,-440.76"/>
<text text-anchor="middle" x="216.57" y="-453.8" font-family="Times-Roman" font-size="14.00">80</text>
</g>
<!-- &#9632; -->
<g id="node11" class="node">
<title>&#9632;</title>
<ellipse fill="none" stroke="black" cx="410.07" cy="-36.5" rx="31.66" ry="31.66"/>
<ellipse fill="none" stroke="black" cx="410.07" cy="-36.5" rx="35.64" ry="35.64"/>
<text text-anchor="middle" x="410.07" y="-29" font-family="Times-Roman" font-size="30.00">■</text>
</g>
<!-- gemv&#45;&gt;&#9632; -->
<g id="edge36" class="edge">
<title>gemv&#45;&gt;&#9632;</title>
<path fill="none" stroke="#000000" d="M451.66,-493.39C465.73,-489.89 480.35,-486.3 494.07,-483 528.66,-474.69 541.52,-483.24 572.07,-465 637.98,-425.64 631.32,-383.7 644.07,-308 649.46,-276.01 658.93,-263.84 644.07,-235 598.82,-147.19 534.28,-174.47 463.07,-106 453.41,-96.71 444.04,-85.58 435.95,-75.02"/>
<polygon fill="#000000" stroke="#000000" points="438.53,-72.63 429.74,-66.72 432.93,-76.82 438.53,-72.63"/>
<text text-anchor="middle" x="660.57" y="-267.8" font-family="Times-Roman" font-size="14.00">80</text>
</g>
<!-- syrk&#45;&gt;LAPACK.potrf -->
<g id="edge11" class="edge">
<title>syrk&#45;&gt;LAPACK.potrf</title>
<path fill="none" stroke="#000000" d="M460.72,-425.77C475.08,-441.22 490.52,-461.42 498.07,-483 506.88,-508.17 510.7,-519.51 498.07,-543 488.08,-561.58 471.66,-576.57 454.1,-588.33"/>
<polygon fill="#000000" stroke="#000000" points="451.98,-585.53 445.41,-593.84 455.73,-591.44 451.98,-585.53"/>
<text text-anchor="middle" x="520.07" y="-509.3" font-family="Times-Roman" font-size="14.00">180</text>
</g>
<!-- syrk&#45;&gt;gemv -->
<g id="edge19" class="edge">
<title>syrk&#45;&gt;gemv</title>
<path fill="none" stroke="#000000" d="M421.38,-425.75C417.69,-438.12 412.82,-452.52 407.07,-465 405.71,-467.96 404.19,-470.96 402.59,-473.95"/>
<polygon fill="#000000" stroke="#000000" points="399.48,-472.34 397.6,-482.77 405.57,-475.79 399.48,-472.34"/>
<text text-anchor="middle" x="423.57" y="-453.8" font-family="Times-Roman" font-size="14.00">90</text>
</g>
<!-- syrk&#45;&gt;trsv -->
<g id="edge7" class="edge">
<title>syrk&#45;&gt;trsv</title>
<path fill="none" stroke="#000000" d="M376.84,-365.42C356.26,-351.02 334.78,-331.62 323.07,-308 305.46,-272.46 303.58,-226.59 305.11,-194.38"/>
<polygon fill="#000000" stroke="#000000" points="308.62,-194.21 305.73,-184.01 301.64,-193.78 308.62,-194.21"/>
<text text-anchor="middle" x="337.07" y="-267.8" font-family="Times-Roman" font-size="14.00">130</text>
</g>
<!-- syrk&#45;&gt;A = qr -->
<g id="edge16" class="edge">
<title>syrk&#45;&gt;A = qr</title>
<path fill="none" stroke="#000000" d="M367.89,-365.41C355.19,-358.21 342.27,-349.96 331.07,-341 315.82,-328.8 313.66,-323.71 302.07,-308 263.71,-255.98 248.2,-244.73 226.07,-184 214.22,-151.47 208.74,-112.64 206.22,-83.13"/>
<polygon fill="#000000" stroke="#000000" points="209.71,-82.81 205.45,-73.11 202.73,-83.35 209.71,-82.81"/>
<text text-anchor="middle" x="249.57" y="-205.8" font-family="Times-Roman" font-size="14.00">50</text>
</g>
<!-- syrk&#45;&gt;W, A = LAPACK.syev -->
<g id="edge25" class="edge">
<title>syrk&#45;&gt;W, A = LAPACK.syev</title>
<path fill="none" stroke="#000000" d="M457.09,-365.28C471.4,-350.36 489.08,-331.93 504.9,-315.43"/>
<polygon fill="#000000" stroke="#000000" points="507.62,-317.65 512.02,-308.01 502.57,-312.81 507.62,-317.65"/>
<text text-anchor="middle" x="503.57" y="-329.8" font-family="Times-Roman" font-size="14.00">50</text>
</g>
<!-- transpose&#45;&gt;LAPACK.potrf -->
<g id="edge3" class="edge">
<title>transpose&#45;&gt;LAPACK.potrf</title>
<path fill="none" stroke="#000000" d="M449.02,-704.9C436.63,-691.15 422.46,-675.41 409.99,-661.56"/>
<polygon fill="#000000" stroke="#000000" points="412.56,-659.18 403.26,-654.09 407.35,-663.86 412.56,-659.18"/>
<text text-anchor="middle" x="447.07" y="-675.8" font-family="Times-Roman" font-size="14.00">200</text>
</g>
<!-- trsm&#45;&gt;gemv -->
<g id="edge27" class="edge">
<title>trsm&#45;&gt;gemv</title>
<path fill="none" stroke="#000000" d="M637.84,-46.18C700.75,-58.19 781.07,-86.53 781.07,-153 781.07,-396.5 781.07,-396.5 781.07,-396.5 781.07,-529.72 625.61,-461.91 494.07,-483 483.48,-484.7 472.43,-486.89 461.55,-489.31"/>
<polygon fill="#000000" stroke="#000000" points="460.59,-485.95 451.63,-491.59 462.16,-492.77 460.59,-485.95"/>
<text text-anchor="middle" x="790.57" y="-267.8" font-family="Times-Roman" font-size="14.00">50</text>
</g>
<!-- trsm&#45;&gt;syrk -->
<g id="edge6" class="edge">
<title>trsm&#45;&gt;syrk</title>
<path fill="none" stroke="#000000" d="M546.67,-66.67C515.28,-119.4 452.12,-225.98 449.07,-235 435.68,-274.6 431.11,-322.47 429.63,-355.37"/>
<polygon fill="#000000" stroke="#000000" points="426.13,-355.37 429.25,-365.49 433.12,-355.63 426.13,-355.37"/>
<text text-anchor="middle" x="480.07" y="-205.8" font-family="Times-Roman" font-size="14.00">280</text>
</g>
<!-- trsm&#45;&gt;trsv -->
<g id="edge14" class="edge">
<title>trsm&#45;&gt;trsv</title>
<path fill="none" stroke="#000000" d="M520.19,-66.5C492.17,-85 460.93,-105.59 460.07,-106 438.89,-116.03 415.04,-124.59 392.66,-131.56"/>
<polygon fill="#000000" stroke="#000000" points="391.39,-128.29 382.84,-134.54 393.42,-134.99 391.39,-128.29"/>
<text text-anchor="middle" x="494.07" y="-94.8" font-family="Times-Roman" font-size="14.00">170</text>
</g>
<!-- trsv&#45;&gt;LAPACK.potrf -->
<g id="edge31" class="edge">
<title>trsv&#45;&gt;LAPACK.potrf</title>
<path fill="none" stroke="#000000" d="M235.52,-164.55C155.89,-176.54 36.45,-199.88 8.07,-235 6.88,-236.47 -4.25,-396.63 2.07,-432 11.33,-483.77 5.18,-506.53 43.07,-543 78.4,-577.01 206.22,-600.34 293.09,-612.68"/>
<polygon fill="#000000" stroke="#000000" points="292.82,-616.17 303.2,-614.09 293.78,-609.24 292.82,-616.17"/>
<text text-anchor="middle" x="11.57" y="-391.8" font-family="Times-Roman" font-size="14.00">50</text>
</g>
<!-- trsv&#45;&gt;gemv -->
<g id="edge8" class="edge">
<title>trsv&#45;&gt;gemv</title>
<path fill="none" stroke="#000000" d="M303.31,-184.24C302.38,-190.1 301.56,-196.23 301.07,-202 295.87,-263.56 289.48,-280.73 303.07,-341 313.89,-388.98 338.23,-440.16 356.27,-473.89"/>
<polygon fill="#000000" stroke="#000000" points="353.32,-475.8 361.17,-482.92 359.47,-472.46 353.32,-475.8"/>
<text text-anchor="middle" x="317.07" y="-329.8" font-family="Times-Roman" font-size="14.00">200</text>
</g>
<!-- trsv&#45;&gt;syrk -->
<g id="edge15" class="edge">
<title>trsv&#45;&gt;syrk</title>
<path fill="none" stroke="#000000" d="M324.63,-184.15C332.64,-199.27 342.49,-218.07 351.07,-235 362.49,-257.53 391.25,-316.56 410.47,-356.14"/>
<polygon fill="#000000" stroke="#000000" points="407.38,-357.79 414.89,-365.26 413.68,-354.73 407.38,-357.79"/>
<text text-anchor="middle" x="401.07" y="-267.8" font-family="Times-Roman" font-size="14.00">120</text>
</g>
<!-- trsv&#45;&gt;trsm -->
<g id="edge5" class="edge">
<title>trsv&#45;&gt;trsm</title>
<path fill="none" stroke="#000000" d="M364.32,-123.94C385.35,-113.2 409.64,-101.18 432.07,-91 447.69,-83.91 464.54,-76.73 480.81,-70.04"/>
<polygon fill="#000000" stroke="#000000" points="482.37,-73.18 490.31,-66.16 479.72,-66.7 482.37,-73.18"/>
<text text-anchor="middle" x="446.07" y="-94.8" font-family="Times-Roman" font-size="14.00">210</text>
</g>
<!-- trsv&#45;&gt;trsv -->
<g id="edge10" class="edge">
<title>trsv&#45;&gt;trsv</title>
<path fill="none" stroke="#000000" d="M382.66,-163.14C393.36,-161.69 400.57,-158.64 400.57,-154 400.57,-151.03 397.61,-148.71 392.67,-147.05"/>
<polygon fill="#000000" stroke="#000000" points="393.18,-143.57 382.66,-144.86 391.69,-150.41 393.18,-143.57"/>
<text text-anchor="middle" x="414.57" y="-150.3" font-family="Times-Roman" font-size="14.00">470</text>
</g>
<!-- trsv&#45;&gt;A = qr -->
<g id="edge33" class="edge">
<title>trsv&#45;&gt;A = qr</title>
<path fill="none" stroke="#000000" d="M296.89,-123.86C291.47,-112.88 284.42,-100.71 276.07,-91 272.79,-87.19 269.19,-83.48 265.41,-79.93"/>
<polygon fill="#000000" stroke="#000000" points="267.73,-77.31 257.94,-73.27 263.07,-82.53 267.73,-77.31"/>
<text text-anchor="middle" x="296.57" y="-94.8" font-family="Times-Roman" font-size="14.00">10</text>
</g>
<!-- trsv&#45;&gt;W, A = LAPACK.syev -->
<g id="edge26" class="edge">
<title>trsv&#45;&gt;W, A = LAPACK.syev</title>
<path fill="none" stroke="#000000" d="M382.75,-170.2C439.7,-182.21 509.74,-197.64 515.07,-202 522.65,-208.19 528.45,-216.63 532.86,-225.47"/>
<polygon fill="#000000" stroke="#000000" points="529.72,-227.02 536.97,-234.75 536.12,-224.19 529.72,-227.02"/>
<text text-anchor="middle" x="536.57" y="-205.8" font-family="Times-Roman" font-size="14.00">10</text>
</g>
<!-- trsv&#45;&gt;&#9632; -->
<g id="edge35" class="edge">
<title>trsv&#45;&gt;&#9632;</title>
<path fill="none" stroke="#000000" d="M329.21,-123.85C336.94,-113.22 346.07,-101.29 355.07,-91 361.78,-83.33 369.39,-75.47 376.77,-68.21"/>
<polygon fill="#000000" stroke="#000000" points="379.27,-70.66 384.02,-61.19 374.4,-65.63 379.27,-70.66"/>
<text text-anchor="middle" x="369.07" y="-94.8" font-family="Times-Roman" font-size="14.00">420</text>
</g>
<!-- A = qr&#45;&gt;gemv -->
<g id="edge17" class="edge">
<title>A = qr&#45;&gt;gemv</title>
<path fill="none" stroke="#000000" d="M177.49,-73.08C126.03,-146.66 24.57,-318.18 104.07,-432 126.09,-463.53 222.12,-486.23 294.32,-499.22"/>
<polygon fill="#000000" stroke="#000000" points="293.89,-502.7 304.34,-500.99 295.1,-495.81 293.89,-502.7"/>
<text text-anchor="middle" x="102.57" y="-267.8" font-family="Times-Roman" font-size="14.00">80</text>
</g>
<!-- A = qr&#45;&gt;trsv -->
<g id="edge32" class="edge">
<title>A = qr&#45;&gt;trsv</title>
<path fill="none" stroke="#000000" d="M229.88,-73.32C238.18,-84.15 247.67,-95.85 257.07,-106 260.36,-109.55 263.88,-113.13 267.49,-116.65"/>
<polygon fill="#000000" stroke="#000000" points="265.29,-119.4 274.95,-123.75 270.12,-114.32 265.29,-119.4"/>
<text text-anchor="middle" x="266.57" y="-94.8" font-family="Times-Roman" font-size="14.00">10</text>
</g>
<!-- W, A = LAPACK.syev&#45;&gt;gemv -->
<g id="edge22" class="edge">
<title>W, A = LAPACK.syev&#45;&gt;gemv</title>
<path fill="none" stroke="#000000" d="M546.41,-308.08C545.04,-342.73 538.28,-395.39 512.07,-432 498.61,-450.81 479.22,-465.97 459.36,-477.82"/>
<polygon fill="#000000" stroke="#000000" points="457.48,-474.87 450.53,-482.87 460.95,-480.94 457.48,-474.87"/>
<text text-anchor="middle" x="549.57" y="-391.8" font-family="Times-Roman" font-size="14.00">70</text>
</g>
<!-- W, A = LAPACK.syev&#45;&gt;trsv -->
<g id="edge30" class="edge">
<title>W, A = LAPACK.syev&#45;&gt;trsv</title>
<path fill="none" stroke="#000000" d="M473.03,-234.9C442.71,-220.13 407.71,-203.07 377.85,-188.52"/>
<polygon fill="#000000" stroke="#000000" points="379.28,-185.32 368.76,-184.09 376.21,-191.62 379.28,-185.32"/>
<text text-anchor="middle" x="444.57" y="-205.8" font-family="Times-Roman" font-size="14.00">10</text>
</g>
<!-- x ./= A&#45;&gt;gemv -->
<g id="edge24" class="edge">
<title>x ./= A&#45;&gt;gemv</title>
<path fill="none" stroke="#000000" d="M217.61,-432.29C228.82,-443.86 242.19,-456.01 256.07,-465 268.07,-472.77 281.54,-479.56 295.04,-485.38"/>
<polygon fill="#000000" stroke="#000000" points="293.8,-488.66 304.38,-489.26 296.49,-482.19 293.8,-488.66"/>
<text text-anchor="middle" x="265.57" y="-453.8" font-family="Times-Roman" font-size="14.00">80</text>
</g>
</g>
</svg>
