<?xml version="1.0" encoding="UTF-8" standalone="no"?>
<!DOCTYPE svg PUBLIC "-//W3C//DTD SVG 1.1//EN"
 "http://www.w3.org/Graphics/SVG/1.1/DTD/svg11.dtd">
<!-- Generated by graphviz version 8.1.0 (20230707.0739)
 -->
<!-- Pages: 1 -->
<svg width="812pt" height="947pt"
 viewBox="0.00 0.00 812.00 946.85" xmlns="http://www.w3.org/2000/svg" xmlns:xlink="http://www.w3.org/1999/xlink">
<g id="graph0" class="graph" transform="scale(1 1) rotate(0) translate(4 942.85)">
<polygon fill="white" stroke="none" points="-4,4 -4,-942.85 808,-942.85 808,4 -4,4"/>
<!-- &#9679; -->
<g id="node1" class="node">
<title>&#9679;</title>
<ellipse fill="none" stroke="black" cx="226" cy="-907.74" rx="31.11" ry="31.11"/>
<text text-anchor="middle" x="226" y="-898.74" font-family="Times,serif" font-size="30.00">●</text>
</g>
<!-- potrf -->
<g id="node7" class="node">
<title>potrf</title>
<polygon fill="#ffffff" stroke="black" points="272.05,-691.03 143.95,-691.03 143.95,-625.43 272.05,-625.43 272.05,-691.03"/>
<text text-anchor="middle" x="208" y="-676.23" font-family="Times,serif" font-size="12.00">potrf (50/50)</text>
<text text-anchor="middle" x="208" y="-661.83" font-family="Times,serif" font-size="12.00">Num. Ranks: &#160;4&#45;2&#45;2</text>
<text text-anchor="middle" x="208" y="-647.43" font-family="Times,serif" font-size="12.00">Avg. FLOPs: 2.01e+08</text>
<text text-anchor="middle" x="208" y="-633.03" font-family="Times,serif" font-size="12.00">Avg. Perf: 51.58 F/ns</text>
</g>
<!-- &#9679;&#45;&gt;potrf -->
<g id="edge2" class="edge">
<title>&#9679;&#45;&gt;potrf</title>
<path fill="none" stroke="#000000" d="M215.21,-878.43C209.77,-862.62 203.74,-842.42 201,-823.83 194.94,-782.77 198,-735.38 201.79,-702.02"/>
<polygon fill="#000000" stroke="#000000" points="205.36,-702.62 203.09,-692.27 198.41,-701.78 205.36,-702.62"/>
<text text-anchor="middle" x="211.5" y="-779.63" font-family="Times,serif" font-size="14.00">300</text>
</g>
<!-- transpose -->
<g id="node10" class="node">
<title>transpose</title>
<polygon fill="#ebebff" stroke="black" points="359.05,-823.83 230.95,-823.83 230.95,-743.83 359.05,-743.83 359.05,-823.83"/>
<text text-anchor="middle" x="295" y="-809.03" font-family="Times,serif" font-size="12.00">transpose (20/50)</text>
<text text-anchor="middle" x="295" y="-794.63" font-family="Times,serif" font-size="12.00">Rank score: 3.8</text>
<text text-anchor="middle" x="295" y="-780.23" font-family="Times,serif" font-size="12.00">Num. Ranks: &#160;2&#45;1&#45;1</text>
<text text-anchor="middle" x="295" y="-765.83" font-family="Times,serif" font-size="12.00">Avg. FLOPs: 1.00e+00</text>
<text text-anchor="middle" x="295" y="-751.43" font-family="Times,serif" font-size="12.00">Avg. Perf: 0.00 F/ns</text>
</g>
<!-- &#9679;&#45;&gt;transpose -->
<g id="edge1" class="edge">
<title>&#9679;&#45;&gt;transpose</title>
<path fill="none" stroke="#000000" d="M240.97,-880.28C248.73,-866.59 258.44,-849.42 267.49,-833.44"/>
<polygon fill="#000000" stroke="#000000" points="270.84,-835.63 272.72,-825.2 264.74,-832.18 270.84,-835.63"/>
<text text-anchor="middle" x="272.5" y="-846.03" font-family="Times,serif" font-size="14.00">200</text>
</g>
<!-- gemv -->
<g id="node2" class="node">
<title>gemv</title>
<polygon fill="#ffffff" stroke="black" points="383.05,-572.63 254.95,-572.63 254.95,-507.03 383.05,-507.03 383.05,-572.63"/>
<text text-anchor="middle" x="319" y="-557.83" font-family="Times,serif" font-size="12.00">gemv (50/50)</text>
<text text-anchor="middle" x="319" y="-543.43" font-family="Times,serif" font-size="12.00">Num. Ranks: &#160;9&#45;6&#45;1</text>
<text text-anchor="middle" x="319" y="-529.03" font-family="Times,serif" font-size="12.00">Avg. FLOPs: 1.40e+05</text>
<text text-anchor="middle" x="319" y="-514.63" font-family="Times,serif" font-size="12.00">Avg. Perf: 13.10 F/ns</text>
</g>
<!-- gemv&#45;&gt;gemv -->
<g id="edge19" class="edge">
<title>gemv&#45;&gt;gemv</title>
<path fill="none" stroke="#000000" d="M383.33,-550.1C393.83,-548.63 401.05,-545.2 401.05,-539.83 401.05,-536.55 398.37,-534 393.9,-532.17"/>
<polygon fill="#000000" stroke="#000000" points="394.88,-528.56 384.33,-529.56 393.2,-535.36 394.88,-528.56"/>
<text text-anchor="middle" x="408.05" y="-535.63" font-family="Times,serif" font-size="14.00">80</text>
</g>
<!-- trsv -->
<g id="node3" class="node">
<title>trsv</title>
<polygon fill="#ffffff" stroke="black" points="427.05,-447.03 298.95,-447.03 298.95,-381.43 427.05,-381.43 427.05,-447.03"/>
<text text-anchor="middle" x="363" y="-432.23" font-family="Times,serif" font-size="12.00">trsv (50/50)</text>
<text text-anchor="middle" x="363" y="-417.83" font-family="Times,serif" font-size="12.00">Num. Ranks: &#160;5&#45;4&#45;2</text>
<text text-anchor="middle" x="363" y="-403.43" font-family="Times,serif" font-size="12.00">Avg. FLOPs: 5.02e+05</text>
<text text-anchor="middle" x="363" y="-389.03" font-family="Times,serif" font-size="12.00">Avg. Perf: 9.29 F/ns</text>
</g>
<!-- gemv&#45;&gt;trsv -->
<g id="edge10" class="edge">
<title>gemv&#45;&gt;trsv</title>
<path fill="none" stroke="#000000" d="M333.92,-506.65C336.41,-500.84 338.88,-494.79 341,-489.03 344.67,-479.06 348.18,-468.18 351.28,-457.9"/>
<polygon fill="#000000" stroke="#000000" points="354.88,-459.06 354.34,-448.48 348.16,-457.09 354.88,-459.06"/>
<text text-anchor="middle" x="356.5" y="-476.43" font-family="Times,serif" font-size="14.00">240</text>
</g>
<!-- A = qr -->
<g id="node4" class="node">
<title>A = qr</title>
<polygon fill="#f5f5ff" stroke="black" points="482.05,-80 353.95,-80 353.95,0 482.05,0 482.05,-80"/>
<text text-anchor="middle" x="418" y="-65.2" font-family="Times,serif" font-size="12.00">A = qr (9/50)</text>
<text text-anchor="middle" x="418" y="-50.8" font-family="Times,serif" font-size="12.00">Rank score: 1.8</text>
<text text-anchor="middle" x="418" y="-36.4" font-family="Times,serif" font-size="12.00">Num. Ranks: &#160;2&#45;1&#45;1</text>
<text text-anchor="middle" x="418" y="-22" font-family="Times,serif" font-size="12.00">Avg. FLOPs: 2.67e+06</text>
<text text-anchor="middle" x="418" y="-7.6" font-family="Times,serif" font-size="12.00">Avg. Perf: 13.64 F/ns</text>
</g>
<!-- gemv&#45;&gt;A = qr -->
<g id="edge25" class="edge">
<title>gemv&#45;&gt;A = qr</title>
<path fill="none" stroke="#000000" d="M383.42,-516.43C395.46,-512.85 408.03,-509.51 420,-507.03 544.1,-481.27 690,-541.97 690,-415.23 690,-415.23 690,-415.23 690,-164.6 690,-71.78 585.24,-118.04 492.16,-80.12"/>
<polygon fill="#000000" stroke="#000000" points="493.89,-76.61 483.33,-75.77 491.06,-83.01 493.89,-76.61"/>
<text text-anchor="middle" x="697" y="-282.11" font-family="Times,serif" font-size="14.00">30</text>
</g>
<!-- syrk -->
<g id="node5" class="node">
<title>syrk</title>
<polygon fill="#ffffff" stroke="black" points="366.05,-198.4 237.95,-198.4 237.95,-132.8 366.05,-132.8 366.05,-198.4"/>
<text text-anchor="middle" x="302" y="-183.6" font-family="Times,serif" font-size="12.00">syrk (50/50)</text>
<text text-anchor="middle" x="302" y="-169.2" font-family="Times,serif" font-size="12.00">Num. Ranks: &#160;8&#45;2&#45;2</text>
<text text-anchor="middle" x="302" y="-154.8" font-family="Times,serif" font-size="12.00">Avg. FLOPs: 1.00e+07</text>
<text text-anchor="middle" x="302" y="-140.4" font-family="Times,serif" font-size="12.00">Avg. Perf: 41.31 F/ns</text>
</g>
<!-- gemv&#45;&gt;syrk -->
<g id="edge24" class="edge">
<title>gemv&#45;&gt;syrk</title>
<path fill="none" stroke="#000000" d="M254.47,-506.91C247.02,-501.59 239.97,-495.62 234,-489.03 213.26,-466.12 185.51,-434.62 163,-321.43 156.91,-290.81 147.71,-278.41 163,-251.2 177.3,-225.76 202.69,-207.08 227.9,-193.84"/>
<polygon fill="#000000" stroke="#000000" points="229.14,-196.63 236.52,-189.03 226.01,-190.37 229.14,-196.63"/>
<text text-anchor="middle" x="181.5" y="-343.63" font-family="Times,serif" font-size="14.00">100</text>
</g>
<!-- trsm -->
<g id="node6" class="node">
<title>trsm</title>
<polygon fill="#ffffff" stroke="black" points="300.05,-319.11 171.95,-319.11 171.95,-253.51 300.05,-253.51 300.05,-319.11"/>
<text text-anchor="middle" x="236" y="-304.31" font-family="Times,serif" font-size="12.00">trsm (50/50)</text>
<text text-anchor="middle" x="236" y="-289.91" font-family="Times,serif" font-size="12.00">Num. Ranks: &#160;8&#45;2&#45;2</text>
<text text-anchor="middle" x="236" y="-275.51" font-family="Times,serif" font-size="12.00">Avg. FLOPs: 1.00e+08</text>
<text text-anchor="middle" x="236" y="-261.11" font-family="Times,serif" font-size="12.00">Avg. Perf: 227.15 F/ns</text>
</g>
<!-- gemv&#45;&gt;trsm -->
<g id="edge27" class="edge">
<title>gemv&#45;&gt;trsm</title>
<path fill="none" stroke="#000000" d="M268.78,-506.76C252.5,-492.98 237.07,-475.19 231,-454.23 219.14,-413.27 222.56,-364.28 227.61,-330"/>
<polygon fill="#000000" stroke="#000000" points="231.18,-330.85 229.3,-320.42 224.27,-329.75 231.18,-330.85"/>
<text text-anchor="middle" x="238" y="-410.03" font-family="Times,serif" font-size="14.00">20</text>
</g>
<!-- gemv&#45;&gt;potrf -->
<g id="edge15" class="edge">
<title>gemv&#45;&gt;potrf</title>
<path fill="none" stroke="#000000" d="M254.64,-569.77C245.87,-575.73 237.63,-582.67 231,-590.63 225.21,-597.58 220.85,-606.07 217.57,-614.63"/>
<polygon fill="#000000" stroke="#000000" points="213.95,-613.42 214.09,-624.01 220.59,-615.64 213.95,-613.42"/>
<text text-anchor="middle" x="241.5" y="-594.83" font-family="Times,serif" font-size="14.00">100</text>
</g>
<!-- W, A = LAPACK.syev -->
<g id="node8" class="node">
<title>W, A = LAPACK.syev</title>
<polygon fill="#dbdbff" stroke="black" points="660.04,-80 499.96,-80 499.96,0 660.04,0 660.04,-80"/>
<text text-anchor="middle" x="580" y="-65.2" font-family="Times,serif" font-size="12.00">W, A = LAPACK.syev (8/50)</text>
<text text-anchor="middle" x="580" y="-50.8" font-family="Times,serif" font-size="12.00">Rank score: 6.9</text>
<text text-anchor="middle" x="580" y="-36.4" font-family="Times,serif" font-size="12.00">Num. Ranks: &#160;3&#45;2&#45;2</text>
<text text-anchor="middle" x="580" y="-22" font-family="Times,serif" font-size="12.00">Avg. FLOPs: 3.34e+06</text>
<text text-anchor="middle" x="580" y="-7.6" font-family="Times,serif" font-size="12.00">Avg. Perf: 2.32 F/ns</text>
</g>
<!-- gemv&#45;&gt;W, A = LAPACK.syev -->
<g id="edge31" class="edge">
<title>gemv&#45;&gt;W, A = LAPACK.syev</title>
<path fill="none" stroke="#000000" d="M383.35,-516.1C395.4,-512.55 407.99,-509.31 420,-507.03 565.35,-479.39 740,-563.18 740,-415.23 740,-415.23 740,-415.23 740,-164.6 740,-123.34 706.27,-93.92 669.79,-74.15"/>
<polygon fill="#000000" stroke="#000000" points="671.96,-70.82 661.47,-69.33 668.74,-77.04 671.96,-70.82"/>
<text text-anchor="middle" x="747" y="-282.11" font-family="Times,serif" font-size="14.00">20</text>
</g>
<!-- x ./= A -->
<g id="node9" class="node">
<title>x ./= A</title>
<polygon fill="#dbdbff" stroke="black" points="662.05,-454.23 533.95,-454.23 533.95,-374.23 662.05,-374.23 662.05,-454.23"/>
<text text-anchor="middle" x="598" y="-439.43" font-family="Times,serif" font-size="12.00">x ./= A (8/50)</text>
<text text-anchor="middle" x="598" y="-425.03" font-family="Times,serif" font-size="12.00">Rank score: 6.9</text>
<text text-anchor="middle" x="598" y="-410.63" font-family="Times,serif" font-size="12.00">Num. Ranks: &#160;3&#45;1&#45;1</text>
<text text-anchor="middle" x="598" y="-396.23" font-family="Times,serif" font-size="12.00">Avg. FLOPs: 1.00e+02</text>
<text text-anchor="middle" x="598" y="-381.83" font-family="Times,serif" font-size="12.00">Avg. Perf: 0.39 F/ns</text>
</g>
<!-- gemv&#45;&gt;x ./= A -->
<g id="edge20" class="edge">
<title>gemv&#45;&gt;x ./= A</title>
<path fill="none" stroke="#000000" d="M383.52,-530.6C423.44,-523.6 474.76,-511.03 516,-489.03 529.59,-481.77 542.74,-471.79 554.38,-461.51"/>
<polygon fill="#000000" stroke="#000000" points="556.16,-464.71 561.18,-455.38 551.44,-459.54 556.16,-464.71"/>
<text text-anchor="middle" x="548" y="-476.43" font-family="Times,serif" font-size="14.00">80</text>
</g>
<!-- &#9632; -->
<g id="node11" class="node">
<title>&#9632;</title>
<ellipse fill="none" stroke="black" cx="619" cy="-286.31" rx="31.11" ry="31.11"/>
<ellipse fill="none" stroke="black" cx="619" cy="-286.31" rx="35.11" ry="35.11"/>
<text text-anchor="middle" x="619" y="-277.31" font-family="Times,serif" font-size="30.00">■</text>
</g>
<!-- gemv&#45;&gt;&#9632; -->
<g id="edge36" class="edge">
<title>gemv&#45;&gt;&#9632;</title>
<path fill="none" stroke="#000000" d="M383.39,-515.33C414.29,-501.43 449.95,-481.21 475,-454.23 501.53,-425.65 480.48,-398.49 511,-374.23 543.27,-348.57 572.18,-384.69 602,-356.23 608.73,-349.8 612.97,-341.18 615.6,-332.21"/>
<polygon fill="#000000" stroke="#000000" points="619.2,-333.16 618,-322.63 612.37,-331.61 619.2,-333.16"/>
<text text-anchor="middle" x="518" y="-410.03" font-family="Times,serif" font-size="14.00">80</text>
</g>
<!-- trsv&#45;&gt;gemv -->
<g id="edge23" class="edge">
<title>trsv&#45;&gt;gemv</title>
<path fill="none" stroke="#000000" d="M330.14,-447.46C324.35,-454.99 319.16,-463.41 316,-472.23 313.34,-479.64 312.3,-487.82 312.22,-495.83"/>
<polygon fill="#000000" stroke="#000000" points="308.75,-495.71 312.63,-505.57 315.74,-495.44 308.75,-495.71"/>
<text text-anchor="middle" x="326.5" y="-476.43" font-family="Times,serif" font-size="14.00">200</text>
</g>
<!-- trsv&#45;&gt;trsv -->
<g id="edge6" class="edge">
<title>trsv&#45;&gt;trsv</title>
<path fill="none" stroke="#000000" d="M427.33,-425.74C437.83,-424.1 445.05,-420.26 445.05,-414.23 445.05,-410.55 442.37,-407.69 437.9,-405.64"/>
<polygon fill="#000000" stroke="#000000" points="438.9,-402.01 428.33,-402.71 437.03,-408.75 438.9,-402.01"/>
<text text-anchor="middle" x="455.55" y="-410.03" font-family="Times,serif" font-size="14.00">470</text>
</g>
<!-- trsv&#45;&gt;A = qr -->
<g id="edge32" class="edge">
<title>trsv&#45;&gt;A = qr</title>
<path fill="none" stroke="#000000" d="M427.12,-385.89C438.64,-378.03 449.15,-368.23 456,-356.23 484.44,-306.39 471.53,-152.64 454,-98 453.16,-95.37 452.16,-92.73 451.05,-90.12"/>
<polygon fill="#000000" stroke="#000000" points="453.77,-88.7 446.26,-81.22 447.46,-91.75 453.77,-88.7"/>
<text text-anchor="middle" x="479" y="-220.6" font-family="Times,serif" font-size="14.00">10</text>
</g>
<!-- trsv&#45;&gt;syrk -->
<g id="edge7" class="edge">
<title>trsv&#45;&gt;syrk</title>
<path fill="none" stroke="#000000" d="M355.03,-380.98C344.16,-337.04 324.67,-258.24 312.58,-209.39"/>
<polygon fill="#000000" stroke="#000000" points="315.78,-208.72 309.98,-199.85 308.98,-210.4 315.78,-208.72"/>
<text text-anchor="middle" x="349.5" y="-282.11" font-family="Times,serif" font-size="14.00">120</text>
</g>
<!-- trsv&#45;&gt;trsm -->
<g id="edge12" class="edge">
<title>trsv&#45;&gt;trsm</title>
<path fill="none" stroke="#000000" d="M338.35,-381.15C327.46,-367.73 314.16,-352.29 301,-339.43 296.56,-335.09 291.78,-330.74 286.9,-326.5"/>
<polygon fill="#000000" stroke="#000000" points="289.54,-323.3 279.64,-319.51 285.01,-328.64 289.54,-323.3"/>
<text text-anchor="middle" x="325.5" y="-343.63" font-family="Times,serif" font-size="14.00">210</text>
</g>
<!-- trsv&#45;&gt;potrf -->
<g id="edge22" class="edge">
<title>trsv&#45;&gt;potrf</title>
<path fill="none" stroke="#000000" d="M308.64,-447.48C277.26,-467.17 242.07,-491.46 232,-507.03 211.4,-538.86 206.36,-582.23 205.9,-614.18"/>
<polygon fill="#000000" stroke="#000000" points="202.4,-613.97 205.91,-623.97 209.4,-613.97 202.4,-613.97"/>
<text text-anchor="middle" x="239" y="-535.63" font-family="Times,serif" font-size="14.00">50</text>
</g>
<!-- trsv&#45;&gt;W, A = LAPACK.syev -->
<g id="edge17" class="edge">
<title>trsv&#45;&gt;W, A = LAPACK.syev</title>
<path fill="none" stroke="#000000" d="M427.49,-390.37C444.2,-381.84 460.88,-370.63 473,-356.23 511.31,-310.69 520.12,-152.51 544,-98 545.17,-95.33 546.45,-92.64 547.82,-89.95"/>
<polygon fill="#000000" stroke="#000000" points="551.35,-91.79 553.05,-81.33 545.2,-88.45 551.35,-91.79"/>
<text text-anchor="middle" x="523" y="-220.6" font-family="Times,serif" font-size="14.00">10</text>
</g>
<!-- trsv&#45;&gt;&#9632; -->
<g id="edge35" class="edge">
<title>trsv&#45;&gt;&#9632;</title>
<path fill="none" stroke="#000000" d="M427.34,-390.56C444.36,-384.9 462.79,-379.07 480,-374.23 514.25,-364.59 527.42,-374.41 558,-356.23 571.48,-348.21 583.59,-336.21 593.4,-324.45"/>
<polygon fill="#000000" stroke="#000000" points="596.64,-327.01 600.13,-317 591.16,-322.65 596.64,-327.01"/>
<text text-anchor="middle" x="587.5" y="-343.63" font-family="Times,serif" font-size="14.00">420</text>
</g>
<!-- A = qr&#45;&gt;gemv -->
<g id="edge26" class="edge">
<title>A = qr&#45;&gt;gemv</title>
<path fill="none" stroke="#000000" d="M353.6,-46.6C236.35,-58.58 0,-91.76 0,-164.6 0,-415.23 0,-415.23 0,-415.23 0,-530.12 128.36,-477.7 244.14,-505.66"/>
<polygon fill="#000000" stroke="#000000" points="243.02,-509.25 253.59,-508.42 244.81,-502.48 243.02,-509.25"/>
<text text-anchor="middle" x="7" y="-282.11" font-family="Times,serif" font-size="14.00">80</text>
</g>
<!-- A = qr&#45;&gt;trsv -->
<g id="edge33" class="edge">
<title>A = qr&#45;&gt;trsv</title>
<path fill="none" stroke="#000000" d="M418.4,-80.45C418.24,-135.13 415.3,-236.78 398,-321.43 394.55,-338.29 388.39,-356.12 382.18,-371.53"/>
<polygon fill="#000000" stroke="#000000" points="378.73,-369.7 378.12,-380.28 385.2,-372.39 378.73,-369.7"/>
<text text-anchor="middle" x="419" y="-220.6" font-family="Times,serif" font-size="14.00">10</text>
</g>
<!-- syrk&#45;&gt;gemv -->
<g id="edge14" class="edge">
<title>syrk&#45;&gt;gemv</title>
<path fill="none" stroke="#000000" d="M237.49,-177.02C194.37,-185.46 143.21,-198.82 130,-216.4 101.96,-253.71 126.67,-274.87 130,-321.43 135.46,-397.81 112.29,-438.68 170,-489.03 194.89,-510.74 212.02,-498.28 244.07,-505.63"/>
<polygon fill="#000000" stroke="#000000" points="242.95,-509.24 253.53,-508.61 244.87,-502.51 242.95,-509.24"/>
<text text-anchor="middle" x="138" y="-343.63" font-family="Times,serif" font-size="14.00">90</text>
</g>
<!-- syrk&#45;&gt;trsv -->
<g id="edge16" class="edge">
<title>syrk&#45;&gt;trsv</title>
<path fill="none" stroke="#000000" d="M333.09,-198.79C345.22,-213.53 357.71,-231.99 364,-251.2 376.69,-289.99 374.68,-336.86 370.55,-370.19"/>
<polygon fill="#000000" stroke="#000000" points="366.96,-369.56 369.08,-379.94 373.9,-370.5 366.96,-369.56"/>
<text text-anchor="middle" x="383.5" y="-282.11" font-family="Times,serif" font-size="14.00">130</text>
</g>
<!-- syrk&#45;&gt;A = qr -->
<g id="edge29" class="edge">
<title>syrk&#45;&gt;A = qr</title>
<path fill="none" stroke="#000000" d="M332.17,-132.45C344.87,-118.93 359.89,-102.92 373.78,-88.11"/>
<polygon fill="#000000" stroke="#000000" points="375.64,-91.18 379.93,-81.5 370.54,-86.39 375.64,-91.18"/>
<text text-anchor="middle" x="370" y="-102.2" font-family="Times,serif" font-size="14.00">50</text>
</g>
<!-- syrk&#45;&gt;potrf -->
<g id="edge8" class="edge">
<title>syrk&#45;&gt;potrf</title>
<path fill="none" stroke="#000000" d="M237.73,-169.31C161.9,-176.35 46,-200.93 46,-285.31 46,-540.83 46,-540.83 46,-540.83 46,-587.48 90.85,-617.26 133.36,-635.01"/>
<polygon fill="#000000" stroke="#000000" points="131.92,-638.61 142.51,-639.05 134.51,-632.1 131.92,-638.61"/>
<text text-anchor="middle" x="56.5" y="-410.03" font-family="Times,serif" font-size="14.00">180</text>
</g>
<!-- syrk&#45;&gt;W, A = LAPACK.syev -->
<g id="edge28" class="edge">
<title>syrk&#45;&gt;W, A = LAPACK.syev</title>
<path fill="none" stroke="#000000" d="M366.48,-135.93C403.15,-119.63 449.65,-98.95 489.89,-81.06"/>
<polygon fill="#000000" stroke="#000000" points="490.99,-83.96 498.71,-76.7 488.15,-77.56 490.99,-83.96"/>
<text text-anchor="middle" x="456" y="-102.2" font-family="Times,serif" font-size="14.00">50</text>
</g>
<!-- trsm&#45;&gt;gemv -->
<g id="edge30" class="edge">
<title>trsm&#45;&gt;gemv</title>
<path fill="none" stroke="#000000" d="M241.36,-319.35C247.59,-353.44 259.22,-408.64 276,-454.23 281.31,-468.66 288.47,-483.81 295.42,-497.25"/>
<polygon fill="#000000" stroke="#000000" points="292.64,-498.48 300.41,-505.69 298.83,-495.21 292.64,-498.48"/>
<text text-anchor="middle" x="283" y="-410.03" font-family="Times,serif" font-size="14.00">50</text>
</g>
<!-- trsm&#45;&gt;trsv -->
<g id="edge5" class="edge">
<title>trsm&#45;&gt;trsv</title>
<path fill="none" stroke="#000000" d="M252.84,-319.42C260.2,-331.74 269.54,-345.41 280,-356.23 286.29,-362.73 293.43,-368.93 300.81,-374.69"/>
<polygon fill="#000000" stroke="#000000" points="298.46,-378.05 308.56,-381.24 302.65,-372.44 298.46,-378.05"/>
<text text-anchor="middle" x="290.5" y="-343.63" font-family="Times,serif" font-size="14.00">170</text>
</g>
<!-- trsm&#45;&gt;syrk -->
<g id="edge13" class="edge">
<title>trsm&#45;&gt;syrk</title>
<path fill="none" stroke="#000000" d="M253.86,-253.19C261.56,-239.33 270.67,-222.95 278.88,-208.18"/>
<polygon fill="#000000" stroke="#000000" points="282.32,-210.19 284.13,-199.75 276.21,-206.79 282.32,-210.19"/>
<text text-anchor="middle" x="282.5" y="-220.6" font-family="Times,serif" font-size="14.00">280</text>
</g>
<!-- potrf&#45;&gt;gemv -->
<g id="edge9" class="edge">
<title>potrf&#45;&gt;gemv</title>
<path fill="none" stroke="#000000" d="M238.63,-625.11C251.73,-611.37 267.16,-595.18 280.99,-580.69"/>
<polygon fill="#000000" stroke="#000000" points="283.11,-583.49 287.47,-573.84 278.04,-578.66 283.11,-583.49"/>
<text text-anchor="middle" x="280.5" y="-594.83" font-family="Times,serif" font-size="14.00">100</text>
</g>
<!-- potrf&#45;&gt;trsv -->
<g id="edge11" class="edge">
<title>potrf&#45;&gt;trsv</title>
<path fill="none" stroke="#000000" d="M272.45,-651.13C323.01,-642.58 390.29,-622.03 424,-572.63 448.56,-536.62 424,-489.34 399.11,-456.02"/>
<polygon fill="#000000" stroke="#000000" points="401.35,-454.2 392.46,-448.44 395.82,-458.49 401.35,-454.2"/>
<text text-anchor="middle" x="444.5" y="-535.63" font-family="Times,serif" font-size="14.00">460</text>
</g>
<!-- potrf&#45;&gt;trsm -->
<g id="edge4" class="edge">
<title>potrf&#45;&gt;trsm</title>
<path fill="none" stroke="#000000" d="M184.73,-625.38C143.81,-565.12 68.56,-432.15 127,-339.43 135.32,-326.23 147.99,-316.31 161.8,-308.87"/>
<polygon fill="#000000" stroke="#000000" points="163.07,-311.65 170.5,-304.1 159.98,-305.37 163.07,-311.65"/>
<text text-anchor="middle" x="127.5" y="-476.43" font-family="Times,serif" font-size="14.00">270</text>
</g>
<!-- W, A = LAPACK.syev&#45;&gt;gemv -->
<g id="edge18" class="edge">
<title>W, A = LAPACK.syev&#45;&gt;gemv</title>
<path fill="none" stroke="#000000" d="M660.29,-54.93C719.57,-70.36 790,-101.88 790,-164.6 790,-415.23 790,-415.23 790,-415.23 790,-451.72 784.42,-468.86 754,-489.03 723.02,-509.56 456.57,-500.39 420,-507.03 411.45,-508.58 402.61,-510.64 393.88,-512.97"/>
<polygon fill="#000000" stroke="#000000" points="393,-509.86 384.32,-515.93 394.9,-516.6 393,-509.86"/>
<text text-anchor="middle" x="797" y="-282.11" font-family="Times,serif" font-size="14.00">70</text>
</g>
<!-- W, A = LAPACK.syev&#45;&gt;trsv -->
<g id="edge34" class="edge">
<title>W, A = LAPACK.syev&#45;&gt;trsv</title>
<path fill="none" stroke="#000000" d="M575.18,-80.47C567.41,-136.04 549.29,-239.69 514,-321.43 506.65,-338.45 505.15,-344.24 491,-356.23 475.35,-369.49 456.11,-380.2 437.36,-388.6"/>
<polygon fill="#000000" stroke="#000000" points="436.13,-385.75 428.32,-392.91 438.89,-392.18 436.13,-385.75"/>
<text text-anchor="middle" x="555" y="-220.6" font-family="Times,serif" font-size="14.00">10</text>
</g>
<!-- x ./= A&#45;&gt;gemv -->
<g id="edge21" class="edge">
<title>x ./= A&#45;&gt;gemv</title>
<path fill="none" stroke="#000000" d="M584.93,-454.72C578.9,-467.41 570.47,-480.4 559,-489.03 545.73,-499 459.45,-515.32 394.1,-526.54"/>
<polygon fill="#000000" stroke="#000000" points="393.67,-523.24 384.4,-528.37 394.85,-530.14 393.67,-523.24"/>
<text text-anchor="middle" x="581" y="-476.43" font-family="Times,serif" font-size="14.00">80</text>
</g>
<!-- transpose&#45;&gt;potrf -->
<g id="edge3" class="edge">
<title>transpose&#45;&gt;potrf</title>
<path fill="none" stroke="#000000" d="M267.23,-743.38C257.52,-729.58 246.61,-714.07 236.82,-700.16"/>
<polygon fill="#000000" stroke="#000000" points="239.18,-698.45 230.57,-692.29 233.46,-702.48 239.18,-698.45"/>
<text text-anchor="middle" x="264.5" y="-713.23" font-family="Times,serif" font-size="14.00">200</text>
</g>
</g>
</svg>
