<?xml version="1.0" encoding="UTF-8" standalone="no"?>
<!DOCTYPE svg PUBLIC "-//W3C//DTD SVG 1.1//EN"
 "http://www.w3.org/Graphics/SVG/1.1/DTD/svg11.dtd">
<!-- Generated by graphviz version 8.1.0 (20230707.0739)
 -->
<!-- Pages: 1 -->
<svg width="634pt" height="225pt"
 viewBox="0.00 0.00 633.77 225.11" xmlns="http://www.w3.org/2000/svg" xmlns:xlink="http://www.w3.org/1999/xlink">
<g id="graph0" class="graph" transform="scale(1 1) rotate(0) translate(4 221.11)">
<polygon fill="white" stroke="none" points="-4,4 -4,-221.11 629.77,-221.11 629.77,4 -4,4"/>
<!-- &#9679; -->
<g id="node1" class="node">
<title>&#9679;</title>
<ellipse fill="none" stroke="black" cx="31.11" cy="-129.11" rx="31.11" ry="31.11"/>
<text text-anchor="middle" x="31.11" y="-120.11" font-family="Times,serif" font-size="30.00">●</text>
</g>
<!-- potrf -->
<g id="node2" class="node">
<title>potrf</title>
<polygon fill="#ffffff" stroke="black" points="249.55,-147.11 195.55,-147.11 195.55,-111.11 249.55,-111.11 249.55,-147.11"/>
<text text-anchor="middle" x="222.55" y="-125.51" font-family="Times,serif" font-size="12.00">potrf</text>
</g>
<!-- &#9679;&#45;&gt;potrf -->
<g id="edge1" class="edge">
<title>&#9679;&#45;&gt;potrf</title>
<path fill="none" stroke="#000000" d="M62.37,-131.33C73.62,-132.05 86.5,-132.76 98.23,-133.11 125.47,-133.94 132.31,-133.99 159.55,-133.11 167.63,-132.85 176.29,-132.4 184.5,-131.89"/>
<polygon fill="#000000" stroke="#000000" points="184.57,-135.33 194.32,-131.18 184.11,-128.35 184.57,-135.33"/>
</g>
<!-- transpose -->
<g id="node4" class="node">
<title>transpose</title>
<polygon fill="#ffffff" stroke="black" points="159.55,-124.11 98.23,-124.11 98.23,-88.11 159.55,-88.11 159.55,-124.11"/>
<text text-anchor="middle" x="128.89" y="-102.51" font-family="Times,serif" font-size="12.00">transpose</text>
</g>
<!-- &#9679;&#45;&gt;transpose -->
<g id="edge2" class="edge">
<title>&#9679;&#45;&gt;transpose</title>
<path fill="none" stroke="#000000" d="M61.89,-121.96C69.92,-120.03 78.75,-117.91 87.26,-115.87"/>
<polygon fill="#000000" stroke="#000000" points="87.89,-119.08 96.8,-113.34 86.26,-112.27 87.89,-119.08"/>
</g>
<!-- trsm -->
<g id="node5" class="node">
<title>trsm</title>
<polygon fill="#ffffff" stroke="black" points="339.55,-217.11 285.55,-217.11 285.55,-181.11 339.55,-181.11 339.55,-217.11"/>
<text text-anchor="middle" x="312.55" y="-195.51" font-family="Times,serif" font-size="12.00">trsm</text>
</g>
<!-- potrf&#45;&gt;trsm -->
<g id="edge3" class="edge">
<title>potrf&#45;&gt;trsm</title>
<path fill="none" stroke="#000000" d="M246.67,-147.5C256.87,-155.62 269.03,-165.29 280.05,-174.06"/>
<polygon fill="#000000" stroke="#000000" points="277.58,-177.36 287.58,-180.84 281.93,-171.88 277.58,-177.36"/>
</g>
<!-- trsv -->
<g id="node6" class="node">
<title>trsv</title>
<polygon fill="#ffffff" stroke="black" points="519.55,-124.11 465.55,-124.11 465.55,-88.11 519.55,-88.11 519.55,-124.11"/>
<text text-anchor="middle" x="492.55" y="-102.51" font-family="Times,serif" font-size="12.00">trsv</text>
</g>
<!-- potrf&#45;&gt;trsv -->
<g id="edge6" class="edge">
<title>potrf&#45;&gt;trsv</title>
<path fill="none" stroke="#000000" d="M249.73,-122.65C297.67,-115.38 399.63,-106.42 454.6,-104.45"/>
<polygon fill="#000000" stroke="#000000" points="454.36,-107.93 464.26,-104.15 454.16,-100.94 454.36,-107.93"/>
</g>
<!-- syrk -->
<g id="node3" class="node">
<title>syrk</title>
<polygon fill="#ffffff" stroke="black" points="429.55,-179.11 375.55,-179.11 375.55,-143.11 429.55,-143.11 429.55,-179.11"/>
<text text-anchor="middle" x="402.55" y="-157.51" font-family="Times,serif" font-size="12.00">syrk</text>
</g>
<!-- syrk&#45;&gt;potrf -->
<g id="edge5" class="edge">
<title>syrk&#45;&gt;potrf</title>
<path fill="none" stroke="#000000" d="M375.18,-156.37C344.76,-150.9 294.56,-141.88 260.32,-135.72"/>
<polygon fill="#000000" stroke="#000000" points="261.27,-132.16 250.81,-133.83 260.04,-139.05 261.27,-132.16"/>
</g>
<!-- syrk&#45;&gt;trsv -->
<g id="edge11" class="edge">
<title>syrk&#45;&gt;trsv</title>
<path fill="none" stroke="#000000" d="M429.95,-144.61C438.13,-139.5 447.28,-133.78 455.98,-128.35"/>
<polygon fill="#000000" stroke="#000000" points="457.54,-130.87 464.16,-122.6 453.83,-124.93 457.54,-130.87"/>
</g>
<!-- transpose&#45;&gt;potrf -->
<g id="edge10" class="edge">
<title>transpose&#45;&gt;potrf</title>
<path fill="none" stroke="#000000" d="M159.9,-113.64C167.81,-115.63 176.45,-117.8 184.68,-119.86"/>
<polygon fill="#000000" stroke="#000000" points="183.62,-123.45 194.17,-122.49 185.32,-116.67 183.62,-123.45"/>
</g>
<!-- trsm&#45;&gt;syrk -->
<g id="edge4" class="edge">
<title>trsm&#45;&gt;syrk</title>
<path fill="none" stroke="#000000" d="M339.95,-187.71C347.87,-184.29 356.7,-180.48 365.14,-176.83"/>
<polygon fill="#000000" stroke="#000000" points="366.37,-179.68 374.16,-172.51 363.6,-173.26 366.37,-179.68"/>
</g>
<!-- trsv&#45;&gt;potrf -->
<g id="edge12" class="edge">
<title>trsv&#45;&gt;potrf</title>
<path fill="none" stroke="#000000" d="M465.26,-112.59C417.34,-119.85 315.7,-128.78 260.72,-130.76"/>
<polygon fill="#000000" stroke="#000000" points="260.63,-127.29 250.73,-131.08 260.83,-134.29 260.63,-127.29"/>
</g>
<!-- trsv&#45;&gt;trsv -->
<g id="edge9" class="edge">
<title>trsv&#45;&gt;trsv</title>
<path fill="none" stroke="#000000" d="M476.27,-124.27C473.76,-133.65 479.19,-142.11 492.55,-142.11 500.27,-142.11 505.34,-139.28 507.76,-135.09"/>
<polygon fill="#000000" stroke="#000000" points="511.33,-135.56 508.83,-125.27 504.37,-134.87 511.33,-135.56"/>
</g>
<!-- gemv -->
<g id="node7" class="node">
<title>gemv</title>
<polygon fill="#ffffff" stroke="black" points="617.66,-124.11 563.66,-124.11 563.66,-88.11 617.66,-88.11 617.66,-124.11"/>
<text text-anchor="middle" x="590.66" y="-102.51" font-family="Times,serif" font-size="12.00">gemv</text>
</g>
<!-- trsv&#45;&gt;gemv -->
<g id="edge7" class="edge">
<title>trsv&#45;&gt;gemv</title>
<path fill="none" stroke="#000000" d="M519.81,-100.02C529.88,-99.37 541.56,-99.2 552.46,-99.52"/>
<polygon fill="#000000" stroke="#000000" points="552.28,-103.06 562.43,-100.02 552.6,-96.07 552.28,-103.06"/>
</g>
<!-- &#9632; -->
<g id="node8" class="node">
<title>&#9632;</title>
<ellipse fill="none" stroke="black" cx="590.66" cy="-35.11" rx="31.11" ry="31.11"/>
<ellipse fill="none" stroke="black" cx="590.66" cy="-35.11" rx="35.11" ry="35.11"/>
<text text-anchor="middle" x="590.66" y="-26.11" font-family="Times,serif" font-size="30.00">■</text>
</g>
<!-- trsv&#45;&gt;&#9632; -->
<g id="edge13" class="edge">
<title>trsv&#45;&gt;&#9632;</title>
<path fill="none" stroke="#000000" d="M518.55,-87.64C529.1,-79.85 541.59,-70.62 553.14,-62.09"/>
<polygon fill="#000000" stroke="#000000" points="554.77,-64.5 560.73,-55.74 550.61,-58.87 554.77,-64.5"/>
</g>
<!-- gemv&#45;&gt;trsv -->
<g id="edge8" class="edge">
<title>gemv&#45;&gt;trsv</title>
<path fill="none" stroke="#000000" d="M563.43,-112.2C553.37,-112.86 541.68,-113.02 530.78,-112.71"/>
<polygon fill="#000000" stroke="#000000" points="530.96,-109.17 520.81,-112.2 530.64,-116.16 530.96,-109.17"/>
</g>
</g>
</svg>
