<?xml version="1.0" encoding="UTF-8" standalone="no"?>
<!DOCTYPE svg PUBLIC "-//W3C//DTD SVG 1.1//EN"
 "http://www.w3.org/Graphics/SVG/1.1/DTD/svg11.dtd">
<!-- Generated by graphviz version 8.1.0 (20230707.0739)
 -->
<!-- Pages: 1 -->
<svg width="178pt" height="637pt"
 viewBox="0.00 0.00 177.62 637.25" xmlns="http://www.w3.org/2000/svg" xmlns:xlink="http://www.w3.org/1999/xlink">
<g id="graph0" class="graph" transform="scale(1 1) rotate(0) translate(4 633.25)">
<polygon fill="white" stroke="none" points="-4,4 -4,-633.25 173.62,-633.25 173.62,4 -4,4"/>
<!-- &#9679; -->
<g id="node1" class="node">
<title>&#9679;</title>
<ellipse fill="none" stroke="black" cx="91.96" cy="-598.14" rx="31.11" ry="31.11"/>
<text text-anchor="middle" x="91.96" y="-589.14" font-family="Times,serif" font-size="30.00">●</text>
</g>
<!-- potrf -->
<g id="node5" class="node">
<title>potrf</title>
<polygon fill="#ffffff" stroke="black" points="118.96,-425.43 64.96,-425.43 64.96,-389.43 118.96,-389.43 118.96,-425.43"/>
<text text-anchor="middle" x="91.96" y="-403.83" font-family="Times,serif" font-size="12.00">potrf</text>
</g>
<!-- &#9679;&#45;&gt;potrf -->
<g id="edge1" class="edge">
<title>&#9679;&#45;&gt;potrf</title>
<path fill="none" stroke="#000000" d="M88.36,-566.84C85.94,-542.82 83.45,-508.38 84.96,-478.23 85.64,-464.54 87.08,-449.39 88.47,-436.72"/>
<polygon fill="#000000" stroke="#000000" points="92.05,-437.22 89.72,-426.89 85.1,-436.42 92.05,-437.22"/>
<text text-anchor="middle" x="91.96" y="-492.03" font-family="Times,serif" font-size="14.00">10</text>
</g>
<!-- transpose -->
<g id="node7" class="node">
<title>transpose</title>
<polygon fill="#ffffff" stroke="black" points="169.62,-514.23 108.3,-514.23 108.3,-478.23 169.62,-478.23 169.62,-514.23"/>
<text text-anchor="middle" x="138.96" y="-492.63" font-family="Times,serif" font-size="12.00">transpose</text>
</g>
<!-- &#9679;&#45;&gt;transpose -->
<g id="edge2" class="edge">
<title>&#9679;&#45;&gt;transpose</title>
<path fill="none" stroke="#000000" d="M104.93,-569.57C111.57,-555.44 119.64,-538.3 126.25,-524.25"/>
<polygon fill="#000000" stroke="#000000" points="129.67,-526.19 130.76,-515.65 123.34,-523.21 129.67,-526.19"/>
<text text-anchor="middle" x="129.96" y="-536.43" font-family="Times,serif" font-size="14.00">10</text>
</g>
<!-- gemv -->
<g id="node2" class="node">
<title>gemv</title>
<polygon fill="#ffffff" stroke="black" points="59.96,-53.11 5.96,-53.11 5.96,-17.11 59.96,-17.11 59.96,-53.11"/>
<text text-anchor="middle" x="32.96" y="-31.51" font-family="Times,serif" font-size="12.00">gemv</text>
</g>
<!-- trsv -->
<g id="node4" class="node">
<title>trsv</title>
<polygon fill="#ffffff" stroke="black" points="96.96,-159.03 42.96,-159.03 42.96,-123.03 96.96,-123.03 96.96,-159.03"/>
<text text-anchor="middle" x="69.96" y="-137.43" font-family="Times,serif" font-size="12.00">trsv</text>
</g>
<!-- gemv&#45;&gt;trsv -->
<g id="edge8" class="edge">
<title>gemv&#45;&gt;trsv</title>
<path fill="none" stroke="#000000" d="M30.01,-53.58C28.38,-67.99 27.9,-88.65 34.96,-105.03 36.43,-108.44 38.41,-111.71 40.68,-114.77"/>
<polygon fill="#000000" stroke="#000000" points="38.47,-116.57 47.66,-121.83 43.76,-111.98 38.47,-116.57"/>
<text text-anchor="middle" x="41.96" y="-92.43" font-family="Times,serif" font-size="14.00">20</text>
</g>
<!-- syrk -->
<g id="node3" class="node">
<title>syrk</title>
<polygon fill="#ffffff" stroke="black" points="96.96,-247.83 42.96,-247.83 42.96,-211.83 96.96,-211.83 96.96,-247.83"/>
<text text-anchor="middle" x="69.96" y="-226.23" font-family="Times,serif" font-size="12.00">syrk</text>
</g>
<!-- syrk&#45;&gt;trsv -->
<g id="edge11" class="edge">
<title>syrk&#45;&gt;trsv</title>
<path fill="none" stroke="#000000" d="M69.96,-211.68C69.96,-199.87 69.96,-183.9 69.96,-170.23"/>
<polygon fill="#000000" stroke="#000000" points="73.46,-170.44 69.96,-160.44 66.46,-170.44 73.46,-170.44"/>
<text text-anchor="middle" x="76.96" y="-181.23" font-family="Times,serif" font-size="14.00">10</text>
</g>
<!-- syrk&#45;&gt;potrf -->
<g id="edge5" class="edge">
<title>syrk&#45;&gt;potrf</title>
<path fill="none" stroke="#000000" d="M74.22,-248.22C75.52,-253.82 76.88,-260.07 77.96,-265.83 85.3,-305.03 87.68,-314.87 90.96,-354.63 91.59,-362.25 91.91,-370.52 92.06,-378.16"/>
<polygon fill="#000000" stroke="#000000" points="88.57,-378.17 92.17,-388.13 95.57,-378.1 88.57,-378.17"/>
<text text-anchor="middle" x="96.96" y="-314.43" font-family="Times,serif" font-size="14.00">10</text>
</g>
<!-- trsv&#45;&gt;gemv -->
<g id="edge7" class="edge">
<title>trsv&#45;&gt;gemv</title>
<path fill="none" stroke="#000000" d="M63.85,-122.87C58.12,-106.77 49.45,-82.43 42.76,-63.63"/>
<polygon fill="#000000" stroke="#000000" points="45.73,-62.54 39.08,-54.3 39.13,-64.89 45.73,-62.54"/>
<text text-anchor="middle" x="63.96" y="-92.43" font-family="Times,serif" font-size="14.00">20</text>
</g>
<!-- trsv&#45;&gt;trsv -->
<g id="edge9" class="edge">
<title>trsv&#45;&gt;trsv</title>
<path fill="none" stroke="#000000" d="M97.2,-149.34C106.98,-149.52 114.96,-146.75 114.96,-141.03 114.96,-137.63 112.15,-135.27 107.81,-133.95"/>
<polygon fill="#000000" stroke="#000000" points="108.54,-130.4 98.2,-132.71 107.72,-137.35 108.54,-130.4"/>
<text text-anchor="middle" x="121.96" y="-136.83" font-family="Times,serif" font-size="14.00">20</text>
</g>
<!-- trsv&#45;&gt;potrf -->
<g id="edge12" class="edge">
<title>trsv&#45;&gt;potrf</title>
<path fill="none" stroke="#000000" d="M81.82,-159.49C90.33,-173.09 101.11,-192.8 105.96,-211.83 123.46,-280.57 121.37,-302.19 105.96,-371.43 105.43,-373.81 104.75,-376.25 103.99,-378.67"/>
<polygon fill="#000000" stroke="#000000" points="100.37,-377.38 100.22,-387.97 106.94,-379.78 100.37,-377.38"/>
<text text-anchor="middle" x="125.96" y="-270.03" font-family="Times,serif" font-size="14.00">10</text>
</g>
<!-- &#9632; -->
<g id="node8" class="node">
<title>&#9632;</title>
<ellipse fill="none" stroke="black" cx="112.96" cy="-35.11" rx="31.11" ry="31.11"/>
<ellipse fill="none" stroke="black" cx="112.96" cy="-35.11" rx="35.11" ry="35.11"/>
<text text-anchor="middle" x="112.96" y="-26.11" font-family="Times,serif" font-size="30.00">■</text>
</g>
<!-- trsv&#45;&gt;&#9632; -->
<g id="edge13" class="edge">
<title>trsv&#45;&gt;&#9632;</title>
<path fill="none" stroke="#000000" d="M77.06,-122.87C82.11,-110.67 89.12,-93.73 95.6,-78.06"/>
<polygon fill="#000000" stroke="#000000" points="99.17,-79.58 99.76,-69 92.71,-76.9 99.17,-79.58"/>
<text text-anchor="middle" x="97.96" y="-92.43" font-family="Times,serif" font-size="14.00">20</text>
</g>
<!-- potrf&#45;&gt;trsv -->
<g id="edge6" class="edge">
<title>potrf&#45;&gt;trsv</title>
<path fill="none" stroke="#000000" d="M64.77,-392.15C45.23,-380.22 20.4,-361.2 8.96,-336.63 -17.95,-278.83 23.17,-206.06 49.94,-167.98"/>
<polygon fill="#000000" stroke="#000000" points="53.04,-170.67 56.06,-160.51 47.36,-166.57 53.04,-170.67"/>
<text text-anchor="middle" x="10.96" y="-270.03" font-family="Times,serif" font-size="14.00">20</text>
</g>
<!-- trsm -->
<g id="node6" class="node">
<title>trsm</title>
<polygon fill="#ffffff" stroke="black" points="71.96,-336.63 17.96,-336.63 17.96,-300.63 71.96,-300.63 71.96,-336.63"/>
<text text-anchor="middle" x="44.96" y="-315.03" font-family="Times,serif" font-size="12.00">trsm</text>
</g>
<!-- potrf&#45;&gt;trsm -->
<g id="edge3" class="edge">
<title>potrf&#45;&gt;trsm</title>
<path fill="none" stroke="#000000" d="M82.67,-389.28C76.09,-377.11 67.11,-360.54 59.57,-346.61"/>
<polygon fill="#000000" stroke="#000000" points="62.23,-345.16 54.39,-338.04 56.07,-348.5 62.23,-345.16"/>
<text text-anchor="middle" x="79.96" y="-358.83" font-family="Times,serif" font-size="14.00">20</text>
</g>
<!-- trsm&#45;&gt;syrk -->
<g id="edge4" class="edge">
<title>trsm&#45;&gt;syrk</title>
<path fill="none" stroke="#000000" d="M49.9,-300.48C53.33,-288.55 57.99,-272.38 61.95,-258.62"/>
<polygon fill="#000000" stroke="#000000" points="65.54,-259.81 64.94,-249.24 58.81,-257.88 65.54,-259.81"/>
<text text-anchor="middle" x="66.96" y="-270.03" font-family="Times,serif" font-size="14.00">20</text>
</g>
<!-- transpose&#45;&gt;potrf -->
<g id="edge10" class="edge">
<title>transpose&#45;&gt;potrf</title>
<path fill="none" stroke="#000000" d="M129.67,-478.08C123.09,-465.91 114.11,-449.34 106.57,-435.41"/>
<polygon fill="#000000" stroke="#000000" points="109.23,-433.96 101.39,-426.84 103.07,-437.3 109.23,-433.96"/>
<text text-anchor="middle" x="126.96" y="-447.63" font-family="Times,serif" font-size="14.00">10</text>
</g>
</g>
</svg>
