<?xml version="1.0" encoding="UTF-8" standalone="no"?>
<!DOCTYPE svg PUBLIC "-//W3C//DTD SVG 1.1//EN"
 "http://www.w3.org/Graphics/SVG/1.1/DTD/svg11.dtd">
<!-- Generated by graphviz version 8.1.0 (20230707.0739)
 -->
<!-- Pages: 1 -->
<svg width="150pt" height="536pt"
 viewBox="0.00 0.00 150.11 536.45" xmlns="http://www.w3.org/2000/svg" xmlns:xlink="http://www.w3.org/1999/xlink">
<g id="graph0" class="graph" transform="scale(1 1) rotate(0) translate(4 532.45)">
<polygon fill="white" stroke="none" points="-4,4 -4,-532.45 146.11,-532.45 146.11,4 -4,4"/>
<!-- &#9679; -->
<g id="node1" class="node">
<title>&#9679;</title>
<ellipse fill="none" stroke="black" cx="59" cy="-497.34" rx="31.11" ry="31.11"/>
<text text-anchor="middle" x="59" y="-488.34" font-family="Times,serif" font-size="30.00">●</text>
</g>
<!-- potrf -->
<g id="node2" class="node">
<title>potrf</title>
<polygon fill="#ffffff" stroke="black" points="86,-358.23 32,-358.23 32,-322.23 86,-322.23 86,-358.23"/>
<text text-anchor="middle" x="59" y="-336.63" font-family="Times,serif" font-size="12.00">potrf</text>
</g>
<!-- &#9679;&#45;&gt;potrf -->
<g id="edge1" class="edge">
<title>&#9679;&#45;&gt;potrf</title>
<path fill="none" stroke="#000000" d="M53.05,-466.41C49.75,-446.06 46.73,-418.52 49,-394.23 49.77,-385.99 51.2,-377.12 52.74,-369.04"/>
<polygon fill="#000000" stroke="#000000" points="56.37,-369.79 54.94,-359.3 49.51,-368.39 56.37,-369.79"/>
</g>
<!-- transpose -->
<g id="node3" class="node">
<title>transpose</title>
<polygon fill="#ffffff" stroke="black" points="119.66,-430.23 58.34,-430.23 58.34,-394.23 119.66,-394.23 119.66,-430.23"/>
<text text-anchor="middle" x="89" y="-408.63" font-family="Times,serif" font-size="12.00">transpose</text>
</g>
<!-- &#9679;&#45;&gt;transpose -->
<g id="edge2" class="edge">
<title>&#9679;&#45;&gt;transpose</title>
<path fill="none" stroke="#000000" d="M69.32,-467.74C72.47,-459.02 75.92,-449.46 79.04,-440.81"/>
<polygon fill="#000000" stroke="#000000" points="82.67,-442.07 82.77,-431.48 76.09,-439.7 82.67,-442.07"/>
</g>
<!-- trsv -->
<g id="node5" class="node">
<title>trsv</title>
<polygon fill="#ffffff" stroke="black" points="54,-142.23 0,-142.23 0,-106.23 54,-106.23 54,-142.23"/>
<text text-anchor="middle" x="27" y="-120.63" font-family="Times,serif" font-size="12.00">trsv</text>
</g>
<!-- potrf&#45;&gt;trsv -->
<g id="edge6" class="edge">
<title>potrf&#45;&gt;trsv</title>
<path fill="none" stroke="#000000" d="M52.56,-322.07C43.53,-285.21 30.22,-198.15 26.45,-153.18"/>
<polygon fill="#000000" stroke="#000000" points="29.89,-153.19 25.69,-143.46 22.91,-153.68 29.89,-153.19"/>
</g>
<!-- trsm -->
<g id="node6" class="node">
<title>trsm</title>
<polygon fill="#ffffff" stroke="black" points="118,-286.23 64,-286.23 64,-250.23 118,-250.23 118,-286.23"/>
<text text-anchor="middle" x="91" y="-264.63" font-family="Times,serif" font-size="12.00">trsm</text>
</g>
<!-- potrf&#45;&gt;trsm -->
<g id="edge3" class="edge">
<title>potrf&#45;&gt;trsm</title>
<path fill="none" stroke="#000000" d="M66.91,-321.92C70.48,-314.12 74.77,-304.73 78.74,-296.05"/>
<polygon fill="#000000" stroke="#000000" points="82.21,-297.88 83.18,-287.33 75.84,-294.97 82.21,-297.88"/>
</g>
<!-- transpose&#45;&gt;potrf -->
<g id="edge10" class="edge">
<title>transpose&#45;&gt;potrf</title>
<path fill="none" stroke="#000000" d="M81.58,-393.92C78.28,-386.21 74.31,-376.94 70.62,-368.34"/>
<polygon fill="#000000" stroke="#000000" points="73.49,-367.14 66.33,-359.33 67.05,-369.9 73.49,-367.14"/>
</g>
<!-- gemv -->
<g id="node4" class="node">
<title>gemv</title>
<polygon fill="#ffffff" stroke="black" points="54,-53.11 0,-53.11 0,-17.11 54,-17.11 54,-53.11"/>
<text text-anchor="middle" x="27" y="-31.51" font-family="Times,serif" font-size="12.00">gemv</text>
</g>
<!-- gemv&#45;&gt;trsv -->
<g id="edge8" class="edge">
<title>gemv&#45;&gt;trsv</title>
<path fill="none" stroke="#000000" d="M32.53,-53.59C33.81,-65.5 34.08,-81.54 33.35,-95.22"/>
<polygon fill="#000000" stroke="#000000" points="29.8,-94.77 32.5,-105.01 36.78,-95.32 29.8,-94.77"/>
</g>
<!-- trsv&#45;&gt;potrf -->
<g id="edge12" class="edge">
<title>trsv&#45;&gt;potrf</title>
<path fill="none" stroke="#000000" d="M33.46,-142.46C42.5,-179.39 55.8,-266.47 59.56,-311.37"/>
<polygon fill="#000000" stroke="#000000" points="56.12,-311.35 60.31,-321.07 63.1,-310.85 56.12,-311.35"/>
</g>
<!-- trsv&#45;&gt;gemv -->
<g id="edge7" class="edge">
<title>trsv&#45;&gt;gemv</title>
<path fill="none" stroke="#000000" d="M21.5,-106.01C20.21,-94.16 19.92,-78.14 20.63,-64.42"/>
<polygon fill="#000000" stroke="#000000" points="24.19,-64.83 21.47,-54.59 17.21,-64.29 24.19,-64.83"/>
</g>
<!-- trsv&#45;&gt;trsv -->
<g id="edge9" class="edge">
<title>trsv&#45;&gt;trsv</title>
<path fill="none" stroke="#000000" d="M54.24,-137.71C64.02,-138 72,-133.51 72,-124.23 72,-118.71 69.19,-114.89 64.86,-112.75"/>
<polygon fill="#000000" stroke="#000000" points="65.72,-109.17 55.24,-110.74 64.41,-116.04 65.72,-109.17"/>
</g>
<!-- &#9632; -->
<g id="node8" class="node">
<title>&#9632;</title>
<ellipse fill="none" stroke="black" cx="107" cy="-35.11" rx="31.11" ry="31.11"/>
<ellipse fill="none" stroke="black" cx="107" cy="-35.11" rx="35.11" ry="35.11"/>
<text text-anchor="middle" x="107" y="-26.11" font-family="Times,serif" font-size="30.00">■</text>
</g>
<!-- trsv&#45;&gt;&#9632; -->
<g id="edge13" class="edge">
<title>trsv&#45;&gt;&#9632;</title>
<path fill="none" stroke="#000000" d="M42.81,-106.01C52.37,-95.6 64.89,-81.97 76.33,-69.51"/>
<polygon fill="#000000" stroke="#000000" points="78.46,-72.28 82.65,-62.54 73.3,-67.54 78.46,-72.28"/>
</g>
<!-- syrk -->
<g id="node7" class="node">
<title>syrk</title>
<polygon fill="#ffffff" stroke="black" points="118,-214.23 64,-214.23 64,-178.23 118,-178.23 118,-214.23"/>
<text text-anchor="middle" x="91" y="-192.63" font-family="Times,serif" font-size="12.00">syrk</text>
</g>
<!-- trsm&#45;&gt;syrk -->
<g id="edge4" class="edge">
<title>trsm&#45;&gt;syrk</title>
<path fill="none" stroke="#000000" d="M91,-249.92C91,-242.46 91,-233.55 91,-225.19"/>
<polygon fill="#000000" stroke="#000000" points="94.5,-225.33 91,-215.33 87.5,-225.33 94.5,-225.33"/>
</g>
<!-- syrk&#45;&gt;potrf -->
<g id="edge5" class="edge">
<title>syrk&#45;&gt;potrf</title>
<path fill="none" stroke="#000000" d="M106.79,-214.6C121.29,-232.77 138.85,-261.96 127,-286.23 120.18,-300.19 107.71,-311.54 95.29,-320.1"/>
<polygon fill="#000000" stroke="#000000" points="93.87,-317.5 87.34,-325.85 97.65,-323.39 93.87,-317.5"/>
</g>
<!-- syrk&#45;&gt;trsv -->
<g id="edge11" class="edge">
<title>syrk&#45;&gt;trsv</title>
<path fill="none" stroke="#000000" d="M75.18,-177.92C67.58,-169.61 58.34,-159.5 49.99,-150.37"/>
<polygon fill="#000000" stroke="#000000" points="52.97,-148.35 43.64,-143.33 47.8,-153.07 52.97,-148.35"/>
</g>
</g>
</svg>
