<?xml version="1.0" encoding="UTF-8" standalone="no"?>
<!DOCTYPE svg PUBLIC "-//W3C//DTD SVG 1.1//EN"
 "http://www.w3.org/Graphics/SVG/1.1/DTD/svg11.dtd">
<!-- Generated by graphviz version 8.1.0 (20230707.0739)
 -->
<!-- Pages: 1 -->
<svg width="634pt" height="150pt"
 viewBox="0.00 0.00 633.77 150.11" xmlns="http://www.w3.org/2000/svg" xmlns:xlink="http://www.w3.org/1999/xlink">
<g id="graph0" class="graph" transform="scale(1 1) rotate(0) translate(4 146.11)">
<polygon fill="white" stroke="none" points="-4,4 -4,-146.11 629.77,-146.11 629.77,4 -4,4"/>
<!-- &#9679; -->
<g id="node1" class="node">
<title>&#9679;</title>
<ellipse fill="none" stroke="black" cx="31.11" cy="-78.11" rx="31.11" ry="31.11"/>
<text text-anchor="middle" x="31.11" y="-69.11" font-family="Times,serif" font-size="30.00">●</text>
</g>
<!-- potrf -->
<g id="node2" class="node">
<title>potrf</title>
<polygon fill="#ffffff" stroke="black" points="249.55,-96.11 195.55,-96.11 195.55,-60.11 249.55,-60.11 249.55,-96.11"/>
<text text-anchor="middle" x="222.55" y="-74.51" font-family="Times,serif" font-size="12.00">potrf</text>
</g>
<!-- &#9679;&#45;&gt;potrf -->
<g id="edge1" class="edge">
<title>&#9679;&#45;&gt;potrf</title>
<path fill="none" stroke="#2e7d32" d="M62.37,-80.33C73.62,-81.05 86.5,-81.76 98.23,-82.11 125.47,-82.94 132.31,-82.99 159.55,-82.11 167.63,-81.85 176.29,-81.4 184.5,-80.89"/>
<polygon fill="#2e7d32" stroke="#2e7d32" points="184.57,-84.33 194.32,-80.18 184.11,-77.35 184.57,-84.33"/>
</g>
<!-- transpose -->
<g id="node7" class="node">
<title>transpose</title>
<polygon fill="#ef9a9a" stroke="black" points="159.55,-73.11 98.23,-73.11 98.23,-37.11 159.55,-37.11 159.55,-73.11"/>
<text text-anchor="middle" x="128.89" y="-51.51" font-family="Times,serif" font-size="12.00">transpose</text>
</g>
<!-- &#9679;&#45;&gt;transpose -->
<g id="edge2" class="edge">
<title>&#9679;&#45;&gt;transpose</title>
<path fill="none" stroke="#e53935" d="M61.89,-70.96C69.92,-69.03 78.75,-66.91 87.26,-64.87"/>
<polygon fill="#e53935" stroke="#e53935" points="87.89,-68.08 96.8,-62.34 86.26,-61.27 87.89,-68.08"/>
</g>
<!-- trsv -->
<g id="node5" class="node">
<title>trsv</title>
<polygon fill="#ffffff" stroke="black" points="519.55,-124.11 465.55,-124.11 465.55,-88.11 519.55,-88.11 519.55,-124.11"/>
<text text-anchor="middle" x="492.55" y="-102.51" font-family="Times,serif" font-size="12.00">trsv</text>
</g>
<!-- potrf&#45;&gt;trsv -->
<g id="edge6" class="edge">
<title>potrf&#45;&gt;trsv</title>
<path fill="none" stroke="#000000" d="M249.73,-76.64C297.67,-78.48 399.63,-88.93 454.6,-97.42"/>
<polygon fill="#000000" stroke="#000000" points="453.83,-101.01 464.26,-99.15 454.94,-94.1 453.83,-101.01"/>
</g>
<!-- trsm -->
<g id="node6" class="node">
<title>trsm</title>
<polygon fill="#ffffff" stroke="black" points="339.55,-69.11 285.55,-69.11 285.55,-33.11 339.55,-33.11 339.55,-69.11"/>
<text text-anchor="middle" x="312.55" y="-47.51" font-family="Times,serif" font-size="12.00">trsm</text>
</g>
<!-- potrf&#45;&gt;trsm -->
<g id="edge3" class="edge">
<title>potrf&#45;&gt;trsm</title>
<path fill="none" stroke="#000000" d="M249.95,-70.01C257.78,-67.61 266.5,-64.93 274.86,-62.37"/>
<polygon fill="#000000" stroke="#000000" points="275.63,-65.49 284.16,-59.21 273.58,-58.8 275.63,-65.49"/>
</g>
<!-- syrk -->
<g id="node3" class="node">
<title>syrk</title>
<polygon fill="#ffffff" stroke="black" points="429.55,-69.11 375.55,-69.11 375.55,-33.11 429.55,-33.11 429.55,-69.11"/>
<text text-anchor="middle" x="402.55" y="-47.51" font-family="Times,serif" font-size="12.00">syrk</text>
</g>
<!-- syrk&#45;&gt;potrf -->
<g id="edge5" class="edge">
<title>syrk&#45;&gt;potrf</title>
<path fill="none" stroke="#2e7d32" d="M375.18,-36.35C351.29,-24.99 315.37,-12.95 285.55,-24.11 270.27,-29.83 256.28,-41.2 245.47,-52.04"/>
<polygon fill="#2e7d32" stroke="#2e7d32" points="243.51,-49.08 239.19,-58.75 248.6,-53.89 243.51,-49.08"/>
</g>
<!-- syrk&#45;&gt;trsv -->
<g id="edge11" class="edge">
<title>syrk&#45;&gt;trsv</title>
<path fill="none" stroke="#e53935" d="M429.95,-67.61C438.13,-72.73 447.28,-78.45 455.98,-83.88"/>
<polygon fill="#e53935" stroke="#e53935" points="453.83,-87.29 464.16,-89.62 457.54,-81.35 453.83,-87.29"/>
</g>
<!-- gemv -->
<g id="node4" class="node">
<title>gemv</title>
<polygon fill="#ffffff" stroke="black" points="617.66,-124.11 563.66,-124.11 563.66,-88.11 617.66,-88.11 617.66,-124.11"/>
<text text-anchor="middle" x="590.66" y="-102.51" font-family="Times,serif" font-size="12.00">gemv</text>
</g>
<!-- gemv&#45;&gt;trsv -->
<g id="edge8" class="edge">
<title>gemv&#45;&gt;trsv</title>
<path fill="none" stroke="#000000" d="M563.43,-112.2C553.37,-112.86 541.68,-113.02 530.78,-112.71"/>
<polygon fill="#000000" stroke="#000000" points="530.96,-109.17 520.81,-112.2 530.64,-116.16 530.96,-109.17"/>
</g>
<!-- trsv&#45;&gt;potrf -->
<g id="edge12" class="edge">
<title>trsv&#45;&gt;potrf</title>
<path fill="none" stroke="#e53935" d="M465.26,-107.58C417.24,-105.73 315.27,-95.28 260.38,-86.78"/>
<polygon fill="#e53935" stroke="#e53935" points="261.16,-83.2 250.73,-85.06 260.04,-90.11 261.16,-83.2"/>
</g>
<!-- trsv&#45;&gt;gemv -->
<g id="edge7" class="edge">
<title>trsv&#45;&gt;gemv</title>
<path fill="none" stroke="#000000" d="M519.81,-100.02C529.88,-99.37 541.56,-99.2 552.46,-99.52"/>
<polygon fill="#000000" stroke="#000000" points="552.28,-103.06 562.43,-100.02 552.6,-96.07 552.28,-103.06"/>
</g>
<!-- trsv&#45;&gt;trsv -->
<g id="edge9" class="edge">
<title>trsv&#45;&gt;trsv</title>
<path fill="none" stroke="#000000" d="M476.27,-124.27C473.76,-133.65 479.19,-142.11 492.55,-142.11 500.27,-142.11 505.34,-139.28 507.76,-135.09"/>
<polygon fill="#000000" stroke="#000000" points="511.33,-135.56 508.83,-125.27 504.37,-134.87 511.33,-135.56"/>
</g>
<!-- &#9632; -->
<g id="node8" class="node">
<title>&#9632;</title>
<ellipse fill="none" stroke="black" cx="590.66" cy="-35.11" rx="31.11" ry="31.11"/>
<ellipse fill="none" stroke="black" cx="590.66" cy="-35.11" rx="35.11" ry="35.11"/>
<text text-anchor="middle" x="590.66" y="-26.11" font-family="Times,serif" font-size="30.00">■</text>
</g>
<!-- trsv&#45;&gt;&#9632; -->
<g id="edge13" class="edge">
<title>trsv&#45;&gt;&#9632;</title>
<path fill="none" stroke="#000000" d="M518.55,-87.64C529.1,-79.85 541.59,-70.62 553.14,-62.09"/>
<polygon fill="#000000" stroke="#000000" points="554.77,-64.5 560.73,-55.74 550.61,-58.87 554.77,-64.5"/>
</g>
<!-- trsm&#45;&gt;syrk -->
<g id="edge4" class="edge">
<title>trsm&#45;&gt;syrk</title>
<path fill="none" stroke="#000000" d="M339.95,-51.11C347.61,-51.11 356.12,-51.11 364.31,-51.11"/>
<polygon fill="#000000" stroke="#000000" points="364.16,-54.61 374.16,-51.11 364.16,-47.61 364.16,-54.61"/>
</g>
<!-- transpose&#45;&gt;potrf -->
<g id="edge10" class="edge">
<title>transpose&#45;&gt;potrf</title>
<path fill="none" stroke="#e53935" d="M159.9,-62.64C167.81,-64.63 176.45,-66.8 184.68,-68.86"/>
<polygon fill="#e53935" stroke="#e53935" points="183.62,-72.45 194.17,-71.49 185.32,-65.67 183.62,-72.45"/>
</g>
</g>
</svg>
