<?xml version="1.0" encoding="UTF-8" standalone="no"?>
<!DOCTYPE svg PUBLIC "-//W3C//DTD SVG 1.1//EN"
 "http://www.w3.org/Graphics/SVG/1.1/DTD/svg11.dtd">
<!-- Generated by graphviz version 8.1.0 (20230707.0739)
 -->
<!-- Pages: 1 -->
<svg width="151pt" height="536pt"
 viewBox="0.00 0.00 150.77 536.45" xmlns="http://www.w3.org/2000/svg" xmlns:xlink="http://www.w3.org/1999/xlink">
<g id="graph0" class="graph" transform="scale(1 1) rotate(0) translate(4 532.45)">
<polygon fill="white" stroke="none" points="-4,4 -4,-532.45 146.77,-532.45 146.77,4 -4,4"/>
<!-- &#9679; -->
<g id="node1" class="node">
<title>&#9679;</title>
<ellipse fill="none" stroke="black" cx="59.66" cy="-497.34" rx="31.11" ry="31.11"/>
<text text-anchor="middle" x="59.66" y="-488.34" font-family="Times,serif" font-size="30.00">●</text>
</g>
<!-- transpose -->
<g id="node2" class="node">
<title>transpose</title>
<polygon fill="#ef9a9a" stroke="black" points="61.32,-430.23 0,-430.23 0,-394.23 61.32,-394.23 61.32,-430.23"/>
<text text-anchor="middle" x="30.66" y="-408.63" font-family="Times,serif" font-size="12.00">transpose</text>
</g>
<!-- &#9679;&#45;&gt;transpose -->
<g id="edge2" class="edge">
<title>&#9679;&#45;&gt;transpose</title>
<path fill="none" stroke="#e53935" d="M49.68,-467.74C46.64,-459.02 43.3,-449.46 40.29,-440.81"/>
<polygon fill="#e53935" stroke="#e53935" points="43.28,-439.77 36.68,-431.48 36.67,-442.07 43.28,-439.77"/>
</g>
<!-- potrf -->
<g id="node5" class="node">
<title>potrf</title>
<polygon fill="#ffffff" stroke="black" points="86.66,-358.23 32.66,-358.23 32.66,-322.23 86.66,-322.23 86.66,-358.23"/>
<text text-anchor="middle" x="59.66" y="-336.63" font-family="Times,serif" font-size="12.00">potrf</text>
</g>
<!-- &#9679;&#45;&gt;potrf -->
<g id="edge1" class="edge">
<title>&#9679;&#45;&gt;potrf</title>
<path fill="none" stroke="#2e7d32" d="M66.2,-466.41C69.83,-446.06 73.16,-418.53 70.66,-394.23 69.8,-385.87 68.2,-376.89 66.48,-368.74"/>
<polygon fill="#2e7d32" stroke="#2e7d32" points="69.74,-368.26 64.13,-359.27 62.91,-369.8 69.74,-368.26"/>
</g>
<!-- transpose&#45;&gt;potrf -->
<g id="edge10" class="edge">
<title>transpose&#45;&gt;potrf</title>
<path fill="none" stroke="#e53935" d="M37.83,-393.92C41.03,-386.21 44.87,-376.94 48.43,-368.34"/>
<polygon fill="#e53935" stroke="#e53935" points="51.98,-369.91 52.58,-359.33 45.51,-367.23 51.98,-369.91"/>
</g>
<!-- trsv -->
<g id="node3" class="node">
<title>trsv</title>
<polygon fill="#ffffff" stroke="black" points="54.66,-142.23 0.66,-142.23 0.66,-106.23 54.66,-106.23 54.66,-142.23"/>
<text text-anchor="middle" x="27.66" y="-120.63" font-family="Times,serif" font-size="12.00">trsv</text>
</g>
<!-- trsv&#45;&gt;trsv -->
<g id="edge9" class="edge">
<title>trsv&#45;&gt;trsv</title>
<path fill="none" stroke="#000000" d="M54.9,-137.71C64.69,-138 72.66,-133.51 72.66,-124.23 72.66,-118.71 69.85,-114.89 65.52,-112.75"/>
<polygon fill="#000000" stroke="#000000" points="66.38,-109.17 55.9,-110.74 65.07,-116.04 66.38,-109.17"/>
</g>
<!-- gemv -->
<g id="node4" class="node">
<title>gemv</title>
<polygon fill="#ffffff" stroke="black" points="54.66,-53.11 0.66,-53.11 0.66,-17.11 54.66,-17.11 54.66,-53.11"/>
<text text-anchor="middle" x="27.66" y="-31.51" font-family="Times,serif" font-size="12.00">gemv</text>
</g>
<!-- trsv&#45;&gt;gemv -->
<g id="edge7" class="edge">
<title>trsv&#45;&gt;gemv</title>
<path fill="none" stroke="#000000" d="M22.16,-106.01C20.87,-94.16 20.58,-78.14 21.29,-64.42"/>
<polygon fill="#000000" stroke="#000000" points="24.85,-64.83 22.13,-54.59 17.87,-64.29 24.85,-64.83"/>
</g>
<!-- trsv&#45;&gt;potrf -->
<g id="edge12" class="edge">
<title>trsv&#45;&gt;potrf</title>
<path fill="none" stroke="#e53935" d="M34.12,-142.46C43.16,-179.39 56.46,-266.47 60.22,-311.37"/>
<polygon fill="#e53935" stroke="#e53935" points="56.78,-311.35 60.97,-321.07 63.76,-310.85 56.78,-311.35"/>
</g>
<!-- &#9632; -->
<g id="node8" class="node">
<title>&#9632;</title>
<ellipse fill="none" stroke="black" cx="107.66" cy="-35.11" rx="31.11" ry="31.11"/>
<ellipse fill="none" stroke="black" cx="107.66" cy="-35.11" rx="35.11" ry="35.11"/>
<text text-anchor="middle" x="107.66" y="-26.11" font-family="Times,serif" font-size="30.00">■</text>
</g>
<!-- trsv&#45;&gt;&#9632; -->
<g id="edge13" class="edge">
<title>trsv&#45;&gt;&#9632;</title>
<path fill="none" stroke="#000000" d="M43.47,-106.01C53.03,-95.6 65.55,-81.97 76.99,-69.51"/>
<polygon fill="#000000" stroke="#000000" points="79.12,-72.28 83.31,-62.54 73.96,-67.54 79.12,-72.28"/>
</g>
<!-- gemv&#45;&gt;trsv -->
<g id="edge8" class="edge">
<title>gemv&#45;&gt;trsv</title>
<path fill="none" stroke="#000000" d="M33.19,-53.59C34.47,-65.5 34.74,-81.54 34.01,-95.22"/>
<polygon fill="#000000" stroke="#000000" points="30.46,-94.77 33.16,-105.01 37.44,-95.32 30.46,-94.77"/>
</g>
<!-- potrf&#45;&gt;trsv -->
<g id="edge6" class="edge">
<title>potrf&#45;&gt;trsv</title>
<path fill="none" stroke="#000000" d="M53.22,-322.07C44.19,-285.21 30.88,-198.15 27.11,-153.18"/>
<polygon fill="#000000" stroke="#000000" points="30.55,-153.19 26.35,-143.46 23.57,-153.68 30.55,-153.19"/>
</g>
<!-- trsm -->
<g id="node6" class="node">
<title>trsm</title>
<polygon fill="#ffffff" stroke="black" points="118.66,-286.23 64.66,-286.23 64.66,-250.23 118.66,-250.23 118.66,-286.23"/>
<text text-anchor="middle" x="91.66" y="-264.63" font-family="Times,serif" font-size="12.00">trsm</text>
</g>
<!-- potrf&#45;&gt;trsm -->
<g id="edge3" class="edge">
<title>potrf&#45;&gt;trsm</title>
<path fill="none" stroke="#000000" d="M67.57,-321.92C71.14,-314.12 75.43,-304.73 79.4,-296.05"/>
<polygon fill="#000000" stroke="#000000" points="82.87,-297.88 83.84,-287.33 76.5,-294.97 82.87,-297.88"/>
</g>
<!-- syrk -->
<g id="node7" class="node">
<title>syrk</title>
<polygon fill="#ffffff" stroke="black" points="118.66,-214.23 64.66,-214.23 64.66,-178.23 118.66,-178.23 118.66,-214.23"/>
<text text-anchor="middle" x="91.66" y="-192.63" font-family="Times,serif" font-size="12.00">syrk</text>
</g>
<!-- trsm&#45;&gt;syrk -->
<g id="edge4" class="edge">
<title>trsm&#45;&gt;syrk</title>
<path fill="none" stroke="#000000" d="M91.66,-249.92C91.66,-242.46 91.66,-233.55 91.66,-225.19"/>
<polygon fill="#000000" stroke="#000000" points="95.16,-225.33 91.66,-215.33 88.16,-225.33 95.16,-225.33"/>
</g>
<!-- syrk&#45;&gt;trsv -->
<g id="edge11" class="edge">
<title>syrk&#45;&gt;trsv</title>
<path fill="none" stroke="#e53935" d="M75.84,-177.92C68.25,-169.61 59,-159.5 50.65,-150.37"/>
<polygon fill="#e53935" stroke="#e53935" points="53.63,-148.35 44.3,-143.33 48.46,-153.07 53.63,-148.35"/>
</g>
<!-- syrk&#45;&gt;potrf -->
<g id="edge5" class="edge">
<title>syrk&#45;&gt;potrf</title>
<path fill="none" stroke="#2e7d32" d="M107.45,-214.6C121.95,-232.77 139.51,-261.96 127.66,-286.23 120.84,-300.19 108.37,-311.54 95.96,-320.1"/>
<polygon fill="#2e7d32" stroke="#2e7d32" points="94.53,-317.5 88.01,-325.85 98.31,-323.39 94.53,-317.5"/>
</g>
</g>
</svg>
