<?xml version="1.0" encoding="UTF-8" standalone="no"?>
<!DOCTYPE svg PUBLIC "-//W3C//DTD SVG 1.1//EN"
 "http://www.w3.org/Graphics/SVG/1.1/DTD/svg11.dtd">
<!-- Generated by graphviz version 8.1.0 (20230707.0739)
 -->
<!-- Pages: 1 -->
<svg width="204pt" height="637pt"
 viewBox="0.00 0.00 204.00 637.25" xmlns="http://www.w3.org/2000/svg" xmlns:xlink="http://www.w3.org/1999/xlink">
<g id="graph0" class="graph" transform="scale(1 1) rotate(0) translate(4 633.25)">
<polygon fill="white" stroke="none" points="-4,4 -4,-633.25 200,-633.25 200,4 -4,4"/>
<!-- &#9679; -->
<g id="node1" class="node">
<title>&#9679;</title>
<ellipse fill="none" stroke="black" cx="87" cy="-598.14" rx="31.11" ry="31.11"/>
<text text-anchor="middle" x="87" y="-589.14" font-family="Times,serif" font-size="30.00">●</text>
</g>
<!-- transpose -->
<g id="node5" class="node">
<title>transpose</title>
<polygon fill="#ef9a9a" stroke="black" points="84.66,-514.23 23.34,-514.23 23.34,-478.23 84.66,-478.23 84.66,-514.23"/>
<text text-anchor="middle" x="54" y="-492.63" font-family="Times,serif" font-size="12.00">transpose</text>
</g>
<!-- &#9679;&#45;&gt;transpose -->
<g id="edge2" class="edge">
<title>&#9679;&#45;&gt;transpose</title>
<path fill="none" stroke="#e53935" d="M77.46,-568.24C72.92,-554.51 67.52,-538.17 63.05,-524.64"/>
<polygon fill="#e53935" stroke="#e53935" points="66.16,-523.88 59.7,-515.48 59.51,-526.07 66.16,-523.88"/>
<text text-anchor="middle" x="78" y="-536.43" font-family="Times,serif" font-size="14.00">10</text>
</g>
<!-- potrf -->
<g id="node7" class="node">
<title>potrf</title>
<polygon fill="#ffffff" stroke="black" points="114,-425.43 60,-425.43 60,-389.43 114,-389.43 114,-425.43"/>
<text text-anchor="middle" x="87" y="-403.83" font-family="Times,serif" font-size="12.00">potrf</text>
</g>
<!-- &#9679;&#45;&gt;potrf -->
<g id="edge1" class="edge">
<title>&#9679;&#45;&gt;potrf</title>
<path fill="none" stroke="#2e7d32" d="M90.17,-566.85C91.66,-551.17 93.26,-531.69 94,-514.23 94.67,-498.24 94.46,-494.22 94,-478.23 93.56,-462.74 93.54,-458.84 92,-443.43 91.78,-441.18 91.51,-438.86 91.23,-436.54"/>
<polygon fill="#2e7d32" stroke="#2e7d32" points="94.59,-436.28 89.78,-426.84 87.65,-437.22 94.59,-436.28"/>
<text text-anchor="middle" x="102" y="-492.03" font-family="Times,serif" font-size="14.00">10</text>
</g>
<!-- trsm -->
<g id="node2" class="node">
<title>trsm</title>
<polygon fill="#ffffff" stroke="black" points="196,-336.63 142,-336.63 142,-300.63 196,-300.63 196,-336.63"/>
<text text-anchor="middle" x="169" y="-315.03" font-family="Times,serif" font-size="12.00">trsm</text>
</g>
<!-- syrk -->
<g id="node6" class="node">
<title>syrk</title>
<polygon fill="#ffffff" stroke="black" points="146,-247.83 92,-247.83 92,-211.83 146,-211.83 146,-247.83"/>
<text text-anchor="middle" x="119" y="-226.23" font-family="Times,serif" font-size="12.00">syrk</text>
</g>
<!-- trsm&#45;&gt;syrk -->
<g id="edge4" class="edge">
<title>trsm&#45;&gt;syrk</title>
<path fill="none" stroke="#000000" d="M159.12,-300.48C152.05,-288.19 142.38,-271.41 134.31,-257.4"/>
<polygon fill="#000000" stroke="#000000" points="137.05,-256.15 129.03,-249.24 130.99,-259.65 137.05,-256.15"/>
<text text-anchor="middle" x="155" y="-270.03" font-family="Times,serif" font-size="14.00">20</text>
</g>
<!-- trsv -->
<g id="node3" class="node">
<title>trsv</title>
<polygon fill="#ffffff" stroke="black" points="91,-159.03 37,-159.03 37,-123.03 91,-123.03 91,-159.03"/>
<text text-anchor="middle" x="64" y="-137.43" font-family="Times,serif" font-size="12.00">trsv</text>
</g>
<!-- trsv&#45;&gt;trsv -->
<g id="edge9" class="edge">
<title>trsv&#45;&gt;trsv</title>
<path fill="none" stroke="#000000" d="M91.24,-149.34C101.02,-149.52 109,-146.75 109,-141.03 109,-137.63 106.19,-135.27 101.86,-133.95"/>
<polygon fill="#000000" stroke="#000000" points="102.58,-130.4 92.24,-132.71 101.77,-137.35 102.58,-130.4"/>
<text text-anchor="middle" x="116" y="-136.83" font-family="Times,serif" font-size="14.00">20</text>
</g>
<!-- gemv -->
<g id="node4" class="node">
<title>gemv</title>
<polygon fill="#ffffff" stroke="black" points="54,-53.11 0,-53.11 0,-17.11 54,-17.11 54,-53.11"/>
<text text-anchor="middle" x="27" y="-31.51" font-family="Times,serif" font-size="12.00">gemv</text>
</g>
<!-- trsv&#45;&gt;gemv -->
<g id="edge7" class="edge">
<title>trsv&#45;&gt;gemv</title>
<path fill="none" stroke="#000000" d="M40.64,-122.6C35.54,-117.54 30.83,-111.59 28,-105.03 22.54,-92.36 21.79,-77.14 22.62,-64.22"/>
<polygon fill="#000000" stroke="#000000" points="26.17,-64.88 23.68,-54.59 19.21,-64.19 26.17,-64.88"/>
<text text-anchor="middle" x="35" y="-92.43" font-family="Times,serif" font-size="14.00">20</text>
</g>
<!-- trsv&#45;&gt;potrf -->
<g id="edge12" class="edge">
<title>trsv&#45;&gt;potrf</title>
<path fill="none" stroke="#e53935" d="M65.51,-159.44C69.41,-204.23 79.81,-323.78 84.57,-378.45"/>
<polygon fill="#e53935" stroke="#e53935" points="81.14,-378.42 85.49,-388.08 88.11,-377.81 81.14,-378.42"/>
<text text-anchor="middle" x="84" y="-270.03" font-family="Times,serif" font-size="14.00">10</text>
</g>
<!-- &#9632; -->
<g id="node8" class="node">
<title>&#9632;</title>
<ellipse fill="none" stroke="black" cx="107" cy="-35.11" rx="31.11" ry="31.11"/>
<ellipse fill="none" stroke="black" cx="107" cy="-35.11" rx="35.11" ry="35.11"/>
<text text-anchor="middle" x="107" y="-26.11" font-family="Times,serif" font-size="30.00">■</text>
</g>
<!-- trsv&#45;&gt;&#9632; -->
<g id="edge13" class="edge">
<title>trsv&#45;&gt;&#9632;</title>
<path fill="none" stroke="#000000" d="M71.1,-122.87C76.15,-110.67 83.16,-93.73 89.64,-78.06"/>
<polygon fill="#000000" stroke="#000000" points="93.21,-79.58 93.8,-69 86.75,-76.9 93.21,-79.58"/>
<text text-anchor="middle" x="92" y="-92.43" font-family="Times,serif" font-size="14.00">20</text>
</g>
<!-- gemv&#45;&gt;trsv -->
<g id="edge8" class="edge">
<title>gemv&#45;&gt;trsv</title>
<path fill="none" stroke="#000000" d="M33.12,-53.3C38.85,-69.4 47.52,-93.74 54.21,-112.54"/>
<polygon fill="#000000" stroke="#000000" points="51.24,-113.62 57.89,-121.87 57.83,-111.27 51.24,-113.62"/>
<text text-anchor="middle" x="58" y="-92.43" font-family="Times,serif" font-size="14.00">20</text>
</g>
<!-- transpose&#45;&gt;potrf -->
<g id="edge10" class="edge">
<title>transpose&#45;&gt;potrf</title>
<path fill="none" stroke="#e53935" d="M60.52,-478.08C65.1,-466.03 71.32,-449.66 76.59,-435.82"/>
<polygon fill="#e53935" stroke="#e53935" points="80.1,-437.43 80.38,-426.84 73.56,-434.94 80.1,-437.43"/>
<text text-anchor="middle" x="81" y="-447.63" font-family="Times,serif" font-size="14.00">10</text>
</g>
<!-- syrk&#45;&gt;trsv -->
<g id="edge11" class="edge">
<title>syrk&#45;&gt;trsv</title>
<path fill="none" stroke="#e53935" d="M108.13,-211.68C100.35,-199.39 89.72,-182.61 80.84,-168.6"/>
<polygon fill="#e53935" stroke="#e53935" points="83.34,-167.01 75.03,-160.44 77.43,-170.76 83.34,-167.01"/>
<text text-anchor="middle" x="104" y="-181.23" font-family="Times,serif" font-size="14.00">10</text>
</g>
<!-- syrk&#45;&gt;potrf -->
<g id="edge5" class="edge">
<title>syrk&#45;&gt;potrf</title>
<path fill="none" stroke="#2e7d32" d="M115.83,-248.23C110.28,-278.69 98.76,-341.87 92.09,-378.5"/>
<polygon fill="#2e7d32" stroke="#2e7d32" points="88.53,-377.48 90.19,-387.95 95.42,-378.74 88.53,-377.48"/>
<text text-anchor="middle" x="114" y="-314.43" font-family="Times,serif" font-size="14.00">10</text>
</g>
<!-- potrf&#45;&gt;trsm -->
<g id="edge3" class="edge">
<title>potrf&#45;&gt;trsm</title>
<path fill="none" stroke="#000000" d="M106.17,-388.97C112.01,-383.47 118.37,-377.3 124,-371.43 132.04,-363.04 140.48,-353.53 147.85,-344.96"/>
<polygon fill="#000000" stroke="#000000" points="150.99,-347.68 154.82,-337.79 145.67,-343.14 150.99,-347.68"/>
<text text-anchor="middle" x="146" y="-358.83" font-family="Times,serif" font-size="14.00">20</text>
</g>
<!-- potrf&#45;&gt;trsv -->
<g id="edge6" class="edge">
<title>potrf&#45;&gt;trsv</title>
<path fill="none" stroke="#000000" d="M64.4,-388.95C59.01,-383.82 53.74,-377.84 50,-371.43 29.51,-336.3 32.93,-322.99 28,-282.63 23.1,-242.48 38.49,-197.41 50.66,-169.37"/>
<polygon fill="#000000" stroke="#000000" points="54.19,-171.06 55.12,-160.5 47.81,-168.17 54.19,-171.06"/>
<text text-anchor="middle" x="35" y="-270.03" font-family="Times,serif" font-size="14.00">20</text>
</g>
</g>
</svg>
