<?xml version="1.0" encoding="UTF-8" standalone="no"?>
<!DOCTYPE svg PUBLIC "-//W3C//DTD SVG 1.1//EN"
 "http://www.w3.org/Graphics/SVG/1.1/DTD/svg11.dtd">
<!-- Generated by graphviz version 8.1.0 (20230707.0739)
 -->
<!-- Pages: 1 -->
<svg width="298pt" height="800pt"
 viewBox="0.00 0.00 298.19 799.65" xmlns="http://www.w3.org/2000/svg" xmlns:xlink="http://www.w3.org/1999/xlink">
<g id="graph0" class="graph" transform="scale(1 1) rotate(0) translate(4 795.65)">
<polygon fill="white" stroke="none" points="-4,4 -4,-795.65 294.19,-795.65 294.19,4 -4,4"/>
<!-- &#9679; -->
<g id="node1" class="node">
<title>&#9679;</title>
<ellipse fill="none" stroke="black" cx="162.13" cy="-760.54" rx="31.11" ry="31.11"/>
<text text-anchor="middle" x="162.13" y="-751.54" font-family="Times,serif" font-size="30.00">●</text>
</g>
<!-- potrf -->
<g id="node2" class="node">
<title>potrf</title>
<polygon fill="#ffffff" stroke="black" points="210.19,-543.83 82.08,-543.83 82.08,-478.23 210.19,-478.23 210.19,-543.83"/>
<text text-anchor="middle" x="146.13" y="-529.03" font-family="Times,serif" font-size="12.00">potrf (2/2)</text>
<text text-anchor="middle" x="146.13" y="-514.63" font-family="Times,serif" font-size="12.00">Num. Ranks: &#160;1&#45;1&#45;1</text>
<text text-anchor="middle" x="146.13" y="-500.23" font-family="Times,serif" font-size="12.00">Avg. FLOPs: 1.67e+08</text>
<text text-anchor="middle" x="146.13" y="-485.83" font-family="Times,serif" font-size="12.00">Avg. Perf: 43.53 F/ns</text>
</g>
<!-- &#9679;&#45;&gt;potrf -->
<g id="edge1" class="edge">
<title>&#9679;&#45;&gt;potrf</title>
<path fill="none" stroke="#000000" d="M152.09,-730.78C147.11,-715.01 141.63,-694.98 139.13,-676.63 133.54,-635.5 136.53,-588.12 140.18,-554.78"/>
<polygon fill="#000000" stroke="#000000" points="143.75,-555.38 141.43,-545.04 136.8,-554.57 143.75,-555.38"/>
<text text-anchor="middle" x="146.13" y="-632.43" font-family="Times,serif" font-size="14.00">10</text>
</g>
<!-- transpose -->
<g id="node5" class="node">
<title>transpose</title>
<polygon fill="#9b9bff" stroke="black" points="290.19,-676.63 162.08,-676.63 162.08,-596.63 290.19,-596.63 290.19,-676.63"/>
<text text-anchor="middle" x="226.13" y="-661.83" font-family="Times,serif" font-size="12.00">transpose (1/2)</text>
<text text-anchor="middle" x="226.13" y="-647.43" font-family="Times,serif" font-size="12.00">Rank score: 1.0</text>
<text text-anchor="middle" x="226.13" y="-633.03" font-family="Times,serif" font-size="12.00">Num. Ranks: &#160;1&#45;1&#45;1</text>
<text text-anchor="middle" x="226.13" y="-618.63" font-family="Times,serif" font-size="12.00">Avg. FLOPs: 1.00e+00</text>
<text text-anchor="middle" x="226.13" y="-604.23" font-family="Times,serif" font-size="12.00">Avg. Perf: 0.00 F/ns</text>
</g>
<!-- &#9679;&#45;&gt;transpose -->
<g id="edge2" class="edge">
<title>&#9679;&#45;&gt;transpose</title>
<path fill="none" stroke="#000000" d="M176.34,-732.48C183.41,-719 192.19,-702.28 200.4,-686.65"/>
<polygon fill="#000000" stroke="#000000" points="203.86,-688.58 205.41,-678.1 197.66,-685.33 203.86,-688.58"/>
<text text-anchor="middle" x="202.13" y="-698.83" font-family="Times,serif" font-size="14.00">10</text>
</g>
<!-- trsv -->
<g id="node4" class="node">
<title>trsv</title>
<polygon fill="#ffffff" stroke="black" points="168.19,-188.63 40.08,-188.63 40.08,-123.03 168.19,-123.03 168.19,-188.63"/>
<text text-anchor="middle" x="104.13" y="-173.83" font-family="Times,serif" font-size="12.00">trsv (2/2)</text>
<text text-anchor="middle" x="104.13" y="-159.43" font-family="Times,serif" font-size="12.00">Num. Ranks: &#160;1&#45;1&#45;1</text>
<text text-anchor="middle" x="104.13" y="-145.03" font-family="Times,serif" font-size="12.00">Avg. FLOPs: 4.34e+05</text>
<text text-anchor="middle" x="104.13" y="-130.63" font-family="Times,serif" font-size="12.00">Avg. Perf: 9.12 F/ns</text>
</g>
<!-- potrf&#45;&gt;trsv -->
<g id="edge6" class="edge">
<title>potrf&#45;&gt;trsv</title>
<path fill="none" stroke="#000000" d="M81.94,-488.05C53.37,-474.69 22.53,-454.49 6.13,-425.43 -15.83,-386.49 29.97,-243.77 31.13,-241.43 39.05,-225.45 50.7,-210.04 62.37,-196.84"/>
<polygon fill="#000000" stroke="#000000" points="64.44,-199.67 68.61,-189.93 59.27,-194.95 64.44,-199.67"/>
<text text-anchor="middle" x="16.13" y="-329.23" font-family="Times,serif" font-size="14.00">20</text>
</g>
<!-- trsm -->
<g id="node6" class="node">
<title>trsm</title>
<polygon fill="#ffffff" stroke="black" points="143.19,-425.43 15.08,-425.43 15.08,-359.83 143.19,-359.83 143.19,-425.43"/>
<text text-anchor="middle" x="79.13" y="-410.63" font-family="Times,serif" font-size="12.00">trsm (2/2)</text>
<text text-anchor="middle" x="79.13" y="-396.23" font-family="Times,serif" font-size="12.00">Num. Ranks: &#160;2&#45;2&#45;2</text>
<text text-anchor="middle" x="79.13" y="-381.83" font-family="Times,serif" font-size="12.00">Avg. FLOPs: 1.00e+08</text>
<text text-anchor="middle" x="79.13" y="-367.43" font-family="Times,serif" font-size="12.00">Avg. Perf: 226.69 F/ns</text>
</g>
<!-- potrf&#45;&gt;trsm -->
<g id="edge3" class="edge">
<title>potrf&#45;&gt;trsm</title>
<path fill="none" stroke="#000000" d="M127.65,-477.91C120.03,-464.68 111.11,-449.18 103.01,-435.11"/>
<polygon fill="#000000" stroke="#000000" points="105.58,-433.56 97.56,-426.64 99.52,-437.05 105.58,-433.56"/>
<text text-anchor="middle" x="124.13" y="-447.63" font-family="Times,serif" font-size="14.00">20</text>
</g>
<!-- syrk -->
<g id="node3" class="node">
<title>syrk</title>
<polygon fill="#ffffff" stroke="black" points="168.19,-307.03 40.08,-307.03 40.08,-241.43 168.19,-241.43 168.19,-307.03"/>
<text text-anchor="middle" x="104.13" y="-292.23" font-family="Times,serif" font-size="12.00">syrk (2/2)</text>
<text text-anchor="middle" x="104.13" y="-277.83" font-family="Times,serif" font-size="12.00">Num. Ranks: &#160;2&#45;2&#45;2</text>
<text text-anchor="middle" x="104.13" y="-263.43" font-family="Times,serif" font-size="12.00">Avg. FLOPs: 1.00e+07</text>
<text text-anchor="middle" x="104.13" y="-249.03" font-family="Times,serif" font-size="12.00">Avg. Perf: 40.87 F/ns</text>
</g>
<!-- syrk&#45;&gt;potrf -->
<g id="edge5" class="edge">
<title>syrk&#45;&gt;potrf</title>
<path fill="none" stroke="#000000" d="M127.52,-307.26C137.17,-322.4 147.22,-341.21 152.13,-359.83 161.45,-395.11 158.8,-436.66 154.47,-467.1"/>
<polygon fill="#000000" stroke="#000000" points="150.89,-466.37 152.82,-476.78 157.81,-467.44 150.89,-466.37"/>
<text text-anchor="middle" x="166.13" y="-388.43" font-family="Times,serif" font-size="14.00">10</text>
</g>
<!-- syrk&#45;&gt;trsv -->
<g id="edge11" class="edge">
<title>syrk&#45;&gt;trsv</title>
<path fill="none" stroke="#000000" d="M104.13,-241.11C104.13,-228.26 104.13,-213.27 104.13,-199.53"/>
<polygon fill="#000000" stroke="#000000" points="107.63,-199.84 104.13,-189.84 100.63,-199.84 107.63,-199.84"/>
<text text-anchor="middle" x="111.13" y="-210.83" font-family="Times,serif" font-size="14.00">10</text>
</g>
<!-- trsv&#45;&gt;potrf -->
<g id="edge12" class="edge">
<title>trsv&#45;&gt;potrf</title>
<path fill="none" stroke="#000000" d="M141.41,-188.87C155.44,-203.33 169.77,-221.61 177.13,-241.43 186.57,-266.81 194.84,-388.21 171.13,-460.23 170.29,-462.8 169.33,-465.4 168.29,-468.01"/>
<polygon fill="#000000" stroke="#000000" points="164.75,-466.37 163.96,-476.93 171.17,-469.16 164.75,-466.37"/>
<text text-anchor="middle" x="193.13" y="-329.23" font-family="Times,serif" font-size="14.00">10</text>
</g>
<!-- trsv&#45;&gt;trsv -->
<g id="edge9" class="edge">
<title>trsv&#45;&gt;trsv</title>
<path fill="none" stroke="#000000" d="M168.46,-166.1C178.97,-164.63 186.19,-161.2 186.19,-155.83 186.19,-152.55 183.51,-150 179.04,-148.17"/>
<polygon fill="#000000" stroke="#000000" points="180.01,-144.56 169.46,-145.56 178.33,-151.36 180.01,-144.56"/>
<text text-anchor="middle" x="193.19" y="-151.63" font-family="Times,serif" font-size="14.00">20</text>
</g>
<!-- gemv -->
<g id="node7" class="node">
<title>gemv</title>
<polygon fill="#ffffff" stroke="black" points="131.19,-67.91 3.08,-67.91 3.08,-2.31 131.19,-2.31 131.19,-67.91"/>
<text text-anchor="middle" x="67.13" y="-53.11" font-family="Times,serif" font-size="12.00">gemv (2/2)</text>
<text text-anchor="middle" x="67.13" y="-38.71" font-family="Times,serif" font-size="12.00">Num. Ranks: &#160;2&#45;2&#45;2</text>
<text text-anchor="middle" x="67.13" y="-24.31" font-family="Times,serif" font-size="12.00">Avg. FLOPs: 2.00e+05</text>
<text text-anchor="middle" x="67.13" y="-9.91" font-family="Times,serif" font-size="12.00">Avg. Perf: 15.24 F/ns</text>
</g>
<!-- trsv&#45;&gt;gemv -->
<g id="edge7" class="edge">
<title>trsv&#45;&gt;gemv</title>
<path fill="none" stroke="#000000" d="M76.68,-122.63C73.2,-117.06 70.15,-111.1 68.13,-105.03 65.43,-96.88 64.17,-87.89 63.74,-79.17"/>
<polygon fill="#000000" stroke="#000000" points="67.23,-79.3 63.61,-69.35 60.23,-79.39 67.23,-79.3"/>
<text text-anchor="middle" x="75.13" y="-92.43" font-family="Times,serif" font-size="14.00">20</text>
</g>
<!-- &#9632; -->
<g id="node8" class="node">
<title>&#9632;</title>
<ellipse fill="none" stroke="black" cx="184.13" cy="-35.11" rx="31.11" ry="31.11"/>
<ellipse fill="none" stroke="black" cx="184.13" cy="-35.11" rx="35.11" ry="35.11"/>
<text text-anchor="middle" x="184.13" y="-26.11" font-family="Times,serif" font-size="30.00">■</text>
</g>
<!-- trsv&#45;&gt;&#9632; -->
<g id="edge13" class="edge">
<title>trsv&#45;&gt;&#9632;</title>
<path fill="none" stroke="#000000" d="M125.78,-122.7C136,-107.55 148.25,-89.37 158.88,-73.59"/>
<polygon fill="#000000" stroke="#000000" points="162.24,-75.87 164.93,-65.62 156.43,-71.95 162.24,-75.87"/>
<text text-anchor="middle" x="156.13" y="-92.43" font-family="Times,serif" font-size="14.00">20</text>
</g>
<!-- transpose&#45;&gt;potrf -->
<g id="edge10" class="edge">
<title>transpose&#45;&gt;potrf</title>
<path fill="none" stroke="#000000" d="M200.6,-596.18C191.67,-582.38 181.64,-566.87 172.63,-552.96"/>
<polygon fill="#000000" stroke="#000000" points="175.26,-551.58 166.89,-545.09 169.38,-555.38 175.26,-551.58"/>
<text text-anchor="middle" x="195.13" y="-566.03" font-family="Times,serif" font-size="14.00">10</text>
</g>
<!-- trsm&#45;&gt;syrk -->
<g id="edge4" class="edge">
<title>trsm&#45;&gt;syrk</title>
<path fill="none" stroke="#000000" d="M86.03,-359.51C88.79,-346.66 92.01,-331.67 94.96,-317.93"/>
<polygon fill="#000000" stroke="#000000" points="98.58,-318.75 97.26,-308.24 91.74,-317.28 98.58,-318.75"/>
<text text-anchor="middle" x="100.13" y="-329.23" font-family="Times,serif" font-size="14.00">20</text>
</g>
<!-- gemv&#45;&gt;trsv -->
<g id="edge8" class="edge">
<title>gemv&#45;&gt;trsv</title>
<path fill="none" stroke="#000000" d="M77.16,-68.26C81.39,-81.86 86.39,-97.89 90.92,-112.43"/>
<polygon fill="#000000" stroke="#000000" points="87.8,-113.19 94.12,-121.7 94.49,-111.11 87.8,-113.19"/>
<text text-anchor="middle" x="95.13" y="-92.43" font-family="Times,serif" font-size="14.00">20</text>
</g>
</g>
</svg>
