<?xml version="1.0" encoding="UTF-8" standalone="no"?>
<!DOCTYPE svg PUBLIC "-//W3C//DTD SVG 1.1//EN"
 "http://www.w3.org/Graphics/SVG/1.1/DTD/svg11.dtd">
<!-- Generated by graphviz version 8.1.0 (20230707.0739)
 -->
<!-- Pages: 1 -->
<svg width="248pt" height="800pt"
 viewBox="0.00 0.00 247.83 799.65" xmlns="http://www.w3.org/2000/svg" xmlns:xlink="http://www.w3.org/1999/xlink">
<g id="graph0" class="graph" transform="scale(1 1) rotate(0) translate(4 795.65)">
<polygon fill="white" stroke="none" points="-4,4 -4,-795.65 243.83,-795.65 243.83,4 -4,4"/>
<!-- &#9679; -->
<g id="node1" class="node">
<title>&#9679;</title>
<ellipse fill="none" stroke="black" cx="187.72" cy="-760.54" rx="31.11" ry="31.11"/>
<text text-anchor="middle" x="187.72" y="-751.54" font-family="Times,serif" font-size="30.00">●</text>
</g>
<!-- transpose -->
<g id="node2" class="node">
<title>transpose</title>
<polygon fill="#9b9bff" stroke="black" points="176.77,-676.63 48.67,-676.63 48.67,-596.63 176.77,-596.63 176.77,-676.63"/>
<text text-anchor="middle" x="112.72" y="-661.83" font-family="Times,serif" font-size="12.00">transpose (1/2)</text>
<text text-anchor="middle" x="112.72" y="-647.43" font-family="Times,serif" font-size="12.00">Rank score: 1.0</text>
<text text-anchor="middle" x="112.72" y="-633.03" font-family="Times,serif" font-size="12.00">Num. Ranks: &#160;1&#45;1&#45;1</text>
<text text-anchor="middle" x="112.72" y="-618.63" font-family="Times,serif" font-size="12.00">Avg. FLOPs: 1.00e+00</text>
<text text-anchor="middle" x="112.72" y="-604.23" font-family="Times,serif" font-size="12.00">Avg. Perf: 0.00 F/ns</text>
</g>
<!-- &#9679;&#45;&gt;transpose -->
<g id="edge2" class="edge">
<title>&#9679;&#45;&gt;transpose</title>
<path fill="none" stroke="#000000" d="M171.63,-733.38C163.14,-719.58 152.45,-702.2 142.51,-686.04"/>
<polygon fill="#000000" stroke="#000000" points="144.99,-684.39 136.77,-677.71 139.02,-688.06 144.99,-684.39"/>
<text text-anchor="middle" x="164.72" y="-698.83" font-family="Times,serif" font-size="14.00">10</text>
</g>
<!-- potrf -->
<g id="node4" class="node">
<title>potrf</title>
<polygon fill="#ffffff" stroke="black" points="226.77,-543.83 98.67,-543.83 98.67,-478.23 226.77,-478.23 226.77,-543.83"/>
<text text-anchor="middle" x="162.72" y="-529.03" font-family="Times,serif" font-size="12.00">potrf (2/2)</text>
<text text-anchor="middle" x="162.72" y="-514.63" font-family="Times,serif" font-size="12.00">Num. Ranks: &#160;1&#45;1&#45;1</text>
<text text-anchor="middle" x="162.72" y="-500.23" font-family="Times,serif" font-size="12.00">Avg. FLOPs: 1.67e+08</text>
<text text-anchor="middle" x="162.72" y="-485.83" font-family="Times,serif" font-size="12.00">Avg. Perf: 43.53 F/ns</text>
</g>
<!-- &#9679;&#45;&gt;potrf -->
<g id="edge1" class="edge">
<title>&#9679;&#45;&gt;potrf</title>
<path fill="none" stroke="#000000" d="M189.63,-729.04C191.16,-696.18 192.12,-642.43 185.72,-596.63 183.78,-582.71 180.24,-567.83 176.52,-554.49"/>
<polygon fill="#000000" stroke="#000000" points="179.67,-553.79 173.52,-545.17 172.95,-555.75 179.67,-553.79"/>
<text text-anchor="middle" x="197.72" y="-632.43" font-family="Times,serif" font-size="14.00">10</text>
</g>
<!-- transpose&#45;&gt;potrf -->
<g id="edge10" class="edge">
<title>transpose&#45;&gt;potrf</title>
<path fill="none" stroke="#000000" d="M128.68,-596.18C134.1,-582.78 140.17,-567.76 145.68,-554.16"/>
<polygon fill="#000000" stroke="#000000" points="149.25,-555.67 149.75,-545.09 142.76,-553.04 149.25,-555.67"/>
<text text-anchor="middle" x="149.72" y="-566.03" font-family="Times,serif" font-size="14.00">10</text>
</g>
<!-- trsm -->
<g id="node3" class="node">
<title>trsm</title>
<polygon fill="#ffffff" stroke="black" points="151.77,-425.43 23.67,-425.43 23.67,-359.83 151.77,-359.83 151.77,-425.43"/>
<text text-anchor="middle" x="87.72" y="-410.63" font-family="Times,serif" font-size="12.00">trsm (2/2)</text>
<text text-anchor="middle" x="87.72" y="-396.23" font-family="Times,serif" font-size="12.00">Num. Ranks: &#160;2&#45;2&#45;2</text>
<text text-anchor="middle" x="87.72" y="-381.83" font-family="Times,serif" font-size="12.00">Avg. FLOPs: 1.00e+08</text>
<text text-anchor="middle" x="87.72" y="-367.43" font-family="Times,serif" font-size="12.00">Avg. Perf: 226.69 F/ns</text>
</g>
<!-- syrk -->
<g id="node6" class="node">
<title>syrk</title>
<polygon fill="#ffffff" stroke="black" points="188.77,-307.03 60.67,-307.03 60.67,-241.43 188.77,-241.43 188.77,-307.03"/>
<text text-anchor="middle" x="124.72" y="-292.23" font-family="Times,serif" font-size="12.00">syrk (2/2)</text>
<text text-anchor="middle" x="124.72" y="-277.83" font-family="Times,serif" font-size="12.00">Num. Ranks: &#160;2&#45;2&#45;2</text>
<text text-anchor="middle" x="124.72" y="-263.43" font-family="Times,serif" font-size="12.00">Avg. FLOPs: 1.00e+07</text>
<text text-anchor="middle" x="124.72" y="-249.03" font-family="Times,serif" font-size="12.00">Avg. Perf: 40.87 F/ns</text>
</g>
<!-- trsm&#45;&gt;syrk -->
<g id="edge4" class="edge">
<title>trsm&#45;&gt;syrk</title>
<path fill="none" stroke="#000000" d="M97.93,-359.51C102.05,-346.53 106.87,-331.38 111.28,-317.52"/>
<polygon fill="#000000" stroke="#000000" points="114.85,-318.83 114.55,-308.24 108.18,-316.71 114.85,-318.83"/>
<text text-anchor="middle" x="115.72" y="-329.23" font-family="Times,serif" font-size="14.00">20</text>
</g>
<!-- potrf&#45;&gt;trsm -->
<g id="edge3" class="edge">
<title>potrf&#45;&gt;trsm</title>
<path fill="none" stroke="#000000" d="M142.03,-477.91C133.42,-464.55 123.32,-448.88 114.19,-434.7"/>
<polygon fill="#000000" stroke="#000000" points="116.7,-433.15 108.35,-426.64 110.82,-436.94 116.7,-433.15"/>
<text text-anchor="middle" x="136.72" y="-447.63" font-family="Times,serif" font-size="14.00">20</text>
</g>
<!-- trsv -->
<g id="node7" class="node">
<title>trsv</title>
<polygon fill="#ffffff" stroke="black" points="188.77,-188.63 60.67,-188.63 60.67,-123.03 188.77,-123.03 188.77,-188.63"/>
<text text-anchor="middle" x="124.72" y="-173.83" font-family="Times,serif" font-size="12.00">trsv (2/2)</text>
<text text-anchor="middle" x="124.72" y="-159.43" font-family="Times,serif" font-size="12.00">Num. Ranks: &#160;1&#45;1&#45;1</text>
<text text-anchor="middle" x="124.72" y="-145.03" font-family="Times,serif" font-size="12.00">Avg. FLOPs: 4.34e+05</text>
<text text-anchor="middle" x="124.72" y="-130.63" font-family="Times,serif" font-size="12.00">Avg. Perf: 9.12 F/ns</text>
</g>
<!-- potrf&#45;&gt;trsv -->
<g id="edge6" class="edge">
<title>potrf&#45;&gt;trsv</title>
<path fill="none" stroke="#000000" d="M98.42,-490.42C67.3,-477.33 32.84,-456.66 14.72,-425.43 -29.78,-348.73 38.87,-250.56 86.14,-196.68"/>
<polygon fill="#000000" stroke="#000000" points="88.18,-199.53 92.23,-189.74 82.96,-194.87 88.18,-199.53"/>
<text text-anchor="middle" x="14.72" y="-329.23" font-family="Times,serif" font-size="14.00">20</text>
</g>
<!-- gemv -->
<g id="node5" class="node">
<title>gemv</title>
<polygon fill="#ffffff" stroke="black" points="151.77,-67.91 23.67,-67.91 23.67,-2.31 151.77,-2.31 151.77,-67.91"/>
<text text-anchor="middle" x="87.72" y="-53.11" font-family="Times,serif" font-size="12.00">gemv (2/2)</text>
<text text-anchor="middle" x="87.72" y="-38.71" font-family="Times,serif" font-size="12.00">Num. Ranks: &#160;2&#45;2&#45;2</text>
<text text-anchor="middle" x="87.72" y="-24.31" font-family="Times,serif" font-size="12.00">Avg. FLOPs: 2.00e+05</text>
<text text-anchor="middle" x="87.72" y="-9.91" font-family="Times,serif" font-size="12.00">Avg. Perf: 15.24 F/ns</text>
</g>
<!-- gemv&#45;&gt;trsv -->
<g id="edge8" class="edge">
<title>gemv&#45;&gt;trsv</title>
<path fill="none" stroke="#000000" d="M82.83,-68.37C82.18,-80.17 82.81,-93.46 86.72,-105.03 87.65,-107.78 88.8,-110.5 90.12,-113.17"/>
<polygon fill="#000000" stroke="#000000" points="87.48,-114.61 95.49,-121.54 93.55,-111.13 87.48,-114.61"/>
<text text-anchor="middle" x="93.72" y="-92.43" font-family="Times,serif" font-size="14.00">20</text>
</g>
<!-- syrk&#45;&gt;potrf -->
<g id="edge5" class="edge">
<title>syrk&#45;&gt;potrf</title>
<path fill="none" stroke="#000000" d="M141.82,-307.2C149.15,-322.64 156.9,-341.71 160.72,-359.83 168.24,-395.51 168.15,-437.02 166.51,-467.35"/>
<polygon fill="#000000" stroke="#000000" points="162.97,-466.79 165.84,-476.99 169.96,-467.22 162.97,-466.79"/>
<text text-anchor="middle" x="174.72" y="-388.43" font-family="Times,serif" font-size="14.00">10</text>
</g>
<!-- syrk&#45;&gt;trsv -->
<g id="edge11" class="edge">
<title>syrk&#45;&gt;trsv</title>
<path fill="none" stroke="#000000" d="M124.72,-241.11C124.72,-228.26 124.72,-213.27 124.72,-199.53"/>
<polygon fill="#000000" stroke="#000000" points="128.22,-199.84 124.72,-189.84 121.22,-199.84 128.22,-199.84"/>
<text text-anchor="middle" x="131.72" y="-210.83" font-family="Times,serif" font-size="14.00">10</text>
</g>
<!-- trsv&#45;&gt;potrf -->
<g id="edge12" class="edge">
<title>trsv&#45;&gt;potrf</title>
<path fill="none" stroke="#000000" d="M162,-188.87C176.02,-203.33 190.35,-221.61 197.72,-241.43 226.07,-317.67 200.13,-413.5 180.32,-467.65"/>
<polygon fill="#000000" stroke="#000000" points="176.71,-466.31 176.46,-476.9 183.26,-468.78 176.71,-466.31"/>
<text text-anchor="middle" x="216.72" y="-329.23" font-family="Times,serif" font-size="14.00">10</text>
</g>
<!-- trsv&#45;&gt;gemv -->
<g id="edge7" class="edge">
<title>trsv&#45;&gt;gemv</title>
<path fill="none" stroke="#000000" d="M114.71,-122.7C110.47,-109.11 105.48,-93.08 100.94,-78.54"/>
<polygon fill="#000000" stroke="#000000" points="104.06,-77.77 97.74,-69.26 97.38,-79.85 104.06,-77.77"/>
<text text-anchor="middle" x="115.72" y="-92.43" font-family="Times,serif" font-size="14.00">20</text>
</g>
<!-- trsv&#45;&gt;trsv -->
<g id="edge9" class="edge">
<title>trsv&#45;&gt;trsv</title>
<path fill="none" stroke="#000000" d="M189.05,-166.1C199.55,-164.63 206.77,-161.2 206.77,-155.83 206.77,-152.55 204.09,-150 199.62,-148.17"/>
<polygon fill="#000000" stroke="#000000" points="200.6,-144.56 190.05,-145.56 198.92,-151.36 200.6,-144.56"/>
<text text-anchor="middle" x="213.77" y="-151.63" font-family="Times,serif" font-size="14.00">20</text>
</g>
<!-- &#9632; -->
<g id="node8" class="node">
<title>&#9632;</title>
<ellipse fill="none" stroke="black" cx="204.72" cy="-35.11" rx="31.11" ry="31.11"/>
<ellipse fill="none" stroke="black" cx="204.72" cy="-35.11" rx="35.11" ry="35.11"/>
<text text-anchor="middle" x="204.72" y="-26.11" font-family="Times,serif" font-size="30.00">■</text>
</g>
<!-- trsv&#45;&gt;&#9632; -->
<g id="edge13" class="edge">
<title>trsv&#45;&gt;&#9632;</title>
<path fill="none" stroke="#000000" d="M146.37,-122.7C156.58,-107.55 168.83,-89.37 179.46,-73.59"/>
<polygon fill="#000000" stroke="#000000" points="182.82,-75.87 185.51,-65.62 177.02,-71.95 182.82,-75.87"/>
<text text-anchor="middle" x="176.72" y="-92.43" font-family="Times,serif" font-size="14.00">20</text>
</g>
</g>
</svg>
