<?xml version="1.0" encoding="UTF-8" standalone="no"?>
<!DOCTYPE svg PUBLIC "-//W3C//DTD SVG 1.1//EN"
 "http://www.w3.org/Graphics/SVG/1.1/DTD/svg11.dtd">
<!-- Generated by graphviz version 8.1.0 (20230707.0739)
 -->
<!-- Pages: 1 -->
<svg width="774pt" height="1061pt"
 viewBox="0.00 0.00 774.00 1060.63" xmlns="http://www.w3.org/2000/svg" xmlns:xlink="http://www.w3.org/1999/xlink">
<g id="graph0" class="graph" transform="scale(1 1) rotate(0) translate(4 1056.63)">
<polygon fill="white" stroke="none" points="-4,4 -4,-1056.63 770,-1056.63 770,4 -4,4"/>
<!-- &#9679; -->
<g id="node1" class="node">
<title>&#9679;</title>
<ellipse fill="none" stroke="black" cx="429" cy="-1021.51" rx="31.11" ry="31.11"/>
<text text-anchor="middle" x="429" y="-1012.51" font-family="Times,serif" font-size="30.00">●</text>
</g>
<!-- transpose -->
<g id="node7" class="node">
<title>transpose</title>
<polygon fill="#ebebff" stroke="black" points="580.05,-937.6 451.95,-937.6 451.95,-857.6 580.05,-857.6 580.05,-937.6"/>
<text text-anchor="middle" x="516" y="-922.8" font-family="Times,serif" font-size="12.00">transpose (20/50)</text>
<text text-anchor="middle" x="516" y="-908.4" font-family="Times,serif" font-size="12.00">Rank score: 3.8</text>
<text text-anchor="middle" x="516" y="-894" font-family="Times,serif" font-size="12.00">Num. Ranks: &#160;2&#45;1&#45;1</text>
<text text-anchor="middle" x="516" y="-879.6" font-family="Times,serif" font-size="12.00">Avg. FLOPs: 1.00e+00</text>
<text text-anchor="middle" x="516" y="-865.2" font-family="Times,serif" font-size="12.00">Avg. Perf: 0.00 F/ns</text>
</g>
<!-- &#9679;&#45;&gt;transpose -->
<g id="edge1" class="edge">
<title>&#9679;&#45;&gt;transpose</title>
<path fill="none" stroke="#000000" d="M446.82,-995.55C456.89,-981.43 469.83,-963.3 481.79,-946.54"/>
<polygon fill="#000000" stroke="#000000" points="484.97,-949.11 487.93,-938.93 479.27,-945.04 484.97,-949.11"/>
<text text-anchor="middle" x="485.5" y="-959.8" font-family="Times,serif" font-size="14.00">200</text>
</g>
<!-- potrf -->
<g id="node8" class="node">
<title>potrf</title>
<polygon fill="#ffffff" stroke="black" points="493.05,-804.8 364.95,-804.8 364.95,-739.2 493.05,-739.2 493.05,-804.8"/>
<text text-anchor="middle" x="429" y="-790" font-family="Times,serif" font-size="12.00">potrf (50/50)</text>
<text text-anchor="middle" x="429" y="-775.6" font-family="Times,serif" font-size="12.00">Num. Ranks: &#160;4&#45;2&#45;2</text>
<text text-anchor="middle" x="429" y="-761.2" font-family="Times,serif" font-size="12.00">Avg. FLOPs: 2.01e+08</text>
<text text-anchor="middle" x="429" y="-746.8" font-family="Times,serif" font-size="12.00">Avg. Perf: 51.58 F/ns</text>
</g>
<!-- &#9679;&#45;&gt;potrf -->
<g id="edge2" class="edge">
<title>&#9679;&#45;&gt;potrf</title>
<path fill="none" stroke="#000000" d="M425.83,-990.23C424.34,-974.54 422.74,-955.06 422,-937.6 420.5,-902.08 420.53,-893.13 422,-857.6 422.56,-844.03 423.63,-829.26 424.76,-815.91"/>
<polygon fill="#000000" stroke="#000000" points="428.32,-816.37 425.72,-806.1 421.35,-815.75 428.32,-816.37"/>
<text text-anchor="middle" x="432.5" y="-893.4" font-family="Times,serif" font-size="14.00">300</text>
</g>
<!-- trsm -->
<g id="node2" class="node">
<title>trsm</title>
<polygon fill="#ffffff" stroke="black" points="576.05,-686.4 447.95,-686.4 447.95,-620.8 576.05,-620.8 576.05,-686.4"/>
<text text-anchor="middle" x="512" y="-671.6" font-family="Times,serif" font-size="12.00">trsm (50/50)</text>
<text text-anchor="middle" x="512" y="-657.2" font-family="Times,serif" font-size="12.00">Num. Ranks: &#160;8&#45;2&#45;2</text>
<text text-anchor="middle" x="512" y="-642.8" font-family="Times,serif" font-size="12.00">Avg. FLOPs: 1.00e+08</text>
<text text-anchor="middle" x="512" y="-628.4" font-family="Times,serif" font-size="12.00">Avg. Perf: 227.15 F/ns</text>
</g>
<!-- syrk -->
<g id="node3" class="node">
<title>syrk</title>
<polygon fill="#ffffff" stroke="black" points="340.05,-568 211.95,-568 211.95,-502.4 340.05,-502.4 340.05,-568"/>
<text text-anchor="middle" x="276" y="-553.2" font-family="Times,serif" font-size="12.00">syrk (50/50)</text>
<text text-anchor="middle" x="276" y="-538.8" font-family="Times,serif" font-size="12.00">Num. Ranks: &#160;8&#45;2&#45;2</text>
<text text-anchor="middle" x="276" y="-524.4" font-family="Times,serif" font-size="12.00">Avg. FLOPs: 1.00e+07</text>
<text text-anchor="middle" x="276" y="-510" font-family="Times,serif" font-size="12.00">Avg. Perf: 41.31 F/ns</text>
</g>
<!-- trsm&#45;&gt;syrk -->
<g id="edge13" class="edge">
<title>trsm&#45;&gt;syrk</title>
<path fill="none" stroke="#000000" d="M470.5,-620.62C453.84,-608.73 434.1,-595.77 415,-586 394.8,-575.67 371.95,-566.52 350.7,-558.99"/>
<polygon fill="#000000" stroke="#000000" points="352.01,-555.39 341.41,-555.42 349.71,-562 352.01,-555.39"/>
<text text-anchor="middle" x="453.5" y="-590.2" font-family="Times,serif" font-size="14.00">280</text>
</g>
<!-- gemv -->
<g id="node4" class="node">
<title>gemv</title>
<polygon fill="#ffffff" stroke="black" points="377.05,-449.6 248.95,-449.6 248.95,-384 377.05,-384 377.05,-449.6"/>
<text text-anchor="middle" x="313" y="-434.8" font-family="Times,serif" font-size="12.00">gemv (50/50)</text>
<text text-anchor="middle" x="313" y="-420.4" font-family="Times,serif" font-size="12.00">Num. Ranks: &#160;9&#45;6&#45;1</text>
<text text-anchor="middle" x="313" y="-406" font-family="Times,serif" font-size="12.00">Avg. FLOPs: 1.40e+05</text>
<text text-anchor="middle" x="313" y="-391.6" font-family="Times,serif" font-size="12.00">Avg. Perf: 13.10 F/ns</text>
</g>
<!-- trsm&#45;&gt;gemv -->
<g id="edge30" class="edge">
<title>trsm&#45;&gt;gemv</title>
<path fill="none" stroke="#000000" d="M515.77,-620.56C517.9,-587.9 516.3,-537.25 492,-502.4 467.74,-467.61 425.27,-446.7 387.8,-434.38"/>
<polygon fill="#000000" stroke="#000000" points="388.96,-430.76 378.38,-431.12 386.88,-437.45 388.96,-430.76"/>
<text text-anchor="middle" x="521" y="-531" font-family="Times,serif" font-size="14.00">50</text>
</g>
<!-- trsv -->
<g id="node6" class="node">
<title>trsv</title>
<polygon fill="#ffffff" stroke="black" points="577.05,-198.4 448.95,-198.4 448.95,-132.8 577.05,-132.8 577.05,-198.4"/>
<text text-anchor="middle" x="513" y="-183.6" font-family="Times,serif" font-size="12.00">trsv (50/50)</text>
<text text-anchor="middle" x="513" y="-169.2" font-family="Times,serif" font-size="12.00">Num. Ranks: &#160;5&#45;4&#45;2</text>
<text text-anchor="middle" x="513" y="-154.8" font-family="Times,serif" font-size="12.00">Avg. FLOPs: 5.02e+05</text>
<text text-anchor="middle" x="513" y="-140.4" font-family="Times,serif" font-size="12.00">Avg. Perf: 9.29 F/ns</text>
</g>
<!-- trsm&#45;&gt;trsv -->
<g id="edge5" class="edge">
<title>trsm&#45;&gt;trsv</title>
<path fill="none" stroke="#000000" d="M576.48,-622.07C607.48,-602.51 638,-573.72 638,-536.2 638,-536.2 638,-536.2 638,-290.2 638,-255.71 636.58,-242.48 614,-216.4 606.41,-207.63 596.91,-200.25 586.79,-194.09"/>
<polygon fill="#000000" stroke="#000000" points="588.8,-190.63 578.37,-188.76 585.36,-196.73 588.8,-190.63"/>
<text text-anchor="middle" x="648.5" y="-412.6" font-family="Times,serif" font-size="14.00">170</text>
</g>
<!-- syrk&#45;&gt;gemv -->
<g id="edge14" class="edge">
<title>syrk&#45;&gt;gemv</title>
<path fill="none" stroke="#000000" d="M272.6,-502.04C272.43,-490.89 273.39,-478.47 277,-467.6 277.91,-464.85 279.04,-462.12 280.32,-459.44"/>
<polygon fill="#000000" stroke="#000000" points="283.77,-461.44 285.55,-450.99 277.65,-458.04 283.77,-461.44"/>
<text text-anchor="middle" x="284" y="-471.8" font-family="Times,serif" font-size="14.00">90</text>
</g>
<!-- A = qr -->
<g id="node5" class="node">
<title>A = qr</title>
<polygon fill="#f5f5ff" stroke="black" points="274.05,-331.2 145.95,-331.2 145.95,-251.2 274.05,-251.2 274.05,-331.2"/>
<text text-anchor="middle" x="210" y="-316.4" font-family="Times,serif" font-size="12.00">A = qr (9/50)</text>
<text text-anchor="middle" x="210" y="-302" font-family="Times,serif" font-size="12.00">Rank score: 1.8</text>
<text text-anchor="middle" x="210" y="-287.6" font-family="Times,serif" font-size="12.00">Num. Ranks: &#160;2&#45;1&#45;1</text>
<text text-anchor="middle" x="210" y="-273.2" font-family="Times,serif" font-size="12.00">Avg. FLOPs: 2.67e+06</text>
<text text-anchor="middle" x="210" y="-258.8" font-family="Times,serif" font-size="12.00">Avg. Perf: 13.64 F/ns</text>
</g>
<!-- syrk&#45;&gt;A = qr -->
<g id="edge29" class="edge">
<title>syrk&#45;&gt;A = qr</title>
<path fill="none" stroke="#000000" d="M252.52,-502.04C242.65,-486.87 232.07,-468.08 226,-449.6 214.61,-414.94 210.73,-373.87 209.64,-342.37"/>
<polygon fill="#000000" stroke="#000000" points="213.12,-342.56 209.36,-332.66 206.12,-342.74 213.12,-342.56"/>
<text text-anchor="middle" x="233" y="-412.6" font-family="Times,serif" font-size="14.00">50</text>
</g>
<!-- syrk&#45;&gt;trsv -->
<g id="edge16" class="edge">
<title>syrk&#45;&gt;trsv</title>
<path fill="none" stroke="#000000" d="M233.49,-502.07C158.07,-441.33 16.09,-307.57 97,-216.4 119.22,-191.37 324.54,-176.59 438.18,-170.26"/>
<polygon fill="#000000" stroke="#000000" points="438.09,-173.71 447.88,-169.67 437.7,-166.72 438.09,-173.71"/>
<text text-anchor="middle" x="113.5" y="-353.4" font-family="Times,serif" font-size="14.00">130</text>
</g>
<!-- syrk&#45;&gt;potrf -->
<g id="edge8" class="edge">
<title>syrk&#45;&gt;potrf</title>
<path fill="none" stroke="#000000" d="M211.67,-549.8C192.42,-557.19 173.41,-568.56 162,-586 129.04,-636.37 130.12,-676.11 170,-721.2 193.86,-748.18 286.22,-760.81 353.87,-766.53"/>
<polygon fill="#000000" stroke="#000000" points="353.25,-770.08 363.5,-767.39 353.82,-763.1 353.25,-770.08"/>
<text text-anchor="middle" x="157.5" y="-649.4" font-family="Times,serif" font-size="14.00">180</text>
</g>
<!-- W, A = LAPACK.syev -->
<g id="node9" class="node">
<title>W, A = LAPACK.syev</title>
<polygon fill="#dbdbff" stroke="black" points="198.04,-80 37.96,-80 37.96,0 198.04,0 198.04,-80"/>
<text text-anchor="middle" x="118" y="-65.2" font-family="Times,serif" font-size="12.00">W, A = LAPACK.syev (8/50)</text>
<text text-anchor="middle" x="118" y="-50.8" font-family="Times,serif" font-size="12.00">Rank score: 6.9</text>
<text text-anchor="middle" x="118" y="-36.4" font-family="Times,serif" font-size="12.00">Num. Ranks: &#160;3&#45;2&#45;2</text>
<text text-anchor="middle" x="118" y="-22" font-family="Times,serif" font-size="12.00">Avg. FLOPs: 3.34e+06</text>
<text text-anchor="middle" x="118" y="-7.6" font-family="Times,serif" font-size="12.00">Avg. Perf: 2.32 F/ns</text>
</g>
<!-- syrk&#45;&gt;W, A = LAPACK.syev -->
<g id="edge28" class="edge">
<title>syrk&#45;&gt;W, A = LAPACK.syev</title>
<path fill="none" stroke="#000000" d="M211.64,-534C130.08,-529.96 0,-509.2 0,-417.8 0,-417.8 0,-417.8 0,-164.6 0,-133.68 19.55,-107.46 42.74,-87.22"/>
<polygon fill="#000000" stroke="#000000" points="44.61,-89.39 50.07,-80.32 40.14,-84.01 44.61,-89.39"/>
<text text-anchor="middle" x="7" y="-287" font-family="Times,serif" font-size="14.00">50</text>
</g>
<!-- gemv&#45;&gt;trsm -->
<g id="edge27" class="edge">
<title>gemv&#45;&gt;trsm</title>
<path fill="none" stroke="#000000" d="M377.25,-447.13C386.84,-453.1 396.13,-459.94 404,-467.6 446.18,-508.63 477.48,-569.61 495.23,-610.21"/>
<polygon fill="#000000" stroke="#000000" points="492.41,-611.51 499.56,-619.32 498.84,-608.75 492.41,-611.51"/>
<text text-anchor="middle" x="481" y="-531" font-family="Times,serif" font-size="14.00">20</text>
</g>
<!-- gemv&#45;&gt;syrk -->
<g id="edge24" class="edge">
<title>gemv&#45;&gt;syrk</title>
<path fill="none" stroke="#000000" d="M302.82,-449.81C298.7,-462.78 293.89,-477.93 289.48,-491.79"/>
<polygon fill="#000000" stroke="#000000" points="285.9,-490.49 286.21,-501.09 292.57,-492.62 285.9,-490.49"/>
<text text-anchor="middle" x="307.5" y="-471.8" font-family="Times,serif" font-size="14.00">100</text>
</g>
<!-- gemv&#45;&gt;gemv -->
<g id="edge19" class="edge">
<title>gemv&#45;&gt;gemv</title>
<path fill="none" stroke="#000000" d="M377.33,-427.07C387.83,-425.6 395.05,-422.18 395.05,-416.8 395.05,-413.52 392.37,-410.97 387.9,-409.15"/>
<polygon fill="#000000" stroke="#000000" points="388.88,-405.54 378.33,-406.53 387.2,-412.33 388.88,-405.54"/>
<text text-anchor="middle" x="402.05" y="-412.6" font-family="Times,serif" font-size="14.00">80</text>
</g>
<!-- gemv&#45;&gt;A = qr -->
<g id="edge25" class="edge">
<title>gemv&#45;&gt;A = qr</title>
<path fill="none" stroke="#000000" d="M287.37,-383.8C278.45,-372.78 268.35,-360.4 259,-349.2 256.47,-346.17 253.85,-343.05 251.2,-339.92"/>
<polygon fill="#000000" stroke="#000000" points="253.29,-337.98 244.15,-332.63 247.96,-342.52 253.29,-337.98"/>
<text text-anchor="middle" x="280" y="-353.4" font-family="Times,serif" font-size="14.00">30</text>
</g>
<!-- gemv&#45;&gt;trsv -->
<g id="edge10" class="edge">
<title>gemv&#45;&gt;trsv</title>
<path fill="none" stroke="#000000" d="M377.34,-400.27C414.84,-387.84 459.77,-366.48 486,-331.2 512.07,-296.13 516.79,-245.22 516.27,-209.32"/>
<polygon fill="#000000" stroke="#000000" points="519.75,-209.59 515.96,-199.7 512.75,-209.8 519.75,-209.59"/>
<text text-anchor="middle" x="524.5" y="-287" font-family="Times,serif" font-size="14.00">240</text>
</g>
<!-- gemv&#45;&gt;potrf -->
<g id="edge15" class="edge">
<title>gemv&#45;&gt;potrf</title>
<path fill="none" stroke="#000000" d="M327.71,-450C334.6,-465.65 342.67,-484.83 349,-502.4 377.32,-580.98 403.63,-674.96 417.9,-728.35"/>
<polygon fill="#000000" stroke="#000000" points="414.72,-729.02 420.67,-737.78 421.48,-727.22 414.72,-729.02"/>
<text text-anchor="middle" x="392.5" y="-590.2" font-family="Times,serif" font-size="14.00">100</text>
</g>
<!-- gemv&#45;&gt;W, A = LAPACK.syev -->
<g id="edge31" class="edge">
<title>gemv&#45;&gt;W, A = LAPACK.syev</title>
<path fill="none" stroke="#000000" d="M248.87,-385.88C199.3,-362.62 138.78,-333.84 137,-331.2 88.35,-259.17 96.54,-152.77 107.12,-90.81"/>
<polygon fill="#000000" stroke="#000000" points="110.72,-91.61 109.05,-81.15 103.83,-90.37 110.72,-91.61"/>
<text text-anchor="middle" x="110" y="-220.6" font-family="Times,serif" font-size="14.00">20</text>
</g>
<!-- x ./= A -->
<g id="node10" class="node">
<title>x ./= A</title>
<polygon fill="#dbdbff" stroke="black" points="477.05,-331.2 348.95,-331.2 348.95,-251.2 477.05,-251.2 477.05,-331.2"/>
<text text-anchor="middle" x="413" y="-316.4" font-family="Times,serif" font-size="12.00">x ./= A (8/50)</text>
<text text-anchor="middle" x="413" y="-302" font-family="Times,serif" font-size="12.00">Rank score: 6.9</text>
<text text-anchor="middle" x="413" y="-287.6" font-family="Times,serif" font-size="12.00">Num. Ranks: &#160;3&#45;1&#45;1</text>
<text text-anchor="middle" x="413" y="-273.2" font-family="Times,serif" font-size="12.00">Avg. FLOPs: 1.00e+02</text>
<text text-anchor="middle" x="413" y="-258.8" font-family="Times,serif" font-size="12.00">Avg. Perf: 0.39 F/ns</text>
</g>
<!-- gemv&#45;&gt;x ./= A -->
<g id="edge20" class="edge">
<title>gemv&#45;&gt;x ./= A</title>
<path fill="none" stroke="#000000" d="M353.25,-383.62C359.18,-378.05 364.98,-372.08 370,-366 376.31,-358.36 382.25,-349.68 387.6,-341.02"/>
<polygon fill="#000000" stroke="#000000" points="391.04,-343.07 393.14,-332.69 385.03,-339.49 391.04,-343.07"/>
<text text-anchor="middle" x="389" y="-353.4" font-family="Times,serif" font-size="14.00">80</text>
</g>
<!-- &#9632; -->
<g id="node11" class="node">
<title>&#9632;</title>
<ellipse fill="none" stroke="black" cx="663" cy="-40" rx="31.11" ry="31.11"/>
<ellipse fill="none" stroke="black" cx="663" cy="-40" rx="35.11" ry="35.11"/>
<text text-anchor="middle" x="663" y="-31" font-family="Times,serif" font-size="30.00">■</text>
</g>
<!-- gemv&#45;&gt;&#9632; -->
<g id="edge36" class="edge">
<title>gemv&#45;&gt;&#9632;</title>
<path fill="none" stroke="#000000" d="M377.52,-412.5C428.32,-407.61 499.56,-395.58 555,-366 629.26,-326.39 657.47,-310.82 690,-233.2 710.5,-184.27 695.58,-122.84 681.04,-82.78"/>
<polygon fill="#000000" stroke="#000000" points="684,-81.69 677.18,-73.58 677.45,-84.17 684,-81.69"/>
<text text-anchor="middle" x="702" y="-220.6" font-family="Times,serif" font-size="14.00">80</text>
</g>
<!-- A = qr&#45;&gt;gemv -->
<g id="edge26" class="edge">
<title>A = qr&#45;&gt;gemv</title>
<path fill="none" stroke="#000000" d="M221.79,-331.65C226.54,-343.48 232.86,-355.96 241,-366 243.99,-369.68 247.32,-373.21 250.87,-376.56"/>
<polygon fill="#000000" stroke="#000000" points="248.09,-379.66 257.92,-383.62 252.7,-374.39 248.09,-379.66"/>
<text text-anchor="middle" x="248" y="-353.4" font-family="Times,serif" font-size="14.00">80</text>
</g>
<!-- A = qr&#45;&gt;trsv -->
<g id="edge33" class="edge">
<title>A = qr&#45;&gt;trsv</title>
<path fill="none" stroke="#000000" d="M240.17,-251.03C251.92,-238.22 266.33,-225.06 282,-216.4 329.88,-189.93 390.57,-177.52 437.72,-171.71"/>
<polygon fill="#000000" stroke="#000000" points="437.95,-175.09 447.48,-170.47 437.14,-168.14 437.95,-175.09"/>
<text text-anchor="middle" x="289" y="-220.6" font-family="Times,serif" font-size="14.00">10</text>
</g>
<!-- trsv&#45;&gt;trsm -->
<g id="edge12" class="edge">
<title>trsv&#45;&gt;trsm</title>
<path fill="none" stroke="#000000" d="M540.94,-198.68C544.8,-204.31 548.35,-210.32 551,-216.4 557.27,-230.79 555.66,-235.56 557,-251.2 570.36,-407.36 565.12,-450.06 530,-602.8 529.44,-605.26 528.78,-607.76 528.07,-610.27"/>
<polygon fill="#000000" stroke="#000000" points="524.51,-608.94 524.87,-619.53 531.19,-611.02 524.51,-608.94"/>
<text text-anchor="middle" x="573.5" y="-412.6" font-family="Times,serif" font-size="14.00">210</text>
</g>
<!-- trsv&#45;&gt;syrk -->
<g id="edge7" class="edge">
<title>trsv&#45;&gt;syrk</title>
<path fill="none" stroke="#000000" d="M528.04,-198.78C541.74,-232.89 557.28,-287.73 539,-331.2 504.33,-413.63 415.19,-470.68 350.27,-502.85"/>
<polygon fill="#000000" stroke="#000000" points="348.94,-500.09 341.48,-507.61 352,-506.38 348.94,-500.09"/>
<text text-anchor="middle" x="540.5" y="-353.4" font-family="Times,serif" font-size="14.00">120</text>
</g>
<!-- trsv&#45;&gt;gemv -->
<g id="edge23" class="edge">
<title>trsv&#45;&gt;gemv</title>
<path fill="none" stroke="#000000" d="M448.86,-176.45C404.45,-186.92 348.27,-208.23 319,-251.2 294.78,-286.75 296.95,-337.36 302.86,-373.05"/>
<polygon fill="#000000" stroke="#000000" points="299.55,-373.41 304.79,-382.62 306.44,-372.15 299.55,-373.41"/>
<text text-anchor="middle" x="329.5" y="-287" font-family="Times,serif" font-size="14.00">200</text>
</g>
<!-- trsv&#45;&gt;A = qr -->
<g id="edge32" class="edge">
<title>trsv&#45;&gt;A = qr</title>
<path fill="none" stroke="#000000" d="M448.68,-170.88C377.38,-176.85 268.3,-190.07 237,-216.4 229.41,-222.78 223.95,-231.5 220.03,-240.7"/>
<polygon fill="#000000" stroke="#000000" points="216.49,-239.19 216.35,-249.78 223.06,-241.59 216.49,-239.19"/>
<text text-anchor="middle" x="244" y="-220.6" font-family="Times,serif" font-size="14.00">10</text>
</g>
<!-- trsv&#45;&gt;trsv -->
<g id="edge6" class="edge">
<title>trsv&#45;&gt;trsv</title>
<path fill="none" stroke="#000000" d="M577.33,-175.87C587.83,-174.4 595.05,-170.98 595.05,-165.6 595.05,-162.32 592.37,-159.77 587.9,-157.95"/>
<polygon fill="#000000" stroke="#000000" points="588.88,-154.34 578.33,-155.33 587.2,-161.13 588.88,-154.34"/>
<text text-anchor="middle" x="605.55" y="-161.4" font-family="Times,serif" font-size="14.00">470</text>
</g>
<!-- trsv&#45;&gt;potrf -->
<g id="edge22" class="edge">
<title>trsv&#45;&gt;potrf</title>
<path fill="none" stroke="#000000" d="M577.45,-169.29C619.84,-174.04 674.4,-186.18 713,-216.4 742.21,-239.27 752,-253.1 752,-290.2 752,-654.6 752,-654.6 752,-654.6 752,-699.51 716.26,-701.29 676,-721.2 622.12,-747.85 554.91,-760.24 504.21,-766"/>
<polygon fill="#000000" stroke="#000000" points="503.9,-762.62 494.33,-767.16 504.64,-769.58 503.9,-762.62"/>
<text text-anchor="middle" x="759" y="-471.8" font-family="Times,serif" font-size="14.00">50</text>
</g>
<!-- trsv&#45;&gt;W, A = LAPACK.syev -->
<g id="edge17" class="edge">
<title>trsv&#45;&gt;W, A = LAPACK.syev</title>
<path fill="none" stroke="#000000" d="M448.66,-144.47C383.41,-124.05 281.87,-92.28 208.52,-69.33"/>
<polygon fill="#000000" stroke="#000000" points="209.96,-65.79 199.37,-66.15 207.87,-72.47 209.96,-65.79"/>
<text text-anchor="middle" x="358" y="-102.2" font-family="Times,serif" font-size="14.00">10</text>
</g>
<!-- trsv&#45;&gt;&#9632; -->
<g id="edge35" class="edge">
<title>trsv&#45;&gt;&#9632;</title>
<path fill="none" stroke="#000000" d="M552.02,-132.45C575.57,-113.04 605.33,-88.52 628.1,-69.76"/>
<polygon fill="#000000" stroke="#000000" points="629.97,-71.93 635.46,-62.87 625.52,-66.53 629.97,-71.93"/>
<text text-anchor="middle" x="602.5" y="-102.2" font-family="Times,serif" font-size="14.00">420</text>
</g>
<!-- transpose&#45;&gt;potrf -->
<g id="edge3" class="edge">
<title>transpose&#45;&gt;potrf</title>
<path fill="none" stroke="#000000" d="M488.23,-857.15C478.52,-843.36 467.61,-827.85 457.82,-813.94"/>
<polygon fill="#000000" stroke="#000000" points="460.18,-812.22 451.57,-806.06 454.46,-816.25 460.18,-812.22"/>
<text text-anchor="middle" x="485.5" y="-827" font-family="Times,serif" font-size="14.00">200</text>
</g>
<!-- potrf&#45;&gt;trsm -->
<g id="edge4" class="edge">
<title>potrf&#45;&gt;trsm</title>
<path fill="none" stroke="#000000" d="M451.9,-738.89C461.52,-725.4 472.81,-709.56 483,-695.27"/>
<polygon fill="#000000" stroke="#000000" points="486.22,-697.78 489.17,-687.61 480.52,-693.72 486.22,-697.78"/>
<text text-anchor="middle" x="485.5" y="-708.6" font-family="Times,serif" font-size="14.00">270</text>
</g>
<!-- potrf&#45;&gt;gemv -->
<g id="edge9" class="edge">
<title>potrf&#45;&gt;gemv</title>
<path fill="none" stroke="#000000" d="M371.22,-738.8C316.31,-704.54 237.21,-644.71 203,-568 191.13,-541.37 190.12,-528.56 203,-502.4 211.97,-484.18 226.97,-468.78 243.04,-456.33"/>
<polygon fill="#000000" stroke="#000000" points="244.54,-458.83 250.52,-450.09 240.39,-453.2 244.54,-458.83"/>
<text text-anchor="middle" x="231.5" y="-590.2" font-family="Times,serif" font-size="14.00">100</text>
</g>
<!-- potrf&#45;&gt;trsv -->
<g id="edge11" class="edge">
<title>potrf&#45;&gt;trsv</title>
<path fill="none" stroke="#000000" d="M493.44,-768.98C569.86,-762.75 687,-739.37 687,-654.6 687,-654.6 687,-654.6 687,-475 687,-357.68 720.48,-295.68 634,-216.4 620.7,-204.21 604.01,-194.79 587.31,-187.6"/>
<polygon fill="#000000" stroke="#000000" points="589.08,-184.13 578.5,-183.61 586.45,-190.62 589.08,-184.13"/>
<text text-anchor="middle" x="697.5" y="-471.8" font-family="Times,serif" font-size="14.00">460</text>
</g>
<!-- W, A = LAPACK.syev&#45;&gt;gemv -->
<g id="edge18" class="edge">
<title>W, A = LAPACK.syev&#45;&gt;gemv</title>
<path fill="none" stroke="#000000" d="M92.31,-80.24C51.43,-148.07 -16.59,-287.48 58,-366 84.53,-393.93 187.42,-376.2 237.84,-383.21"/>
<polygon fill="#000000" stroke="#000000" points="237.12,-386.83 247.6,-385.33 238.47,-379.96 237.12,-386.83"/>
<text text-anchor="middle" x="39" y="-220.6" font-family="Times,serif" font-size="14.00">70</text>
</g>
<!-- W, A = LAPACK.syev&#45;&gt;trsv -->
<g id="edge34" class="edge">
<title>W, A = LAPACK.syev&#45;&gt;trsv</title>
<path fill="none" stroke="#000000" d="M198.32,-54.78C248.18,-64.42 313.16,-78.98 369,-98 392.96,-106.16 418.28,-117.05 440.89,-127.65"/>
<polygon fill="#000000" stroke="#000000" points="439.2,-131.19 449.73,-132.32 442.2,-124.87 439.2,-131.19"/>
<text text-anchor="middle" x="417" y="-102.2" font-family="Times,serif" font-size="14.00">10</text>
</g>
<!-- x ./= A&#45;&gt;gemv -->
<g id="edge21" class="edge">
<title>x ./= A&#45;&gt;gemv</title>
<path fill="none" stroke="#000000" d="M367.81,-331.56C362.22,-337.24 356.8,-343.2 352,-349.2 345.79,-356.96 339.91,-365.82 334.68,-374.48"/>
<polygon fill="#000000" stroke="#000000" points="331.29,-372.34 329.28,-382.74 337.34,-375.87 331.29,-372.34"/>
<text text-anchor="middle" x="359" y="-353.4" font-family="Times,serif" font-size="14.00">80</text>
</g>
</g>
</svg>
