<?xml version="1.0" encoding="UTF-8" standalone="no"?>
<!DOCTYPE svg PUBLIC "-//W3C//DTD SVG 1.1//EN"
 "http://www.w3.org/Graphics/SVG/1.1/DTD/svg11.dtd">
<!-- Generated by graphviz version 8.1.0 (20230707.0739)
 -->
<!-- Pages: 1 -->
<svg width="330pt" height="800pt"
 viewBox="0.00 0.00 330.19 799.65" xmlns="http://www.w3.org/2000/svg" xmlns:xlink="http://www.w3.org/1999/xlink">
<g id="graph0" class="graph" transform="scale(1 1) rotate(0) translate(4 795.65)">
<polygon fill="white" stroke="none" points="-4,4 -4,-795.65 326.19,-795.65 326.19,4 -4,4"/>
<!-- __START__ -->
<g id="node1" class="node">
<title>__START__</title>
<ellipse fill="none" stroke="black" cx="167.81" cy="-760.54" rx="31.11" ry="31.11"/>
<text text-anchor="start" x="156.56" y="-751.54" font-family="Times,serif" font-size="30.00">●</text>
</g>
<!-- potrf -->
<g id="node2" class="node">
<title>potrf</title>
<polygon fill="#ffffff" stroke="black" points="235.19,-543.83 100.43,-543.83 100.43,-478.23 235.19,-478.23 235.19,-543.83"/>
<text text-anchor="middle" x="167.81" y="-529.03" font-family="Times,serif" font-size="12.00">potrf (2/2)</text>
<text text-anchor="middle" x="167.81" y="-514.63" font-family="Times,serif" font-size="12.00">Num. Ranks: &#160;1&#45;1&#45;1</text>
<text text-anchor="middle" x="167.81" y="-500.23" font-family="Times,serif" font-size="12.00">Mean. FLOPs: 1.67e+08</text>
<text text-anchor="middle" x="167.81" y="-485.83" font-family="Times,serif" font-size="12.00">Mean. Perf: 43.53 F/ns</text>
</g>
<!-- __START__&#45;&gt;potrf -->
<g id="edge6" class="edge">
<title>__START__&#45;&gt;potrf</title>
<path fill="none" stroke="#000000" d="M164.86,-729.25C163.48,-713.56 161.99,-694.08 161.31,-676.63 159.92,-641.1 159.95,-632.15 161.31,-596.63 161.83,-583.06 162.82,-568.29 163.87,-554.95"/>
<polygon fill="#000000" stroke="#000000" points="167.43,-555.38 164.76,-545.13 160.45,-554.81 167.43,-555.38"/>
<text text-anchor="middle" x="170.56" y="-632.43" font-family="Times,serif" font-size="14.00">0.0</text>
</g>
<!-- transpose -->
<g id="node7" class="node">
<title>transpose</title>
<polygon fill="#ff9b9b" stroke="black" points="322.19,-676.63 187.43,-676.63 187.43,-596.63 322.19,-596.63 322.19,-676.63"/>
<text text-anchor="middle" x="254.81" y="-661.83" font-family="Times,serif" font-size="12.00">transpose (1/2)</text>
<text text-anchor="middle" x="254.81" y="-647.43" font-family="Times,serif" font-size="12.00">Rank score: 1.0</text>
<text text-anchor="middle" x="254.81" y="-633.03" font-family="Times,serif" font-size="12.00">Num. Ranks: &#160;1&#45;1&#45;1</text>
<text text-anchor="middle" x="254.81" y="-618.63" font-family="Times,serif" font-size="12.00">Mean. FLOPs: 1.00e+00</text>
<text text-anchor="middle" x="254.81" y="-604.23" font-family="Times,serif" font-size="12.00">Mean. Perf: 0.00 F/ns</text>
</g>
<!-- __START__&#45;&gt;transpose -->
<g id="edge7" class="edge">
<title>__START__&#45;&gt;transpose</title>
<path fill="none" stroke="#fe0000" d="M185.63,-734.57C195.7,-720.45 208.64,-702.32 220.6,-685.57"/>
<polygon fill="#fe0000" stroke="#fe0000" points="223.78,-688.13 226.74,-677.96 218.08,-684.07 223.78,-688.13"/>
<text text-anchor="middle" x="223.56" y="-698.83" font-family="Times,serif" font-size="14.00">1.0</text>
</g>
<!-- trsm -->
<g id="node3" class="node">
<title>trsm</title>
<polygon fill="#ffffff" stroke="black" points="158.19,-425.43 23.43,-425.43 23.43,-359.83 158.19,-359.83 158.19,-425.43"/>
<text text-anchor="middle" x="90.81" y="-410.63" font-family="Times,serif" font-size="12.00">trsm (2/2)</text>
<text text-anchor="middle" x="90.81" y="-396.23" font-family="Times,serif" font-size="12.00">Num. Ranks: &#160;2&#45;2&#45;2</text>
<text text-anchor="middle" x="90.81" y="-381.83" font-family="Times,serif" font-size="12.00">Mean. FLOPs: 1.00e+08</text>
<text text-anchor="middle" x="90.81" y="-367.43" font-family="Times,serif" font-size="12.00">Mean. Perf: 226.69 F/ns</text>
</g>
<!-- potrf&#45;&gt;trsm -->
<g id="edge2" class="edge">
<title>potrf&#45;&gt;trsm</title>
<path fill="none" stroke="#000000" d="M146.57,-477.91C137.73,-464.55 127.36,-448.88 117.98,-434.7"/>
<polygon fill="#000000" stroke="#000000" points="120.42,-433.04 111.98,-426.64 114.58,-436.91 120.42,-433.04"/>
<text text-anchor="middle" x="143.56" y="-447.63" font-family="Times,serif" font-size="14.00">0.0</text>
</g>
<!-- trsv -->
<g id="node6" class="node">
<title>trsv</title>
<polygon fill="#ffffff" stroke="black" points="198.19,-188.63 63.43,-188.63 63.43,-123.03 198.19,-123.03 198.19,-188.63"/>
<text text-anchor="middle" x="130.81" y="-173.83" font-family="Times,serif" font-size="12.00">trsv (2/2)</text>
<text text-anchor="middle" x="130.81" y="-159.43" font-family="Times,serif" font-size="12.00">Num. Ranks: &#160;1&#45;1&#45;1</text>
<text text-anchor="middle" x="130.81" y="-145.03" font-family="Times,serif" font-size="12.00">Mean. FLOPs: 4.34e+05</text>
<text text-anchor="middle" x="130.81" y="-130.63" font-family="Times,serif" font-size="12.00">Mean. Perf: 9.12 F/ns</text>
</g>
<!-- potrf&#45;&gt;trsv -->
<g id="edge11" class="edge">
<title>potrf&#45;&gt;trsv</title>
<path fill="none" stroke="#000000" d="M100.21,-490.49C68.38,-477.52 33.39,-456.93 14.81,-425.43 -30.47,-348.64 40.84,-250.91 90.17,-197.03"/>
<polygon fill="#000000" stroke="#000000" points="92.32,-199.79 96.58,-190.09 87.2,-195.02 92.32,-199.79"/>
<text text-anchor="middle" x="17.56" y="-329.23" font-family="Times,serif" font-size="14.00">0.0</text>
</g>
<!-- syrk -->
<g id="node4" class="node">
<title>syrk</title>
<polygon fill="#ffffff" stroke="black" points="198.19,-307.03 63.43,-307.03 63.43,-241.43 198.19,-241.43 198.19,-307.03"/>
<text text-anchor="middle" x="130.81" y="-292.23" font-family="Times,serif" font-size="12.00">syrk (2/2)</text>
<text text-anchor="middle" x="130.81" y="-277.83" font-family="Times,serif" font-size="12.00">Num. Ranks: &#160;2&#45;2&#45;2</text>
<text text-anchor="middle" x="130.81" y="-263.43" font-family="Times,serif" font-size="12.00">Mean. FLOPs: 1.00e+07</text>
<text text-anchor="middle" x="130.81" y="-249.03" font-family="Times,serif" font-size="12.00">Mean. Perf: 40.87 F/ns</text>
</g>
<!-- trsm&#45;&gt;syrk -->
<g id="edge12" class="edge">
<title>trsm&#45;&gt;syrk</title>
<path fill="none" stroke="#000000" d="M101.85,-359.51C106.31,-346.53 111.51,-331.38 116.28,-317.52"/>
<polygon fill="#000000" stroke="#000000" points="119.87,-318.83 119.81,-308.24 113.25,-316.56 119.87,-318.83"/>
<text text-anchor="middle" x="122.56" y="-329.23" font-family="Times,serif" font-size="14.00">0.0</text>
</g>
<!-- syrk&#45;&gt;potrf -->
<g id="edge5" class="edge">
<title>syrk&#45;&gt;potrf</title>
<path fill="none" stroke="#000000" d="M147.96,-307.19C155.31,-322.63 163.05,-341.7 166.81,-359.83 174.21,-395.53 173.83,-437.04 171.95,-467.36"/>
<polygon fill="#000000" stroke="#000000" points="168.42,-466.78 171.21,-477 175.4,-467.27 168.42,-466.78"/>
<text text-anchor="middle" x="182.56" y="-388.43" font-family="Times,serif" font-size="14.00">0.0</text>
</g>
<!-- syrk&#45;&gt;trsv -->
<g id="edge9" class="edge">
<title>syrk&#45;&gt;trsv</title>
<path fill="none" stroke="#fe0000" d="M130.81,-241.11C130.81,-228.26 130.81,-213.27 130.81,-199.53"/>
<polygon fill="#fe0000" stroke="#fe0000" points="134.31,-199.84 130.81,-189.84 127.31,-199.84 134.31,-199.84"/>
<text text-anchor="middle" x="139.56" y="-210.83" font-family="Times,serif" font-size="14.00">1.0</text>
</g>
<!-- gemv -->
<g id="node5" class="node">
<title>gemv</title>
<polygon fill="#ffffff" stroke="black" points="157.19,-67.91 22.43,-67.91 22.43,-2.31 157.19,-2.31 157.19,-67.91"/>
<text text-anchor="middle" x="89.81" y="-53.11" font-family="Times,serif" font-size="12.00">gemv (2/2)</text>
<text text-anchor="middle" x="89.81" y="-38.71" font-family="Times,serif" font-size="12.00">Num. Ranks: &#160;2&#45;2&#45;2</text>
<text text-anchor="middle" x="89.81" y="-24.31" font-family="Times,serif" font-size="12.00">Mean. FLOPs: 2.00e+05</text>
<text text-anchor="middle" x="89.81" y="-9.91" font-family="Times,serif" font-size="12.00">Mean. Perf: 15.24 F/ns</text>
</g>
<!-- gemv&#45;&gt;trsv -->
<g id="edge8" class="edge">
<title>gemv&#45;&gt;trsv</title>
<path fill="none" stroke="#000000" d="M86.3,-68.11C86.07,-80.01 87.13,-93.43 91.31,-105.03 92.31,-107.8 93.53,-110.54 94.92,-113.22"/>
<polygon fill="#000000" stroke="#000000" points="92.42,-114.85 100.56,-121.62 98.42,-111.25 92.42,-114.85"/>
<text text-anchor="middle" x="100.56" y="-92.43" font-family="Times,serif" font-size="14.00">0.0</text>
</g>
<!-- trsv&#45;&gt;potrf -->
<g id="edge1" class="edge">
<title>trsv&#45;&gt;potrf</title>
<path fill="none" stroke="#fe0000" d="M169.99,-188.99C184.46,-203.35 199.18,-221.51 206.81,-241.43 236.04,-317.69 207.81,-413.81 186.53,-467.94"/>
<polygon fill="#fe0000" stroke="#fe0000" points="183.02,-466.29 182.52,-476.87 189.51,-468.91 183.02,-466.29"/>
<text text-anchor="middle" x="227.56" y="-329.23" font-family="Times,serif" font-size="14.00">1.0</text>
</g>
<!-- trsv&#45;&gt;gemv -->
<g id="edge10" class="edge">
<title>trsv&#45;&gt;gemv</title>
<path fill="none" stroke="#000000" d="M120.38,-122.58C116.78,-111.65 112.69,-99.38 108.81,-88.23 107.72,-85.1 106.59,-81.87 105.43,-78.62"/>
<polygon fill="#000000" stroke="#000000" points="108.4,-77.53 101.72,-69.3 101.81,-79.9 108.4,-77.53"/>
<text text-anchor="middle" x="123.56" y="-92.43" font-family="Times,serif" font-size="14.00">0.0</text>
</g>
<!-- trsv&#45;&gt;trsv -->
<g id="edge13" class="edge">
<title>trsv&#45;&gt;trsv</title>
<path fill="none" stroke="#000000" d="M198.45,-166C209,-164.48 216.19,-161.09 216.19,-155.83 216.19,-152.62 213.52,-150.11 209.05,-148.29"/>
<polygon fill="#000000" stroke="#000000" points="210,-144.67 199.45,-145.65 208.31,-151.46 210,-144.67"/>
<text text-anchor="middle" x="224.94" y="-151.63" font-family="Times,serif" font-size="14.00">0.0</text>
</g>
<!-- __END__ -->
<g id="node8" class="node">
<title>__END__</title>
<ellipse fill="none" stroke="black" cx="209.81" cy="-35.11" rx="31.11" ry="31.11"/>
<ellipse fill="none" stroke="black" cx="209.81" cy="-35.11" rx="35.11" ry="35.11"/>
<text text-anchor="start" x="198.56" y="-26.11" font-family="Times,serif" font-size="30.00">■</text>
</g>
<!-- trsv&#45;&gt;__END__ -->
<g id="edge4" class="edge">
<title>trsv&#45;&gt;__END__</title>
<path fill="none" stroke="#000000" d="M152.19,-122.7C162.2,-107.66 174.19,-89.64 184.63,-73.95"/>
<polygon fill="#000000" stroke="#000000" points="187.95,-76.28 190.57,-66.02 182.12,-72.4 187.95,-76.28"/>
<text text-anchor="middle" x="184.56" y="-92.43" font-family="Times,serif" font-size="14.00">0.0</text>
</g>
<!-- transpose&#45;&gt;potrf -->
<g id="edge3" class="edge">
<title>transpose&#45;&gt;potrf</title>
<path fill="none" stroke="#fe0000" d="M227.04,-596.18C217.33,-582.38 206.42,-566.87 196.62,-552.96"/>
<polygon fill="#fe0000" stroke="#fe0000" points="198.99,-551.25 190.38,-545.09 193.27,-555.28 198.99,-551.25"/>
<text text-anchor="middle" x="223.56" y="-566.03" font-family="Times,serif" font-size="14.00">1.0</text>
</g>
</g>
</svg>
