<?xml version="1.0" encoding="UTF-8" standalone="no"?>
<!DOCTYPE svg PUBLIC "-//W3C//DTD SVG 1.1//EN"
 "http://www.w3.org/Graphics/SVG/1.1/DTD/svg11.dtd">
<!-- Generated by graphviz version 8.1.0 (20230707.0739)
 -->
<!-- Pages: 1 -->
<svg width="824pt" height="1065pt"
 viewBox="0.00 0.00 823.50 1065.25" xmlns="http://www.w3.org/2000/svg" xmlns:xlink="http://www.w3.org/1999/xlink">
<g id="graph0" class="graph" transform="scale(1 1) rotate(0) translate(4 1061.25)">
<polygon fill="white" stroke="none" points="-4,4 -4,-1061.25 819.5,-1061.25 819.5,4 -4,4"/>
<!-- __START__ -->
<g id="node1" class="node">
<title>__START__</title>
<ellipse fill="none" stroke="black" cx="660" cy="-1026.14" rx="31.11" ry="31.11"/>
<text text-anchor="start" x="648.75" y="-1017.14" font-family="Times,serif" font-size="30.00">●</text>
</g>
<!-- potrf -->
<g id="node6" class="node">
<title>potrf</title>
<polygon fill="#ffffff" stroke="black" points="727.38,-809.43 592.62,-809.43 592.62,-743.83 727.38,-743.83 727.38,-809.43"/>
<text text-anchor="middle" x="660" y="-794.63" font-family="Times,serif" font-size="12.00">potrf (50/50)</text>
<text text-anchor="middle" x="660" y="-780.23" font-family="Times,serif" font-size="12.00">Num. Ranks: &#160;4&#45;2&#45;2</text>
<text text-anchor="middle" x="660" y="-765.83" font-family="Times,serif" font-size="12.00">Mean. FLOPs: 2.01e+08</text>
<text text-anchor="middle" x="660" y="-751.43" font-family="Times,serif" font-size="12.00">Mean. Perf: 51.58 F/ns</text>
</g>
<!-- __START__&#45;&gt;potrf -->
<g id="edge7" class="edge">
<title>__START__&#45;&gt;potrf</title>
<path fill="none" stroke="#5d0000" d="M657.05,-994.85C655.67,-979.16 654.18,-959.68 653.5,-942.23 652.11,-906.7 652.14,-897.75 653.5,-862.23 654.02,-848.66 655.01,-833.89 656.06,-820.55"/>
<polygon fill="#5d0000" stroke="#5d0000" points="659.62,-820.98 656.95,-810.73 652.64,-820.41 659.62,-820.98"/>
<text text-anchor="middle" x="662.75" y="-898.03" font-family="Times,serif" font-size="14.00">2.6</text>
</g>
<!-- transpose -->
<g id="node7" class="node">
<title>transpose</title>
<polygon fill="#ffc8c8" stroke="black" points="814.38,-942.23 679.62,-942.23 679.62,-862.23 814.38,-862.23 814.38,-942.23"/>
<text text-anchor="middle" x="747" y="-927.43" font-family="Times,serif" font-size="12.00">transpose (20/50)</text>
<text text-anchor="middle" x="747" y="-913.03" font-family="Times,serif" font-size="12.00">Rank score: 3.8</text>
<text text-anchor="middle" x="747" y="-898.63" font-family="Times,serif" font-size="12.00">Num. Ranks: &#160;2&#45;1&#45;1</text>
<text text-anchor="middle" x="747" y="-884.23" font-family="Times,serif" font-size="12.00">Mean. FLOPs: 1.00e+00</text>
<text text-anchor="middle" x="747" y="-869.83" font-family="Times,serif" font-size="12.00">Mean. Perf: 0.00 F/ns</text>
</g>
<!-- __START__&#45;&gt;transpose -->
<g id="edge17" class="edge">
<title>__START__&#45;&gt;transpose</title>
<path fill="none" stroke="#880000" d="M677.82,-1000.17C687.89,-986.05 700.83,-967.92 712.79,-951.17"/>
<polygon fill="#880000" stroke="#880000" points="715.97,-953.73 718.93,-943.56 710.27,-949.67 715.97,-953.73"/>
<text text-anchor="middle" x="715.75" y="-964.43" font-family="Times,serif" font-size="14.00">3.8</text>
</g>
<!-- gemv -->
<g id="node2" class="node">
<title>gemv</title>
<polygon fill="#ffffff" stroke="black" points="447.38,-691.03 312.62,-691.03 312.62,-625.43 447.38,-625.43 447.38,-691.03"/>
<text text-anchor="middle" x="380" y="-676.23" font-family="Times,serif" font-size="12.00">gemv (50/50)</text>
<text text-anchor="middle" x="380" y="-661.83" font-family="Times,serif" font-size="12.00">Num. Ranks: &#160;9&#45;6&#45;1</text>
<text text-anchor="middle" x="380" y="-647.43" font-family="Times,serif" font-size="12.00">Mean. FLOPs: 1.40e+05</text>
<text text-anchor="middle" x="380" y="-633.03" font-family="Times,serif" font-size="12.00">Mean. Perf: 13.10 F/ns</text>
</g>
<!-- gemv&#45;&gt;gemv -->
<g id="edge3" class="edge">
<title>gemv&#45;&gt;gemv</title>
<path fill="none" stroke="#960000" d="M447.64,-668.4C458.19,-666.88 465.38,-663.49 465.38,-658.23 465.38,-655.02 462.71,-652.51 458.24,-650.69"/>
<polygon fill="#960000" stroke="#960000" points="459.19,-647.07 448.64,-648.05 457.5,-653.86 459.19,-647.07"/>
<text text-anchor="middle" x="474.13" y="-654.03" font-family="Times,serif" font-size="14.00">4.1</text>
</g>
<!-- A = qr -->
<g id="node3" class="node">
<title>A = qr</title>
<polygon fill="#ffe5e5" stroke="black" points="406.38,-572.63 271.62,-572.63 271.62,-492.63 406.38,-492.63 406.38,-572.63"/>
<text text-anchor="middle" x="339" y="-557.83" font-family="Times,serif" font-size="12.00">A = qr (9/50)</text>
<text text-anchor="middle" x="339" y="-543.43" font-family="Times,serif" font-size="12.00">Rank score: 1.8</text>
<text text-anchor="middle" x="339" y="-529.03" font-family="Times,serif" font-size="12.00">Num. Ranks: &#160;2&#45;1&#45;1</text>
<text text-anchor="middle" x="339" y="-514.63" font-family="Times,serif" font-size="12.00">Mean. FLOPs: 2.67e+06</text>
<text text-anchor="middle" x="339" y="-500.23" font-family="Times,serif" font-size="12.00">Mean. Perf: 13.64 F/ns</text>
</g>
<!-- gemv&#45;&gt;A = qr -->
<g id="edge24" class="edge">
<title>gemv&#45;&gt;A = qr</title>
<path fill="none" stroke="#3c0000" d="M349.74,-625.03C345.99,-619.5 342.7,-613.55 340.5,-607.43 337.82,-599.96 336.34,-591.8 335.65,-583.71"/>
<polygon fill="#3c0000" stroke="#3c0000" points="339.1,-583.61 335.15,-573.79 332.11,-583.94 339.1,-583.61"/>
<text text-anchor="middle" x="349.75" y="-594.83" font-family="Times,serif" font-size="14.00">1.7</text>
</g>
<!-- x ./= A -->
<g id="node4" class="node">
<title>x ./= A</title>
<polygon fill="#ff9b9b" stroke="black" points="559.38,-572.63 424.62,-572.63 424.62,-492.63 559.38,-492.63 559.38,-572.63"/>
<text text-anchor="middle" x="492" y="-557.83" font-family="Times,serif" font-size="12.00">x ./= A (8/50)</text>
<text text-anchor="middle" x="492" y="-543.43" font-family="Times,serif" font-size="12.00">Rank score: 6.9</text>
<text text-anchor="middle" x="492" y="-529.03" font-family="Times,serif" font-size="12.00">Num. Ranks: &#160;3&#45;1&#45;1</text>
<text text-anchor="middle" x="492" y="-514.63" font-family="Times,serif" font-size="12.00">Mean. FLOPs: 1.00e+02</text>
<text text-anchor="middle" x="492" y="-500.23" font-family="Times,serif" font-size="12.00">Mean. Perf: 0.39 F/ns</text>
</g>
<!-- gemv&#45;&gt;x ./= A -->
<g id="edge5" class="edge">
<title>gemv&#45;&gt;x ./= A</title>
<path fill="none" stroke="#fa0000" d="M409.13,-625.07C421.27,-611.68 435.62,-595.84 448.94,-581.15"/>
<polygon fill="#fa0000" stroke="#fa0000" points="451.09,-583.88 455.21,-574.12 445.9,-579.18 451.09,-583.88"/>
<text text-anchor="middle" x="448.75" y="-594.83" font-family="Times,serif" font-size="14.00">6.9</text>
</g>
<!-- trsv -->
<g id="node5" class="node">
<title>trsv</title>
<polygon fill="#ffffff" stroke="black" points="568.38,-439.83 433.62,-439.83 433.62,-374.23 568.38,-374.23 568.38,-439.83"/>
<text text-anchor="middle" x="501" y="-425.03" font-family="Times,serif" font-size="12.00">trsv (50/50)</text>
<text text-anchor="middle" x="501" y="-410.63" font-family="Times,serif" font-size="12.00">Num. Ranks: &#160;5&#45;4&#45;2</text>
<text text-anchor="middle" x="501" y="-396.23" font-family="Times,serif" font-size="12.00">Mean. FLOPs: 5.02e+05</text>
<text text-anchor="middle" x="501" y="-381.83" font-family="Times,serif" font-size="12.00">Mean. Perf: 9.29 F/ns</text>
</g>
<!-- gemv&#45;&gt;trsv -->
<g id="edge8" class="edge">
<title>gemv&#45;&gt;trsv</title>
<path fill="none" stroke="#4d0000" d="M447.62,-650.68C506.83,-643.54 586.77,-630 609,-607.43 655.65,-560.04 650.22,-510 609,-457.83 600.82,-447.47 589.99,-439.18 578.35,-432.57"/>
<polygon fill="#4d0000" stroke="#4d0000" points="580.36,-429.15 569.87,-427.63 577.12,-435.36 580.36,-429.15"/>
<text text-anchor="middle" x="650.75" y="-528.43" font-family="Times,serif" font-size="14.00">2.1</text>
</g>
<!-- gemv&#45;&gt;potrf -->
<g id="edge28" class="edge">
<title>gemv&#45;&gt;potrf</title>
<path fill="none" stroke="#620000" d="M447.87,-687.07C465.2,-694.21 483.8,-701.88 501,-709.03 527.48,-720.02 556.4,-732.11 582.23,-742.94"/>
<polygon fill="#620000" stroke="#620000" points="580.77,-746.54 591.34,-747.18 583.47,-740.08 580.77,-746.54"/>
<text text-anchor="middle" x="549.75" y="-713.23" font-family="Times,serif" font-size="14.00">2.7</text>
</g>
<!-- syrk -->
<g id="node8" class="node">
<title>syrk</title>
<polygon fill="#ffffff" stroke="black" points="394.38,-198.4 259.62,-198.4 259.62,-132.8 394.38,-132.8 394.38,-198.4"/>
<text text-anchor="middle" x="327" y="-183.6" font-family="Times,serif" font-size="12.00">syrk (50/50)</text>
<text text-anchor="middle" x="327" y="-169.2" font-family="Times,serif" font-size="12.00">Num. Ranks: &#160;8&#45;2&#45;2</text>
<text text-anchor="middle" x="327" y="-154.8" font-family="Times,serif" font-size="12.00">Mean. FLOPs: 1.00e+07</text>
<text text-anchor="middle" x="327" y="-140.4" font-family="Times,serif" font-size="12.00">Mean. Perf: 41.31 F/ns</text>
</g>
<!-- gemv&#45;&gt;syrk -->
<g id="edge22" class="edge">
<title>gemv&#45;&gt;syrk</title>
<path fill="none" stroke="#780000" d="M312.39,-652.2C282.06,-646.17 248.91,-633.54 230,-607.43 204.47,-572.16 231.77,-253.22 255,-216.4 257.26,-212.82 259.89,-209.42 262.77,-206.22"/>
<polygon fill="#780000" stroke="#780000" points="264.76,-209.18 269.39,-199.65 259.83,-204.21 264.76,-209.18"/>
<text text-anchor="middle" x="236.75" y="-402.83" font-family="Times,serif" font-size="14.00">3.3</text>
</g>
<!-- W, A = LAPACK.syev -->
<g id="node9" class="node">
<title>W, A = LAPACK.syev</title>
<polygon fill="#ff9b9b" stroke="black" points="407.04,-80 246.96,-80 246.96,0 407.04,0 407.04,-80"/>
<text text-anchor="middle" x="327" y="-65.2" font-family="Times,serif" font-size="12.00">W, A = LAPACK.syev (8/50)</text>
<text text-anchor="middle" x="327" y="-50.8" font-family="Times,serif" font-size="12.00">Rank score: 6.9</text>
<text text-anchor="middle" x="327" y="-36.4" font-family="Times,serif" font-size="12.00">Num. Ranks: &#160;3&#45;2&#45;2</text>
<text text-anchor="middle" x="327" y="-22" font-family="Times,serif" font-size="12.00">Mean. FLOPs: 3.34e+06</text>
<text text-anchor="middle" x="327" y="-7.6" font-family="Times,serif" font-size="12.00">Mean. Perf: 2.32 F/ns</text>
</g>
<!-- gemv&#45;&gt;W, A = LAPACK.syev -->
<g id="edge36" class="edge">
<title>gemv&#45;&gt;W, A = LAPACK.syev</title>
<path fill="none" stroke="#fe0000" d="M312.4,-653.95C252.7,-649.11 164.31,-637.13 93,-607.43 23.97,-578.67 0,-542 0,-467.23 0,-467.23 0,-467.23 0,-164.6 0,-113.93 139.14,-76.77 235.89,-57.06"/>
<polygon fill="#fe0000" stroke="#fe0000" points="236.47,-60.31 245.59,-54.91 235.1,-53.45 236.47,-60.31"/>
<text text-anchor="middle" x="8.75" y="-343.63" font-family="Times,serif" font-size="14.00">7.0</text>
</g>
<!-- trsm -->
<g id="node10" class="node">
<title>trsm</title>
<polygon fill="#ffffff" stroke="black" points="203.38,-319.11 68.62,-319.11 68.62,-253.51 203.38,-253.51 203.38,-319.11"/>
<text text-anchor="middle" x="136" y="-304.31" font-family="Times,serif" font-size="12.00">trsm (50/50)</text>
<text text-anchor="middle" x="136" y="-289.91" font-family="Times,serif" font-size="12.00">Num. Ranks: &#160;8&#45;2&#45;2</text>
<text text-anchor="middle" x="136" y="-275.51" font-family="Times,serif" font-size="12.00">Mean. FLOPs: 1.00e+08</text>
<text text-anchor="middle" x="136" y="-261.11" font-family="Times,serif" font-size="12.00">Mean. Perf: 227.15 F/ns</text>
</g>
<!-- gemv&#45;&gt;trsm -->
<g id="edge13" class="edge">
<title>gemv&#45;&gt;trsm</title>
<path fill="none" stroke="#5b0000" d="M312.48,-647.17C265.47,-638.76 208.38,-625.27 192,-607.43 173.45,-587.21 150.75,-412.83 140.92,-330.29"/>
<polygon fill="#5b0000" stroke="#5b0000" points="144.3,-330.03 139.65,-320.51 137.35,-330.85 144.3,-330.03"/>
<text text-anchor="middle" x="169.75" y="-462.03" font-family="Times,serif" font-size="14.00">2.5</text>
</g>
<!-- __END__ -->
<g id="node11" class="node">
<title>__END__</title>
<ellipse fill="none" stroke="black" cx="731" cy="-286.31" rx="31.11" ry="31.11"/>
<ellipse fill="none" stroke="black" cx="731" cy="-286.31" rx="35.11" ry="35.11"/>
<text text-anchor="start" x="719.75" y="-277.31" font-family="Times,serif" font-size="30.00">■</text>
</g>
<!-- gemv&#45;&gt;__END__ -->
<g id="edge18" class="edge">
<title>gemv&#45;&gt;__END__</title>
<path fill="none" stroke="#fa0000" d="M447.52,-656.38C532.38,-653.77 671.06,-643.87 705,-607.43 774.98,-532.29 757.74,-399.61 742.54,-331.05"/>
<polygon fill="#fa0000" stroke="#fa0000" points="745.8,-330.58 740.14,-321.62 738.97,-332.15 745.8,-330.58"/>
<text text-anchor="middle" x="764.75" y="-462.03" font-family="Times,serif" font-size="14.00">6.9</text>
</g>
<!-- A = qr&#45;&gt;gemv -->
<g id="edge34" class="edge">
<title>A = qr&#45;&gt;gemv</title>
<path fill="none" stroke="#3f0000" d="M352.1,-572.87C354.08,-578.82 356.09,-584.88 358,-590.63 360.59,-598.42 363.34,-606.73 365.99,-614.74"/>
<polygon fill="#3f0000" stroke="#3f0000" points="362.93,-615.64 369.39,-624.04 369.57,-613.45 362.93,-615.64"/>
<text text-anchor="middle" x="372.75" y="-594.83" font-family="Times,serif" font-size="14.00">1.8</text>
</g>
<!-- A = qr&#45;&gt;trsv -->
<g id="edge4" class="edge">
<title>A = qr&#45;&gt;trsv</title>
<path fill="none" stroke="#480000" d="M390.7,-492.18C409.73,-477.66 431.26,-461.24 450.21,-446.78"/>
<polygon fill="#480000" stroke="#480000" points="451.89,-449.13 457.72,-440.29 447.64,-443.57 451.89,-449.13"/>
<text text-anchor="middle" x="443.75" y="-462.03" font-family="Times,serif" font-size="14.00">2.0</text>
</g>
<!-- x ./= A&#45;&gt;gemv -->
<g id="edge21" class="edge">
<title>x ./= A&#45;&gt;gemv</title>
<path fill="none" stroke="#fa0000" d="M480.68,-572.97C475.94,-584.92 469.5,-597.51 461,-607.43 457.68,-611.3 453.99,-614.96 450.05,-618.4"/>
<polygon fill="#fa0000" stroke="#fa0000" points="448.26,-616.16 442.69,-625.17 452.66,-621.6 448.26,-616.16"/>
<text text-anchor="middle" x="481.75" y="-594.83" font-family="Times,serif" font-size="14.00">6.9</text>
</g>
<!-- trsv&#45;&gt;gemv -->
<g id="edge29" class="edge">
<title>trsv&#45;&gt;gemv</title>
<path fill="none" stroke="#700000" d="M534.91,-440.2C547.9,-454.8 561.23,-473.16 568,-492.63 579.69,-526.21 587.06,-542.61 568,-572.63 543.91,-610.57 498.22,-631.64 457.92,-643.27"/>
<polygon fill="#700000" stroke="#700000" points="457.26,-640.09 448.53,-646.1 459.1,-646.85 457.26,-640.09"/>
<text text-anchor="middle" x="588.75" y="-528.43" font-family="Times,serif" font-size="14.00">3.1</text>
</g>
<!-- trsv&#45;&gt;A = qr -->
<g id="edge16" class="edge">
<title>trsv&#45;&gt;A = qr</title>
<path fill="none" stroke="#240000" d="M433.28,-433.59C419.7,-440.35 406.07,-448.44 394.5,-457.83 385.45,-465.17 377.06,-474.3 369.68,-483.61"/>
<polygon fill="#240000" stroke="#240000" points="366.46,-481.07 363.21,-491.16 372.04,-485.3 366.46,-481.07"/>
<text text-anchor="middle" x="403.75" y="-462.03" font-family="Times,serif" font-size="14.00">1.0</text>
</g>
<!-- trsv&#45;&gt;trsv -->
<g id="edge1" class="edge">
<title>trsv&#45;&gt;trsv</title>
<path fill="none" stroke="#590000" d="M568.64,-417.2C579.19,-415.68 586.38,-412.29 586.38,-407.03 586.38,-403.82 583.71,-401.31 579.24,-399.49"/>
<polygon fill="#590000" stroke="#590000" points="580.19,-395.87 569.64,-396.85 578.5,-402.66 580.19,-395.87"/>
<text text-anchor="middle" x="595.13" y="-402.83" font-family="Times,serif" font-size="14.00">2.5</text>
</g>
<!-- trsv&#45;&gt;potrf -->
<g id="edge20" class="edge">
<title>trsv&#45;&gt;potrf</title>
<path fill="none" stroke="#5e0000" d="M568.61,-411.82C635.71,-417.17 731.8,-429.63 755,-457.83 822.77,-540.17 742.78,-669.68 693.34,-735.03"/>
<polygon fill="#5e0000" stroke="#5e0000" points="690.2,-732.37 686.88,-742.43 695.75,-736.64 690.2,-732.37"/>
<text text-anchor="middle" x="779.75" y="-594.83" font-family="Times,serif" font-size="14.00">2.6</text>
</g>
<!-- trsv&#45;&gt;syrk -->
<g id="edge11" class="edge">
<title>trsv&#45;&gt;syrk</title>
<path fill="none" stroke="#6a0000" d="M459.45,-373.83C453.03,-368.21 446.66,-362.24 441,-356.23 399.13,-311.75 365.29,-249.36 345.66,-208.47"/>
<polygon fill="#6a0000" stroke="#6a0000" points="348.41,-207.11 340.98,-199.56 342.08,-210.1 348.41,-207.11"/>
<text text-anchor="middle" x="420.75" y="-282.11" font-family="Times,serif" font-size="14.00">2.9</text>
</g>
<!-- trsv&#45;&gt;W, A = LAPACK.syev -->
<g id="edge31" class="edge">
<title>trsv&#45;&gt;W, A = LAPACK.syev</title>
<path fill="none" stroke="#fe0000" d="M514.75,-373.98C538.53,-313 578.97,-179.13 515,-98 491.74,-68.51 453.7,-53.84 417.9,-46.7"/>
<polygon fill="#fe0000" stroke="#fe0000" points="418.85,-43.13 408.38,-44.8 417.6,-50.02 418.85,-43.13"/>
<text text-anchor="middle" x="558.75" y="-220.6" font-family="Times,serif" font-size="14.00">7.0</text>
</g>
<!-- trsv&#45;&gt;trsm -->
<g id="edge6" class="edge">
<title>trsv&#45;&gt;trsm</title>
<path fill="none" stroke="#750000" d="M433.21,-393.78C390.76,-385.24 335.24,-372.47 287.5,-356.23 261.41,-347.35 233.74,-335.52 209.28,-324.18"/>
<polygon fill="#750000" stroke="#750000" points="210.91,-320.6 200.37,-319.52 207.93,-326.94 210.91,-320.6"/>
<text text-anchor="middle" x="296.75" y="-343.63" font-family="Times,serif" font-size="14.00">3.2</text>
</g>
<!-- trsv&#45;&gt;__END__ -->
<g id="edge9" class="edge">
<title>trsv&#45;&gt;__END__</title>
<path fill="none" stroke="#540000" d="M568.78,-397.4C603.69,-390.48 645.61,-378.14 678,-356.23 689.54,-348.42 699.65,-337.28 707.86,-326.23"/>
<polygon fill="#540000" stroke="#540000" points="711.14,-328.64 714.03,-318.45 705.42,-324.62 711.14,-328.64"/>
<text text-anchor="middle" x="704.75" y="-343.63" font-family="Times,serif" font-size="14.00">2.3</text>
</g>
<!-- potrf&#45;&gt;gemv -->
<g id="edge14" class="edge">
<title>potrf&#45;&gt;gemv</title>
<path fill="none" stroke="#570000" d="M592.14,-761.48C558.61,-753.25 518.04,-741.39 483.5,-725.83 466.24,-718.05 448.53,-707.67 432.74,-697.43"/>
<polygon fill="#570000" stroke="#570000" points="434.96,-694.04 424.69,-691.44 431.1,-699.88 434.96,-694.04"/>
<text text-anchor="middle" x="492.75" y="-713.23" font-family="Times,serif" font-size="14.00">2.4</text>
</g>
<!-- potrf&#45;&gt;trsv -->
<g id="edge19" class="edge">
<title>potrf&#45;&gt;trsv</title>
<path fill="none" stroke="#680000" d="M668.09,-743.58C680.09,-689.5 697.67,-577.72 663,-492.63 648.84,-457.86 613.16,-437.16 578.88,-424.95"/>
<polygon fill="#680000" stroke="#680000" points="580.39,-421.42 569.79,-421.57 578.17,-428.06 580.39,-421.42"/>
<text text-anchor="middle" x="692.75" y="-594.83" font-family="Times,serif" font-size="14.00">2.9</text>
</g>
<!-- potrf&#45;&gt;trsm -->
<g id="edge27" class="edge">
<title>potrf&#45;&gt;trsm</title>
<path fill="none" stroke="#6a0000" d="M592.42,-776.25C466.22,-773.19 198.48,-745.61 98.5,-572.63 54.05,-495.71 89.44,-387.98 115.21,-329.36"/>
<polygon fill="#6a0000" stroke="#6a0000" points="118.8,-330.91 119.73,-320.35 112.42,-328.03 118.8,-330.91"/>
<text text-anchor="middle" x="107.75" y="-528.43" font-family="Times,serif" font-size="14.00">2.9</text>
</g>
<!-- transpose&#45;&gt;potrf -->
<g id="edge2" class="edge">
<title>transpose&#45;&gt;potrf</title>
<path fill="none" stroke="#880000" d="M719.23,-861.78C709.52,-847.98 698.61,-832.47 688.82,-818.56"/>
<polygon fill="#880000" stroke="#880000" points="691.18,-816.85 682.57,-810.69 685.46,-820.88 691.18,-816.85"/>
<text text-anchor="middle" x="715.75" y="-831.63" font-family="Times,serif" font-size="14.00">3.8</text>
</g>
<!-- syrk&#45;&gt;gemv -->
<g id="edge26" class="edge">
<title>syrk&#45;&gt;gemv</title>
<path fill="none" stroke="#690000" d="M317.08,-198.61C291.83,-282.52 229.43,-506.93 263,-572.63 272.47,-591.16 288.1,-606.57 304.91,-618.93"/>
<polygon fill="#690000" stroke="#690000" points="302.57,-622.27 312.77,-625.12 306.58,-616.53 302.57,-622.27"/>
<text text-anchor="middle" x="280.75" y="-402.83" font-family="Times,serif" font-size="14.00">2.9</text>
</g>
<!-- syrk&#45;&gt;A = qr -->
<g id="edge10" class="edge">
<title>syrk&#45;&gt;A = qr</title>
<path fill="none" stroke="#480000" d="M326.4,-198.77C325.78,-233.48 324.85,-290.36 324.5,-339.43 324.45,-346.89 324.19,-348.77 324.5,-356.23 326.24,-398.51 330.35,-446.39 333.74,-481.42"/>
<polygon fill="#480000" stroke="#480000" points="330.35,-481.72 334.82,-491.32 337.32,-481.03 330.35,-481.72"/>
<text text-anchor="middle" x="333.75" y="-343.63" font-family="Times,serif" font-size="14.00">2.0</text>
</g>
<!-- syrk&#45;&gt;trsv -->
<g id="edge33" class="edge">
<title>syrk&#45;&gt;trsv</title>
<path fill="none" stroke="#720000" d="M377.05,-198.72C396.41,-213 417.57,-231.14 433,-251.2 447.17,-269.63 469.83,-324.49 485.05,-363.67"/>
<polygon fill="#720000" stroke="#720000" points="482.08,-364.69 488.94,-372.76 488.61,-362.17 482.08,-364.69"/>
<text text-anchor="middle" x="476.75" y="-282.11" font-family="Times,serif" font-size="14.00">3.2</text>
</g>
<!-- syrk&#45;&gt;potrf -->
<g id="edge15" class="edge">
<title>syrk&#45;&gt;potrf</title>
<path fill="none" stroke="#520000" d="M394.7,-181.96C459.5,-196.34 560.11,-217.87 648,-233.2 676.08,-238.1 755.57,-230.35 775,-251.2 783.5,-260.32 811.16,-523.57 793,-607.43 779.96,-667.62 766.45,-684.26 721,-725.83 717.07,-729.42 712.91,-733.08 708.7,-736.7"/>
<polygon fill="#520000" stroke="#520000" points="706.95,-734.44 701.57,-743.57 711.47,-739.79 706.95,-734.44"/>
<text text-anchor="middle" x="806.75" y="-462.03" font-family="Times,serif" font-size="14.00">2.3</text>
</g>
<!-- syrk&#45;&gt;W, A = LAPACK.syev -->
<g id="edge25" class="edge">
<title>syrk&#45;&gt;W, A = LAPACK.syev</title>
<path fill="none" stroke="#f70000" d="M327,-132.45C327,-119.92 327,-105.26 327,-91.39"/>
<polygon fill="#f70000" stroke="#f70000" points="330.5,-91.5 327,-81.5 323.5,-91.5 330.5,-91.5"/>
<text text-anchor="middle" x="335.75" y="-102.2" font-family="Times,serif" font-size="14.00">6.8</text>
</g>
<!-- W, A = LAPACK.syev&#45;&gt;gemv -->
<g id="edge23" class="edge">
<title>W, A = LAPACK.syev&#45;&gt;gemv</title>
<path fill="none" stroke="#fe0000" d="M246.5,-78.85C182.82,-113.69 98.45,-171.99 60,-251.2 28.78,-315.52 32.4,-514.48 74,-572.63 100.47,-609.63 220.06,-634.09 301.65,-646.8"/>
<polygon fill="#fe0000" stroke="#fe0000" points="300.99,-650.39 311.4,-648.44 302.04,-643.47 300.99,-650.39"/>
<text text-anchor="middle" x="50.75" y="-343.63" font-family="Times,serif" font-size="14.00">7.0</text>
</g>
<!-- W, A = LAPACK.syev&#45;&gt;trsv -->
<g id="edge32" class="edge">
<title>W, A = LAPACK.syev&#45;&gt;trsv</title>
<path fill="none" stroke="#da0000" d="M368.72,-80.31C407.19,-119.49 461.99,-183.44 487,-251.2 500.33,-287.32 503.15,-331.27 503.04,-363.11"/>
<polygon fill="#da0000" stroke="#da0000" points="499.53,-362.78 502.89,-372.83 506.53,-362.88 499.53,-362.78"/>
<text text-anchor="middle" x="487.75" y="-220.6" font-family="Times,serif" font-size="14.00">6.0</text>
</g>
<!-- trsm&#45;&gt;gemv -->
<g id="edge30" class="edge">
<title>trsm&#45;&gt;gemv</title>
<path fill="none" stroke="#6d0000" d="M128.01,-319.5C113.48,-386.79 91.87,-541.54 181,-607.43 215.69,-633.06 262.09,-645.59 301.37,-651.67"/>
<polygon fill="#6d0000" stroke="#6d0000" points="300.85,-655.28 311.24,-653.22 301.83,-648.35 300.85,-655.28"/>
<text text-anchor="middle" x="125.75" y="-462.03" font-family="Times,serif" font-size="14.00">3.0</text>
</g>
<!-- trsm&#45;&gt;trsv -->
<g id="edge35" class="edge">
<title>trsm&#45;&gt;trsv</title>
<path fill="none" stroke="#710000" d="M203.43,-297.36C245.72,-305.26 300.63,-318.51 346,-339.43 357.66,-344.8 358.18,-350.17 369.5,-356.23 386.31,-365.22 405.11,-373.36 423.11,-380.34"/>
<polygon fill="#710000" stroke="#710000" points="421.71,-383.93 432.3,-384.19 424.19,-377.38 421.71,-383.93"/>
<text text-anchor="middle" x="378.75" y="-343.63" font-family="Times,serif" font-size="14.00">3.1</text>
</g>
<!-- trsm&#45;&gt;syrk -->
<g id="edge12" class="edge">
<title>trsm&#45;&gt;syrk</title>
<path fill="none" stroke="#6d0000" d="M160.28,-253.14C171.17,-240.38 184.86,-226.4 199.5,-216.4 214.59,-206.09 232.12,-197.48 249.26,-190.48"/>
<polygon fill="#6d0000" stroke="#6d0000" points="250.26,-193.46 258.29,-186.54 247.7,-186.94 250.26,-193.46"/>
<text text-anchor="middle" x="208.75" y="-220.6" font-family="Times,serif" font-size="14.00">3.0</text>
</g>
</g>
</svg>
