<?xml version="1.0" encoding="UTF-8" standalone="no"?>
<!DOCTYPE svg PUBLIC "-//W3C//DTD SVG 1.1//EN"
 "http://www.w3.org/Graphics/SVG/1.1/DTD/svg11.dtd">
<!-- Generated by graphviz version 8.1.0 (20230707.0739)
 -->
<!-- Pages: 1 -->
<svg width="748pt" height="1075pt"
 viewBox="0.00 0.00 747.50 1075.03" xmlns="http://www.w3.org/2000/svg" xmlns:xlink="http://www.w3.org/1999/xlink">
<g id="graph0" class="graph" transform="scale(1 1) rotate(0) translate(4 1071.03)">
<polygon fill="white" stroke="none" points="-4,4 -4,-1071.03 743.5,-1071.03 743.5,4 -4,4"/>
<!-- __START__ -->
<g id="node1" class="node">
<title>__START__</title>
<ellipse fill="none" stroke="black" cx="514" cy="-1035.91" rx="31.11" ry="31.11"/>
<text text-anchor="start" x="502.75" y="-1026.91" font-family="Times,serif" font-size="30.00">●</text>
</g>
<!-- potrf -->
<g id="node4" class="node">
<title>potrf</title>
<polygon fill="#ffffff" stroke="black" points="581.38,-819.2 446.62,-819.2 446.62,-753.6 581.38,-753.6 581.38,-819.2"/>
<text text-anchor="middle" x="514" y="-804.4" font-family="Times,serif" font-size="12.00">potrf (50/50)</text>
<text text-anchor="middle" x="514" y="-790" font-family="Times,serif" font-size="12.00">Num. Ranks: &#160;4&#45;2&#45;2</text>
<text text-anchor="middle" x="514" y="-775.6" font-family="Times,serif" font-size="12.00">Mean. FLOPs: 2.01e+08</text>
<text text-anchor="middle" x="514" y="-761.2" font-family="Times,serif" font-size="12.00">Mean. Perf: 51.58 F/ns</text>
</g>
<!-- __START__&#45;&gt;potrf -->
<g id="edge1" class="edge">
<title>__START__&#45;&gt;potrf</title>
<path fill="none" stroke="#5d0000" d="M511.05,-1004.62C509.67,-988.94 508.18,-969.46 507.5,-952 506.11,-916.47 506.14,-907.53 507.5,-872 508.02,-858.43 509.01,-843.66 510.06,-830.32"/>
<polygon fill="#5d0000" stroke="#5d0000" points="513.62,-830.76 510.95,-820.5 506.64,-830.18 513.62,-830.76"/>
<text text-anchor="middle" x="516.75" y="-907.8" font-family="Times,serif" font-size="14.00">2.6</text>
</g>
<!-- transpose -->
<g id="node6" class="node">
<title>transpose</title>
<polygon fill="#ffc8c8" stroke="black" points="668.38,-952 533.62,-952 533.62,-872 668.38,-872 668.38,-952"/>
<text text-anchor="middle" x="601" y="-937.2" font-family="Times,serif" font-size="12.00">transpose (20/50)</text>
<text text-anchor="middle" x="601" y="-922.8" font-family="Times,serif" font-size="12.00">Rank score: 3.8</text>
<text text-anchor="middle" x="601" y="-908.4" font-family="Times,serif" font-size="12.00">Num. Ranks: &#160;2&#45;1&#45;1</text>
<text text-anchor="middle" x="601" y="-894" font-family="Times,serif" font-size="12.00">Mean. FLOPs: 1.00e+00</text>
<text text-anchor="middle" x="601" y="-879.6" font-family="Times,serif" font-size="12.00">Mean. Perf: 0.00 F/ns</text>
</g>
<!-- __START__&#45;&gt;transpose -->
<g id="edge16" class="edge">
<title>__START__&#45;&gt;transpose</title>
<path fill="none" stroke="#880000" d="M531.82,-1009.95C541.89,-995.83 554.83,-977.7 566.79,-960.94"/>
<polygon fill="#880000" stroke="#880000" points="569.97,-963.51 572.93,-953.33 564.27,-959.44 569.97,-963.51"/>
<text text-anchor="middle" x="569.75" y="-974.2" font-family="Times,serif" font-size="14.00">3.8</text>
</g>
<!-- trsm -->
<g id="node2" class="node">
<title>trsm</title>
<polygon fill="#ffffff" stroke="black" points="504.38,-700.8 369.62,-700.8 369.62,-635.2 504.38,-635.2 504.38,-700.8"/>
<text text-anchor="middle" x="437" y="-686" font-family="Times,serif" font-size="12.00">trsm (50/50)</text>
<text text-anchor="middle" x="437" y="-671.6" font-family="Times,serif" font-size="12.00">Num. Ranks: &#160;8&#45;2&#45;2</text>
<text text-anchor="middle" x="437" y="-657.2" font-family="Times,serif" font-size="12.00">Mean. FLOPs: 1.00e+08</text>
<text text-anchor="middle" x="437" y="-642.8" font-family="Times,serif" font-size="12.00">Mean. Perf: 227.15 F/ns</text>
</g>
<!-- trsv -->
<g id="node3" class="node">
<title>trsv</title>
<polygon fill="#ffffff" stroke="black" points="545.38,-582.4 410.62,-582.4 410.62,-516.8 545.38,-516.8 545.38,-582.4"/>
<text text-anchor="middle" x="478" y="-567.6" font-family="Times,serif" font-size="12.00">trsv (50/50)</text>
<text text-anchor="middle" x="478" y="-553.2" font-family="Times,serif" font-size="12.00">Num. Ranks: &#160;5&#45;4&#45;2</text>
<text text-anchor="middle" x="478" y="-538.8" font-family="Times,serif" font-size="12.00">Mean. FLOPs: 5.02e+05</text>
<text text-anchor="middle" x="478" y="-524.4" font-family="Times,serif" font-size="12.00">Mean. Perf: 9.29 F/ns</text>
</g>
<!-- trsm&#45;&gt;trsv -->
<g id="edge17" class="edge">
<title>trsm&#45;&gt;trsv</title>
<path fill="none" stroke="#710000" d="M433.61,-634.73C433.51,-623.57 434.61,-611.17 438.5,-600.4 439.5,-597.63 440.73,-594.89 442.11,-592.21"/>
<polygon fill="#710000" stroke="#710000" points="445.61,-594.18 447.76,-583.8 439.61,-590.58 445.61,-594.18"/>
<text text-anchor="middle" x="447.75" y="-604.6" font-family="Times,serif" font-size="14.00">3.1</text>
</g>
<!-- gemv -->
<g id="node8" class="node">
<title>gemv</title>
<polygon fill="#ffffff" stroke="black" points="303.38,-331.2 168.62,-331.2 168.62,-265.6 303.38,-265.6 303.38,-331.2"/>
<text text-anchor="middle" x="236" y="-316.4" font-family="Times,serif" font-size="12.00">gemv (50/50)</text>
<text text-anchor="middle" x="236" y="-302" font-family="Times,serif" font-size="12.00">Num. Ranks: &#160;9&#45;6&#45;1</text>
<text text-anchor="middle" x="236" y="-287.6" font-family="Times,serif" font-size="12.00">Mean. FLOPs: 1.40e+05</text>
<text text-anchor="middle" x="236" y="-273.2" font-family="Times,serif" font-size="12.00">Mean. Perf: 13.10 F/ns</text>
</g>
<!-- trsm&#45;&gt;gemv -->
<g id="edge14" class="edge">
<title>trsm&#45;&gt;gemv</title>
<path fill="none" stroke="#6d0000" d="M369.23,-654.67C320.09,-642.91 254.39,-621.08 208,-582.4 174.84,-554.75 169.91,-540.45 158.5,-498.8 140.82,-434.23 137.23,-403.77 176,-349.2 178.44,-345.76 181.18,-342.42 184.11,-339.21"/>
<polygon fill="#6d0000" stroke="#6d0000" points="186.18,-342.07 190.7,-332.49 181.19,-337.16 186.18,-342.07"/>
<text text-anchor="middle" x="167.75" y="-486.2" font-family="Times,serif" font-size="14.00">3.0</text>
</g>
<!-- syrk -->
<g id="node9" class="node">
<title>syrk</title>
<polygon fill="#ffffff" stroke="black" points="548.38,-205.6 413.62,-205.6 413.62,-140 548.38,-140 548.38,-205.6"/>
<text text-anchor="middle" x="481" y="-190.8" font-family="Times,serif" font-size="12.00">syrk (50/50)</text>
<text text-anchor="middle" x="481" y="-176.4" font-family="Times,serif" font-size="12.00">Num. Ranks: &#160;8&#45;2&#45;2</text>
<text text-anchor="middle" x="481" y="-162" font-family="Times,serif" font-size="12.00">Mean. FLOPs: 1.00e+07</text>
<text text-anchor="middle" x="481" y="-147.6" font-family="Times,serif" font-size="12.00">Mean. Perf: 41.31 F/ns</text>
</g>
<!-- trsm&#45;&gt;syrk -->
<g id="edge15" class="edge">
<title>trsm&#45;&gt;syrk</title>
<path fill="none" stroke="#6d0000" d="M504.66,-635.19C539.46,-617.75 577.21,-596.82 590,-582.4 666.29,-496.36 645.96,-446.04 652,-331.2 653.53,-302.08 666.97,-290.62 652,-265.6 631.61,-231.52 593.75,-209.36 558.83,-195.37"/>
<polygon fill="#6d0000" stroke="#6d0000" points="560.18,-191.76 549.59,-191.46 557.68,-198.3 560.18,-191.76"/>
<text text-anchor="middle" x="658.75" y="-419.8" font-family="Times,serif" font-size="14.00">3.0</text>
</g>
<!-- trsv&#45;&gt;trsm -->
<g id="edge23" class="edge">
<title>trsv&#45;&gt;trsm</title>
<path fill="none" stroke="#750000" d="M467.66,-582.88C464.08,-593.81 459.96,-606.07 456,-617.2 455.14,-619.63 454.24,-622.12 453.32,-624.62"/>
<polygon fill="#750000" stroke="#750000" points="449.69,-623.34 449.48,-633.93 456.25,-625.78 449.69,-623.34"/>
<text text-anchor="middle" x="470.75" y="-604.6" font-family="Times,serif" font-size="14.00">3.2</text>
</g>
<!-- trsv&#45;&gt;trsv -->
<g id="edge36" class="edge">
<title>trsv&#45;&gt;trsv</title>
<path fill="none" stroke="#590000" d="M545.64,-559.77C556.19,-558.25 563.38,-554.86 563.38,-549.6 563.38,-546.39 560.71,-543.88 556.24,-542.07"/>
<polygon fill="#590000" stroke="#590000" points="557.19,-538.45 546.64,-539.43 555.5,-545.24 557.19,-538.45"/>
<text text-anchor="middle" x="572.13" y="-545.4" font-family="Times,serif" font-size="14.00">2.5</text>
</g>
<!-- trsv&#45;&gt;potrf -->
<g id="edge28" class="edge">
<title>trsv&#45;&gt;potrf</title>
<path fill="none" stroke="#5e0000" d="M510.83,-582.83C523.21,-597.45 535.6,-615.79 541,-635.2 550.98,-671.05 541.88,-712.77 531.64,-743.13"/>
<polygon fill="#5e0000" stroke="#5e0000" points="528.05,-741.77 527.99,-752.36 534.64,-744.12 528.05,-741.77"/>
<text text-anchor="middle" x="554.75" y="-663.8" font-family="Times,serif" font-size="14.00">2.6</text>
</g>
<!-- A = qr -->
<g id="node5" class="node">
<title>A = qr</title>
<polygon fill="#ffe5e5" stroke="black" points="548.38,-80 413.62,-80 413.62,0 548.38,0 548.38,-80"/>
<text text-anchor="middle" x="481" y="-65.2" font-family="Times,serif" font-size="12.00">A = qr (9/50)</text>
<text text-anchor="middle" x="481" y="-50.8" font-family="Times,serif" font-size="12.00">Rank score: 1.8</text>
<text text-anchor="middle" x="481" y="-36.4" font-family="Times,serif" font-size="12.00">Num. Ranks: &#160;2&#45;1&#45;1</text>
<text text-anchor="middle" x="481" y="-22" font-family="Times,serif" font-size="12.00">Mean. FLOPs: 2.67e+06</text>
<text text-anchor="middle" x="481" y="-7.6" font-family="Times,serif" font-size="12.00">Mean. Perf: 13.64 F/ns</text>
</g>
<!-- trsv&#45;&gt;A = qr -->
<g id="edge20" class="edge">
<title>trsv&#45;&gt;A = qr</title>
<path fill="none" stroke="#240000" d="M523.27,-516.39C548.95,-494.08 576,-461.83 576,-425 576,-425 576,-425 576,-171.8 576,-140.04 557.44,-110.8 536.72,-88.06"/>
<polygon fill="#240000" stroke="#240000" points="539.76,-86.13 530.33,-81.29 534.69,-90.95 539.76,-86.13"/>
<text text-anchor="middle" x="584.75" y="-294.2" font-family="Times,serif" font-size="14.00">1.0</text>
</g>
<!-- trsv&#45;&gt;gemv -->
<g id="edge34" class="edge">
<title>trsv&#45;&gt;gemv</title>
<path fill="none" stroke="#700000" d="M455.99,-516.52C452.21,-510.69 448.41,-504.62 445,-498.8 441.38,-492.61 390.97,-389.17 386,-384 365.6,-362.79 338.71,-345.39 313.34,-331.99"/>
<polygon fill="#700000" stroke="#700000" points="315.21,-328.5 304.71,-327.06 312.01,-334.73 315.21,-328.5"/>
<text text-anchor="middle" x="435.75" y="-419.8" font-family="Times,serif" font-size="14.00">3.1</text>
</g>
<!-- trsv&#45;&gt;syrk -->
<g id="edge35" class="edge">
<title>trsv&#45;&gt;syrk</title>
<path fill="none" stroke="#6a0000" d="M488.87,-516.45C490.5,-510.63 491.97,-504.58 493,-498.8 513.9,-381.53 512.3,-348.65 495,-230.8 494.31,-226.08 493.4,-221.18 492.38,-216.32"/>
<polygon fill="#6a0000" stroke="#6a0000" points="495.63,-215.82 490,-206.84 488.8,-217.37 495.63,-215.82"/>
<text text-anchor="middle" x="517.75" y="-353.4" font-family="Times,serif" font-size="14.00">2.9</text>
</g>
<!-- W, A = LAPACK.syev -->
<g id="node10" class="node">
<title>W, A = LAPACK.syev</title>
<polygon fill="#ff9b9b" stroke="black" points="377.04,-464 216.96,-464 216.96,-384 377.04,-384 377.04,-464"/>
<text text-anchor="middle" x="297" y="-449.2" font-family="Times,serif" font-size="12.00">W, A = LAPACK.syev (8/50)</text>
<text text-anchor="middle" x="297" y="-434.8" font-family="Times,serif" font-size="12.00">Rank score: 6.9</text>
<text text-anchor="middle" x="297" y="-420.4" font-family="Times,serif" font-size="12.00">Num. Ranks: &#160;3&#45;2&#45;2</text>
<text text-anchor="middle" x="297" y="-406" font-family="Times,serif" font-size="12.00">Mean. FLOPs: 3.34e+06</text>
<text text-anchor="middle" x="297" y="-391.6" font-family="Times,serif" font-size="12.00">Mean. Perf: 2.32 F/ns</text>
</g>
<!-- trsv&#45;&gt;W, A = LAPACK.syev -->
<g id="edge8" class="edge">
<title>trsv&#45;&gt;W, A = LAPACK.syev</title>
<path fill="none" stroke="#fe0000" d="M410.34,-516.34C400.44,-510.87 390.54,-504.95 381.5,-498.8 369.45,-490.6 357.22,-480.89 345.95,-471.25"/>
<polygon fill="#fe0000" stroke="#fe0000" points="348.77,-468.2 338.93,-464.27 344.17,-473.48 348.77,-468.2"/>
<text text-anchor="middle" x="390.75" y="-486.2" font-family="Times,serif" font-size="14.00">7.0</text>
</g>
<!-- __END__ -->
<g id="node11" class="node">
<title>__END__</title>
<ellipse fill="none" stroke="black" cx="361" cy="-172.8" rx="31.11" ry="31.11"/>
<ellipse fill="none" stroke="black" cx="361" cy="-172.8" rx="35.11" ry="35.11"/>
<text text-anchor="start" x="349.75" y="-163.8" font-family="Times,serif" font-size="30.00">■</text>
</g>
<!-- trsv&#45;&gt;__END__ -->
<g id="edge3" class="edge">
<title>trsv&#45;&gt;__END__</title>
<path fill="none" stroke="#540000" d="M474.39,-516.5C466.22,-444.63 446.5,-276.22 440,-265.6 432.66,-253.61 424.02,-257.45 414,-247.6 403.33,-237.11 393.29,-224.27 384.89,-212.25"/>
<polygon fill="#540000" stroke="#540000" points="387.3,-210.58 378.79,-204.28 381.51,-214.52 387.3,-210.58"/>
<text text-anchor="middle" x="465.75" y="-353.4" font-family="Times,serif" font-size="14.00">2.3</text>
</g>
<!-- potrf&#45;&gt;trsm -->
<g id="edge29" class="edge">
<title>potrf&#45;&gt;trsm</title>
<path fill="none" stroke="#6a0000" d="M492.76,-753.29C483.92,-739.93 473.55,-724.26 464.17,-710.07"/>
<polygon fill="#6a0000" stroke="#6a0000" points="466.61,-708.42 458.18,-702.01 460.77,-712.28 466.61,-708.42"/>
<text text-anchor="middle" x="489.75" y="-723" font-family="Times,serif" font-size="14.00">2.9</text>
</g>
<!-- potrf&#45;&gt;trsv -->
<g id="edge7" class="edge">
<title>potrf&#45;&gt;trsv</title>
<path fill="none" stroke="#680000" d="M517.31,-753.39C519.65,-722.73 521.11,-675.33 513,-635.2 510.09,-620.8 504.72,-605.77 499.04,-592.44"/>
<polygon fill="#680000" stroke="#680000" points="501.93,-591.33 494.68,-583.62 495.54,-594.18 501.93,-591.33"/>
<text text-anchor="middle" x="528.75" y="-663.8" font-family="Times,serif" font-size="14.00">2.9</text>
</g>
<!-- potrf&#45;&gt;gemv -->
<g id="edge5" class="edge">
<title>potrf&#45;&gt;gemv</title>
<path fill="none" stroke="#570000" d="M446.23,-785.58C331.68,-784.7 105.77,-777.51 40,-735.6 10.88,-717.05 0,-703.53 0,-669 0,-669 0,-669 0,-423 0,-385.69 10.56,-372.12 40,-349.2 73.43,-323.18 118.88,-310.62 157.6,-304.62"/>
<polygon fill="#570000" stroke="#570000" points="157.92,-307.97 167.33,-303.1 156.94,-301.04 157.92,-307.97"/>
<text text-anchor="middle" x="8.75" y="-545.4" font-family="Times,serif" font-size="14.00">2.4</text>
</g>
<!-- A = qr&#45;&gt;trsv -->
<g id="edge21" class="edge">
<title>A = qr&#45;&gt;trsv</title>
<path fill="none" stroke="#480000" d="M548.52,-69.42C587.95,-91 630,-124.99 630,-171.8 630,-425 630,-425 630,-425 630,-468.11 592.73,-498.83 555.11,-518.87"/>
<polygon fill="#480000" stroke="#480000" points="553.88,-516.07 546.55,-523.73 557.05,-522.31 553.88,-516.07"/>
<text text-anchor="middle" x="638.75" y="-294.2" font-family="Times,serif" font-size="14.00">2.0</text>
</g>
<!-- A = qr&#45;&gt;gemv -->
<g id="edge18" class="edge">
<title>A = qr&#45;&gt;gemv</title>
<path fill="none" stroke="#3f0000" d="M413.43,-61.59C375.55,-76.15 329.94,-99.15 299.5,-132.8 295.15,-137.6 268.81,-207.96 251.45,-255.12"/>
<polygon fill="#3f0000" stroke="#3f0000" points="247.84,-253.79 247.68,-264.39 254.41,-256.21 247.84,-253.79"/>
<text text-anchor="middle" x="308.75" y="-168.6" font-family="Times,serif" font-size="14.00">1.8</text>
</g>
<!-- transpose&#45;&gt;potrf -->
<g id="edge10" class="edge">
<title>transpose&#45;&gt;potrf</title>
<path fill="none" stroke="#880000" d="M573.23,-871.55C563.52,-857.76 552.61,-842.25 542.82,-828.34"/>
<polygon fill="#880000" stroke="#880000" points="545.18,-826.62 536.57,-820.46 539.46,-830.65 545.18,-826.62"/>
<text text-anchor="middle" x="569.75" y="-841.4" font-family="Times,serif" font-size="14.00">3.8</text>
</g>
<!-- x ./= A -->
<g id="node7" class="node">
<title>x ./= A</title>
<polygon fill="#ff9b9b" stroke="black" points="200.38,-212.8 65.62,-212.8 65.62,-132.8 200.38,-132.8 200.38,-212.8"/>
<text text-anchor="middle" x="133" y="-198" font-family="Times,serif" font-size="12.00">x ./= A (8/50)</text>
<text text-anchor="middle" x="133" y="-183.6" font-family="Times,serif" font-size="12.00">Rank score: 6.9</text>
<text text-anchor="middle" x="133" y="-169.2" font-family="Times,serif" font-size="12.00">Num. Ranks: &#160;3&#45;1&#45;1</text>
<text text-anchor="middle" x="133" y="-154.8" font-family="Times,serif" font-size="12.00">Mean. FLOPs: 1.00e+02</text>
<text text-anchor="middle" x="133" y="-140.4" font-family="Times,serif" font-size="12.00">Mean. Perf: 0.39 F/ns</text>
</g>
<!-- x ./= A&#45;&gt;gemv -->
<g id="edge11" class="edge">
<title>x ./= A&#45;&gt;gemv</title>
<path fill="none" stroke="#fa0000" d="M165.91,-213.3C177.6,-227.32 190.75,-243.1 202.49,-257.18"/>
<polygon fill="#fa0000" stroke="#fa0000" points="200.12,-258.81 209.21,-264.25 205.49,-254.33 200.12,-258.81"/>
<text text-anchor="middle" x="202.75" y="-235" font-family="Times,serif" font-size="14.00">6.9</text>
</g>
<!-- gemv&#45;&gt;trsm -->
<g id="edge9" class="edge">
<title>gemv&#45;&gt;trsm</title>
<path fill="none" stroke="#5b0000" d="M202.67,-331.52C197.74,-337.14 192.98,-343.14 189,-349.2 179.75,-363.27 177.4,-367.51 174,-384 163.56,-434.61 158.1,-460.23 192.5,-498.8 241.44,-553.66 311.78,-599.62 364.46,-629.55"/>
<polygon fill="#5b0000" stroke="#5b0000" points="362.32,-632.93 372.75,-634.77 365.74,-626.82 362.32,-632.93"/>
<text text-anchor="middle" x="201.75" y="-486.2" font-family="Times,serif" font-size="14.00">2.5</text>
</g>
<!-- gemv&#45;&gt;trsv -->
<g id="edge27" class="edge">
<title>gemv&#45;&gt;trsv</title>
<path fill="none" stroke="#4d0000" d="M212.15,-331.52C188.9,-367.08 161.02,-424.59 190.5,-464 215.69,-497.67 323.7,-522.55 399.89,-536.32"/>
<polygon fill="#4d0000" stroke="#4d0000" points="398.96,-539.88 409.42,-538.19 400.18,-532.99 398.96,-539.88"/>
<text text-anchor="middle" x="199.75" y="-419.8" font-family="Times,serif" font-size="14.00">2.1</text>
</g>
<!-- gemv&#45;&gt;potrf -->
<g id="edge13" class="edge">
<title>gemv&#45;&gt;potrf</title>
<path fill="none" stroke="#620000" d="M168.23,-315.96C116.48,-333.12 54,-365.71 54,-423 54,-669 54,-669 54,-669 54,-746.72 303.92,-773.11 435.33,-781.61"/>
<polygon fill="#620000" stroke="#620000" points="434.93,-785.15 445.13,-782.29 435.36,-778.17 434.93,-785.15"/>
<text text-anchor="middle" x="62.75" y="-545.4" font-family="Times,serif" font-size="14.00">2.7</text>
</g>
<!-- gemv&#45;&gt;A = qr -->
<g id="edge6" class="edge">
<title>gemv&#45;&gt;A = qr</title>
<path fill="none" stroke="#3c0000" d="M230.75,-265.44C225.2,-218.97 223.43,-134.34 276,-98 313.38,-72.16 362.17,-57.99 402.77,-50.25"/>
<polygon fill="#3c0000" stroke="#3c0000" points="403.23,-53.54 412.45,-48.32 401.98,-46.65 403.23,-53.54"/>
<text text-anchor="middle" x="254.75" y="-168.6" font-family="Times,serif" font-size="14.00">1.7</text>
</g>
<!-- gemv&#45;&gt;x ./= A -->
<g id="edge33" class="edge">
<title>gemv&#45;&gt;x ./= A</title>
<path fill="none" stroke="#fa0000" d="M178.27,-265.1C171.72,-259.84 165.58,-253.99 160.5,-247.6 154.75,-240.37 150.12,-231.82 146.41,-223.14"/>
<polygon fill="#fa0000" stroke="#fa0000" points="149.35,-222.04 142.48,-213.97 142.82,-224.56 149.35,-222.04"/>
<text text-anchor="middle" x="169.75" y="-235" font-family="Times,serif" font-size="14.00">6.9</text>
</g>
<!-- gemv&#45;&gt;gemv -->
<g id="edge25" class="edge">
<title>gemv&#45;&gt;gemv</title>
<path fill="none" stroke="#960000" d="M303.64,-308.57C314.19,-307.05 321.38,-303.66 321.38,-298.4 321.38,-295.19 318.71,-292.68 314.24,-290.87"/>
<polygon fill="#960000" stroke="#960000" points="315.19,-287.25 304.64,-288.23 313.5,-294.04 315.19,-287.25"/>
<text text-anchor="middle" x="330.13" y="-294.2" font-family="Times,serif" font-size="14.00">4.1</text>
</g>
<!-- gemv&#45;&gt;syrk -->
<g id="edge24" class="edge">
<title>gemv&#45;&gt;syrk</title>
<path fill="none" stroke="#780000" d="M303.53,-265.16C314.8,-259.48 326.3,-253.49 337,-247.6 349.55,-240.69 351.82,-237.46 364.5,-230.8 381.94,-221.65 387.23,-221.3 405,-212.8 406.42,-212.12 407.86,-211.43 409.3,-210.73"/>
<polygon fill="#780000" stroke="#780000" points="410.49,-213.55 417.93,-206.01 407.41,-207.27 410.49,-213.55"/>
<text text-anchor="middle" x="373.75" y="-235" font-family="Times,serif" font-size="14.00">3.3</text>
</g>
<!-- gemv&#45;&gt;W, A = LAPACK.syev -->
<g id="edge31" class="edge">
<title>gemv&#45;&gt;W, A = LAPACK.syev</title>
<path fill="none" stroke="#fe0000" d="M255.44,-331.51C258.75,-337.33 262.07,-343.4 265,-349.2 268.94,-357 272.87,-365.39 276.55,-373.62"/>
<polygon fill="#fe0000" stroke="#fe0000" points="273.68,-374.79 280.91,-382.53 280.09,-371.97 273.68,-374.79"/>
<text text-anchor="middle" x="281.75" y="-353.4" font-family="Times,serif" font-size="14.00">7.0</text>
</g>
<!-- gemv&#45;&gt;__END__ -->
<g id="edge30" class="edge">
<title>gemv&#45;&gt;__END__</title>
<path fill="none" stroke="#fa0000" d="M280.86,-265.25C287.83,-259.63 294.78,-253.64 301,-247.6 312.74,-236.19 324.38,-222.56 334.25,-210.13"/>
<polygon fill="#fa0000" stroke="#fa0000" points="337.38,-212.79 340.77,-202.75 331.86,-208.49 337.38,-212.79"/>
<text text-anchor="middle" x="324.75" y="-235" font-family="Times,serif" font-size="14.00">6.9</text>
</g>
<!-- syrk&#45;&gt;trsv -->
<g id="edge4" class="edge">
<title>syrk&#45;&gt;trsv</title>
<path fill="none" stroke="#720000" d="M480.74,-205.87C480.2,-273.3 478.95,-429.78 478.34,-505.72"/>
<polygon fill="#720000" stroke="#720000" points="474.84,-505.29 478.26,-515.32 481.84,-505.35 474.84,-505.29"/>
<text text-anchor="middle" x="488.75" y="-353.4" font-family="Times,serif" font-size="14.00">3.2</text>
</g>
<!-- syrk&#45;&gt;potrf -->
<g id="edge32" class="edge">
<title>syrk&#45;&gt;potrf</title>
<path fill="none" stroke="#520000" d="M548.77,-179.85C620.06,-190.37 722,-219.11 722,-297.4 722,-669 722,-669 722,-669 722,-730.78 651.27,-760.09 592.3,-773.79"/>
<polygon fill="#520000" stroke="#520000" points="591.83,-770.53 582.82,-776.09 593.34,-777.36 591.83,-770.53"/>
<text text-anchor="middle" x="730.75" y="-486.2" font-family="Times,serif" font-size="14.00">2.3</text>
</g>
<!-- syrk&#45;&gt;A = qr -->
<g id="edge26" class="edge">
<title>syrk&#45;&gt;A = qr</title>
<path fill="none" stroke="#480000" d="M481,-139.8C481,-125.04 481,-107.17 481,-90.7"/>
<polygon fill="#480000" stroke="#480000" points="484.5,-91.14 481,-81.14 477.5,-91.14 484.5,-91.14"/>
<text text-anchor="middle" x="489.75" y="-102.2" font-family="Times,serif" font-size="14.00">2.0</text>
</g>
<!-- syrk&#45;&gt;gemv -->
<g id="edge2" class="edge">
<title>syrk&#45;&gt;gemv</title>
<path fill="none" stroke="#690000" d="M445.57,-206.01C428.51,-220.24 407.19,-236.29 386,-247.6 363.65,-259.54 337.91,-269.34 314.13,-277"/>
<polygon fill="#690000" stroke="#690000" points="313.22,-273.93 304.72,-280.26 315.31,-280.61 313.22,-273.93"/>
<text text-anchor="middle" x="420.75" y="-235" font-family="Times,serif" font-size="14.00">2.9</text>
</g>
<!-- syrk&#45;&gt;W, A = LAPACK.syev -->
<g id="edge12" class="edge">
<title>syrk&#45;&gt;W, A = LAPACK.syev</title>
<path fill="none" stroke="#f70000" d="M461.01,-205.79C452.6,-218.91 442.57,-234.15 433,-247.6 401.61,-291.75 363.68,-340.31 335.86,-375.11"/>
<polygon fill="#f70000" stroke="#f70000" points="332.54,-372.66 329.02,-382.66 338,-377.04 332.54,-372.66"/>
<text text-anchor="middle" x="428.75" y="-294.2" font-family="Times,serif" font-size="14.00">6.8</text>
</g>
<!-- W, A = LAPACK.syev&#45;&gt;trsv -->
<g id="edge22" class="edge">
<title>W, A = LAPACK.syev&#45;&gt;trsv</title>
<path fill="none" stroke="#da0000" d="M312.53,-464.4C319,-476.78 327.6,-489.61 338.5,-498.8 356.06,-513.61 378.36,-524.15 399.95,-531.6"/>
<polygon fill="#da0000" stroke="#da0000" points="398.54,-535.15 409.13,-534.91 400.7,-528.49 398.54,-535.15"/>
<text text-anchor="middle" x="347.75" y="-486.2" font-family="Times,serif" font-size="14.00">6.0</text>
</g>
<!-- W, A = LAPACK.syev&#45;&gt;gemv -->
<g id="edge19" class="edge">
<title>W, A = LAPACK.syev&#45;&gt;gemv</title>
<path fill="none" stroke="#fe0000" d="M258.12,-383.5C254.05,-377.93 250.37,-372.04 247.5,-366 244.04,-358.71 241.61,-350.54 239.91,-342.47"/>
<polygon fill="#fe0000" stroke="#fe0000" points="243.18,-341.89 238,-332.64 236.29,-343.1 243.18,-341.89"/>
<text text-anchor="middle" x="256.75" y="-353.4" font-family="Times,serif" font-size="14.00">7.0</text>
</g>
</g>
</svg>
