<?xml version="1.0" encoding="UTF-8" standalone="no"?>
<!DOCTYPE svg PUBLIC "-//W3C//DTD SVG 1.1//EN"
 "http://www.w3.org/Graphics/SVG/1.1/DTD/svg11.dtd">
<!-- Generated by graphviz version 8.1.0 (20230707.0739)
 -->
<!-- Pages: 1 -->
<svg width="485pt" height="800pt"
 viewBox="0.00 0.00 485.04 799.65" xmlns="http://www.w3.org/2000/svg" xmlns:xlink="http://www.w3.org/1999/xlink">
<g id="graph0" class="graph" transform="scale(1 1) rotate(0) translate(4 795.65)">
<polygon fill="white" stroke="none" points="-4,4 -4,-795.65 481.04,-795.65 481.04,4 -4,4"/>
<!-- &#9679; -->
<g id="node1" class="node">
<title>&#9679;</title>
<ellipse fill="none" stroke="black" cx="286.04" cy="-760.54" rx="31.11" ry="31.11"/>
<text text-anchor="middle" x="286.04" y="-751.54" font-family="Times,serif" font-size="30.00">●</text>
</g>
<!-- transpose -->
<g id="node3" class="node">
<title>transpose</title>
<polygon fill="#9b9bff" stroke="black" points="275.09,-676.63 146.99,-676.63 146.99,-596.63 275.09,-596.63 275.09,-676.63"/>
<text text-anchor="middle" x="211.04" y="-661.83" font-family="Times,serif" font-size="12.00">transpose (7/20)</text>
<text text-anchor="middle" x="211.04" y="-647.43" font-family="Times,serif" font-size="12.00">Rank score: 5.1</text>
<text text-anchor="middle" x="211.04" y="-633.03" font-family="Times,serif" font-size="12.00">Num. Ranks: &#160;1&#45;1&#45;1</text>
<text text-anchor="middle" x="211.04" y="-618.63" font-family="Times,serif" font-size="12.00">Avg. FLOPs: 1.00e+00</text>
<text text-anchor="middle" x="211.04" y="-604.23" font-family="Times,serif" font-size="12.00">Avg. Perf: 0.00 F/ns</text>
</g>
<!-- &#9679;&#45;&gt;transpose -->
<g id="edge1" class="edge">
<title>&#9679;&#45;&gt;transpose</title>
<path fill="none" stroke="#000000" d="M269.95,-733.38C261.46,-719.58 250.77,-702.2 240.83,-686.04"/>
<polygon fill="#000000" stroke="#000000" points="243.31,-684.39 235.09,-677.71 237.34,-688.06 243.31,-684.39"/>
<text text-anchor="middle" x="263.04" y="-698.83" font-family="Times,serif" font-size="14.00">70</text>
</g>
<!-- potrf -->
<g id="node4" class="node">
<title>potrf</title>
<polygon fill="#ffffff" stroke="black" points="342.09,-543.83 213.99,-543.83 213.99,-478.23 342.09,-478.23 342.09,-543.83"/>
<text text-anchor="middle" x="278.04" y="-529.03" font-family="Times,serif" font-size="12.00">potrf (20/20)</text>
<text text-anchor="middle" x="278.04" y="-514.63" font-family="Times,serif" font-size="12.00">Num. Ranks: &#160;1&#45;1&#45;1</text>
<text text-anchor="middle" x="278.04" y="-500.23" font-family="Times,serif" font-size="12.00">Avg. FLOPs: 1.67e+08</text>
<text text-anchor="middle" x="278.04" y="-485.83" font-family="Times,serif" font-size="12.00">Avg. Perf: 43.57 F/ns</text>
</g>
<!-- &#9679;&#45;&gt;potrf -->
<g id="edge2" class="edge">
<title>&#9679;&#45;&gt;potrf</title>
<path fill="none" stroke="#000000" d="M286.2,-729.2C286.24,-696.47 285.96,-642.83 284.04,-596.63 283.48,-583.06 282.54,-568.3 281.57,-554.95"/>
<polygon fill="#000000" stroke="#000000" points="285,-554.85 280.76,-545.14 278.02,-555.37 285,-554.85"/>
<text text-anchor="middle" x="295.54" y="-632.43" font-family="Times,serif" font-size="14.00">130</text>
</g>
<!-- gemv -->
<g id="node2" class="node">
<title>gemv</title>
<polygon fill="#ffffff" stroke="black" points="247.09,-425.43 118.99,-425.43 118.99,-359.83 247.09,-359.83 247.09,-425.43"/>
<text text-anchor="middle" x="183.04" y="-410.63" font-family="Times,serif" font-size="12.00">gemv (20/20)</text>
<text text-anchor="middle" x="183.04" y="-396.23" font-family="Times,serif" font-size="12.00">Num. Ranks: &#160;7&#45;4&#45;3</text>
<text text-anchor="middle" x="183.04" y="-381.83" font-family="Times,serif" font-size="12.00">Avg. FLOPs: 2.00e+05</text>
<text text-anchor="middle" x="183.04" y="-367.43" font-family="Times,serif" font-size="12.00">Avg. Perf: 15.96 F/ns</text>
</g>
<!-- gemv&#45;&gt;potrf -->
<g id="edge15" class="edge">
<title>gemv&#45;&gt;potrf</title>
<path fill="none" stroke="#000000" d="M209.17,-425.64C220.27,-439.24 233.33,-455.25 245.09,-469.65"/>
<polygon fill="#000000" stroke="#000000" points="242.8,-471.38 251.83,-476.91 248.22,-466.95 242.8,-471.38"/>
<text text-anchor="middle" x="244.04" y="-447.63" font-family="Times,serif" font-size="14.00">50</text>
</g>
<!-- trsm -->
<g id="node5" class="node">
<title>trsm</title>
<polygon fill="#ffffff" stroke="black" points="240.09,-186.31 111.99,-186.31 111.99,-120.71 240.09,-120.71 240.09,-186.31"/>
<text text-anchor="middle" x="176.04" y="-171.51" font-family="Times,serif" font-size="12.00">trsm (20/20)</text>
<text text-anchor="middle" x="176.04" y="-157.11" font-family="Times,serif" font-size="12.00">Num. Ranks: &#160;5&#45;2&#45;2</text>
<text text-anchor="middle" x="176.04" y="-142.71" font-family="Times,serif" font-size="12.00">Avg. FLOPs: 1.00e+08</text>
<text text-anchor="middle" x="176.04" y="-128.31" font-family="Times,serif" font-size="12.00">Avg. Perf: 90.46 F/ns</text>
</g>
<!-- gemv&#45;&gt;trsm -->
<g id="edge12" class="edge">
<title>gemv&#45;&gt;trsm</title>
<path fill="none" stroke="#000000" d="M182.1,-359.65C180.86,-317.84 178.7,-244.45 177.32,-197.72"/>
<polygon fill="#000000" stroke="#000000" points="180.79,-197.63 176.99,-187.74 173.79,-197.84 180.79,-197.63"/>
<text text-anchor="middle" x="188.04" y="-270.03" font-family="Times,serif" font-size="14.00">10</text>
</g>
<!-- syrk -->
<g id="node6" class="node">
<title>syrk</title>
<polygon fill="#ffffff" stroke="black" points="315.09,-65.6 186.99,-65.6 186.99,0 315.09,0 315.09,-65.6"/>
<text text-anchor="middle" x="251.04" y="-50.8" font-family="Times,serif" font-size="12.00">syrk (20/20)</text>
<text text-anchor="middle" x="251.04" y="-36.4" font-family="Times,serif" font-size="12.00">Num. Ranks: &#160;3&#45;2&#45;2</text>
<text text-anchor="middle" x="251.04" y="-22" font-family="Times,serif" font-size="12.00">Avg. FLOPs: 1.00e+07</text>
<text text-anchor="middle" x="251.04" y="-7.6" font-family="Times,serif" font-size="12.00">Avg. Perf: 64.99 F/ns</text>
</g>
<!-- gemv&#45;&gt;syrk -->
<g id="edge18" class="edge">
<title>gemv&#45;&gt;syrk</title>
<path fill="none" stroke="#000000" d="M158.02,-359.35C120.04,-306.12 56.9,-197.92 103.04,-118.4 119.25,-90.46 148.54,-70.97 176.8,-57.8"/>
<polygon fill="#000000" stroke="#000000" points="178.01,-60.65 185.74,-53.4 175.18,-54.25 178.01,-60.65"/>
<text text-anchor="middle" x="99.04" y="-210.83" font-family="Times,serif" font-size="14.00">30</text>
</g>
<!-- trsv -->
<g id="node7" class="node">
<title>trsv</title>
<polygon fill="#ffffff" stroke="black" points="340.09,-307.03 211.99,-307.03 211.99,-241.43 340.09,-241.43 340.09,-307.03"/>
<text text-anchor="middle" x="276.04" y="-292.23" font-family="Times,serif" font-size="12.00">trsv (20/20)</text>
<text text-anchor="middle" x="276.04" y="-277.83" font-family="Times,serif" font-size="12.00">Num. Ranks: &#160;1&#45;1&#45;1</text>
<text text-anchor="middle" x="276.04" y="-263.43" font-family="Times,serif" font-size="12.00">Avg. FLOPs: 4.42e+05</text>
<text text-anchor="middle" x="276.04" y="-249.03" font-family="Times,serif" font-size="12.00">Avg. Perf: 4.26 F/ns</text>
</g>
<!-- gemv&#45;&gt;trsv -->
<g id="edge10" class="edge">
<title>gemv&#45;&gt;trsv</title>
<path fill="none" stroke="#000000" d="M192.06,-359.62C196.32,-347.99 202.21,-335.22 210.04,-325.03 212.79,-321.44 215.87,-317.98 219.15,-314.67"/>
<polygon fill="#000000" stroke="#000000" points="221.18,-317.63 226.1,-308.24 216.4,-312.51 221.18,-317.63"/>
<text text-anchor="middle" x="220.54" y="-329.23" font-family="Times,serif" font-size="14.00">110</text>
</g>
<!-- transpose&#45;&gt;potrf -->
<g id="edge3" class="edge">
<title>transpose&#45;&gt;potrf</title>
<path fill="none" stroke="#000000" d="M232.42,-596.18C239.83,-582.52 248.15,-567.17 255.63,-553.36"/>
<polygon fill="#000000" stroke="#000000" points="258.97,-555.54 260.66,-545.09 252.82,-552.21 258.97,-555.54"/>
<text text-anchor="middle" x="258.04" y="-566.03" font-family="Times,serif" font-size="14.00">70</text>
</g>
<!-- potrf&#45;&gt;gemv -->
<g id="edge21" class="edge">
<title>potrf&#45;&gt;gemv</title>
<path fill="none" stroke="#000000" d="M224.41,-478C217.99,-472.64 211.98,-466.69 207.04,-460.23 201.58,-453.07 197.27,-444.57 193.92,-436.06"/>
<polygon fill="#000000" stroke="#000000" points="196.91,-435.04 190.28,-426.78 190.31,-437.37 196.91,-435.04"/>
<text text-anchor="middle" x="214.04" y="-447.63" font-family="Times,serif" font-size="14.00">60</text>
</g>
<!-- potrf&#45;&gt;trsm -->
<g id="edge4" class="edge">
<title>potrf&#45;&gt;trsm</title>
<path fill="none" stroke="#000000" d="M213.78,-493.94C177.43,-481.41 134.49,-460.13 110.04,-425.43 53.67,-345.41 35.95,-291.3 85.04,-206.63 89.63,-198.7 95.94,-191.88 103.1,-186.03"/>
<polygon fill="#000000" stroke="#000000" points="104.86,-188.34 110.85,-179.61 100.72,-182.7 104.86,-188.34"/>
<text text-anchor="middle" x="74.54" y="-329.23" font-family="Times,serif" font-size="14.00">100</text>
</g>
<!-- potrf&#45;&gt;trsv -->
<g id="edge8" class="edge">
<title>potrf&#45;&gt;trsv</title>
<path fill="none" stroke="#000000" d="M277.77,-477.87C277.41,-436.45 276.8,-364.31 276.41,-318.21"/>
<polygon fill="#000000" stroke="#000000" points="279.9,-318.34 276.31,-308.37 272.9,-318.4 279.9,-318.34"/>
<text text-anchor="middle" x="288.54" y="-388.43" font-family="Times,serif" font-size="14.00">240</text>
</g>
<!-- trsm&#45;&gt;gemv -->
<g id="edge17" class="edge">
<title>trsm&#45;&gt;gemv</title>
<path fill="none" stroke="#000000" d="M168.67,-186.71C162.58,-217.62 155.74,-265.59 161.04,-307.03 162.82,-320.92 166.17,-335.8 169.74,-349.14"/>
<polygon fill="#000000" stroke="#000000" points="166.56,-349.77 172.62,-358.46 173.3,-347.89 166.56,-349.77"/>
<text text-anchor="middle" x="168.04" y="-270.03" font-family="Times,serif" font-size="14.00">20</text>
</g>
<!-- trsm&#45;&gt;syrk -->
<g id="edge13" class="edge">
<title>trsm&#45;&gt;syrk</title>
<path fill="none" stroke="#000000" d="M196.34,-120.39C205.17,-106.4 215.64,-89.83 225.04,-74.96"/>
<polygon fill="#000000" stroke="#000000" points="228.35,-77.27 230.73,-66.95 222.43,-73.54 228.35,-77.27"/>
<text text-anchor="middle" x="228.54" y="-87.8" font-family="Times,serif" font-size="14.00">140</text>
</g>
<!-- trsm&#45;&gt;trsv -->
<g id="edge5" class="edge">
<title>trsm&#45;&gt;trsv</title>
<path fill="none" stroke="#000000" d="M188.64,-186.5C194.39,-198.79 201.95,-212.49 211.04,-223.43 213.95,-226.93 217.16,-230.34 220.53,-233.62"/>
<polygon fill="#000000" stroke="#000000" points="217.91,-235.88 227.66,-240.03 222.63,-230.71 217.91,-235.88"/>
<text text-anchor="middle" x="218.04" y="-210.83" font-family="Times,serif" font-size="14.00">40</text>
</g>
<!-- syrk&#45;&gt;gemv -->
<g id="edge20" class="edge">
<title>syrk&#45;&gt;gemv</title>
<path fill="none" stroke="#000000" d="M186.64,-49.51C162.24,-57.33 135.07,-68.44 113.04,-83.6 56.14,-122.77 39.61,-141 18.04,-206.63 -0.74,-263.77 -12.79,-294.27 24.04,-341.83 43.92,-367.5 76.95,-380.23 107.76,-386.44"/>
<polygon fill="#000000" stroke="#000000" points="107.08,-390.05 117.54,-388.37 108.31,-383.16 107.08,-390.05"/>
<text text-anchor="middle" x="25.04" y="-210.83" font-family="Times,serif" font-size="14.00">40</text>
</g>
<!-- syrk&#45;&gt;potrf -->
<g id="edge7" class="edge">
<title>syrk&#45;&gt;potrf</title>
<path fill="none" stroke="#000000" d="M315.34,-43.48C375.46,-56.6 456.04,-86.5 456.04,-152.51 456.04,-393.63 456.04,-393.63 456.04,-393.63 456.04,-445.94 401.53,-476 352.83,-492.41"/>
<polygon fill="#000000" stroke="#000000" points="352.01,-489.33 343.55,-495.71 354.15,-495.99 352.01,-489.33"/>
<text text-anchor="middle" x="466.54" y="-270.03" font-family="Times,serif" font-size="14.00">120</text>
</g>
<!-- syrk&#45;&gt;trsv -->
<g id="edge14" class="edge">
<title>syrk&#45;&gt;trsv</title>
<path fill="none" stroke="#000000" d="M267.5,-65.82C274.49,-81.27 281.78,-100.33 285.04,-118.4 291.81,-155.85 288.36,-199.14 283.91,-230.41"/>
<polygon fill="#000000" stroke="#000000" points="280.35,-229.52 282.31,-239.93 287.28,-230.57 280.35,-229.52"/>
<text text-anchor="middle" x="295.04" y="-149.31" font-family="Times,serif" font-size="14.00">40</text>
</g>
<!-- trsv&#45;&gt;gemv -->
<g id="edge9" class="edge">
<title>trsv&#45;&gt;gemv</title>
<path fill="none" stroke="#000000" d="M258.43,-307.51C251.69,-318.79 243.57,-331.26 235.04,-341.83 232.38,-345.12 229.51,-348.42 226.53,-351.66"/>
<polygon fill="#000000" stroke="#000000" points="224.36,-348.91 219.98,-358.56 229.42,-353.75 224.36,-348.91"/>
<text text-anchor="middle" x="254.04" y="-329.23" font-family="Times,serif" font-size="14.00">80</text>
</g>
<!-- trsv&#45;&gt;potrf -->
<g id="edge19" class="edge">
<title>trsv&#45;&gt;potrf</title>
<path fill="none" stroke="#000000" d="M288.82,-307.2C294.39,-322.8 300.27,-342 303.04,-359.83 307.53,-388.63 307.22,-396.57 303.04,-425.43 301.02,-439.42 297.2,-454.32 293.15,-467.66"/>
<polygon fill="#000000" stroke="#000000" points="289.57,-466.38 289.88,-476.97 296.24,-468.5 289.57,-466.38"/>
<text text-anchor="middle" x="313.04" y="-388.43" font-family="Times,serif" font-size="14.00">30</text>
</g>
<!-- trsv&#45;&gt;trsm -->
<g id="edge16" class="edge">
<title>trsv&#45;&gt;trsm</title>
<path fill="none" stroke="#000000" d="M252.55,-241.2C244.12,-230.06 234.37,-217.61 225.04,-206.63 221.7,-202.69 218.15,-198.66 214.55,-194.67"/>
<polygon fill="#000000" stroke="#000000" points="217.48,-192.59 208.14,-187.57 212.31,-197.31 217.48,-192.59"/>
<text text-anchor="middle" x="246.04" y="-210.83" font-family="Times,serif" font-size="14.00">90</text>
</g>
<!-- trsv&#45;&gt;syrk -->
<g id="edge6" class="edge">
<title>trsv&#45;&gt;syrk</title>
<path fill="none" stroke="#000000" d="M272.67,-240.94C268.24,-198.51 260.45,-123.88 255.52,-76.74"/>
<polygon fill="#000000" stroke="#000000" points="258.92,-76.54 254.4,-66.96 251.96,-77.27 258.92,-76.54"/>
<text text-anchor="middle" x="274.04" y="-149.31" font-family="Times,serif" font-size="14.00">30</text>
</g>
<!-- trsv&#45;&gt;trsv -->
<g id="edge11" class="edge">
<title>trsv&#45;&gt;trsv</title>
<path fill="none" stroke="#000000" d="M340.37,-284.5C350.88,-283.03 358.09,-279.6 358.09,-274.23 358.09,-270.95 355.41,-268.4 350.94,-266.57"/>
<polygon fill="#000000" stroke="#000000" points="351.92,-262.96 341.37,-263.96 350.24,-269.76 351.92,-262.96"/>
<text text-anchor="middle" x="368.59" y="-270.03" font-family="Times,serif" font-size="14.00">280</text>
</g>
<!-- &#9632; -->
<g id="node8" class="node">
<title>&#9632;</title>
<ellipse fill="none" stroke="black" cx="393.04" cy="-153.51" rx="31.11" ry="31.11"/>
<ellipse fill="none" stroke="black" cx="393.04" cy="-153.51" rx="35.11" ry="35.11"/>
<text text-anchor="middle" x="393.04" y="-144.51" font-family="Times,serif" font-size="30.00">■</text>
</g>
<!-- trsv&#45;&gt;&#9632; -->
<g id="edge22" class="edge">
<title>trsv&#45;&gt;&#9632;</title>
<path fill="none" stroke="#000000" d="M320.33,-241.16C327.18,-235.53 333.99,-229.52 340.04,-223.43 349.6,-213.81 358.98,-202.46 367.13,-191.77"/>
<polygon fill="#000000" stroke="#000000" points="370.49,-194.11 373.66,-184 364.88,-189.93 370.49,-194.11"/>
<text text-anchor="middle" x="364.54" y="-210.83" font-family="Times,serif" font-size="14.00">200</text>
</g>
</g>
</svg>
